<svg width="111" height="108" viewBox="0 0 111 108" fill="none" xmlns="http://www.w3.org/2000/svg">
<path d="M32.2785 10.1775C30.9703 10.2615 31.3853 11.8009 31.1646 12.6047C29.951 17.0547 27.8758 22.9704 27.2926 27.3836C27.0299 29.3801 30.4659 32.5271 25.748 32.7057C25.2068 31.2399 24.1403 29.2277 24.1666 27.6516C24.2191 24.1893 26.5886 17.3384 27.4817 13.6502C28.3276 10.1722 28.8635 5.80105 29.9773 2.50167C31.0911 -0.797711 34.1856 -0.844995 35.168 2.42812V32.8738C35.3099 33.6619 36.5025 33.8248 37.1277 34.3186C38.3571 35.2853 39.6916 37.3711 39.8649 38.9315C39.9543 39.751 39.5445 40.9331 39.7441 41.3902C40.0488 42.0837 49.264 47.3585 50.7298 48.2727C51.6019 48.8191 58.6946 53.8102 59.0466 53.4687C59.1622 52.9748 58.7681 52.8487 58.5212 52.5493C57.6964 51.5406 55.8838 49.8804 54.8593 48.8611C51.1501 45.1782 47.1835 41.6844 43.4375 37.9805C42.4551 35.8475 45.518 36.0261 46.8105 36.7038C50.982 40.7598 55.2744 44.6844 59.3198 48.8664C61.0693 50.6737 64.5788 53.9048 65.866 55.6963C66.6804 56.8311 66.9063 57.761 65.9921 58.9694C64.9098 60.4037 63.6174 59.9466 62.2777 59.2846C58.6053 57.4721 54.1553 54.0203 50.5722 51.819C46.9891 49.6177 43.1171 47.3743 39.3868 45.173C38.8615 44.863 38.4884 43.8753 37.9053 44.5372C37.4429 45.2623 38.2678 49.5178 38.3203 50.6999C38.9823 67.0655 39.4604 83.3995 40.1381 99.7914C40.2275 101.972 40.7003 104.341 40.6162 106.548C40.3956 107.43 39.8229 107.688 38.9718 107.788C36.2188 108.108 29.9825 108.029 27.1455 107.793C26.7462 107.761 26.2313 107.756 25.8898 107.541C25.2331 107.126 25.4065 103.332 25.4432 102.392C25.9266 88.7374 27.3609 75.1038 28.0754 61.465C28.254 58.029 28.1385 54.53 28.6008 51.1045L3.73978 59.9729C0.282778 60.9921 -1.33539 57.6139 1.32829 55.4599L25.5851 39.8299C26.5781 38.9157 26.4205 37.6075 27.0982 36.3624C28.0649 34.5866 30.3135 33.3677 32.2785 33.0104V10.1775ZM30.2925 37.3133C26.6674 41.9366 33.1663 45.7929 36.0927 42.2046C39.3028 38.2747 33.077 33.7617 30.2925 37.3133ZM29.867 46.8699C30.24 45.6563 29.0158 45.3936 28.3328 44.6949C27.6498 43.9961 27.2085 42.7299 26.1683 43.0189L9.18272 54.5247L29.867 46.8699ZM28.8635 104.641H36.8703C37.7424 103.842 37.0226 102.618 36.9911 101.635C36.4552 84.9442 36.077 68.1688 35.1628 51.509C35.0682 49.7648 34.4745 47.9154 34.6427 46.1239C32.4203 46.0556 32 45.7719 31.7583 48.0993C31.296 52.5598 31.4956 57.5089 31.2277 62.0008C30.5027 74.0268 29.2733 86.121 28.8582 98.2047C28.7847 100.343 28.937 102.508 28.8687 104.646L28.8635 104.641Z" fill="#FFC005"/>
<path d="M82.4052 46.6544C84.4437 46.4705 86.8657 46.9013 88.8464 46.6701C89.2299 46.6229 89.5189 46.6386 89.75 46.2656V40.229C89.75 39.3201 91.799 39.588 92.3769 40.0977V46.6596C94.9408 46.7384 97.8987 46.5651 100.116 47.9731C103.126 49.8802 103.583 54.1515 103.394 57.4194C103.61 57.6348 108.559 57.1777 109.515 57.4667C110.981 57.9133 110.187 60.041 109.567 60.041H103.399V67.9112H109.961L110.503 69.3403C110.534 69.6555 109.657 70.5329 109.567 70.5329H103.399V78.403H109.567C109.788 78.403 110.492 79.4853 110.482 79.8531C110.413 82.212 103.941 80.1158 103.258 81.5553C103.174 81.7287 103.452 83.9353 103.41 84.5815C102.932 91.6794 98.9389 93.1767 92.3769 93.0979L92.2508 99.3972C91.7833 100.353 89.4926 100.043 89.4926 99.0032V93.0979H82.4052V99.2658C82.4052 99.891 80.1461 100.979 79.4526 99.3289C79.0533 98.378 79.2424 96.1976 79.2372 95.0576C79.2372 94.2222 79.7941 93.4552 78.985 92.9613L71.9029 93.1032V97.695C71.9029 97.8211 72.1813 98.0995 72.1235 98.6669C71.8713 101.152 69.0133 100.033 69.0133 99.2658V93.2292C69.0133 92.5095 67.4109 93.0821 67.0431 93.0979C63.8751 93.2082 60.397 92.9088 58.2482 90.3502C57.8962 89.9299 56.6773 88.0858 56.6773 87.718V81.4187L56.2833 81.0247H49.8526C49.4954 80.4573 49.4691 78.403 50.2467 78.403H56.4146C56.6773 76.3646 56.9295 73.475 56.6878 71.4365C56.6406 71.053 56.6563 70.764 56.2833 70.5329H50.2467C49.4691 70.5329 49.4954 68.4734 49.8526 67.9112H56.2833C57.0346 67.9112 56.4199 65.899 56.4041 65.4314C56.3674 64.2651 56.9558 60.041 55.2325 60.041H49.8526C48.5602 57.1094 51.4918 57.0306 53.6459 57.4299C54.0137 57.4982 59.2254 60.6873 59.3042 61.013L59.2937 85.1069C59.8559 87.8861 62.052 90.0717 64.9363 90.2241C74.5508 89.7092 84.8115 90.8755 94.3524 90.2241C98.1141 89.9666 100.2 88.1331 100.515 84.3188C99.9424 74.8462 101.245 64.5488 100.515 55.176C100.294 52.3337 98.713 50.3005 95.9233 49.5335C86.4454 50.2743 75.549 48.5878 66.2393 49.5335C65.2988 49.628 64.4687 50.2585 63.6859 50.0273C63.3444 49.9275 61.1168 47.7104 61.3953 47.4477C63.8803 46.7437 66.4126 46.5388 69.008 46.6596C69.2549 46.418 68.6718 41.3323 69.1394 40.3603C69.7436 39.0994 71.8976 39.7246 71.8976 40.4917V46.2656C71.8976 46.3339 72.3967 46.8225 72.5859 46.8593L79.2582 46.5388L79.4946 46.0292C79.1426 44.5791 78.5804 39.3359 80.9394 39.5618C81.3019 39.5985 82.3947 40.6441 82.3947 40.7544V46.6596L82.4052 46.6544Z" fill="#FFC005"/>
<path d="M71.9072 78.6658C71.6813 78.0248 71.4396 77.7201 71.3661 76.9793C71.0509 73.9216 71.0246 66.0672 71.3766 63.0515C71.5184 61.8327 72.1384 61.2232 73.3468 61.0814C76.1733 60.7504 81.6951 60.9027 84.653 61.0761C86.4498 61.1812 88.131 60.9921 88.4199 63.0831C88.793 65.7835 88.7614 73.9426 88.4462 76.7061C88.3937 77.158 87.9996 78.6763 87.5268 78.6763H71.9125L71.9072 78.6658ZM85.2939 64.2336H74.2714V76.0442H85.2939V64.2336Z" fill="#FFC005"/>
</svg>
