<?xml version="1.0" encoding="UTF-8"?>
<svg id="Layer_2" data-name="Layer 2" xmlns="http://www.w3.org/2000/svg" viewBox="0 0 106.91 112.86">
  <defs>
  </defs>
  <g id="Layer_1-2" data-name="Layer 1">
    <g>
      <path d="M96.49,43.85c.27.31.26,1.64-.11,1.91-.58.41-1.92.16-2.68.32-5.04,1.08-6.1,2.78-11.84.84-1.29-.43-2.89-1.62-4.13-1.74s-4.65,1.62-4.55-.72c.05-1.28,3-1.81,4.03-1.82,3.87-.06,6.08,3.14,11.06,2.46,1.69-.23,6.93-2.71,8.22-1.25Z" fill="currentColor"/>
      <path d="M88.7,33.27c1.97-.23,6.28.93,3.76,3.23-1.11.32-2.45-.96-3.77-.74-2.01.34-3.85,3.27-6.75,3.57-2.63.27-3.57-1.01-5.7-1.27-1.47-.18-3.37.8-2.66-2.08,2.48-1.98,5.69,1.05,8,.79s4.22-3.16,7.11-3.5Z" fill="currentColor"/>
      <g>
        <path d="M63.46,31.49c1.48-.09,3.41.43,4.42,1.56,2.39,2.68,1.2,11.31-.41,14.35-1.24,2.36-3.05,3.38-5.73,3.46-1.4,4.19-3.96,7.92-7.37,10.72-1.01.83-3.61,2.09-4.09,2.87-.52.86-.43,2.97-.16,3.9.44,1.51,3.14,1.71,2.71,5.32-.38,3.1-3.54,4.44-5.08,6.61-1.2,6.19-1.35,12.83-2.45,18.99-.55,3.08-2.05,5.94-5.46,6.52-2.2.37-7.88.25-10.25.08-1.59-.12-2.85-.42-4.02-1.55l-1.25-1.81-8.48,9.9c-.44.48-1.11.56-1.69.27-.54-.55-.72-1.26-.24-1.91l9.99-11.74c.15-.69-.63-.31-1.11-.55-.86-.44-.56-1.35-.01-1.95s4.82-2.16,6.04-2.87c2.1-1.21,5.26-3.59,6.92-5.33,1.88-1.96,2.96-4.67,4.85-6.56,2.17-2.18,9.45-5.33,9.75-8.37.12-1.19-1.08-2.76-2.33-2.62-4.71,1.69-9.31,4.39-14.16,5.64-2.31.6-4.56,1.33-6.71-.12-3.41-2.3-.93-7.4-.2-10.41.09-.38,0-.51-.4-.4-1.11.34-4.59,2.77-5.57,3.62-4.09,3.57-5.49,11.84-7.89,16.89s-7.43,9.18-11.03,13.75c-.76.61-2.18.08-2.03-.95s6.79-7.97,8-9.52c4.03-5.15,4.59-10.28,7.12-15.99,2.16-4.89,5.12-7.39,9.87-9.76v-.41c-2.74-2.88-4.85-6.56-5.3-10.58.72-5.8.93-11.74,1.71-17.52.63-4.63,1.89-8.23,7.07-9.08,9.24.61,19.56-.83,28.67,0,3.57.33,5.62,1.97,6.3,5.53ZM28.27,28.53c-2.23.69-3.44,2.16-3.97,4.38-1.38,5.71-.91,12.69-2.08,18.53.28,10.11,11.11,16.68,19.49,9.74,4.32-3.58,6.16-6.45,6.92-12.01.56-4.07,1.22-9.28,1.42-13.33.14-2.86.13-6.56-3.5-7.07-5.35-.76-12.73.21-18.29-.24ZM57.72,28.47c-1.9-.32-4.55.23-6.54,0,.39,1.09,1.14,2.09,1.33,3.27.6,3.88-.95,15.86-1.64,20.23s-4.01,8.21-7.2,10.89c-4.29,3.61-8.74,4.34-14.21,3.31-.58,1.6-2.51,6.82-.99,7.98,2.81,2.16,15.68-4.9,19.05-5.92.23-.87-.21-1.63-.17-2.52.2-4.14,3.45-4.33,6.07-6.49,2.25-1.86,5.24-5.76,5.82-8.66.82-4.1,1.56-12.14,1.71-16.39.09-2.55-.15-5.21-3.21-5.72ZM62.03,48.23c2.28.08,3.46-2.32,3.97-4.24.56-2.07,1-6.29.35-8.31-.35-1.11-1.75-1.7-2.8-1.94l-1.53,14.48ZM45.05,81.65c-3.08.91-3.71,3.48-5.3,5.7-2.11,2.96-5.87,6.09-8.93,8.06-.69.45-3.95,1.99-4.09,2.18-.27.37-.38,2.27-.32,2.83.17,1.46,1.07,2.78,2.62,2.96,2.17.25,7.85.24,10.03,0s3.17-1.9,3.69-3.83l2.3-17.89Z" fill="currentColor"/>
        <path d="M97.71,112.51c-.93-7.48,3.09-13.98,4.84-20.84,3.85-15.14.84-36.37-2.46-51.56-1.83-8.45-7.97-31.65-14.97-36.54-3.32-2.32-4.36-.78-4.96,2.53-1.31,7.31-1.48,15.15-2.84,22.49,0,1.06-1.87,1.44-2.17.54l2.83-25.21c1.14-4.72,5.57-4.8,8.96-2.16,6.57,5.12,12.2,23.54,14.27,31.67,4.56,17.93,8.32,41.95,3.34,59.98-1.48,5.36-3.69,9.29-4.37,15.12-.22,1.89.76,5.39-2.47,3.99Z" fill="currentColor"/>
        <path d="M73.45,68.56h13.23c.35,0,.66.87.71,1.24.56,4.14-.07,10.61-.03,15.06.04,4.04.78,8.47.3,12.52-.06.46-.55,1.8-.98,1.8h-12.95c-.03,1.7.24,3.6.76,5.23.59,1.86,3.8,6.26,3.01,7.86-.39.79-1.81.79-2.22-.01-.62-2.49-2.34-4.48-3.14-6.89-.65-1.98-1.06-4.8-1.19-6.88-.64-10.53-.5-24.5-.01-35.09.1-2.12.65-9.59,1.34-11.19.5-1.15,1.56-1.15,2.25-.17l-1.07,16.52ZM85.14,71.06h-11.69v8.07h4.04c.88,0,.88,2.51,0,2.51h-4.04v4.45c2,.04,6.13-.67,4.32,2.51h-4.32v7.66l.42.42h10.86l.42-.42v-25.2Z" fill="currentColor"/>
        <path d="M26.25,52.69c-.14-.02-.66-.3-.71-.47.01-.72-.03-1.45.01-2.17.23-4.21.84-11.57,1.69-15.57.11-.52.26-.92.68-1.27h17.54l.7,1.52c-.97,5.3-.87,10.82-1.7,16.13-.07.43-.53,1.83-.95,1.83h-17.26ZM43.38,35.7h-13.92l-1.39,14.48h13.92l1.39-14.48Z" fill="currentColor"/>
      </g>
    </g>
  </g>
</svg>
