<?xml version="1.0" encoding="UTF-8"?>
<svg id="Layer_2" data-name="Layer 2" xmlns="http://www.w3.org/2000/svg" viewBox="0 0 262.16 197.92">
  <defs>
  </defs>
  <g id="Layer_1-2" data-name="Layer 1">
    <g>
      <path d="M7.09,114.36h158.5c.22,0,2.44,1.07,2.56,1.64.34,1.21-.48,4.36-1.56,4.36H7.09c-.34,5.69-.95,23,7.5,23h131c.51,0,2.52,2.41,2.53,3.5.04,5.3-13.8,3.83-17.02,2.5l1.28,13.21,2.7,8.78,2-4.5,43.06-43.94c1.48-2.53-.46-14.95.07-19.93,1.9-17.95,17.65-32.12,35.39-33.61,4.21-.35,24.54.07,19.54,7.53-3.29,4.91-20.77,18.46-21.85,22.16-.6,2.03-.56,8.36.31,10.28.28.61,8.89,9.22,9.5,9.5,2.08.94,7.88.94,9.96,0,4.93-2.23,16.05-18.66,21.03-20.97,8.01-3.71,8.19,10.14,8.03,15.03-.79,24.86-21.75,39.74-45.44,38.35-2.69-.16-5.46-2.45-7.94-.8-12.49,11.87-24.37,24.35-36.73,36.36-1.54,1.5-2.33,3.63-3.91,5.09-12.85,11.81-33.85,5.49-35.04-12.54-3.54,1.75-6.11.07-9.45-.05-9.61-.32-19.57-.14-28.99,0-5.97.09-26.63,2.77-30.13.13-2.82-2.12-.23-6.08,1.08-6.08h22.5c.06-5.81,2.34-14.01,2.09-19.5-.08-1.8.09-3.41-1.59-4.5H11.59c-1.15,0-5.92-3.71-6.94-5.06-2.12-2.81-3.29-6.93-3.6-10.4-3.33-37.2,2.58-79.32.04-117.04C2,8.7,7.12,2.65,15.55,2.33c60.32,3.84,125.35-5.69,185.07-1,5.91.46,13.17,2.15,16.33,7.67.4.69,2.13,5.5,2.13,5.87v42c0,1.98-6,1.99-6,0V17.86c0-.32-1.75-5.26-2.12-5.88-2.13-3.64-8.42-4.26-12.4-4.6-36.71-3.13-78.89,1.5-115.94,1.03-20.46,2.11-47.29-3-66.98.02-4.52.69-8.56,4.93-8.56,9.44v96.5ZM227.08,75.37c-15.86-1.84-33.6,5.57-39.18,21.31-3.35,9.45-1.56,18.08-.28,27.65l-45.06,45.02c-10.98,13.35,5.99,30.11,19.44,19.44l45.11-44.91c3.08-1.42,10.92,1.65,15.49,1.57,20.65-.34,36.39-19.79,33.48-40.07-1.73-.45-2,.72-3,1.49-4.26,3.27-15.99,17.81-19.52,18.48-2.16.41-10.6.35-12.46-.5-1.55-.7-13.02-11.62-13.57-13.43-.79-2.56-.95-13.78.07-16.04,2.03-4.47,14.6-12.59,17.99-17.01.77-1,1.94-1.26,1.49-3ZM123.59,149.36h-27.5c.44,7.88-1.42,15.72-2.02,23.49-.24,3.14,1.1.51,1.52.51h32c.08,0,2.21,2.45,1.48-.48-1.79-7.16-4.5-14.24-4.14-21.87l-1.35-1.65Z" fill="currentColor"/>
      <path d="M159.09,53.36l-7.3,1.06c-2.4-9.79-24.74-7.01-19.22,1.96,3.46,5.63,24.26,1.71,27.84,14.16,6.42,22.31-38.51,25.4-37.33,2.83l7-1.01c-.71,13.49,27.43,12.18,21.51,0-3.27-6.73-28.87-1.08-27.56-19.48,1.14-16,33.46-15.36,35.06.48Z" fill="currentColor"/>
      <path d="M85.97,41.48l17.11,45.87-8.04-.45-4.59-10.41-19.25-.02-3.21,10.78-7.9.09,16.11-45.88h9.77ZM88.09,69.36c-2-6.25-3.91-13.94-7.99-19l-6.01,19h14Z" fill="currentColor"/>
      <polygon points="116.09 41.36 116.09 88.36 109.09 87.36 109.09 41.36 116.09 41.36" fill="currentColor"/>
    </g>
  </g>
</svg>
