<svg width="54" height="54" viewBox="0 0 54 54" fill="none" xmlns="http://www.w3.org/2000/svg">
<g opacity="0.3">
<rect x="-1" y="1" width="52" height="52" rx="26" transform="matrix(-1 0 0 1 52 0)" stroke="white" stroke-width="2"/>
<path d="M17.7494 26.2494C17.5515 26.4491 17.4404 26.719 17.4404 27.0002C17.4404 27.2814 17.5515 27.5513 17.7494 27.751L24.8328 34.8344C24.93 34.9387 25.0473 35.0225 25.1777 35.0805C25.308 35.1386 25.4487 35.1698 25.5913 35.1724C25.734 35.1749 25.8757 35.1486 26.008 35.0952C26.1403 35.0418 26.2605 34.9622 26.3614 34.8613C26.4623 34.7604 26.5418 34.6402 26.5953 34.5079C26.6487 34.3756 26.6749 34.2339 26.6724 34.0913C26.6699 33.9486 26.6387 33.8079 26.5806 33.6776C26.5225 33.5473 26.4388 33.43 26.3344 33.3327L21.0644 28.0627H35.5003C35.782 28.0627 36.0523 27.9507 36.2516 27.7515C36.4508 27.5522 36.5628 27.282 36.5628 27.0002C36.5628 26.7184 36.4508 26.4481 36.2516 26.2489C36.0523 26.0496 35.782 25.9377 35.5003 25.9377H21.0644L26.3344 20.6677C26.5221 20.4663 26.6243 20.1999 26.6194 19.9246C26.6146 19.6494 26.5031 19.3867 26.3084 19.1921C26.1137 18.9974 25.8511 18.8859 25.5758 18.881C25.3006 18.8762 25.0342 18.9783 24.8328 19.166L17.7494 26.2494Z" fill="white"/>
</g>
</svg>
