<svg width="54" height="54" viewBox="0 0 54 54" fill="none" xmlns="http://www.w3.org/2000/svg">
<rect x="1" y="1" width="52" height="52" rx="26" stroke="white" stroke-width="2"/>
<path d="M36.2506 26.2494C36.4485 26.4491 36.5596 26.719 36.5596 27.0002C36.5596 27.2814 36.4485 27.5513 36.2506 27.751L29.1672 34.8344C29.07 34.9387 28.9527 35.0225 28.8223 35.0805C28.692 35.1386 28.5513 35.1698 28.4087 35.1724C28.266 35.1749 28.1243 35.1486 27.992 35.0952C27.8597 35.0418 27.7395 34.9622 27.6386 34.8613C27.5377 34.7604 27.4582 34.6402 27.4047 34.5079C27.3513 34.3756 27.3251 34.2339 27.3276 34.0913C27.3301 33.9486 27.3613 33.8079 27.4194 33.6776C27.4775 33.5473 27.5612 33.43 27.6656 33.3327L32.9356 28.0627H18.4997C18.218 28.0627 17.9477 27.9507 17.7484 27.7515C17.5492 27.5522 17.4372 27.282 17.4372 27.0002C17.4372 26.7184 17.5492 26.4481 17.7484 26.2489C17.9477 26.0496 18.218 25.9377 18.4997 25.9377H32.9356L27.6656 20.6677C27.4779 20.4663 27.3757 20.1999 27.3806 19.9246C27.3854 19.6494 27.4969 19.3867 27.6916 19.1921C27.8863 18.9974 28.1489 18.8859 28.4242 18.881C28.6994 18.8762 28.9658 18.9783 29.1672 19.166L36.2506 26.2494Z" fill="white"/>
</svg>
