<svg xmlns="http://www.w3.org/2000/svg" xmlns:xlink="http://www.w3.org/1999/xlink" id="TEXTS" x="0px" y="0px" viewBox="0 0 600 149.9" style="enable-background:new 0 0 600 149.9;" xml:space="preserve"><style type="text/css">	.st0{fill:url(#SVGID_1_);}	.st1{fill:url(#SVGID_00000070812177184324763580000005350785611846917049_);}	.st2{fill:url(#SVGID_00000070817474099755804140000003289026175263081145_);}	.st3{fill:url(#SVGID_00000103233806281939158080000009451445810759221417_);}	.st4{fill:url(#SVGID_00000026879801512911377660000011808319386415192199_);}	.st5{fill:url(#SVGID_00000100357391676030053070000002674025765353094566_);}	.st6{fill:url(#SVGID_00000138539485595868453290000008269931733306800818_);}	.st7{fill:url(#SVGID_00000114036804284582243080000006988276733663618983_);}	.st8{fill:url(#SVGID_00000060732418737120028370000002259163226515313327_);}	.st9{fill:url(#SVGID_00000133496856412382464120000014303141082727964085_);}</style><g>	<linearGradient id="SVGID_1_" gradientUnits="userSpaceOnUse" x1="153.3538" y1="52.231" x2="236.4171" y2="105.0892">		<stop offset="0" style="stop-color:#A7D411"></stop>		<stop offset="1" style="stop-color:#32742E"></stop>	</linearGradient>	<path class="st0" d="M221.7,99.6c0-22.7-24.1-22.1-27.3-22.1H188c0-2.8,1.6-5.2,3.7-5.2H205c6.4,0,14.5-5.4,14.5-19.8  c0-15.2-7-17.9-16.7-17.9h-23.3v78.3c-6.4,0-11.6-7.3-11.6-16.5v-67h36.5c23.8,0,26.5,17.6,26.5,22.6c0,15-6.9,20.5-13.3,23.7  c7.6,2.5,16.7,8.3,16.7,24.6c0,6.2,0,23.1-30,23.1h-36.5c0-3.2,1.8-5.8,4.1-5.8h32.5C204.4,117.5,221.7,118.6,221.7,99.6z"></path>			<linearGradient id="SVGID_00000103257079471411715310000004684585508504761004_" gradientUnits="userSpaceOnUse" x1="225.8856" y1="62.7717" x2="272.2936" y2="92.3039">		<stop offset="0" style="stop-color:#A7D411"></stop>		<stop offset="1" style="stop-color:#32742E"></stop>	</linearGradient>	<path style="fill:url(#SVGID_00000103257079471411715310000004684585508504761004_);" d="M252.6,123.3H241v-78  c0-9,5.2-16.3,11.6-16.3V123.3z"></path>			<linearGradient id="SVGID_00000164513467487641033550000009716808752588144783_" gradientUnits="userSpaceOnUse" x1="261.6725" y1="54.5994" x2="339.158" y2="103.9082">		<stop offset="0" style="stop-color:#A7D411"></stop>		<stop offset="1" style="stop-color:#32742E"></stop>	</linearGradient>	<path style="fill:url(#SVGID_00000164513467487641033550000009716808752588144783_);" d="M259.4,75.5c0-35.5,23.3-47.5,45-47.5  c21.6,0,40.7,10,40.7,47.5c0,34.3-19.1,47.8-40.7,47.8h-33.9c0-3,1.7-5.4,3.8-5.4h29.8c18.5,0,27.9-17.1,27.9-42.4  c0-33.9-13.4-42.1-27.7-42.1c-14.5,0-31.8,10-31.8,42.1c0,21.5,5.4,30,13.5,37.4h-0.1C268.9,112.9,259.4,100,259.4,75.5z"></path></g><g>			<linearGradient id="SVGID_00000014618584189852627760000000883374324449147777_" gradientUnits="userSpaceOnUse" x1="360.9238" y1="85.5069" x2="419.5344" y2="85.5069">		<stop offset="0" style="stop-color:#36BAD8"></stop>		<stop offset="1" style="stop-color:#525FE0"></stop>	</linearGradient>	<path style="fill:url(#SVGID_00000014618584189852627760000000883374324449147777_);" d="M412.5,96.8l7,10.2V122l-10.2-13.3  c-12.6-18.5-27.6-33.3-44.2-43.6l-0.9-0.5v57.7h-3.3V48.7l9.3,6C386.1,64.8,400.4,79.1,412.5,96.8z M419.5,49.6v51.3  c-2.4-4.8-3.7-10.7-3.7-16.5V54.7C415.9,51.9,417.5,49.6,419.5,49.6z"></path>			<linearGradient id="SVGID_00000129201128265017288180000015117012786058378883_" gradientUnits="userSpaceOnUse" x1="425.0408" y1="85.682" x2="480.0616" y2="85.682">		<stop offset="0" style="stop-color:#36BAD8"></stop>		<stop offset="1" style="stop-color:#525FE0"></stop>	</linearGradient>	<path style="fill:url(#SVGID_00000129201128265017288180000015117012786058378883_);" d="M480.1,122.3h-10l-6.5-17.5h-22.5  c0.7-2.5,2.4-3.9,4.2-3.9h16.6l-12.2-34.7l-20.8,56.1H425l23-60.7l-4.4-12.5h10L480.1,122.3z"></path>			<linearGradient id="SVGID_00000010308853056406297020000013233827412181740929_" gradientUnits="userSpaceOnUse" x1="484.0197" y1="85.682" x2="521.9584" y2="85.682">		<stop offset="0" style="stop-color:#36BAD8"></stop>		<stop offset="1" style="stop-color:#525FE0"></stop>	</linearGradient>	<path style="fill:url(#SVGID_00000010308853056406297020000013233827412181740929_);" d="M484,61.7c0-7,4-12.7,9-12.7v68h21.2  c3,0,5.9,2,7.8,5.3H484V61.7z"></path>			<linearGradient id="SVGID_00000176033798340484638780000009206815733229715879_" gradientUnits="userSpaceOnUse" x1="525.98" y1="85.682" x2="534.9544" y2="85.682">		<stop offset="0" style="stop-color:#36BAD8"></stop>		<stop offset="1" style="stop-color:#525FE0"></stop>	</linearGradient>	<path style="fill:url(#SVGID_00000176033798340484638780000009206815733229715879_);" d="M535,122.3h-9V61.7c0-7,4-12.7,9-12.7  V122.3z"></path>			<linearGradient id="SVGID_00000031887493303425946950000002352619803165125763_" gradientUnits="userSpaceOnUse" x1="539.2852" y1="85.0256" x2="600" y2="85.0256">		<stop offset="0" style="stop-color:#36BAD8"></stop>		<stop offset="1" style="stop-color:#525FE0"></stop>	</linearGradient>	<path style="fill:url(#SVGID_00000031887493303425946950000002352619803165125763_);" d="M600,101c0,17.8-17,21.4-28.7,21.4  c-13.4,0-20.7-3.5-30-13v-7.3c6.9,10.7,19.5,16.7,30.6,16.7c6,0,20.1-4.5,20.1-14.2c0-20.2-52.8-6.5-52.8-37.5  c0-16.6,21.2-19.4,31.4-19.4c12.8,0,22,5.8,28,13.7v7.1c-5.3-8.8-15.6-15.6-24.8-16.4c-9.3-0.8-25.4,1.6-25.4,11.4  C548.4,84.2,600,73,600,101z"></path></g><g>			<linearGradient id="SVGID_00000026864500574204350570000015325918474308327312_" gradientUnits="userSpaceOnUse" x1="2.5378" y1="47.0835" x2="133.7768" y2="47.0835">		<stop offset="0" style="stop-color:#36BAD8"></stop>		<stop offset="1" style="stop-color:#525FE0"></stop>	</linearGradient>	<path style="fill:url(#SVGID_00000026864500574204350570000015325918474308327312_);" d="M132.7,36.2c-2-3.2-4.3-5-7.7-7L79.8,3.1  c-7.2-4.1-16-4.1-23.2,0L11.3,29.2C7.7,31.3,3,35.1,2.6,39.9C1.7,51.3,16.4,58.5,26.2,63.7c16.9,9,27.9,14.2,36.1,22.7  c1.8,1.9,4.7,5.2,5.8,7.8c1.1-2.6,4-5.9,5.8-7.8c8.3-8.5,19.2-13.7,36.1-22.7c9.7-5.1,23.9-11.7,23.6-23.8  C133.8,39,133.3,37.2,132.7,36.2z M68.2,67.9c-7.9,0-14.3-6.4-14.3-14.3s6.4-14.3,14.3-14.3c7.9,0,14.3,6.4,14.3,14.3  S76.1,67.9,68.2,67.9z"></path>			<linearGradient id="SVGID_00000058586646987571632780000013264415623962657682_" gradientUnits="userSpaceOnUse" x1="84.1251" y1="30.6484" x2="40.5696" y2="161.9274">		<stop offset="0" style="stop-color:#A7D411"></stop>		<stop offset="1" style="stop-color:#32742E"></stop>	</linearGradient>	<path style="fill:url(#SVGID_00000058586646987571632780000013264415623962657682_);" d="M110.2,71.2c-20.1,10.7-34.3,15.7-39.7,33  c-0.7,2.1-1.5,4.3-2.3,8.5c-0.8-4.2-1.6-6.4-2.3-8.5C60.4,87,46.2,82,26.1,71.3C5.2,60.2,0.8,54.6,0,52.3v49.3  c0,8.2,4.4,15.9,11.6,20l45.2,26.1c1.6,0.9,3.1,1.7,4.7,2.2c-0.5-1.9-1.2-4-2-6.2c-14.1-39.6-39.1-49.3-39.1-49.3  s11.6,0.9,28.3,18.1c8.1,8.3,14.4,18.3,19.4,28.7c0,0,11.1-20.1,19.5-28.7c16.6-17.2,28.3-18.1,28.3-18.1s-25,9.7-39.1,49.3  c-0.8,2.2-1.4,4.2-2,6.2c1.6-0.5,3.1-1.2,4.7-2.2l45.2-26.1c7.1-4.1,11.6-11.8,11.6-20V52.2C135.5,54.6,131.1,60.2,110.2,71.2z"></path></g></svg>