<svg xmlns="http://www.w3.org/2000/svg" width="183" height="21" viewBox="0 0 183 21">
  <g fill="none" fill-rule="evenodd">
    <path fill="#101517" d="M91.5 11.0546601L94.7170266 11.0546601C94.7320291 12.4297781 95.1801025 12.5377979 96.1077543 12.5377979L100.048399 12.5377979C100.730261 12.5377979 101.425125 12.4491211 101.425125 11.4467973 101.425125 10.3208787 101.049063 10.2507914 96.9043847 10.2507914 92.0658426 10.2507914 91.5145024 9.53534828 91.5145024 6.35202819 91.5145024 4.01000695 91.689531 2.20481928 95.7449449 2.20481928L100.23768 2.20481928C103.946038 2.20481928 104.293844 3.76030523 104.293844 6.03173675L104.293844 6.44321705 101.078068 6.44321705C101.078068 5.49414955 100.990054 5.10000268 99.5125617 5.10000268L95.9482282 5.10000268C95.2246097 5.10000268 94.7320291 5.40622641 94.7320291 6.10132164 94.7320291 7.22899871 95.1215929 7.26467039 98.5706575 7.2455785 103.569476 7.22899871 104.728916 7.60304887 104.728916 11.375454 104.728916 14.8607273 103.772509 15.4337349 99.4980593 15.4337349L95.6001712 15.4337349C92.6734421 15.4337349 91.5 14.753461 91.5 11.9482105L91.5 11.0546601M111.495989 10.2441073L115.558434 10.2441073 113.498579 5.2735066 111.495989 10.2441073zM111.438229 2.20481928L115.573244 2.20481928 121.26506 15.4337349 117.732575 15.4337349 116.745473 13.0950516 110.30969 13.0950516 109.379608 15.4337349 105.831325 15.4337349 111.438229 2.20481928z"/>
    <polyline fill="#101517" points="122.367 2.205 133.392 2.205 133.392 5.383 125.605 5.383 125.605 7.851 133.027 7.851 133.027 10.92 125.605 10.92 125.605 15.434 122.367 15.434 122.367 2.205"/>
    <polyline fill="#101517" points="135.596 2.205 138.678 2.205 140.864 11.925 140.893 11.925 143.504 2.205 146.429 2.205 149.042 11.925 149.07 11.925 151.258 2.205 154.337 2.205 151.001 15.434 147.381 15.434 144.981 6.698 144.952 6.698 142.553 15.434 138.933 15.434 135.596 2.205"/>
    <path fill="#101517" d="M160.002663,10.2441073 L164.064549,10.2441073 L162.004727,5.2735066 L160.002663,10.2441073 Z M159.945398,2.20481928 L164.078866,2.20481928 L169.771084,15.4337349 L166.239396,15.4337349 L165.252063,13.0950516 L158.816136,13.0950516 L157.886069,15.4337349 L154.337349,15.4337349 L159.945398,2.20481928 Z"/>
    <g transform="translate(77.169)">
      <polyline fill="#101517" points="96.02 11.202 90.137 2.727 94.069 2.727 97.648 8.042 101.228 2.727 105.161 2.727 99.278 11.202 99.278 15.729 96.02 15.729 96.02 11.202"/>
      <polyline fill="#EAA22E" points="3.735 19.188 9.152 9.839 3.602 .22 .979 .22 6.519 9.824 .075 20.946 105.579 20.946 105.579 19.188 3.735 19.188"/>
    </g>
    <path fill="#7D292B" d="M10.4314457 13.5634555C10.2075687 13.6455668 10.074467 13.6663513 9.3732873 13.6663513L3.23596832 13.6663513 3.23596832 11.1468144 9.28890083 11.1468144C10.0534369 11.1468144 10.1892007 11.1675989 10.3971055 11.2494537 10.7831004 11.416499 10.9949983 11.8342408 10.9949983 12.4267258 10.9949983 13.0002226 10.7897555 13.4146285 10.4314457 13.5634555zM3.23596832 6.1770222L8.92020914 6.1770222C9.55909726 6.1770222 9.74650444 6.19498407 9.97650417 6.27940485 10.368888 6.4490162 10.5924988 6.86342215 10.5924988 7.41664768 10.5924988 7.87929407 10.4263879 8.25572351 10.1370248 8.44945508 9.90037 8.57980692 9.64694438 8.61675705 9.00406321 8.61675705L3.23596832 8.61675705 3.23596832 6.1770222zM12.3510383 9.81353064L12.1678904 9.77247494 12.3510383 9.73064945C13.3929584 9.49457919 13.8782471 8.59443301 13.8782471 6.8978063 13.8782471 5.23325434 13.5146133 4.33002899 12.6225658 3.77988264 12.0345225 3.43989014 11.3163058 3.30722892 10.0616892 3.30722892L0 3.30722892 0 16.5361446 10.531272 16.5361446C11.803458 16.5361446 12.5357835 16.4050229 13.0594055 16.0837621 13.9272286 15.5384911 14.3313253 14.5031177 14.3313253 12.8259925 14.3313253 10.9061254 13.8313953 10.1458252 12.3510383 9.81353064zM36.3857176 11.4711544L36.4098542 11.4118803 38.6299286 6.0133126 38.6667429 6.10260875 40.905834 11.4711544 36.3857176 11.4711544zM36.5958762 3.30722892L30.8674699 16.5361446 34.3141196 16.5361446 35.2981104 14.1610725 41.9612592 14.1610725 41.9719866 14.1859625 42.9759693 16.5361446 46.3012048 16.5361446 40.7254194 3.30722892 36.5958762 3.30722892z"/>
    <polyline fill="#7D292B" points="58.869 13.53 58.792 13.408 52.434 3.307 47.404 3.307 47.404 16.536 50.396 16.536 50.316 6.412 56.657 16.536 61.735 16.536 61.735 3.307 58.79 3.307 58.869 13.53"/>
    <path fill="#7D292B" d="M74.0293791 13.2847899C73.6354515 13.4472165 73.5626633 13.4472165 72.6733149 13.4472165L67.135775 13.4472165 67.135775 6.53625956 72.7376453 6.53625956C74.6465408 6.53625956 75.0584091 7.14285749 75.0584091 9.95183703 75.0584091 12.2632728 74.8374816 12.9796947 74.0293791 13.2847899zM78.2064976 7.75817977C78.092702 6.05539469 77.8546027 5.24043909 77.2628143 4.53017552 76.531857 3.62720676 75.4702774 3.30722892 73.2064114 3.30722892L63.939759 3.30722892 63.939759 16.5361446 73.6428841 16.5361446C74.7995497 16.5361446 75.2801055 16.4935493 75.8785575 16.3377942 77.0393239 16.0627211 77.9353361 14.8264314 78.1096176 13.2601565 78.2047036 12.5173049 78.2710843 11.1486106 78.2710843 9.93182237 78.2710843 9.28442534 78.2385347 8.37350204 78.2064976 7.75817977zM25.0515354 8.77734359C24.3850416 8.9026056 23.7221659 8.97293714 23.0817736 8.9867981 22.4695503 8.99988901 21.8513831 9.00373928 21.2378677 9.00373928 20.811198 9.00373928 20.3868541 9.0016858 19.9681957 8.99988901 19.5753804 8.9983489 18.4879024 8.99757885 18.4879024 8.99757885L18.4879024 5.82855258 18.5305435 5.82855258C19.0321583 5.82855258 19.531964 5.82752585 20.0299607 5.82624242 21.386724 5.82264884 22.789488 5.81956863 24.1633077 5.84241354 24.5829998 5.84934402 25.0150966 5.95817823 25.401968 6.14145093 25.8787734 6.36758994 26.2379926 6.91612461 26.1832052 7.47518336 26.1136872 8.18055223 25.7012312 8.65541847 25.0515354 8.77734359zM25.7955586 11.2774502L25.8596495 11.2620491C25.9095267 11.2499849 25.9544937 11.2389475 25.9961011 11.2284234 26.0738889 11.2094288 26.1403056 11.193001 26.2077562 11.1788833 27.3195268 10.9442737 28.1545176 10.3687872 28.6892116 9.46808146 29.2926482 8.45238107 29.2523329 7.36301225 29.1187241 6.33704449 28.965216 5.15475589 28.3395543 4.33721591 27.2060755 3.83899138 26.5093453 3.53225346 25.7149281 3.37670268 24.7783738 3.3630984 22.6664748 3.33280964 20.518654 3.32562247 18.4416432 3.31869199 17.5381681 3.31561178 16.634693 3.31227488 15.7309594 3.30739788 15.6430928 3.30662782 15.5043153 3.3086813 15.4355727 3.30970804 15.4345389 3.37747273 15.4324715 3.51325881 15.4347974 3.59488447 15.439966 3.77097 15.4394491 3.9493657 15.4391907 4.12185765L15.4353142 16.0715457C15.4353142 16.248658 15.4402244 16.4429681 15.4422919 16.5258772L18.4618008 16.5304975C18.4636099 16.4424548 18.4674863 16.234797 18.4664526 16.119289 18.4553401 15.0933213 18.4563738 14.0501556 18.4574075 13.0413857 18.4576659 12.6620061 18.4581828 12.2823698 18.4579244 11.9029902L18.4576659 11.6540063 18.4579244 11.448402 22.1733883 11.4527657C22.1733883 11.4527657 23.6482546 13.4407867 24.2540171 14.2324016 24.7600251 14.8936208 25.2662917 15.55561 25.7686817 16.2191393 25.8394918 16.3130858 25.9573364 16.475567 25.9963595 16.5287007L29.7650602 16.5361446C29.3394242 15.9693853 26.3971862 12.0498137 25.8358738 11.3290437L25.7955586 11.2774502z"/>
    <polyline fill="#101517" points="178.59 14.331 180.795 14.331 180.795 14.698 179.985 14.698 179.985 16.536 179.401 16.536 179.401 14.698 178.59 14.698 178.59 14.331"/>
    <polyline fill="#101517" points="182.057 16.536 181.709 16.536 181.193 14.643 181.187 14.649 181.187 16.536 180.795 16.536 180.795 14.331 181.482 14.331 181.89 15.935 181.895 15.935 182.338 14.331 183 14.331 183 16.536 182.608 16.536 182.608 14.649 182.603 14.643 182.057 16.536"/>
  </g>
</svg>
