<svg width="104" height="109" viewBox="0 0 104 109" fill="none" xmlns="http://www.w3.org/2000/svg">
<path d="M50.8615 82.9857C53.4315 83.4116 53.1861 87.0935 50.5005 87.0429C35.7008 86.0034 19.0603 88.4002 4.48443 87.0502C1.65445 86.7903 0.766477 85.5052 0.362194 82.7113C-2.1357 65.3272 8.52726 51.4733 24.9152 47.1056C33.3473 44.8604 50.5582 44.6077 58.4057 48.5783C61.1346 49.9644 60.9541 53.0832 57.9509 52.7439C56.1605 52.5417 52.6374 50.8741 50.32 50.4048C33.6 47.0262 9.01817 51.2928 4.8454 70.8283C4.10902 74.2864 3.15608 79.8814 4.85984 82.9857H50.8542H50.8615Z" fill="#F06449"/>
<path d="M58.3841 19.8317C58.3841 30.2564 49.9303 38.7103 39.5055 38.7103C29.0808 38.7103 20.627 30.2564 20.627 19.8317C20.627 9.40697 29.0808 0.953125 39.5055 0.953125C49.9303 0.953125 58.3841 9.40697 58.3841 19.8317ZM54.4207 19.8461C54.4207 11.6305 47.7644 4.9743 39.5488 4.9743C31.3332 4.9743 24.677 11.6305 24.677 19.8461C24.677 28.0617 31.3332 34.718 39.5488 34.718C47.7644 34.718 54.4207 28.0617 54.4207 19.8461Z" fill="#F06449"/>
<path d="M92.0912 67.4001C92.0912 77.0668 84.2582 84.8997 74.5915 84.8997C64.9248 84.8997 57.0918 77.0668 57.0918 67.4001C57.0918 57.7334 64.9248 49.9004 74.5915 49.9004C84.2582 49.9004 92.0912 57.7334 92.0912 67.4001ZM88.2865 67.3856C88.2865 59.827 82.1573 53.6978 74.5987 53.6978C67.04 53.6978 60.9108 59.827 60.9108 67.3856C60.9108 74.9443 67.04 81.0735 74.5987 81.0735C82.1573 81.0735 88.2865 74.9443 88.2865 67.3856Z" fill="#F06449"/>
<path d="M72.679 89.3539C82.353 89.1445 97.0154 91.6063 102.119 100.905C102.921 102.363 105.541 108.254 102.733 108.752C99.6577 109.301 100.098 105.67 99.3184 103.699C93.8678 89.8881 53.9593 89.4477 49.3678 105.041C48.9635 106.406 49.5122 108.449 47.4041 108.925C43.6934 109.77 45.7581 103.179 46.5595 101.497C50.7106 92.7542 63.8714 89.5344 72.679 89.3466V89.3539Z" fill="#F06449"/>
</svg>
