<?xml version="1.0" encoding="UTF-8"?>
<svg id="Layer_2" data-name="Layer 2" xmlns="http://www.w3.org/2000/svg" width="100" height="90" viewBox="0 0 214.56 210.77">
  <defs>
  </defs>
  <g id="Layer_1-2" data-name="Layer 1">
    <g>
      <path d="M115.74,42.98c.69-2.16.33-3.51-2.16-3.8-10.25-1.2-22.82.97-33.33.03-2.04.19-1.59,2.2-1.57,3.77h15.7v6.28h-15.39c-3.7,0-5.39-1.89-8.97-2.96-7.34-2.2-17.79-2.06-25.12.27-1.35.43-5.17,2.69-5.48,2.69h-17.9v-6.28h15.39c2.15-2.56,1.05-3.5-1.88-3.77-8.35-.78-22.28-.52-30.82-.03-3.13.18-5.79.37-3.11,3.8h16.65v6.29c-4.41.17-6.72-1.48-6.22,4.01.21,2.31,1.44,6.17,4.03,6.66,3.34.63,15.56-1.09,17.3,1.07.19.23,2.43,4.66,2.46,4.94.34,3.43-3.56,12.92-3.74,17.02-.13,3.06,2.63,2.72,3.79-.04.99-2.37,2.54-14.89,3.1-15.44l9.96,2.43.7-2.15c-.05-2.06-5.23-2.26-7.07-2.93-7.32-2.67-7.42-8.66-.87-12.53,8.47-5,23.16-5.09,32-1.02,7.43,3.43,8.29,10.03.16,13.08-1.75.65-11.13,1.79-6.97,5.06,1.91,1.5,7.34-1.73,9.77-1.95.64.59,3.78,14.22,4.99,16.69.97,1.99,2.62,2.14,3.53.26.69-1.44-4.89-14.48-5.26-17.43-.07-.53-.23-1.04-.01-1.57l3.47-5.51c3.4-.51,16.96,1.08,18.9-.77,1.35-1.29,2.56-7.02,1.95-8.86-.56-1.96-5.13-.59-5.57-1.03v-6.28h17.59ZM33.13,55.54c-1.96,1.63-13.88.17-17.19.56l-.71-3.06h19.47c.12.09-1.39,2.35-1.58,2.5ZM100.04,53.03l-1.05,3.17-15.62.03c-1.1-.09-2.08-2.03-2.18-3.19h18.85Z" fill="currentColor"/>
      <path d="M144.99,89.52c.48.47,5.43,1.99,6.63,2.54,7.46,3.41,14.43,7.76,21.43,11.99,12.06,7.3,25.81,15.44,37.24,23.51,2.94,2.07,5.29,4.44,3.81,8.42-1.52,4.06-5.43,4.27-9,3.24-11.28-3.24-24.47-8.6-35.38-13.15-9.83-4.09-20.19-8.2-27.68-15.99.25,10.04,1.43,20.02,2.15,30.02,1.17,16.31,2.19,32.61,3.59,48.89.12,1.36-.45,4.6.74,5.38.53.34,2.08.54,2.99.96,2.69,1.27,4.67,2.69,6.28,5.23,1.42,2.24,4.35,9.66.27,10.2l-49.19-.09c-2.74-.79-.82-7.18.16-9.03,1.52-2.89,4.09-4.92,7.01-6.29,1.52-.72,3.53-.46,3.7-2.41l6.13-86.79-9.95,6.4c-17.63,9.87-35.55,19.23-53.57,28.39-6.06,2.41-11.07-5.25-6.76-10,3.23-3.56,9.59-8.38,13.49-11.67,11.35-9.58,31.6-27.3,45.95-29.9,2.62-.47,5.28-.53,7.91-.89.15-1.9,2.54-3.76,3.11-4.98.49-1.06-1.15-9.87-1.26-12.02-.82-16.01.7-33.23,1.47-49.25.2-4.29-.4-16.31,1.48-19.37,2.63-4.27,9.29-3.59,11.01,1.09,2.68,13.68,5.54,27.46,7.22,41.31,1.42,11.72,2.85,22.3-1.58,33.56-.42,1.06-2.34,4.14-2.32,4.87.01.5,1.47,2.05,1.85,2.8s.71,2.66,1.1,3.04ZM138.04,80.95c4.2-7.59,4.83-15.32,4.34-23.88-.67-11.92-3.29-26.18-5.49-38-.72-3.86-1.48-9.64-2.65-13.16-.46-1.37-1.15-1.58-2.31-.64-.91,6.11-.75,12.51-1.03,18.74-.71,15.82-2.39,33.93-1.09,49.59.08.98.66,6.58,1.05,6.86,2.58-.3,4.66-.1,7.18.48ZM140.29,91.7c0-3.59-2.91-6.5-6.5-6.5s-6.5,2.91-6.5,6.5,2.91,6.5,6.5,6.5,6.5-2.91,6.5-6.5ZM122.58,93.6c-12.22-.64-22.32,7.27-31.55,14.18-4.81,3.61-9.57,7.48-14.22,11.3-5.31,4.37-12.81,10.1-17.41,14.94-1.67,1.76.24,2.86,2.03,2.03,11.61-6.15,23.42-11.96,34.97-18.23,9.94-5.39,20.23-10.56,28.94-17.81.35-.83-3.04-4.73-2.76-6.41ZM209.15,132.47c-16.27-9.59-31.9-20.92-48.32-30.22-1.77-1-15.53-8.3-16.28-7.62.3,2.18-3.57,5-3.18,6.56.28,1.12,4.66,6.22,5.73,7.25,7.22,6.92,22.74,12.58,32.22,16.31,9.52,3.75,19.25,7.24,29.03,10.18,1.6.04,1.49-1.37.8-2.46ZM124.96,194.22h17.61l-5.93-91.31-5.23-.27c-.38.07-.48.47-.53.81-.61,4.14-.41,9.07-.72,13.3-1.71,23.24-3.91,46.5-5.38,69.75-.1,1.52-.5,5.28-.4,6.47.05.53.08.94.57,1.26ZM154.97,206.08c-1.01-3.81-3.71-6.1-7.45-7.1-8.49.33-17.76-.73-26.17-.1-4.29.32-7.68,3.03-8.79,7.21h42.41Z" fill="currentColor"/>
    </g>
  </g>
</svg>
