<?xml version="1.0" encoding="UTF-8"?>
<svg xmlns="http://www.w3.org/2000/svg" width="224" height="24" viewBox="0 0 224 24" fill="none">
  <g clip-path="url(#clip0_363_7886)">
    <path d="M15.9944 6.30742V1.22546H6.46078H4.7668H0V22.7745H4.7668H6.46078H15.9944V17.6926H6.46078V14.2652H14.7337V9.38023H6.46078V6.30742H15.9944Z" fill="#D0DEFF"></path>
    <path d="M29.2702 23.3655C26.9853 23.3655 24.9762 22.8928 23.3216 21.9867C21.667 21.0806 20.3669 19.7806 19.4609 18.0866C18.5548 16.3926 18.082 14.3834 18.082 12.0591C18.082 9.73482 18.5548 7.68628 19.4609 5.9923C20.3669 4.29831 21.667 2.95888 23.3216 2.0528C24.9762 1.14671 26.9853 0.673973 29.2702 0.673973C31.5551 0.673973 33.5643 1.14671 35.2189 2.0528C36.8734 2.95888 38.1735 4.29831 39.0796 5.9923C39.9857 7.68628 40.4584 9.73482 40.4584 12.0591C40.4584 14.3834 39.9857 16.432 39.0796 18.0866C38.1735 19.7806 36.8734 21.0806 35.2189 21.9867C33.5643 22.8928 31.5551 23.3655 29.2702 23.3655ZM29.2702 18.126C30.2551 18.126 31.0824 17.8896 31.7521 17.4169C32.4218 16.9441 32.9339 16.235 33.2885 15.3289C33.6431 14.4228 33.84 13.3198 33.84 12.0591C33.84 10.7985 33.6431 9.65603 33.2885 8.74995C32.9339 7.84386 32.4218 7.13475 31.7521 6.62262C31.0824 6.11048 30.2551 5.87411 29.2702 5.87411C28.2853 5.87411 27.458 6.11048 26.7883 6.62262C26.1186 7.13475 25.6065 7.84386 25.2519 8.74995C24.8974 9.65603 24.7004 10.7591 24.7004 12.0591C24.7004 13.3592 24.8974 14.4228 25.2519 15.3289C25.6065 16.235 26.1186 16.9441 26.7883 17.4169C27.458 17.8896 28.2853 18.126 29.2702 18.126Z" fill="#D0DEFF"></path>
    <path d="M49.7577 17.535V1.22546H43.2969V22.7745H48.0637H49.7577H58.3458V17.535H49.7577Z" fill="#D0DEFF"></path>
    <path d="M70.2429 23.3655C67.958 23.3655 65.9488 22.8928 64.2942 21.9867C62.6396 21.0806 61.3396 19.7806 60.4335 18.0866C59.5274 16.3926 59.0547 14.3834 59.0547 12.0591C59.0547 9.73482 59.5274 7.68628 60.4335 5.9923C61.3396 4.29831 62.6396 2.95888 64.2942 2.0528C65.9488 1.14671 67.958 0.673973 70.2429 0.673973C72.5278 0.673973 74.5369 1.14671 76.1915 2.0528C77.8461 2.95888 79.1461 4.29831 80.0522 5.9923C80.9583 7.68628 81.4311 9.73482 81.4311 12.0591C81.4311 14.3834 80.9583 16.432 80.0522 18.0866C79.1461 19.7806 77.8461 21.0806 76.1915 21.9867C74.5369 22.8928 72.5278 23.3655 70.2429 23.3655ZM70.2429 18.126C71.2277 18.126 72.055 17.8896 72.7248 17.4169C73.3945 16.9441 73.9066 16.235 74.2612 15.3289C74.6157 14.4228 74.8127 13.3198 74.8127 12.0591C74.8127 10.7985 74.6157 9.65603 74.2612 8.74995C73.9066 7.84386 73.3945 7.13475 72.7248 6.62262C72.055 6.11048 71.2277 5.87411 70.2429 5.87411C69.258 5.87411 68.4307 6.11048 67.761 6.62262C67.0913 7.13475 66.5791 7.84386 66.2246 8.74995C65.87 9.65603 65.673 10.7591 65.673 12.0591C65.673 13.3592 65.87 14.4228 66.2246 15.3289C66.5791 16.235 67.0913 16.9441 67.761 17.4169C68.4307 17.8896 69.258 18.126 70.2429 18.126Z" fill="#D0DEFF"></path>
    <path d="M95.0225 15.4864H98.2135C98.056 16.1167 97.8196 16.5895 97.465 16.9834C97.1105 17.3774 96.6771 17.6531 96.165 17.8501C95.6529 18.0471 95.1013 18.1259 94.5104 18.1259C93.6043 18.1259 92.8164 17.8895 92.1861 17.4168C91.5558 16.944 91.0436 16.2349 90.7285 15.3288C90.3739 14.4227 90.2163 13.3197 90.2163 12.0197C90.2163 10.7196 90.3739 9.61656 90.6891 8.71047C91.0042 7.80439 91.477 7.09528 92.0679 6.58314C92.6982 6.07101 93.4073 5.83464 94.274 5.83464C95.1407 5.83464 95.8892 6.07101 96.4408 6.50435C96.9923 6.97709 97.3862 7.64681 97.6226 8.55289H104.359C104.083 6.78012 103.453 5.3225 102.508 4.14065C101.562 2.9588 100.38 2.09211 98.962 1.50119C97.5438 0.91026 96.0468 0.5951 94.3922 0.5951C92.7376 0.5951 90.2163 1.06784 88.6012 1.97393C86.986 2.88001 85.7253 4.21944 84.8586 5.91343C83.9919 7.60741 83.5586 9.65595 83.5586 11.9803C83.5586 14.3046 83.9919 16.3531 84.8586 18.0077C85.7253 19.7017 86.9072 21.0017 88.483 21.9078C90.0194 22.8139 91.8315 23.2866 93.8801 23.2866C95.9286 23.2866 96.5983 23.0109 97.662 22.4199C98.4499 22.026 99.0802 21.4745 99.6318 20.7653L100.144 22.6957H104.399V10.6802H95.0619V15.447L95.0225 15.4864Z" fill="#D0DEFF"></path>
    <path d="M107.746 22.7745V1.22546H114.207V22.7351H107.746V22.7745Z" fill="#D0DEFF"></path>
    <path d="M130.79 11.547L137.369 1.22546H130.711L128.466 4.69222L127.481 6.58318L126.496 4.69222L124.29 1.22546H116.844L123.423 11.6651L116.332 22.7745H123.069L125.826 18.4411L126.732 16.7865L127.638 18.4411L130.357 22.7745H137.842L130.79 11.547Z" fill="#D0DEFF"></path>
    <path d="M167.272 4.69222C166.563 3.58916 165.539 2.72247 164.199 2.13155C162.86 1.54062 161.245 1.22546 159.354 1.22546H150.293V22.7351H156.754V16.1956H159.433C162.19 16.1956 164.357 15.5259 165.972 14.2258C167.587 12.9258 168.375 11.0742 168.375 8.67112C168.375 6.26802 168.021 5.75589 167.312 4.61343L167.272 4.69222ZM161.166 10.4833C160.772 10.956 160.102 11.153 159.078 11.153H156.754V6.26802H159.236C160.102 6.26802 160.733 6.5044 161.127 6.93774C161.521 7.37109 161.718 7.96201 161.718 8.71052C161.718 9.45902 161.521 10.0106 161.127 10.4833H161.166Z" fill="#D0DEFF"></path>
    <path d="M170.66 22.7745V1.22546H177.121V22.7351H170.66V22.7745Z" fill="#D0DEFF"></path>
    <path d="M193.861 1.22546L194.216 14.2258L192.364 10.0499L187.558 1.22546H186.534H182.909H180.703V22.7745H187.164L186.77 9.81357L188.622 13.8713L193.467 22.7745H194.491H198.076H200.322V1.22546H193.861Z" fill="#D0DEFF"></path>
    <path d="M214.663 15.4864H217.854C217.697 16.1167 217.46 16.5895 217.106 16.9834C216.751 17.3774 216.318 17.6531 215.806 17.8501C215.293 18.0471 214.742 18.1259 214.151 18.1259C213.245 18.1259 212.457 17.8895 211.827 17.4168C211.196 16.944 210.684 16.2349 210.369 15.3288C210.015 14.4227 209.857 13.3197 209.857 12.0197C209.857 10.7196 210.015 9.61656 210.33 8.71047C210.645 7.80439 211.118 7.09528 211.709 6.58314C212.339 6.07101 213.048 5.83464 213.915 5.83464C214.781 5.83464 215.53 6.07101 216.081 6.50435C216.633 6.97709 217.027 7.64681 217.263 8.55289H224C223.724 6.78012 223.094 5.3225 222.148 4.14065C221.203 2.9588 220.021 2.09211 218.603 1.50119C217.184 0.91026 215.687 0.5951 214.033 0.5951C212.378 0.5951 209.857 1.06784 208.242 1.97393C206.627 2.88001 205.366 4.21944 204.499 5.91343C203.633 7.60741 203.199 9.65595 203.199 11.9803C203.199 14.3046 203.633 16.3531 204.499 18.0077C205.366 19.7017 206.548 21.0017 208.124 21.9078C209.66 22.8139 211.472 23.2866 213.521 23.2866C215.569 23.2866 216.239 23.0109 217.303 22.4199C218.091 22.026 218.721 21.4745 219.272 20.7653L219.785 22.6957H224.039V10.6802H214.703V15.447L214.663 15.4864Z" fill="#D0DEFF"></path>
    <path d="M137.371 15.2107V8.74995H146.708V15.2107H137.371Z" fill="#D0DEFF"></path>
  </g>
  <defs>
    <clipPath id="clip0_363_7886">
      <rect width="224" height="22.7309" fill="white" transform="translate(0 0.634537)"></rect>
    </clipPath>
  </defs>
</svg>
