<?xml version="1.0" encoding="UTF-8"?>
<svg id="Layer_2" data-name="Layer 2" xmlns="http://www.w3.org/2000/svg" width="75" height="90" viewBox="0 0 234.27 219.92">
  <defs>
  </defs>
  <g id="Layer_1-2" data-name="Layer 1">
    <g>
      <path d="M156.78,213.88c1.76-.49,3.92-4.83,4.26-6.74.66-3.63-1.6-21.47,3.71-20.26,4.04,2.99,1.37,6.09,1.43,9.5.17,9.27,2.68,20.56-9.47,23.43l-140.98.1c-12.03-1.06-13.75-7.86-14.5-18.5-3.94-56.02,3.06-116.58,0-173.08C2.3,2.37,34.4,14.75,51.24,11.84c.23-5.56,2.58-10.28,8.52-10.98,9.47-1.11,38.7-1.21,47.95.09,5.5.77,8.62,5.63,8.61,10.89,14.03,2.34,47.98-7.59,50.01,13.49,2.44,25.3-.55,56.89-.1,83.09.06,3.56,2.93,7.15-1.62,9.31-1.09.76-3.33-.68-3.33-1.35V26.38c0-.56-2.31-5.37-3.02-5.98-5.95-5.18-33.35-1.25-41.99-2.52.75,6.53-1.3,12.42-7.71,14.8-15.01-.93-33.19,1.97-47.81.23-7.51-.89-10.37-8.16-9.47-15.03-11.18,1.21-25.7-1.64-36.45.06-4.26.67-7.88,4.95-7.6,9.4v177.1c-.82,2.64,3.36,9.45,5.55,9.45h47.5l1.99-37-39.49,24.91c-4.86-.8-5.37-3.37-3.72-7.64,1.95-5.05,23.4-29.11,28.32-31.68,2.73-1.42,8.53-2.11,9.89-3.11,1.15-.85,2.04-5.43,4.5-6.5,1.3-15.8-2.33-33.84-.51-49.51.73-6.3,5.07-8.85,9.48-3.44,3.47,4.25,9.44,29.4,9.59,35.42.15,6.18-1.91,10.8-4.95,16.06,5.02,1.09,5.86,9,7.12,10.25,1.18,1.17,26.54,8.86,31.45,11.05,3.77,1.69,15.78,6.77,16.36,10.73,1.3,8.93-14.75,4.86-20.05,3.96s-21.5-4.48-25.7-7.21c-2.41-1.56-4.08-6.08-7.27-7.32l2.99,41h76.5ZM58.52,25.64l49.1,1.07c3.91-1.32,3.65-17.59.68-19.35-4.61-2.72-40.36.92-48.35-.32-3.95,1.32-3.25,15.11-1.43,18.6ZM68.29,150.88c10.1-9.88,4.8-29.93.27-41.78-.48-1.27-.59-2.94-2.27-3.22l2,45ZM76.22,162.5c0-3.66-2.97-6.63-6.63-6.63s-6.63,2.97-6.63,6.63,2.97,6.63,6.63,6.63,6.63-2.97,6.63-6.63ZM58.17,165.98c-6.42-4.57-27.48,22.42-31.89,26.9l31.53-20.96c2.04-.73,1.29-5.27.36-5.93ZM120.27,181.89l-38.98-15.01c-1.3,1.37,6.8,8.34,8.43,9.06,5.15,2.3,21.24,5.72,27.32,6.69,1.06.17,3.48,1.06,3.24-.74ZM71.27,173.87h-2.99s-3,40-3,40h9s-3.01-40-3.01-40Z" fill="currentColor"/>
      <path d="M118.28,132.88c.22,1.87-.95,8.32,1.46,8.75l88.53.25v-9s-19.49,0-19.49,0l-1.54-2.5c-.07-1.02,2.08-3.5,2.54-3.5h43c1.99,0,1.98,6,0,6h-18.5v21.5c0,.62-1.63,1.47-2.5,1.56-5.04.52-3.29-5.65-3.5-9.06h-20c.13,4.51.53,13.59-3.27,16.72-1.38,1.14-5.12,1.04-5.44,2.72.2,3.5,4.43,17.21,1.75,19.1-1.31.98-2.5.67-3.52-.55-1.97-2.37-3.23-15.23-3.51-18.99l-20.55-.75c-2.2.41-2.91,14.79-3.92,17.79-1.25,3.72-5.07,4.3-5.58.44-.58-4.37,3.3-12.97,2.09-17.81-.25-.98-3.27-1.44-4.57-2.63-4.13-3.79-1.97-10.95-2.47-16.03h-21l-.48,8.02-3.02.97-1.51-1.49v-21.5h-19.5c-1.98,0-1.99-6,0-6h45c1.99,0,1.98,6,0,6h-20.5ZM182.28,146.88h-36.5l-1.34,1.66c-.44,2.9-.77,10.08,2.5,11.18,1.7.57,30.66.54,32.63-.04.97-.28,1.7-.94,2.21-1.79l.5-11Z" fill="currentColor"/>
      <polygon points="104.29 78.87 111.4 54.01 116.8 54.87 123.78 78.89 129.32 53.93 135.28 53.89 127.18 84.78 120.37 84.78 113.78 60.87 107.39 84.3 100.75 83.91 93.28 53.89 98.82 54.84 104.29 78.87" fill="currentColor"/>
      <path d="M85.98,56.19c6.84,6.2,6.19,23.73-3.41,27.48-15.21,5.94-23.73-5.47-21.05-20.06,2-10.87,16.98-14.21,24.47-7.43ZM69.55,78.6c5.3,4.33,14.55,1.1,15.66-6.28,2.95-19.5-21.25-19.63-18.86-1.03.22,1.71,1.99,6.32,3.19,7.31Z" fill="currentColor"/>
      <polygon points="57.28 53.88 57.28 57.88 40.28 57.88 40.28 65.88 55.28 65.88 55.28 69.88 40.28 69.88 40.28 79.88 58.28 79.88 56.78 84.88 35.28 84.88 35.28 53.88 57.28 53.88" fill="currentColor"/>
    </g>
  </g>
</svg>
