<?xml version="1.0" encoding="utf-8"?>
<!-- Generator: Adobe Illustrator 25.2.0, SVG Export Plug-In . SVG Version: 6.00 Build 0)  -->
<svg version="1.1" id="Layer_1" xmlns="http://www.w3.org/2000/svg" xmlns:xlink="http://www.w3.org/1999/xlink" x="0px" y="0px"
	 viewBox="0 0 169 169" style="enable-background:new 0 0 169 169;" xml:space="preserve">
<style type="text/css">
	.st0{clip-path:url(#SVGID_2_);}
	.st1{fill:#0093D7;}
	.st2{fill:#FFFFFF;}
</style>
<g>
	<defs>
		<rect id="SVGID_1_" width="168.9" height="168.9"/>
	</defs>
	<clipPath id="SVGID_2_">
		<use xlink:href="#SVGID_1_"  style="overflow:visible;"/>
	</clipPath>
	<g class="st0">
		<path class="st1" d="M84.4,168.9c46.6,0,84.4-37.8,84.4-84.4C168.9,37.8,131.1,0,84.4,0C37.8,0,0,37.8,0,84.4
			C0,131.1,37.8,168.9,84.4,168.9z"/>
		<path class="st2" d="M145.2,99.6c2.7,0,4.8-2.2,4.8-4.8c0-2.7-2.2-4.8-4.8-4.8s-4.8,2.2-4.8,4.8C140.4,97.4,142.5,99.6,145.2,99.6
			z"/>
		<path class="st2" d="M31.4,74.7c-0.7-0.3-1.4-0.4-2.1-0.4c-0.8,0-1.2,0.7-1.2,2v3.3h3.5v5h-3.5v9.2h2.3v5.1H18.9v-5.1h1.6v-9.2
			h-1.6v-5h1.6v-3.3c0-2.2,0.7-7,7.6-7c1.9,0,3.9,0.3,5.7,1L31.4,74.7z"/>
		<path class="st2" d="M53.1,96.2c-2.8,2.5-5.9,3.3-9.9,3.3c-4.8,0-10.2-3-10.2-10.4c0-6.3,4.5-10.1,10.4-10.1
			c4.6,0,8.1,2.3,9.2,5.6c0.7,2.1,0.7,4.4,0.1,6.5H40.5c0.2,1,0.7,3.2,4,3.2c2,0.1,3.9-0.6,5.4-1.8L53.1,96.2z M46.4,87.4
			c0-1.5-0.4-3.1-2.9-3.1c-0.4,0-0.8,0.1-1.2,0.2c-0.4,0.2-0.7,0.4-1,0.7c-0.3,0.3-0.5,0.6-0.6,1c-0.1,0.4-0.2,0.8-0.2,1.2H46.4z"/>
		<path class="st2" d="M54.6,98.9v-5.1h1.6v-9.2h-1.6v-5h8.2l0.9,2.4c0.6-0.9,1.4-1.7,2.4-2.2c1-0.5,2-0.8,3.1-0.8c6,0,7,4.4,7,8.5
			v6.4H78v5.1h-9.7V88.4c0-1.3,0.1-3.6-2.2-3.6c-2,0-2.4,1.9-2.4,3.6v5.5h2.8v5.1H54.6z"/>
		<path class="st2" d="M91,75v-5h9.6v23.9h1.8v5h-9l-0.7-1.4c-1.3,1.2-3.1,1.8-4.8,1.8c-5.4,0-8.9-4.8-8.9-10.2c0-6,4.2-9.8,8.9-9.8
			c1.7-0.1,3.4,0.5,4.8,1.5V75H91z M90,93.8c1.5,0,2.9-1.9,2.7-4.9c0-2.6-1.3-4.6-2.8-4.6c-1.6,0-2.7,1.9-2.7,4.8
			C87.2,91.4,88.3,93.8,90,93.8L90,93.8z"/>
		<path class="st2" d="M123.3,96.2c-2.9,2.5-5.9,3.3-10,3.3c-4.8,0-10.2-3-10.2-10.4c0-6.3,4.6-10.1,10.4-10.1
			c4.6,0,8.1,2.3,9.2,5.6c0.7,2.1,0.7,4.4,0.1,6.5h-12.1c0.2,1,0.7,3.2,4,3.2c2,0.1,3.9-0.6,5.4-1.8L123.3,96.2z M116.6,87.4
			c0-1.5-0.4-3.1-2.8-3.1c-0.4,0-0.8,0.1-1.2,0.2c-0.4,0.2-0.7,0.4-1,0.7c-0.3,0.3-0.5,0.6-0.6,1c-0.1,0.4-0.2,0.8-0.2,1.2H116.6z"
			/>
		<path class="st2" d="M124.8,98.9v-5.1h1.7v-9.2h-1.7v-5h7.2l1.2,2.5c1-1.8,2-3.4,6-3.4v6.9c-3.5,0-5.4,0.9-5.4,4.3v4h1.9v5H124.8z
			"/>
	</g>
</g>
</svg>
