<svg width="36" height="36" viewBox="0 0 36 36" fill="none" xmlns="http://www.w3.org/2000/svg">
<path d="M15 21H18M18 21H21M18 21V24M18 21V18" stroke="#627678" stroke-width="3" stroke-linecap="round"/>
<path d="M3 10.425C3 9.1005 3 8.439 3.105 7.887C3.32884 6.70176 3.90471 5.6115 4.75748 4.75846C5.61025 3.90542 6.70033 3.32921 7.8855 3.105C8.439 3 9.102 3 10.425 3C11.004 3 11.295 3 11.574 3.0255C12.7756 3.13835 13.9152 3.61092 14.844 4.3815C15.06 4.56 15.264 4.764 15.675 5.175L16.5 6C17.724 7.224 18.336 7.836 19.068 8.2425C19.4703 8.46674 19.8971 8.64391 20.34 8.7705C21.147 9 22.0125 9 23.742 9H24.303C28.251 9 30.2265 9 31.509 10.155C31.628 10.26 31.74 10.372 31.845 10.491C33 11.7735 33 13.749 33 17.697V21C33 26.6565 33 29.4855 31.242 31.242C29.484 32.9985 26.6565 33 21 33H15C9.3435 33 6.5145 33 4.758 31.242C3.0015 29.484 3 26.6565 3 21V10.425Z" stroke="#627678" stroke-width="3"/>
</svg>
