<svg width="40" height="44" viewBox="0 0 40 44" fill="none" xmlns="http://www.w3.org/2000/svg">
<path fill-rule="evenodd" clip-rule="evenodd" d="M27.0563 10.7715L31.6859 2.16826C32.7427 0.204473 35.1915 -0.530919 37.1553 0.525939C37.1779 0.538118 37.2005 0.550297 37.2232 0.562477C39.1871 1.61925 39.9224 4.06798 38.8656 6.03186L35.8718 11.5952C36.4235 11.8976 36.9347 12.2788 37.3877 12.7318C38.6428 13.9869 39.348 15.6893 39.348 17.4643C39.348 20.7365 39.348 25.3633 39.348 28.6255C39.348 30.391 38.6466 32.0841 37.3982 33.3325C36.1499 34.5809 34.4567 35.2822 32.6912 35.2822H30.5119L22.6027 43.1577C21.7355 44.0213 20.4014 44.2063 19.3319 43.6114C18.2624 43.0165 17.716 41.7853 17.9923 40.5931L19.2232 35.2822H7.31596C5.55047 35.2822 3.85729 34.5809 2.6089 33.3325C1.36052 32.0841 0.65918 30.391 0.65918 28.6255V17.4284C0.65918 15.6629 1.36052 13.9697 2.6089 12.7212C3.85729 11.4728 5.55047 10.7715 7.31596 10.7715H27.0563ZM25.5794 13.5161H7.31596C6.2784 13.5161 5.28338 13.9284 4.54971 14.662C3.81603 15.3957 3.40382 16.3908 3.40382 17.4284V28.6255C3.40382 29.663 3.81603 30.6581 4.54971 31.3918C5.28338 32.1255 6.2784 32.5376 7.31596 32.5376H22.6767L20.6661 41.2128L29.3786 32.5376H32.6912C33.7287 32.5376 34.7238 32.1255 35.4575 31.3918C36.1912 30.6581 36.6033 29.663 36.6033 28.6255C36.6033 25.3633 36.6033 20.7365 36.6033 17.4643C36.6033 16.4172 36.1873 15.4129 35.447 14.6726C35.1849 14.4105 34.8896 14.189 34.5711 14.0122L31.8088 19.1455C31.5581 19.6114 31.1781 19.9949 30.7145 20.2498L28.5662 21.4313C27.7504 21.88 26.7628 21.8845 25.943 21.4433C25.1231 21.0021 24.5828 20.1754 24.5078 19.2475L24.3103 16.8036C24.2677 16.2762 24.3784 15.7478 24.6291 15.282L25.5794 13.5161ZM8.29159 25.2731H23.1298C23.8872 25.2731 24.5021 24.6582 24.5021 23.9007C24.5021 23.1434 23.8872 22.5284 23.1298 22.5284H8.29159C7.53416 22.5284 6.91927 23.1434 6.91927 23.9007C6.91927 24.6582 7.53416 25.2731 8.29159 25.2731ZM8.29159 20.1269H19.699C20.4564 20.1269 21.0713 19.512 21.0713 18.7545C21.0713 17.9972 20.4564 17.3822 19.699 17.3822H8.29159C7.53416 17.3822 6.91927 17.9972 6.91927 18.7545C6.91927 19.512 7.53416 20.1269 8.29159 20.1269ZM29.3919 17.8449L36.4487 4.73124C36.7871 4.1022 36.5516 3.31784 35.9226 2.97939C35.8999 2.96721 35.8773 2.95503 35.8546 2.94285C35.2257 2.60432 34.4413 2.83984 34.1029 3.46888L27.0461 16.5825L27.2435 19.0264L29.3919 17.8449Z" fill="#003538"/>
</svg>
