<?xml version="1.0" encoding="UTF-8"?>
<svg id="Layer_2" data-name="Layer 2" xmlns="http://www.w3.org/2000/svg" viewBox="0 0 202.16 181.61">
  <defs>
  </defs>
  <g id="Layer_1-2" data-name="Layer 1">
    <g>
      <path d="M167.1,175.56v-13c.83.03,1.69-.09,2.52-.04,1.51.1,2.86.05,3.34,1.68-.27,3.68,1.49,14.29-1.26,16.46l-168.14.95-3.55-1.45V.96l170.18-.96c2.48.47,2.68,2.92,2.91,5.04,1.07,9.99,1.06,33.04.06,43.08-.41,4.06-2.34,7.76-5.99,3.81l-.45-44.91-1.13-1.46h-76.5v170h78ZM5.1,5.56v81h78V5.56H5.1ZM83.1,92.56H5.1v83h78v-83Z" fill="currentColor"/>
      <path d="M166.27,70.37c7.25,4.33,7.69-8.46,15.77-3.25,2.22,1.43,11.3,12.13,11.66,14.4.76,4.8-8.1,8.3-4.12,13.05,1.69,2.02,6.33.46,8.82,1.19,4.73,1.38,4.45,18.74,2.15,22.76s-10.28.56-11.5,2.7c-2.43,7.27,8.04,7.38,3.46,15.26-1.36,2.35-10.96,12.17-13.41,12.67-4.53.92-7.73-5.02-9.65-5.38-5.4-1.03-2.25,7.63-4.88,10.77-2.67,3.17-18.81,2.54-22.42.48-4.22-2.41.29-9.26-4.74-11.35-3.68-.92-5.35,7.78-13.29,4.37-1.64-.7-11.26-11.29-11.78-13.23-1.75-6.59,7.18-10.01,3.29-13.26-2.78-2.32-9.69.37-11.6-2.66-1.3-2.06-1.51-19.11-.42-21.34,2.03-4.18,10.86.3,12.7-4.44,2.07-5.38-6.48-5.8-3.64-13.51.87-2.37,11.08-12.91,13.43-13.65,4.38-1.37,6.63,3.47,9.66,5.44,6.64-.63,3.22-6.81,5.28-11.17,1.84-2.91,18.13-1.62,22.09-1.18,2.74,1.37,2.49,8.46,3.17,11.32ZM160.1,64.56h-14.01c2.9,10.76-10.64,17.56-17,8.45-2.46-1.29-8.81,7.43-10.92,9.2,8.85,9.04,4.79,21.35-9.08,18.36v14.01c7.41-.62,12.14-.35,13.79,7.73,1.38,6.73-2.82,6.05-3.65,8.98-1.18,4.16,6.08,8.15,8.36,11.27,6.1-10.06,20.6-4.2,18.5,7.02h14.01c-2.76-11.17,11.75-16.27,17.49-7.02l9.26-9.47c-8.31-8.1-4.5-21.41,8.24-18.51v-14.01c-12.72,2.96-16.88-10-8.09-17.64l-8.56-10.28c-2.09-.35-3.93,4.53-6.91,4.95-7.52,1.05-13.8-5.37-11.44-13.03Z" fill="currentColor"/>
      <path d="M172.92,107.76c0,11.24-9.11,20.35-20.35,20.35s-20.35-9.11-20.35-20.35,9.11-20.35,20.35-20.35,20.35,9.11,20.35,20.35ZM166.84,107.75c0-7.79-6.32-14.11-14.11-14.11s-14.11,6.32-14.11,14.11,6.32,14.11,14.11,14.11,14.11-6.32,14.11-14.11Z" fill="currentColor"/>
    </g>
  </g>
</svg>
