<?xml version="1.0" encoding="UTF-8"?>
<svg id="Layer_2" data-name="Layer 2" xmlns="http://www.w3.org/2000/svg" viewBox="0 0 251.61 204.96">
  <defs>
  </defs>
  <g id="Layer_1-2" data-name="Layer 1">
    <g>
      <path d="M31.26,14.25h154c.5-3.43-1.53-11.79,2-13.5,2.26-1.1,26.95-.89,28.6.41,1.22.96,1.27,2.15,1.45,3.55.43,3.3.27,24.27-.93,25.96l-12.11.58v47.5l-6,1.5v-48l-12.07-1.43-.94-11.57-152.53.25c-2.74.49-.83,9.24-1.6,11.6l-11.86,1.14v139.5l1.46,1.26c3.36-1.28,7.15-1.11,10.41.38l.14,11.86h151.5c1.98,0,1.99,6,0,6H31.26c-.57,4.15,1.5,9.82-1.5,13H1.76l-1.5-1.5v-28c0-3.27,9.65-2.71,12.03-1.94l1.02-3.01-.05-137.55c-3.28-.43-10.84,1.44-12.51-1.99C-.04,28.62-.22,6.43.28,3.78c.2-1.05.51-1.94,1.38-2.62,3.08-2.43,22.72-.17,27.96-.76,3.15,1.03,1.06,10.92,1.64,13.86ZM25.26,6.25H7.76l-1.5,1.5v17.5h19V6.25ZM191.26,25.25h17.5c.25,0,.59.81,1,.78l1.5-1.28V7.75l-1.5-1.5h-18.5v19ZM25.26,178.25c-.73-.27-1.2,1-1.5,1h-15c-.12,0-2.07-1.91-2.4.48-.04.28.76,1.46.63,2.7-.66,6.1.65,10.44-.73,15.82h19v-20Z" fill="currentColor"/>
      <path d="M160.39,91.37c21.11-8.4,45.55-1.26,54.72,20.52,4.75,11.28,3.43,21.59,1.61,33.32,8.66,10.31,21.88,19.68,30.04,30.03,14.5,18.37-6.09,41.29-28.03,23.03-9.14-7.6-18.32-18.8-26.48-27.52-6.98-.54-14.25,1.21-21.49.49-23.14-2.32-40.74-28.63-34.03-51.01.85-2.85,2.16-7.42,5.97-7.03,3.52.35,21.4,21.89,26.19,24.98,1.48.26,15.76-14.75,16.26-16.63.86-3.23-5.45-6.34-7.42-8.28-3.08-3.01-14.88-14.77-16.52-17.47-.87-1.43-1.44-2.75-.81-4.43ZM142.27,121.25c-5.7,21.59,11.31,44.53,33.65,44.93,4.34.08,14.4-3.27,17.04-2.21,11.5,8.61,21.22,23.29,32.28,31.8,12.16,9.36,24.49-1.27,18.69-14.69l-33.5-34.56c2.19-12.09,4.36-23.04-1.34-34.6-7.17-14.53-24.53-20.78-39.82-17.67l23.66,26.49c0,2.25-20.08,23.64-22.38,24.33-1.7.51-3.43.41-4.84-.78l-23.43-23.05Z" fill="currentColor"/>
    </g>
  </g>
</svg>
