<?xml version="1.0" encoding="UTF-8"?>
<svg id="Layer_2" data-name="Layer 2" xmlns="http://www.w3.org/2000/svg" viewBox="0 0 111.81 100.9">
  <defs>
  </defs>
  <g id="Layer_1-2" data-name="Layer 1">
    <g>
      <path d="M50.05,23.78v9.41c0,.23,2.64,1,3.11,3.28.67,3.24-2.07,3.8-2.06,4.88.87.47,1.61,1.36,1.96,2.31,1.52,4.15-3.54,17.18-6.12,20.86-.42.6-1.31.97-1.46,1.39-.37,1.06.5,2.52.31,3.66.32.34,7.92-.22,9.38.02,3.77.63,5.25,7.04,6.64,10.05,1.26,2.74,6.62,9.6.75,10.8-4.55.93-5.9-4.65-8.61-7.02.6,3.78,4.4,12.61-1.14,13.96-6.27,1.53-4.87-9.59-7.02-12.37-.62-.8-3.26-2.32-4.28-3.17-.5-.42-1.05-1.48-1.13-1.53-.43-.24-2.35-.18-3.44-.65-3.37-1.46-4.62-8.22-4.65-11.49-.58-.4-.64,0-.71.52-.2,1.45.34,2.6.37,3.9.04,1.83.28,5.03-.58,6.55-.26.46-1.57,1.49-1.57,1.63v19.17c0,.67-1.77.67-1.77,0v-19.17c0-.18-1.92-1.11-2.32-2.65-.7-2.73-.62-9.36-.13-12.22,1.42-8.33,8.21-13.7,16.42-9.86,1.77-1.25,2.68-3.47,3.43-5.44.44-1.16,2.79-8.89,2.44-9.37-.09-.12-.99-.26-1.37-.58-1.66-1.36-1.99-4.45-.6-6.1.45-.54,2.02-1.06,2.02-1.18v-9.58H8.87v76.14c0,1.23-5.8,1.01-6.89.85-.71-.1-1.48-.3-1.99-.85V.53l.53-.53h110.75l.53.53v22.72l-.53.53h-61.23ZM6.74,2.13H2.13v96.55h4.61V2.13ZM31.95,2.13H8.87v18.99l.53.53h12.6L31.95,2.13ZM24.49,21.65h24.49L38.99,2.19l-4.04-.08-10.46,19.55ZM66.38,2.13h-24.85l9.77,18.8c.72,1.11,4.4,1.06,5.1.15l9.97-18.95ZM58.92,21.65h24.49l-10-19.46-4.04-.08-10.46,19.55ZM101.52,2.13h-25.56l10.11,19.17,6.33.28,8.93-14.85.19-4.6ZM103.65,2.13v19.52h6.03V2.13h-6.03ZM101.52,21.65v-10.65l-6.39,10.65h6.39ZM50.93,37.33c0-1.03-.83-1.86-1.86-1.86s-1.86.83-1.86,1.86.83,1.86,1.86,1.86,1.86-.83,1.86-1.86ZM44.73,63.18c.46.36,1.88-2.68,2.08-3.07,1.69-3.44,5.04-11.87,4.23-15.49-.09-.39-.48-1.16-.81-1.32-.68-.32-.58.69-.69,1.07-1.51,5.07-2.24,10.08-6.15,14.06l1.35,4.74ZM43.62,69.54c.6-.7-1.94-10.13-2.8-11.15-2.26-2.68-7.78-1.18-9.96,1.06-3.07,3.15-3.83,9.98-3.56,14.21.06.97.27,5.1,1.62,4.79,2.46-2.31-1.05-12.17,1.96-13.67,3.46-1.73,3.16,4.57,3.93,6.54l8.81-1.78ZM44.37,71.7l-8.87,1.78c.16,3.67,3.34,5.35,6.75,4.44l2.12-6.22ZM44.72,77.73c3.29-.18,6.51-1.78,9.02,1.1,1.74,1.99,5.24,9.41,7.87,9.56,3.58.21-1.02-6.27-1.53-7.39-1.01-2.2-2.73-8.2-4.81-9.04-.78-.32-7.99-.47-8.38-.22l-2.18,5.98ZM51.08,79.54c-2.62-.23-5.25.17-7.77.85.96,1.24,3.82,2.43,4.54,3.62,1.16,1.93,1.63,11.62,4.09,11.41.49-.04,1.18-.63,1.4-1.09,1.18-2.51-1.96-11.66-2.26-14.79Z" fill="currentColor"/>
      <path d="M41.53,42.6l2.61.05c2.46,2.93-2.71,1.81-2.97,2.08.26,2.78,1.12,5.86-1.19,8.04-3.26,3.08-9.94.04-10.8-4.04-.21-.98.07-1.98-.23-2.96-.33-1.05-1.77-1.72-1.81-3.35-.18-7.95,15.27-9.65,14.38.18ZM39.4,42.95c.65-7.24-10.26-6.16-9.94,0h9.94ZM39.04,45.08h-7.28c-2.29,3.4,2.46,8.16,5.99,6.34,2.67-1.37,1.36-4.01,1.29-6.34Z" fill="currentColor"/>
    </g>
  </g>
</svg>
