<svg width="141" height="906" viewBox="0 0 141 906" fill="none" xmlns="http://www.w3.org/2000/svg">
<path d="M34.7287 885.867C32.1627 885.476 31.6189 880.31 31.4489 878.321C31.381 877.506 31.364 876.673 31.0241 875.925C30.6332 875.059 29.8855 874.413 29.0698 873.92C27.9312 873.24 26.6057 872.798 25.2972 873.019C23.9377 873.24 23.7338 874.056 23.071 875.11C22.8331 875.483 22.5102 875.772 22.1873 876.061C19.8592 878.117 17.4121 880.004 14.88 881.805C12.161 883.742 9.35708 885.578 6.53612 887.379C5.12564 888.263 3.71516 889.163 2.45762 890.251C0.588313 891.865 -1.264 894.958 1.14911 896.963C1.93082 897.609 2.91645 897.932 3.8851 898.153C6.80802 898.782 9.88388 898.459 12.7558 897.592C15.6278 896.743 18.3128 895.383 20.9298 893.922C22.4762 893.072 24.0057 892.188 25.6881 891.678C27.8972 890.999 30.2934 890.999 32.4006 890.03C32.8934 889.809 33.3692 889.52 33.7261 889.129C34.5078 888.263 34.6438 887.022 34.7287 885.867Z" fill="#4D4D4D"/>
<path d="M97.01 796.581C96.3303 793.777 93.3564 791.941 90.4844 791.89C87.2216 791.822 84.5026 793.709 81.7836 795.238C78.6568 796.989 75.7849 799.47 72.9979 801.713C67.1011 806.454 61.5441 811.603 56.1401 816.888C48.7138 824.162 41.2876 830.874 36.2404 840.102C32.4848 846.933 28.9501 853.884 25.6194 860.919C23.954 864.437 19.2467 875.143 18.499 876.944C17.9042 878.389 16.6297 880.071 17.7003 881.515C18.8898 883.113 20.7422 884.115 22.6794 884.608C24.6167 885.101 26.622 885.169 28.6103 885.203C28.9331 885.203 29.29 885.203 29.5619 885.05C29.7658 884.931 29.9018 884.727 30.0377 884.54C36.0705 875.958 42.1203 867.326 46.5726 857.843C48.238 854.291 49.6655 850.621 51.4328 847.12C53.2512 843.517 55.4943 839.728 55.4434 835.819C59.2839 833.644 63.0396 831.333 66.7782 829.005C70.6358 826.609 74.4933 824.213 78.3509 821.816C82.0555 819.505 85.7772 817.211 89.3798 814.73C90.9603 813.642 92.5407 812.487 93.6283 810.906C94.6139 809.445 95.1067 807.729 95.5995 806.046C96.1773 804.041 96.7551 802.019 97.061 799.945C97.2309 798.841 97.3159 797.685 97.061 796.598L97.01 796.581Z" fill="#BBE341"/>
<path d="M73.2366 802.767C72.6248 802.852 72.013 802.954 71.4352 803.141C70.8404 803.328 70.5515 803.549 70.0927 803.957C69.1751 804.773 63.5161 809.378 61.7318 811.009C61.086 811.587 60.4573 812.182 59.8455 812.777C59.6076 813.015 59.1318 813.354 59.0298 813.677C58.9958 813.779 58.9788 813.915 59.0638 813.966C59.1657 814.034 59.3017 813.966 59.3867 813.881C60.1004 813.303 61.0011 813.218 61.8847 813.167C62.8874 813.117 63.89 813.15 64.8926 813.269C66.9149 813.541 68.8862 814.204 70.6535 815.207C73.0326 816.566 75.0209 818.521 76.6013 820.747C77.349 821.8 78.0118 822.905 78.6066 824.043C79.1844 825.148 79.7282 826.847 79.1674 828.054C79.5582 827.867 79.9661 827.697 80.3569 827.51C83.3988 826.134 86.4577 824.774 89.4146 823.194C90.1793 822.786 91.2499 822.327 91.8447 821.698C92.5754 820.917 92.3375 819.336 92.2695 818.351C92.1846 817.11 91.9636 815.869 91.6068 814.68C90.893 812.284 89.6695 810.041 88.0041 808.188C87.7492 807.916 87.4943 807.645 87.2224 807.373C83.5857 803.821 78.2837 802.054 73.2536 802.716L73.2366 802.767Z" fill="#4D4D4D"/>
<path d="M74.4269 868.635C73.6792 868.635 73.0674 868.057 73.0674 867.327C72.8635 853.273 72.8805 821.104 73.0844 802.037C73.1014 799.878 72.9825 797.669 72.8465 795.528C72.6426 792.197 72.4387 788.765 72.7955 785.349C73.4753 778.925 75.5825 773.385 78.8793 769.341C80.6466 767.183 83.6206 764.43 87.716 763.614C91.6756 762.832 95.7201 764.294 97.8273 767.233L95.6521 768.797C94.1737 766.724 91.1148 765.687 88.2429 766.248C85.6598 766.758 83.0768 768.457 80.9695 771.04C77.9956 774.677 76.0923 779.724 75.4806 785.621C75.1407 788.816 75.3276 791.993 75.5485 795.358C75.6845 797.55 75.8204 799.81 75.7864 802.054C75.5655 821.104 75.5655 853.239 75.7695 867.276C75.7695 868.023 75.1917 868.618 74.4439 868.635H74.4269Z" fill="#333333"/>
<path d="M111.421 732.022C103.043 731.172 94.5802 732.514 86.4742 734.792C83.3474 735.675 80.2545 736.695 77.0937 737.528C74.5616 738.19 72.0635 738.683 69.4465 738.819C67.3733 738.921 65.1811 740.485 63.5837 741.725C62.3601 742.677 61.1705 743.866 60.4908 745.277C57.9587 750.443 76.7538 752.193 79.5408 752.686C86.4742 753.893 93.4077 755.541 100.443 755.388C100.715 755.388 100.987 755.371 101.242 755.269C101.548 755.133 101.769 754.878 101.989 754.623C102.992 753.434 104.403 752.193 104.658 750.647C104.929 749.015 105.456 747.452 106.017 745.906C106.425 744.818 106.765 743.696 107.207 742.626C107.58 741.708 108.175 740.892 108.447 739.941C108.668 739.21 108.719 738.462 108.753 737.715C108.787 737.018 108.634 736.117 108.889 735.471C109.348 734.248 110.588 733.024 111.438 732.056L111.421 732.022Z" fill="#616161"/>
<path d="M36.1233 888.33C35.6985 888.126 35.6305 887.684 35.2057 887.259C34.7298 886.783 33.8292 886.766 33.4553 886.206C32.8775 885.356 32.7586 884.217 33.1154 883.266C32.1128 883.792 31.1272 884.336 30.1245 884.863C26.4199 886.834 22.7153 888.823 19.0276 890.794C16.2237 892.289 13.4027 893.802 10.7177 895.501C9.20526 896.47 8.15164 897.727 8.08367 899.597C8.03269 901.126 8.72943 902.655 9.98697 903.556C11.6354 904.729 13.7256 905.069 15.7478 905.12C19.3675 905.205 22.9872 904.423 26.25 902.859C28.4761 901.789 30.5834 900.361 32.9965 899.818C34.5939 899.461 36.2253 899.427 37.7717 898.866C39.2162 898.339 39.743 897.88 40.4227 896.47C41.9692 893.19 42.5809 889.468 42.1391 885.866C42.2071 886.477 39.8789 887.565 39.4201 887.718C38.5874 887.973 37.3809 888.483 36.5312 888.432C36.3612 888.432 36.2083 888.381 36.1063 888.33H36.1233Z" fill="#616161"/>
<path d="M122.927 792.842C122.502 793.233 122.06 793.59 121.891 793.76C121.143 794.507 120.922 795.221 120.327 796.139C119.63 797.226 117.914 797.991 116.758 798.433C113.988 799.47 110.828 799.453 107.973 798.807C105.526 798.246 103.214 797.294 100.903 796.326C99.7137 795.816 98.83 795.544 98.0483 794.575C97.7254 794.168 96.06 791.262 96.3999 790.82C94.2587 793.692 93.7319 797.447 91.9985 800.591C89.7044 804.772 85.5069 807.491 81.5304 810.108C75.5486 814.05 69.6518 818.146 63.8909 822.411C61.0529 824.501 58.232 826.643 55.8869 829.243C52.726 832.76 50.5338 837.009 48.4266 841.257C45.2998 847.579 42.3259 853.986 39.335 860.375C36.497 866.493 26.3008 884.489 27.3204 886.868C28.357 889.282 30.7021 891.032 33.1832 891.746C36.2761 892.646 39.5899 892.221 42.7167 891.44C42.9886 891.372 43.2605 891.304 43.4984 891.151C43.8383 890.947 44.0762 890.59 44.2971 890.267C53.9836 875.704 62.7353 860.528 70.4845 844.86C71.9289 841.92 73.5603 839.796 76.3643 838.079C79.5251 836.125 83.5866 835.072 87.0534 833.746C94.9045 830.755 102.807 827.934 110.658 824.943C112.561 824.213 114.481 823.499 116.249 822.496C120.327 820.185 122.349 815.716 123.76 811.484C125.935 805.01 126.071 797.838 123.913 791.33C124.049 791.72 123.505 792.332 122.944 792.859L122.927 792.842Z" fill="#CDED48"/>
<path d="M140.124 755.711C139.75 757.683 138.9 759.552 138.153 761.404C135.74 767.318 133.887 773.436 132.154 779.605C131.576 781.661 131.032 783.717 130.454 785.79C129.061 791.007 127.633 796.275 125.985 801.424C125.611 802.631 125.118 803.923 124.014 804.551C122.45 805.469 120.547 804.568 118.865 803.906C114.106 802.036 108.855 801.985 103.774 801.509C98.6762 801.017 93.3061 799.878 89.6015 796.36C88.5819 795.392 87.6642 794.185 87.4773 792.758C87.2394 791.143 87.9701 789.648 88.7688 788.186C89.0577 787.66 89.3466 787.15 89.6015 786.623C90.2813 785.314 90.7741 783.938 91.131 782.51C92.1676 778.653 92.2525 774.489 92.3885 770.462C92.6774 761.183 93.3231 751.922 94.3258 742.694C94.5637 740.638 94.9885 738.701 95.8382 737.035C96.7729 735.2 98.2343 733.687 100.478 732.719C103.281 731.512 106.476 731.461 109.501 731.835C112.917 732.243 116.265 733.161 119.544 734.129C122.501 735.013 125.441 735.931 128.109 737.477C132.052 739.737 135.145 743.187 137.881 746.807C138.815 748.03 139.699 749.305 140.209 750.766C140.821 752.5 140.447 753.978 140.124 755.694V755.711Z" fill="#4D4D4D"/>
<path d="M92.8317 785.994C90.8604 791.245 87.7676 796.275 83.6721 800.931C82.8734 801.849 82.0067 802.75 81.123 803.65C80.4773 803.413 79.8145 803.226 79.1348 803.073C80.2733 801.985 81.327 800.881 82.3296 799.742C86.2891 795.256 89.246 790.412 91.1663 785.365L92.8317 785.994Z" fill="#333333"/>
<path d="M94.0208 816.939L92.8652 815.563C97.5555 811.62 101.481 807.457 104.54 803.174C108.024 798.314 110.488 793.199 111.881 787.982L113.615 788.441C112.17 793.862 109.604 799.181 106.001 804.211C102.858 808.612 98.83 812.895 94.0208 816.922V816.939Z" fill="#333333"/>
<path d="M87.7657 806.829C87.1539 806.829 86.5251 806.88 85.9303 806.982C85.3186 807.101 84.9957 807.288 84.4859 807.627C83.4662 808.324 77.2805 812.199 75.3262 813.592C74.6295 814.085 73.9158 814.595 73.236 815.122C72.9641 815.326 72.4713 815.598 72.3184 815.92C72.2674 816.022 72.2334 816.141 72.3184 816.209C72.4033 816.294 72.5563 816.209 72.6582 816.158C73.4399 815.683 74.3406 815.7 75.2243 815.767C76.2269 815.835 77.2295 815.988 78.1982 816.243C80.1695 816.753 82.0558 817.654 83.6872 818.877C85.8794 820.526 87.6127 822.718 88.9042 825.114C89.516 826.236 90.0428 827.425 90.4847 828.632C90.7226 829.277 90.8925 829.974 90.9435 830.654C90.9605 831.011 90.9435 831.368 90.8925 831.708C90.8755 831.844 90.8415 832.064 90.7735 832.183C90.6886 832.302 90.5356 832.336 90.5186 832.591C90.6716 832.676 98.1998 830.314 101.31 829.125C102.108 828.819 103.23 828.496 103.91 827.935C104.742 827.255 104.674 825.658 104.742 824.672C104.81 823.432 104.742 822.174 104.538 820.934C104.131 818.469 103.179 816.09 101.768 814.034C101.548 813.728 101.327 813.422 101.106 813.133C97.9279 809.157 92.8808 806.761 87.7996 806.795L87.7657 806.829Z" fill="#616161"/>
<path d="M131.677 779.384C131.1 781.44 130.556 783.496 129.978 785.57C117.607 789.478 107.852 791.449 100.613 791.449C99.7462 791.449 98.8795 791.415 98.0298 791.364C95.7187 791.194 93.3735 790.77 91.2493 789.835C90.4506 789.478 89.329 789.019 88.7682 788.322C88.1735 787.575 88.7003 786.504 89.1931 785.841C89.8048 785.043 90.2297 784.108 90.4336 783.122C90.5696 782.46 90.8075 781.797 91.3853 781.372C91.4192 781.355 91.4532 781.338 91.4872 781.372C91.5042 781.389 91.4872 781.423 91.4872 781.457C91.4193 781.78 91.3513 782.086 91.2663 782.409C91.1304 782.986 91.3003 783.496 91.7251 783.904C92.3199 784.482 93.1526 784.856 93.9173 785.145C95.3108 785.654 96.8063 785.892 98.2847 786.011C100.698 786.198 103.145 786.062 105.541 785.807C109.212 785.417 112.848 784.703 116.434 783.836C121.583 782.613 126.664 781.083 131.677 779.418V779.384Z" fill="#BDF219"/>
<path d="M76.7548 705.902C77.1626 705.41 77.7064 705.053 78.3012 704.849C78.6921 704.713 79.1169 704.645 79.5078 704.798C80.8163 705.308 80.2895 706.956 79.8306 707.874C79.4738 708.587 79.0659 709.284 78.947 710.066C78.896 710.389 78.845 710.78 78.5391 710.881C78.4371 710.915 78.3182 710.898 78.2162 710.881C76.4319 710.525 75.6332 708.095 76.3469 706.565C76.4489 706.327 76.6018 706.123 76.7548 705.919V705.902Z" fill="#D9D9D9"/>
<path d="M82.8048 767.267C82.4784 764.386 50.9056 485.255 71.4997 18.7998C71.7445 13.4307 72.4952 10.5497 73.1642 12.514C73.8333 14.4783 74.1597 20.3712 73.9312 25.7403C53.8756 480.017 86.3519 762.948 86.662 765.568L82.8048 767.267Z" fill="#333333"/>
<path d="M102.788 785.994V770.717C102.788 768.389 101.956 766.57 100.477 765.721C99.1688 764.973 97.6054 765.041 96.008 765.959L95.2942 766.384C92.2694 768.117 89.9072 772.569 89.9072 776.529V793.641C89.9072 795.97 90.7739 797.771 92.2354 798.638C92.8301 798.978 93.4759 799.13 94.1387 799.13C94.9544 799.13 95.838 798.876 96.6877 798.383L97.4185 797.975C99.5257 796.734 101.31 794.185 102.194 791.415C101.65 791.432 101.14 791.449 100.613 791.449C100.154 791.449 99.6786 791.449 99.2198 791.432C98.4891 793.2 97.2995 794.78 96.008 795.528L95.2942 795.953C94.9034 796.174 94.1727 796.513 93.6458 796.208C93.0681 795.868 92.7282 794.899 92.7282 793.658V776.546C92.7282 773.606 94.5295 770.088 96.7047 768.831L97.4185 768.423C97.7074 768.27 98.1492 768.049 98.557 768.049C98.744 768.049 98.9139 768.083 99.0499 768.168C99.6276 768.491 99.9675 769.476 99.9675 770.717V786.045C100.902 786.062 101.837 786.045 102.771 785.994H102.788Z" fill="#F46300"/>
<path d="M93.8918 768.117L93.46 9.12225C93.46 4.0415 94.1172 0 94.9434 0C95.7696 0 96.4268 4.0415 96.4268 9.12225L96.8587 768.117H93.8918Z" fill="#333333"/>
<path d="M95.2425 770.598C97.3073 770.598 98.9812 768.924 98.9812 766.859C98.9812 764.794 97.3073 763.121 95.2425 763.121C93.1777 763.121 91.5039 764.794 91.5039 766.859C91.5039 768.924 93.1777 770.598 95.2425 770.598Z" fill="#333333"/>
<path d="M109.416 739.636C109.433 740.043 109.467 740.451 109.637 740.825C109.926 741.437 110.571 741.777 111.2 742.015C113.783 742.966 116.672 742.593 119.289 741.76C121.906 740.927 124.353 739.619 126.936 738.65C127.174 738.565 127.446 738.446 127.514 738.191C127.548 738.072 127.514 737.936 127.48 737.8C127.174 736.764 126.206 736.084 125.713 735.132C125.373 734.47 125.288 733.705 125.203 732.957C124.897 729.966 124.71 726.975 124.625 723.984C123.13 726.584 120.955 728.777 118.388 730.289C116.621 731.326 114.497 732.073 112.509 731.564C111.948 731.428 111.387 731.173 110.809 731.173C109.994 731.173 109.178 731.649 108.804 732.379C108.226 733.518 109.008 734.283 109.144 735.336C109.314 736.764 109.314 738.225 109.382 739.653L109.416 739.636Z" fill="#FFAF80"/>
<path d="M130.506 709.624C130.387 708.282 130.115 706.922 129.418 705.767C128.824 704.781 127.974 703.999 127.022 703.354C124.218 701.416 120.65 700.669 117.285 701.144C113.92 701.62 110.742 703.286 108.312 705.665C107.225 706.718 106.273 707.925 105.644 709.301C105.083 710.525 104.795 711.867 104.608 713.21C104.37 714.824 104.285 716.439 104.319 718.07C104.353 719.447 104.642 720.806 104.71 722.2C104.846 725.394 104.93 728.623 105.882 731.699C106.375 733.297 107.225 734.945 108.754 735.591C109.315 735.829 109.944 735.914 110.555 735.931C112.255 735.982 113.937 735.574 115.535 734.996C117.336 734.35 119.086 733.466 120.463 732.141C121.992 730.68 122.417 728.589 123.539 726.822C123.573 726.771 123.607 726.703 123.675 726.686C123.777 726.652 123.878 726.72 123.963 726.771C124.49 727.043 125.136 726.652 125.544 726.21C126.394 725.292 126.937 724.086 127.498 722.998C128.212 721.639 128.79 720.16 129.266 718.699C130.234 715.793 130.761 712.7 130.506 709.641V709.624Z" fill="#FFC7A6"/>
<path d="M117.641 710.015C118.27 710.253 118.967 710.814 119.052 711.527C119.137 712.224 118.61 712.768 118.542 713.448C118.457 714.246 118.576 715.045 118.984 715.742C119.8 717.169 121.601 717.917 122.077 719.481C122.281 720.109 122.264 721.214 122.977 721.52C123.079 721.282 123.028 721.027 123.079 720.789C123.147 720.483 123.351 720.194 123.538 719.939C123.963 719.345 124.507 718.835 125.119 718.461C125.408 718.274 125.73 718.121 126.07 718.104C126.393 718.087 126.716 718.189 127.005 718.359C128.127 719.005 128.636 720.551 128.11 721.741C129.571 719.192 130.642 716.422 131.253 713.55C131.644 711.748 131.848 709.879 131.406 708.095C130.965 706.31 129.775 704.645 128.059 703.999C127.668 703.863 127.243 703.761 126.903 703.506C126.546 703.235 126.325 702.827 126.07 702.453C125.221 701.212 123.895 700.346 122.468 699.887C121.04 699.428 119.511 699.343 118.015 699.394C115.398 699.513 112.781 700.108 110.504 701.365C108.227 702.623 106.29 704.628 105.338 707.058C105.134 707.602 104.964 708.163 104.794 708.723C104.726 708.961 104.658 709.199 104.709 709.42C104.777 709.692 104.981 709.896 105.185 710.049C105.695 710.44 106.324 710.678 106.952 710.831C108.754 711.307 110.691 711.273 112.475 710.746C113.325 710.491 114.141 710.134 115.007 709.93C115.874 709.709 116.792 709.641 117.624 709.964L117.641 710.015Z" fill="#804B40"/>
<path d="M130.352 710.202C126.953 708.163 123.011 707.109 119.051 706.939C116.927 706.854 114.803 707.007 112.696 707.364C111.659 707.534 110.588 707.738 109.569 708.044C109.178 708.163 108.957 708.231 108.702 707.823C108.617 707.687 108.396 706.939 108.668 706.871C106.357 707.517 104.199 708.655 102.38 710.202C101.65 710.814 100.97 711.51 100.579 712.36C99.4575 714.756 101.531 716.524 103.468 717.543C110.147 721.027 118.202 721.061 125.526 719.277C126.885 718.937 128.262 718.546 129.485 717.849C130.709 717.152 131.797 716.15 132.34 714.858C132.663 714.093 132.782 713.244 132.663 712.428C132.561 711.765 132.493 711.493 131.882 711.221C131.338 710.967 130.862 710.525 130.335 710.202H130.352Z" fill="#D8AE00"/>
<path d="M107.531 716.116C109.333 716.914 111.287 717.322 113.241 717.662C118.56 718.58 124.219 718.92 129.181 716.796C129.963 716.456 130.864 716.014 131.509 715.453C132.138 714.926 132.41 713.89 132.58 713.108C133.022 711.188 132.767 709.165 132.325 707.279C131.985 705.818 131.526 704.39 130.864 703.048C129.164 699.683 126.037 697.083 122.435 696.012C118.815 694.942 114.771 695.434 111.525 697.338C108.279 699.241 105.866 702.521 105.033 706.191C104.846 707.007 104.727 707.874 104.269 708.588C104.048 708.91 103.776 709.199 103.572 709.539C102.773 710.865 102.994 712.683 104.065 713.771C105.05 714.773 106.257 715.538 107.531 716.099V716.116Z" fill="#EFC100"/>
<path d="M112.187 712.054C111.711 713.057 111.252 714.059 110.912 715.113C110.742 715.64 110.436 716.2 110.742 716.744C110.844 716.948 111.014 717.101 111.167 717.271C110.317 717.475 109.434 717.339 108.584 717.135C107.598 716.914 106.613 716.608 105.746 716.098C105.185 715.776 104.658 715.351 104.25 714.841C104.098 714.654 103.894 714.433 103.809 714.212C103.69 713.906 103.741 713.498 103.809 713.175C104.59 710.185 106.035 707.381 107.802 704.832C109.162 702.877 110.793 701.127 112.645 699.648C113.461 699.003 114.311 698.391 115.211 697.847C116.673 696.963 118.253 696.216 119.953 695.995C122.213 695.706 124.592 696.403 126.325 697.881C122.944 698.629 119.97 700.702 117.659 703.285C115.347 705.868 113.665 708.927 112.187 712.054Z" fill="#EFC100"/>
<path d="M68.3759 722.471C67.4242 724.052 66.2856 725.496 65.317 727.076C63.2437 730.458 62.0712 734.316 60.9326 738.105C60.2868 740.264 59.6241 742.473 59.5901 744.733C59.5731 745.736 59.726 746.823 60.4398 747.503C61.0006 748.03 61.8333 748.217 62.598 748.166C63.9915 748.081 65.283 747.384 66.4046 746.534C68.4268 745.022 70.0922 743.051 71.2478 740.79C71.3668 740.569 71.4687 740.332 71.5367 740.077C71.6047 739.805 71.6047 739.533 71.6217 739.244C71.7576 735.42 72.6413 731.682 73.525 727.96C73.8988 726.397 73.7459 725.122 74.8335 723.797C75.3943 723.117 76.057 722.505 76.5329 721.757C76.6858 721.536 76.8217 721.248 76.7368 720.993C76.6178 720.585 76.074 720.483 75.8021 720.16C75.4113 719.701 75.5812 718.885 75.0714 718.546C73.8478 717.73 71.9106 715.844 70.4661 717.39C69.9563 717.934 69.9223 718.868 69.7184 719.548C69.3955 720.568 68.9197 721.536 68.3759 722.454V722.471Z" fill="#FFAF80"/>
<path d="M64.4687 743.747C65.1995 743.492 65.8962 743.153 66.5759 742.813C68.1904 741.98 69.7878 740.943 70.6884 739.38C70.8924 739.023 71.0623 738.632 71.1473 738.241C71.2662 737.698 71.2492 737.069 71.6061 736.644C71.6401 736.593 71.6911 736.542 71.759 736.542C71.793 736.542 71.827 736.542 71.861 736.576C72.2688 736.831 72.0139 737.783 72.6427 737.715C72.9656 737.681 73.2375 737.511 73.5434 737.392C73.6283 737.358 73.7133 737.341 73.7983 737.375C73.8663 737.392 73.9002 737.46 73.9342 737.511C74.427 738.207 74.495 739.125 74.512 739.975C74.512 741.657 74.3251 743.356 73.9512 745.005C73.4074 747.299 72.4218 749.593 70.6205 751.106C70.4505 751.259 70.2636 751.395 70.0427 751.445C69.8897 751.479 69.7198 751.445 69.5498 751.445C67.2557 751.14 64.9785 750.664 62.7524 750.001C61.9537 749.763 61.1379 749.491 60.5602 748.896C60.1013 748.438 59.8294 747.826 59.6255 747.197C59.2007 745.906 58.9797 744.359 59.3366 743.034C59.4216 742.711 59.5575 742.388 59.7785 742.133C59.7785 742.133 59.8124 742.099 59.8294 742.099C59.8804 742.099 59.8974 742.167 59.8804 742.218C59.7785 742.745 59.4726 743.679 60.1183 744.019C60.3902 744.189 60.7131 744.24 61.019 744.274C62.1916 744.393 63.3471 744.155 64.4517 743.764L64.4687 743.747Z" fill="#737373"/>
<path d="M65.8618 724.817C65.6408 725.089 65.4199 725.395 65.4199 725.734C65.4199 725.921 65.5049 726.091 65.5899 726.261C66.3206 727.655 67.7141 728.606 69.1925 729.133C70.0422 729.422 70.9089 729.609 71.8096 729.728C72.2514 729.779 72.6932 729.83 73.1521 729.864C73.6959 729.915 73.8658 730.017 74.0018 729.473C74.4436 727.723 75.0554 726.023 75.8541 724.409C76.5848 722.947 77.4515 721.571 78.0293 720.059C78.2502 719.481 78.4371 718.835 78.2332 718.24C77.8933 718.359 77.5704 718.376 77.2306 718.444C76.9757 718.495 76.7377 718.614 76.4658 718.597C76.058 718.546 75.7011 718.274 75.3952 717.985C74.4776 717.136 73.6789 716.184 72.9991 715.147C72.4723 714.332 71.7926 713.805 70.8239 714.332C70.2461 714.655 70.1442 715.198 70.0592 715.81C69.7193 717.883 68.9376 719.872 67.935 721.707C67.3402 722.811 66.6435 723.865 65.8618 724.851V724.817Z" fill="#D9D9D9"/>
<path d="M70.4834 711.017C70.5174 711.119 70.5513 711.238 70.5004 711.34C70.4664 711.442 70.3644 711.51 70.2794 711.578C69.3958 712.292 69.2938 713.77 70.0585 714.586C69.5147 715.385 69.4298 716.489 69.8546 717.356C69.9906 717.628 70.1775 717.9 70.2285 718.206C70.2795 718.545 70.1435 718.902 70.1265 719.242C70.0755 719.99 70.5344 720.687 71.1461 721.111C71.7579 721.536 72.5056 721.706 73.2364 721.808C74.8508 722.029 76.5501 721.961 78.0286 721.281C78.5044 721.061 78.9632 720.772 79.2861 720.347C79.609 719.922 79.7789 719.361 79.626 718.851C79.592 718.715 79.524 718.579 79.558 718.443C79.592 718.274 79.745 718.155 79.8809 718.053C80.8326 717.237 80.9005 715.589 79.9999 714.688C80.6116 714.45 81.0025 713.753 80.9005 713.107C80.7986 712.547 80.3907 712.088 79.9999 711.68C80.6286 711.459 80.9855 710.677 80.7476 710.049C80.6456 709.794 80.4587 709.573 80.2718 709.369C78.8783 707.873 76.839 706.973 74.7998 706.956C72.6246 706.939 69.8376 708.417 70.5004 711.017H70.4834Z" fill="#E6E6E6"/>
<path d="M124.422 758.447C123.504 760.197 122.875 762.083 122.297 764.004C121.227 767.572 120.343 771.192 119.697 774.846C119.188 777.701 118.797 780.573 118.542 783.462C118.44 784.617 118.117 786.028 118.27 787.166C118.457 788.458 119.273 789.936 119.782 791.126C120.326 792.383 120.921 793.641 121.771 794.728C122.569 795.748 123.691 796.649 124.999 796.632C125.543 796.632 126.07 796.462 126.58 796.258C130.098 794.728 131.627 791.347 133.071 788.05C134.72 784.26 136.079 780.369 137.439 776.46C138 774.829 138.577 773.197 139.019 771.532C139.631 769.187 140.005 766.774 140.277 764.378C140.685 760.911 140.906 757.427 140.94 753.943C140.974 751.394 139.342 749.678 136.708 749.899C132.222 750.273 129.044 752.346 126.223 755.745C125.526 756.595 124.931 757.512 124.439 758.464L124.422 758.447Z" fill="#616161"/>
<path d="M85.4724 789.138C85.0985 789.138 84.7077 789.155 84.4188 789.393C84.2319 789.546 84.1469 789.767 84.0619 789.988C83.2632 792.095 83.2632 794.508 84.0619 796.615C84.1299 796.785 84.1979 796.955 84.3508 797.057C84.8436 797.414 86.2371 797.159 86.8489 797.193C87.8855 797.244 88.9391 797.295 89.9757 797.38C92.066 797.533 94.1392 797.754 96.2124 797.992C100.376 798.468 104.522 799.028 108.703 799.385C111.065 799.589 113.444 799.708 115.789 799.436C117.523 799.232 119.239 798.79 120.938 798.349C122.06 798.06 123.181 797.737 124.167 797.159C125.374 796.445 126.818 795.052 126.733 793.573C126.614 791.687 126.172 789.886 125.034 788.322C123.895 786.742 121.635 785.026 119.562 785.145C118.44 785.212 117.285 785.722 116.214 785.994C114.855 786.351 113.495 786.657 112.119 786.946C106.528 788.067 100.835 788.611 95.1588 788.883C91.93 789.036 88.7182 789.104 85.4894 789.138H85.4724Z" fill="#FFC7A6"/>
<path d="M116.401 785.858C116.01 786.062 115.67 786.249 115.789 786.793C116.299 789.104 117.063 791.398 118.423 793.335C119.782 795.273 121.771 796.853 124.082 797.346C126.325 797.822 128.738 796.105 130.182 794.525C131.508 793.08 132.443 791.33 133.275 789.546C133.734 788.543 134.176 787.54 134.584 786.521C134.737 786.147 135.451 784.72 134.873 784.465C134.38 784.244 134.278 785.178 134.142 785.433C133.836 786.011 133.088 786.147 132.443 786.198C130.216 786.368 127.956 786.181 125.764 785.722C123.657 785.28 121.516 784.55 120.037 782.986C119.68 782.629 119.374 782.204 119.221 781.729C119.052 781.168 119.103 780.59 119.018 780.012C119.001 779.893 119.018 779.502 118.763 779.621C118.644 779.689 118.61 779.825 118.593 779.961C118.406 781.083 117.93 784.261 117.743 784.669C117.556 785.076 117.148 785.399 116.791 785.637C116.672 785.722 116.553 785.773 116.435 785.841L116.401 785.858Z" fill="#737373"/>
<path d="M80.578 783.921C79.8303 783.547 79.0825 783.173 78.2668 783.003C77.4172 782.833 76.8224 783.003 76.0407 783.309C75.6498 783.462 75.5818 784.175 75.5478 784.532C75.4969 785.11 75.4289 785.671 75.3779 786.249C75.3269 786.758 75.3779 787.149 74.8341 787.353C74.5452 787.455 74.2053 787.438 73.8995 787.421C73.6785 787.421 73.4746 787.387 73.2707 787.319C73.0668 787.251 72.8798 787.098 72.8119 786.911C72.7609 786.775 72.7609 786.64 72.7609 786.504C72.7609 785.552 72.7609 784.6 72.9648 783.683C71.6223 784.226 70.6537 785.603 70.5687 787.047C70.5347 787.71 70.6706 788.373 70.7556 789.036C70.7896 789.274 70.8916 789.511 70.8576 789.749C70.8236 790.021 70.7216 790.293 70.6367 790.565C70.3478 791.551 70.4667 792.638 70.9765 793.539C71.2144 793.964 71.5203 794.355 71.6053 794.831C71.6563 795.204 71.5543 795.612 71.6733 795.969C71.8262 796.428 72.285 796.7 72.54 797.108C72.7609 797.482 72.8119 797.974 73.1177 798.297C73.4066 798.603 73.8655 798.688 74.2733 798.722C75.072 798.807 75.8707 798.858 76.6864 798.875C78.2159 798.875 79.7283 798.739 81.2577 798.603C83.4159 798.399 85.5742 798.212 87.7324 798.008C88.5311 797.94 89.9755 798.093 90.6893 797.736C91.403 797.38 91.7939 796.02 92.0148 795.323C92.6775 793.25 92.9494 791.041 92.7965 788.849C92.7965 788.747 92.7795 788.628 92.7115 788.543C92.5756 788.373 92.3377 788.424 92.1337 788.441C91.284 788.56 90.4513 788.271 89.6526 787.982C87.2055 787.064 84.8094 786.045 82.4473 784.906C81.8865 784.634 81.2577 784.26 80.612 783.921H80.578Z" fill="#D9D9D9"/>
</svg>
