<svg width="131" height="1395" viewBox="0 0 131 1395" fill="none" xmlns="http://www.w3.org/2000/svg">
<path d="M73.2842 1212.2C72.9154 1212.9 72.4301 1213.51 72.2166 1214.29C71.9642 1215.2 72.1583 1216.26 71.7701 1217.11C71.5177 1217.69 71.0324 1218.14 70.5665 1218.56C70.353 1218.74 70.1394 1218.94 69.8871 1219.08C69.6153 1219.22 69.2853 1219.3 68.9747 1219.34C67.6158 1219.57 66.2181 1219.49 64.8593 1219.26C64.7622 1219.26 64.704 1219.22 64.6069 1219.22C62.9763 1219.61 61.365 1220.05 59.7538 1220.53C53.5224 1222.34 47.4464 1224.66 41.5838 1227.48C40.5744 1227.98 39.4873 1228.49 38.3808 1228.38C37.6819 1228.3 37.0413 1228 36.4201 1227.64C34.8671 1226.73 33.5083 1225.49 32.4406 1224.04C31.8 1223.19 31.2564 1222.22 31.0235 1221.16C30.8488 1220.39 30.7517 1219.22 31.2176 1218.5C31.567 1217.94 32.4794 1217.71 33.0424 1217.47C34.9836 1216.71 37.0607 1216.41 39.1184 1216.18C40.6714 1216 42.2244 1215.68 43.758 1215.42C46.6893 1214.92 49.6011 1214.41 52.5324 1213.89C53.9301 1213.65 56.2596 1213.24 58.2979 1212.86C60.2779 1212.5 61.9862 1212.2 62.2192 1212.1C62.6463 1211.94 63.0539 1211.67 63.4422 1211.47C64.6069 1210.83 65.7522 1210.16 66.917 1209.56C67.8682 1209.06 68.8388 1208.59 69.8871 1208.41C70.9547 1208.23 72.1001 1208.37 72.9542 1209.02C73.2454 1209.26 73.4978 1209.56 73.6531 1209.92C73.9443 1210.63 73.6531 1211.47 73.3036 1212.16L73.2842 1212.2Z" fill="#CCF275"/>
<path d="M74.1383 1211.92C73.7112 1212.7 73.1871 1213.4 72.9541 1214.25C72.6629 1215.28 72.8959 1216.45 72.4494 1217.43C72.1582 1218.08 71.6341 1218.58 71.0905 1219.06C70.8576 1219.26 70.6052 1219.49 70.314 1219.63C70.0034 1219.79 69.6346 1219.87 69.2852 1219.93C67.7516 1220.19 66.1792 1220.11 64.665 1219.85C64.568 1219.85 64.4709 1219.81 64.3738 1219.79C62.8403 1220.17 61.3261 1220.57 59.8313 1221C59.3849 1221.12 58.9772 1220.79 58.9966 1220.31C59.1131 1217.33 58.4142 1215.06 57.7348 1213.57C57.5213 1213.12 57.793 1212.6 58.2783 1212.52C60.0643 1212.2 61.462 1211.94 61.6949 1211.87C62.1608 1211.69 62.6267 1211.39 63.0732 1211.15C64.3738 1210.43 65.655 1209.68 66.9751 1209C68.0428 1208.45 69.1299 1207.91 70.314 1207.69C71.4982 1207.49 72.7988 1207.65 73.75 1208.39C74.08 1208.67 74.3712 1208.98 74.5459 1209.4C74.8565 1210.22 74.5459 1211.15 74.1383 1211.92Z" fill="#BDF219"/>
<path d="M25.5298 1213.83C27.7817 1214.55 30.0723 1215.2 32.3824 1215.66C34.4983 1216.1 36.4784 1216.87 37.779 1218.74C38.1673 1219.28 38.4585 1219.89 38.7302 1220.51C39.7979 1223.03 40.2056 1225.85 39.8562 1228.57C39.7591 1229.37 39.5844 1230.16 39.235 1230.88C39.1767 1231.02 39.0797 1231.16 38.9438 1231.22C38.7496 1231.28 38.5361 1231.14 38.4585 1230.94C38.2449 1230.44 38.2643 1230.28 37.8567 1229.85C37.3325 1229.31 36.5366 1228.44 35.799 1228.24C35.4495 1228.14 35.3719 1228.28 35.0419 1228.38C34.576 1228.51 34.0713 1228.51 33.6054 1228.55C32.5765 1228.63 31.5477 1228.69 30.5382 1228.69C27.7234 1228.69 24.8698 1228.34 22.2297 1227.32C20.832 1226.79 19.4537 1226.05 18.4443 1224.9C17.7843 1224.14 17.3184 1223.23 16.9107 1222.32C16.4642 1221.36 16.1925 1220.29 15.7071 1219.38C15.2995 1218.6 15.183 1217.79 14.9501 1216.95C14.7559 1216.2 14.1347 1215.86 13.5136 1215.44C12.407 1214.73 11.3782 1213.85 10.5046 1212.88C10.1552 1212.5 9.80579 1212 9.92226 1211.51C10.0581 1210.91 10.7376 1210.63 11.3394 1210.51C14.6395 1209.9 17.959 1211.15 21.1232 1212.28C22.5985 1212.82 24.0933 1213.34 25.5881 1213.81L25.5298 1213.83Z" fill="#545452"/>
<path d="M70.5669 1304.09C72.2752 1305.4 74.7988 1305.48 76.5847 1304.27C77.9436 1303.36 78.8172 1301.83 79.3801 1300.28C79.6131 1299.64 79.8072 1298.97 80.1566 1298.37C80.7196 1297.38 81.6125 1296.66 82.4279 1295.89C85.0485 1293.42 87.4751 1290.38 87.7274 1286.63C87.7663 1286.01 87.7857 1285.38 87.6304 1284.76C87.2616 1283.33 86.2909 1282.93 84.9709 1283.13C82.1367 1283.55 79.7295 1285.46 77.6524 1287.48C75.5365 1289.55 73.6146 1291.79 71.8869 1294.22C69.9651 1296.9 67.0144 1301.37 70.5863 1304.09H70.5669Z" fill="#40403F"/>
<path d="M76.0218 1290.62C76.0218 1290.62 76.0218 1290.56 76.0024 1290.52C75.8277 1289.97 75.5559 1289.41 75.3424 1288.87C74.3912 1286.51 73.4594 1284.17 72.5082 1281.8C71.4017 1279.04 70.2952 1276.26 69.1693 1273.5C68.6257 1272.13 68.0627 1270.75 67.4998 1269.38C66.7039 1267.42 65.9856 1265.39 65.0732 1263.46C64.5491 1262.33 63.1514 1261.46 61.9673 1261.32C58.9389 1260.96 55.8718 1261.1 52.8434 1261.42C45.292 1262.21 37.9153 1264.16 30.4804 1265.73C25.7826 1266.72 21.0071 1267.56 16.5035 1269.24C14.504 1270 12.5822 1270.95 10.7962 1272.13C10.2139 1272.5 9.70913 1273.26 9.08794 1273.56C8.50557 1273.83 7.78731 1273.5 7.24376 1273.22C6.60315 1272.86 6.05961 1272.36 5.63253 1271.77C5.47723 1271.55 4.68133 1270.34 4.85604 1270.1C2.68185 1273.16 1.59476 1277.05 2.00242 1280.81C2.42949 1284.56 4.39014 1288.16 7.39906 1290.34C9.06852 1291.56 11.1262 1292.11 13.1257 1292.35C15.0087 1292.57 17.0858 1292.77 18.9494 1292.55C23.6084 1291.99 27.9762 1290.07 32.2857 1288.28C39.7789 1285.18 47.4662 1282.34 54.61 1278.5C54.9012 1279.3 55.27 1280.05 55.6971 1280.75C56.9589 1282.83 58.6477 1284.58 60.2201 1286.43C63.2873 1290.01 68.6645 1298.93 69.0334 1299.17C69.4604 1299.42 69.8875 1299.23 70.2952 1298.99C71.7705 1298.11 73.11 1296.96 74.1388 1295.55C74.7794 1294.66 75.3036 1293.66 75.653 1292.61C75.8471 1292.03 76.1577 1291.24 76.0024 1290.6L76.0218 1290.62Z" fill="#BDF219"/>
<path d="M34.1295 1264.58L22.1133 1267.18C32.3824 1268.65 29.9559 1289.41 29.9559 1289.41L39.7203 1285.4C44.4569 1272.6 34.1101 1264.58 34.1101 1264.58H34.1295Z" fill="#40403F"/>
<path d="M22.0936 1374.96C21.2201 1377.03 21.7054 1379.83 23.8407 1380.84C26.5973 1382.16 28.3638 1384.08 30.2662 1386.45C31.9551 1388.55 33.7799 1390.54 35.8958 1392.17C37.2547 1393.22 38.7883 1394.14 40.4771 1394.41C41.2925 1394.55 42.1854 1394.51 42.8843 1394.06C43.952 1393.36 44.2626 1391.87 44.2043 1390.58C44.0878 1388.47 43.2531 1386.49 42.3019 1384.62C40.7101 1381.5 38.7494 1378.62 36.7111 1375.78C35.8376 1374.55 34.9252 1373.29 33.6828 1372.44C33.974 1372.64 33.3722 1373.75 33.2363 1373.91C32.6928 1374.55 32.4016 1374.11 31.8775 1373.69C31.1204 1373.1 30.0333 1372.86 29.4509 1372.02C29.2762 1371.76 28.3056 1369.38 28.7715 1369.22C26.5779 1370.04 24.5008 1371.33 23.0836 1373.24C22.6954 1373.77 22.346 1374.35 22.0936 1374.98V1374.96Z" fill="#545452"/>
<path d="M56.5124 1324.52C56.6094 1320.39 54.8235 1316.79 53.4452 1312.9C51.4457 1307.25 49.0192 1301.73 45.7773 1296.7C42.9237 1292.29 39.4295 1288.26 37.3135 1283.41C35.8188 1279.99 35.0811 1276.3 33.8581 1272.8C33.4116 1271.55 32.8681 1270.26 31.8392 1269.44C30.8298 1268.65 29.5097 1268.43 28.2479 1268.23C25.6661 1267.83 23.9384 1267.34 21.5312 1268.37C18.4253 1269.72 14.4846 1268.71 12.388 1265.99C9.88382 1272.32 7.32138 1279.08 8.42789 1285.83C10.0585 1295.67 18.8912 1302.54 25.3749 1309.16C30.0921 1313.97 34.7705 1318.92 38.4783 1324.62C39.2353 1325.79 40.2448 1326.84 39.9924 1328.31C39.7595 1329.7 38.9053 1330.72 38.2065 1331.91C37.2359 1333.56 36.4011 1335.33 35.8188 1337.17C35.4111 1338.45 35.1587 1339.78 34.9064 1341.09C32.9069 1350.9 30.0727 1360.56 26.4426 1369.88C26.3455 1370.14 26.229 1370.41 26.2873 1370.69C26.3261 1370.91 26.4814 1371.11 26.6367 1371.27C28.9856 1373.99 32.5381 1375.58 36.0905 1375.54C37.7794 1371.74 39.6236 1367.99 41.4872 1364.27C45.7967 1355.63 50.3004 1347.05 53.5423 1337.91C54.9982 1333.8 56.1629 1329.56 56.4735 1325.19C56.4735 1324.98 56.4929 1324.74 56.5124 1324.52Z" fill="#BBE341"/>
<path d="M9.65069 1210.81C8.15594 1211.33 6.89413 1212.4 5.9041 1213.65C2.79812 1217.61 2.04104 1222.95 1.78868 1227.94C1.69162 1229.77 1.80809 1231.63 1.84691 1233.46C2.00221 1239.74 2.25457 1267.66 2.15751 1275.3C2.15751 1275.7 2.15751 1276.1 2.31281 1276.46C2.48752 1276.85 2.85636 1277.11 3.20578 1277.35C8.38889 1280.83 14.8338 1281.72 21.0263 1281.84C23.8411 1281.9 26.6948 1281.8 29.4707 1281.3C30.9267 1281.05 36.2651 1280.27 36.168 1278.23C35.4497 1264.06 36.6533 1249.87 37.8763 1235.75C38.1092 1233.1 38.3034 1230.32 37.2551 1227.9C36.3233 1225.79 34.518 1224.2 32.5573 1223.05C30.5967 1221.9 28.4613 1221.1 26.4036 1220.13C23.1811 1218.6 20.1916 1216.57 17.5321 1214.17C15.125 1211.98 13.1449 1209.56 9.63128 1210.79L9.65069 1210.81Z" fill="#40403F"/>
<path d="M35.1131 1264.25L33.3271 1262.86L59.2039 1228.25C67.6288 1216.98 72.2296 1202.97 72.1713 1188.81L71.8025 1.15242C71.8025 0.516634 72.3072 0 72.909 0C73.5302 0 74.0349 0.516637 74.0349 1.13255L74.4038 1188.79C74.462 1203.47 69.6865 1217.97 60.9704 1229.64L35.0937 1264.25H35.1131Z" fill="#262625"/>
<path d="M15.2218 1298.87C13.3 1297.72 11.3393 1296.46 9.59221 1294.89C7.41802 1292.93 6.00091 1290.74 5.34089 1288.42C5.0303 1287.31 4.91382 1286.19 4.79735 1284.96C4.46734 1281.4 4.17615 1277.65 4.48675 1273.83C4.66146 1271.73 4.97206 1269.26 6.02033 1266.96L8.05863 1267.91C7.16566 1269.88 6.87447 1272.11 6.71917 1274.01C6.42799 1277.63 6.71917 1281.28 7.04918 1284.72C7.14625 1285.85 7.26272 1286.85 7.51508 1287.78C8.03921 1289.67 9.28161 1291.54 11.087 1293.19C11.1258 1293.23 11.1646 1293.25 11.2034 1293.29C12.3294 1295.25 13.7076 1297.1 15.2412 1298.87H15.2218Z" fill="#262625"/>
<path d="M23.6471 1306.18C18.9104 1302.66 14.9115 1297.62 12.0773 1291.62C10.2525 1287.76 8.87423 1283.39 7.98126 1278.66C7.24359 1274.81 6.48651 1269.76 7.14653 1264.93L9.35954 1265.25C8.73834 1269.74 9.4566 1274.55 10.1749 1278.2C11.0484 1282.75 12.3685 1286.93 14.0962 1290.6C16.7557 1296.28 20.5217 1301.01 24.9671 1304.31L23.6471 1306.16V1306.18Z" fill="#262625"/>
<path d="M41.2732 1289.99C40.9626 1289.61 40.652 1289.21 40.3996 1288.81C40.4773 1289.27 40.6908 1289.67 40.749 1290.11C40.8267 1290.56 40.8073 1291.08 40.749 1291.52C40.652 1292.05 40.4967 1292.59 40.2831 1293.11C39.8561 1294.14 39.2349 1295.07 38.5554 1295.93C37.2548 1297.6 35.5854 1298.93 33.7606 1299.96C32.0135 1300.93 30.1499 1301.65 28.2281 1302.15C26.5586 1302.58 24.8697 1302.88 23.1614 1303.06C22.5014 1303.12 21.8414 1303.18 21.1814 1303.2C20.6766 1303.22 20.2496 1303.14 19.7643 1302.98C19.5119 1302.9 19.2789 1302.82 19.046 1302.7C18.8907 1302.62 18.5025 1302.5 18.4248 1302.34C19.0848 1303.54 20.1331 1304.53 21.0261 1305.54C22.0161 1306.66 23.0061 1307.77 23.9767 1308.88C25.8403 1311.03 28.5969 1312.16 31.3923 1311.84C36.3618 1311.25 43.9909 1309.28 47.4851 1302.82C48.2616 1301.37 48.1452 1300.04 47.4851 1298.57C46.301 1295.95 44.5539 1293.64 42.6515 1291.52C42.1856 1291 41.7197 1290.5 41.2732 1289.97V1289.99Z" fill="#40403F"/>
<path d="M2.56495 1268.69C5.9427 1270.79 20.2302 1278.52 35.6436 1269.3C36.226 1268.95 36.5949 1268.29 36.5949 1267.6V1261.87C36.5949 1260.84 36.6725 1259.79 36.5949 1258.77C36.5949 1258.69 36.5949 1258.59 36.5366 1258.54C36.4978 1258.48 36.4007 1258.44 36.3231 1258.48C36.2648 1258.52 36.2454 1258.58 36.226 1258.65C36.1484 1258.97 36.1872 1259.29 35.9542 1259.55C35.7213 1259.85 35.3136 1260.07 35.0224 1260.28C34.343 1260.76 33.6053 1261.18 32.8483 1261.52C31.3147 1262.23 29.684 1262.69 28.0534 1263.09C24.5009 1263.94 20.8514 1264.46 17.1825 1264.34C13.5329 1264.22 9.864 1263.44 6.58331 1261.81C5.59328 1261.32 4.64207 1260.74 3.78793 1260.01C3.38027 1259.65 3.01143 1259.23 2.66201 1258.79C2.29317 1258.32 2.27376 1257.96 2.23494 1257.34C2.23494 1257.3 2.23494 1257.24 2.19611 1257.22C2.11846 1257.16 2.04081 1257.26 2.00199 1257.36C1.8661 1257.72 1.74963 1268.17 2.58436 1268.69H2.56495Z" fill="#BDF219"/>
<path d="M37.2943 1197C37.2749 1197.48 37.236 1197.98 37.3331 1198.43C37.4884 1199.21 37.9543 1199.86 38.3231 1200.56C38.3814 1200.68 38.4396 1200.8 38.4396 1200.94C38.4202 1201.24 38.0514 1201.37 37.7796 1201.49C36.6343 1201.97 36.0713 1203.3 35.9354 1204.55C35.7995 1205.81 35.9937 1207.08 35.8578 1208.33C35.7025 1209.58 35.1007 1210.91 33.9359 1211.33C33.1012 1211.65 32.1694 1211.43 31.3153 1211.65C29.9564 1212 29.6264 1213.37 29.2964 1214.61C28.8499 1216.32 28.3452 1218 27.7822 1219.65C27.6463 1220.05 27.4716 1220.49 27.1028 1220.69C26.7339 1220.89 26.2875 1220.77 25.8992 1220.65C23.8997 1219.95 22.172 1218.62 20.192 1217.88C18.406 1217.23 16.4454 1217.07 14.8147 1216.1C14.3877 1215.84 13.98 1215.52 13.6694 1215.12C13.3006 1214.65 13.3782 1214.43 13.5141 1213.87C13.8829 1212.34 14.4653 1210.87 14.3294 1209.26C14.1935 1207.77 13.5141 1206.4 12.9123 1205.05C12.0194 1203.04 11.2429 1200.98 10.6411 1198.85C9.92282 1196.33 9.47634 1193.67 9.92282 1191.08C10.7576 1186.35 14.7177 1182.54 19.2602 1181.31C23.8027 1180.06 28.7528 1181.15 32.8294 1183.53C33.8001 1184.11 34.7124 1184.76 35.4113 1185.7C36.0713 1186.57 36.1684 1187.69 36.4013 1188.76C36.9837 1191.46 37.4302 1194.22 37.3137 1196.98L37.2943 1197Z" fill="#FFC7A6"/>
<path d="M16.6195 1207.65C18.5413 1207.43 20.3272 1206.36 21.4531 1204.75C22.2102 1203.68 22.7149 1202.33 23.7826 1201.59C24.2873 1201.24 24.8697 1201.06 25.4521 1200.9C26.3839 1200.64 27.3351 1200.46 28.2863 1200.62C29.2375 1200.78 30.1499 1201.33 30.5575 1202.21C30.9652 1200.76 32.4211 1199.94 33.45 1198.83C34.9836 1197.18 35.5271 1194.66 34.8283 1192.51C34.343 1191.04 33.3335 1189.63 33.5665 1188.1C33.6441 1187.61 33.8965 1187.09 34.343 1186.91C34.7118 1186.75 35.1389 1186.85 35.5465 1186.87C35.9542 1186.89 36.4201 1186.79 36.5948 1186.43C36.7113 1186.21 36.6724 1185.96 36.6336 1185.72C36.1677 1183.12 33.9353 1181.25 31.6058 1180.12C28.1504 1178.45 24.1515 1177.97 20.4049 1178.74C19.6672 1178.9 18.9295 1179.1 18.2695 1179.48C17.6289 1179.84 16.8718 1180.37 16.4059 1180.93C15.9788 1181.45 15.7265 1182.1 15.1441 1182.48C14.7947 1182.72 14.387 1182.8 13.9794 1182.94C12.2128 1183.57 10.951 1185.2 10.1551 1186.93C8.62155 1190.27 8.42743 1194.18 9.30098 1197.78C9.84453 1200 10.7957 1202.11 11.9799 1204.06C12.5623 1205.01 13.2223 1205.92 13.9211 1206.78C14.62 1207.63 15.4935 1207.79 16.5806 1207.67L16.6195 1207.65Z" fill="#737137"/>
<path d="M39.5267 1194.66C34.6153 1200.44 24.4433 1204.04 16.7754 1202.67C9.10747 1201.31 6.87505 1195.51 11.767 1189.73C16.6783 1183.95 26.8504 1180.35 34.5183 1181.72C42.1862 1183.08 44.4186 1188.88 39.5267 1194.66Z" fill="#DBB307"/>
<path d="M35.5664 1182.36L36.7894 1184.63C37.7989 1186.67 37.5271 1189.43 35.7606 1192.45C32.0916 1198.67 23.3172 1203.58 16.1929 1203.42C12.6016 1203.34 10.1168 1202.01 8.97148 1199.9L7.92321 1197.94C3.73014 1190.13 6.50611 1180.29 14.1546 1176C17.9788 1173.86 22.2884 1173.5 26.1514 1174.63C30.0339 1175.78 33.4699 1178.45 35.5859 1182.36H35.5664Z" fill="#EFC100"/>
<path d="M122.145 1225.18C121.699 1224.9 121.272 1224.88 120.981 1225.06L111.604 1230.64C111.896 1230.46 112.323 1230.48 112.769 1230.76L119.156 1234.53L128.532 1228.95L122.145 1225.18Z" fill="#BFBFBC"/>
<path d="M129.678 1232.93L120.302 1238.51C120.593 1238.33 120.787 1237.95 120.787 1237.44C120.787 1236.38 120.069 1235.07 119.156 1234.54L128.532 1228.95C129.445 1229.49 130.163 1230.78 130.163 1231.85C130.163 1232.39 129.969 1232.77 129.678 1232.93Z" fill="#8C8C89"/>
<path d="M130.162 1231.85C130.162 1232.39 129.988 1232.77 129.677 1232.93L126.377 1234.89C126.416 1234.3 126.59 1233.7 126.746 1233.12C126.998 1232.21 127.173 1231.12 126.61 1230.36C126.124 1229.71 125.27 1229.49 124.474 1229.33C123.678 1229.17 122.824 1228.91 122.378 1228.24C122.106 1227.82 122.048 1227.28 121.757 1226.85C121.33 1226.19 120.553 1225.93 119.815 1225.77L120.961 1225.08C121.252 1224.9 121.679 1224.94 122.126 1225.2L128.512 1228.97C129.425 1229.51 130.143 1230.8 130.143 1231.87L130.162 1231.85Z" fill="#56007C"/>
<path d="M119.156 1234.54C120.068 1235.07 120.787 1236.36 120.787 1237.44C120.787 1238.51 120.049 1238.93 119.136 1238.41L112.75 1234.63C111.837 1234.1 111.119 1232.81 111.119 1231.73C111.119 1230.68 111.857 1230.24 112.769 1230.78L119.156 1234.56V1234.54Z" fill="#CCF275"/>
<path d="M109.314 1232.71V1237.26C109.314 1236.96 109.12 1236.68 108.732 1236.44C108.363 1236.22 108.169 1235.93 108.169 1235.63V1231.08C108.169 1231.38 108.363 1231.65 108.751 1231.89C109.12 1232.11 109.314 1232.41 109.314 1232.71Z" fill="#8C8944"/>
<path d="M123.815 1232.69L118.321 1235.97V1240.52L123.815 1237.24C124.223 1237 124.436 1236.68 124.436 1236.36V1231.81C124.436 1232.13 124.242 1232.45 123.834 1232.69H123.815Z" fill="#737137"/>
<path d="M118.321 1235.95V1240.5C117.564 1240.93 116.341 1240.93 115.604 1240.5C114.866 1240.06 113.643 1240.06 112.905 1240.5V1235.95C113.662 1235.51 114.885 1235.51 115.623 1235.95C116.38 1236.38 117.584 1236.38 118.341 1235.95H118.321Z" fill="#8C8944"/>
<path d="M112.905 1235.97V1240.52L105.917 1244.67V1240.12L112.905 1235.97Z" fill="#737137"/>
<path d="M100.947 1243.46V1238.91C100.947 1239.28 101.161 1239.66 101.607 1239.98C101.666 1240.02 101.724 1240.06 101.801 1240.1C102.947 1240.77 104.791 1240.77 105.936 1240.1V1244.65C104.791 1245.32 102.947 1245.32 101.801 1244.65C101.743 1244.61 101.666 1244.57 101.607 1244.53C101.18 1244.21 100.967 1243.83 100.967 1243.46H100.947Z" fill="#8C8944"/>
<path d="M123.815 1230.92C124.65 1231.42 124.65 1232.19 123.815 1232.69L118.321 1235.97C117.584 1236.4 116.361 1236.4 115.604 1235.97C114.866 1235.53 113.643 1235.53 112.905 1235.97L105.917 1240.12C104.791 1240.79 102.927 1240.79 101.782 1240.12C101.724 1240.08 101.646 1240.04 101.588 1240C100.617 1239.3 100.792 1238.27 101.86 1237.63L108.751 1233.54C109.489 1233.1 109.489 1232.39 108.751 1231.93C108.013 1231.5 107.994 1230.78 108.751 1230.32L114.245 1227.04C115.06 1226.55 116.399 1226.55 117.234 1227.04L123.815 1230.94V1230.92Z" fill="#B2AE56"/>
<path d="M111.274 1241.79C111.274 1242.68 110.537 1243.53 109.663 1243.65C109.702 1244.53 109.178 1245.4 108.401 1245.78C108.46 1246.28 108.149 1246.73 107.761 1247.05C106.887 1247.75 105.664 1247.89 104.558 1247.71C103.432 1247.55 102.384 1247.15 101.277 1246.93C100.074 1246.69 98.8117 1246.65 97.6082 1246.36C97.3752 1246.46 97.1423 1246.57 96.9093 1246.67C95.8805 1247.15 94.8516 1247.63 93.8227 1248.08C91.2603 1249.24 88.6979 1250.41 86.1354 1251.52C82.2724 1253.19 78.3899 1254.8 74.3133 1255.87C72.0032 1256.47 69.6155 1256.91 67.2472 1256.61C67.0142 1256.61 66.8007 1256.55 66.6066 1256.43C64.0247 1255.79 49.5431 1249.26 46.8059 1248.54C45.0977 1248.1 41.9917 1247.61 42.3799 1245.03C42.7293 1242.78 44.1465 1240.79 45.913 1239.4C47.6795 1238.01 49.776 1237.14 51.8726 1236.4C52.2026 1236.28 52.552 1236.16 52.882 1236.16C53.3091 1236.16 53.7168 1236.32 54.1244 1236.48C56.6092 1237.55 63.1512 1242.38 64.2189 1243.22C65.0924 1243.87 66.3348 1245.3 67.519 1245.08C68.1402 1244.95 68.8002 1244.55 69.4214 1244.37C70.1396 1244.15 70.8773 1243.95 71.5956 1243.79C76.2934 1242.72 81.1076 1242.14 85.8248 1241.25C87.8437 1240.87 89.8626 1240.5 91.8815 1240.04C92.4056 1239.94 92.9104 1239.82 93.4345 1239.7C94.8322 1239.36 96.2493 1239.14 97.6082 1238.71C99.1029 1238.21 99.957 1237.32 101.161 1236.38C101.976 1235.77 102.811 1235.11 103.801 1234.95C104.81 1234.77 105.82 1235.11 106.771 1235.45C107.644 1235.75 108.518 1236.04 109.391 1236.34C109.993 1236.54 110.653 1236.8 110.906 1237.4C111.216 1238.09 110.828 1238.89 110.847 1239.66C110.847 1240.4 111.255 1241.09 111.236 1241.81L111.274 1241.79Z" fill="#D7F299"/>
<path d="M111.275 1241.79C111.275 1242.68 110.537 1243.53 109.664 1243.65C109.702 1244.53 109.178 1245.4 108.402 1245.78C108.46 1246.28 108.149 1246.73 107.761 1247.05C106.888 1247.75 105.665 1247.89 104.558 1247.71C103.432 1247.55 102.384 1247.15 101.277 1246.93C100.074 1246.69 98.8121 1246.65 97.6085 1246.36C97.3755 1246.46 97.1426 1246.57 96.9096 1246.67C95.8808 1247.15 94.8519 1247.63 93.8231 1248.08C93.8231 1246.97 93.7842 1245.86 93.6872 1244.75C93.5513 1243.22 93.2019 1241.63 92.2507 1240.44C92.1342 1240.3 92.0177 1240.16 91.8818 1240.04C92.406 1239.94 92.9107 1239.82 93.4348 1239.7C94.8325 1239.36 96.2496 1239.14 97.6085 1238.71C99.1032 1238.21 99.9574 1237.32 101.161 1236.38C101.976 1235.77 102.811 1235.11 103.801 1234.95C104.81 1234.77 105.82 1235.11 106.771 1235.45C107.645 1235.75 108.518 1236.04 109.392 1236.34C109.994 1236.54 110.654 1236.8 110.906 1237.4C111.217 1238.09 110.828 1238.89 110.848 1239.66C110.848 1240.4 111.255 1241.09 111.236 1241.81L111.275 1241.79Z" fill="#BBE341"/>
<path d="M27.4909 1230.34C27.025 1232.61 27.4132 1234.99 28.1703 1237.18C30.4804 1243.87 35.9547 1248.98 41.9725 1252.5C42.2249 1252.63 42.4966 1252.79 42.7684 1252.83C43.3896 1252.93 43.972 1252.52 44.4767 1252.12C48.0097 1249.26 50.844 1245.6 53.6393 1241.97C54.4547 1240.91 55.27 1239.84 55.8524 1238.67C56.2988 1237.75 55.9494 1236.68 55.0564 1236.2C51.4846 1234.34 39.4489 1226.45 36.4594 1225.63C34.1493 1225 31.7033 1224.34 29.7815 1226.11C28.5974 1227.2 27.782 1228.71 27.452 1230.3L27.4909 1230.34Z" fill="#545452"/>
<path d="M69.1301 1210.1C68.8972 1210.41 68.6642 1210.83 68.839 1211.19C68.8584 1211.23 68.8972 1211.29 68.8972 1211.35C68.8972 1211.47 68.8001 1211.53 68.7225 1211.61C68.1207 1212.08 67.9654 1213.06 68.3925 1213.69C67.9072 1213.95 67.5771 1214.49 67.5771 1215.06C67.5771 1215.62 67.9072 1216.16 68.4119 1216.42C67.9266 1216.77 67.8877 1217.57 68.1983 1218.08C68.5284 1218.6 69.1107 1218.9 69.7125 1219.04C70.6443 1219.28 71.6538 1219.2 72.5467 1218.84C72.702 1218.78 72.8379 1218.7 72.9544 1218.58C73.0514 1218.46 73.1097 1218.32 73.1485 1218.18C73.3038 1217.71 73.4203 1217.11 73.0903 1216.73C73.5756 1216.53 73.9638 1216.1 74.1191 1215.58C74.2744 1215.06 74.1774 1214.49 73.8668 1214.05C73.8279 1214.01 73.7891 1213.95 73.8085 1213.89C73.8085 1213.83 73.8668 1213.77 73.9056 1213.73C74.2938 1213.34 74.3521 1212.66 74.0221 1212.2C73.9832 1212.16 73.9444 1212.1 73.9638 1212.04C73.9638 1212 74.0221 1211.96 74.0609 1211.94C74.3909 1211.73 74.7209 1211.43 74.8956 1211.07C75.1286 1210.59 75.0897 1210.02 74.8956 1209.54C74.7015 1209.06 74.3327 1208.65 73.925 1208.31C73.6338 1208.07 73.2844 1207.85 72.9156 1207.81C72.4691 1207.75 72.0226 1207.97 71.6537 1208.23C71.2267 1208.55 70.9355 1208.92 70.4114 1209.06C69.8484 1209.22 69.499 1209.64 69.169 1210.12L69.1301 1210.1Z" fill="#BBE341"/>
<path d="M67.5575 1212.34C67.8681 1212.4 68.1981 1212.4 68.5087 1212.38C69.324 1212.32 70.1394 1212.02 70.9547 1212.18C72.003 1212.38 72.7795 1213.32 73.7889 1213.65C74.0801 1213.75 74.3713 1213.79 74.6625 1213.79C74.7983 1213.79 74.9536 1213.79 75.0895 1213.69C75.2837 1213.55 75.3419 1213.3 75.3613 1213.06C75.3807 1212.14 74.8372 1211.29 74.1966 1210.65C72.8183 1209.3 70.877 1208.55 68.9746 1208.75C67.8293 1208.87 64.9563 1210.1 66.2763 1211.73C66.5869 1212.12 67.111 1212.3 67.5769 1212.36L67.5575 1212.34Z" fill="#BBE341"/>
<path d="M35.5826 1322.01L1.70801 1331.29L5.92049 1351.22C5.97873 1351.83 6.44463 1352.45 7.27936 1352.95L9.93886 1354.52C11.6083 1355.49 14.1125 1355.61 15.549 1354.75L30.3024 1346.03C30.846 1345.71 31.1566 1345.3 31.2537 1344.86L35.5632 1322.01H35.5826Z" fill="#616161"/>
<path d="M1.66946 1331.03L6.17314 1333.71V1338.04L1.68888 1335.36C0.562959 1334.69 0 1333.81 0 1332.94V1328.61C0 1329.48 0.543547 1330.36 1.66946 1331.03Z" fill="#666666"/>
<path d="M35.3307 1321.32C36.4761 1320.64 37.039 1319.77 37.039 1318.87V1323.2C37.039 1324.08 36.4761 1324.97 35.3501 1325.65L14.3848 1338.04V1333.71L35.3307 1321.32Z" fill="#333333"/>
<path d="M6.19238 1333.71V1338.04C8.44422 1339.38 12.1132 1339.4 14.3844 1338.04V1333.71C12.0937 1335.06 8.44422 1335.04 6.19238 1333.71Z" fill="#4D4D4D"/>
<path d="M1.7088 1326.18C-0.562448 1327.53 -0.562448 1329.7 1.68939 1331.03L6.19306 1333.71C8.4449 1335.04 12.1138 1335.06 14.3851 1333.71L35.3505 1321.32C37.6217 1319.98 37.6217 1317.8 35.3699 1316.47L30.8662 1313.79C28.6144 1312.43 24.9454 1312.43 22.6742 1313.79L1.7088 1326.18Z" fill="#808080"/>
<path d="M3.99881 1325.85C2.03816 1327 2.03816 1328.89 3.99881 1330.04L7.88129 1332.34C9.82252 1333.5 12.9867 1333.5 14.9474 1332.34L33.0397 1321.65C35.0004 1320.5 35.0004 1318.61 33.0591 1317.46L29.1767 1315.16C27.2354 1314 24.0712 1314 22.1106 1315.16L4.01822 1325.85H3.99881Z" fill="#008982"/>
<path d="M3.9794 1330.04L6.60007 1331.61L22.0911 1322.45C24.0518 1321.3 27.216 1321.3 29.1573 1322.45L30.4191 1323.2L33.0203 1321.65C34.981 1320.5 34.981 1318.61 33.0397 1317.46L29.1573 1315.16C27.216 1314 24.0518 1314 22.0911 1315.16L3.99881 1325.85C2.03816 1327 2.03816 1328.89 3.99881 1330.04H3.9794Z" fill="#4D4D4D"/>
<path d="M3.95999 1330.02C3.95999 1330.02 3.9794 1330 3.99881 1330L22.0912 1319.31C24.0518 1318.16 27.216 1318.16 29.1573 1319.31L33.0397 1321.61C34.9422 1320.46 34.9422 1318.59 33.0397 1317.46L29.1573 1315.16C27.216 1314 24.0518 1314 22.0912 1315.16L3.99881 1325.85C2.03816 1327 2.03816 1328.87 3.95999 1330.02Z" fill="#666666"/>
<path d="M4.40638 1332.14C3.97931 1332.14 3.62988 1331.79 3.62988 1331.35V1321.04C3.62988 1319.01 4.63933 1317.12 6.28938 1316.03L28.5166 1301.43C29.4484 1300.81 30.5937 1300.75 31.5837 1301.25C32.5737 1301.75 33.3308 1303.2 33.3308 1304.33V1314.94C33.3308 1315.38 32.9814 1315.73 32.5543 1315.73C32.1273 1315.73 31.7778 1315.38 31.7778 1314.94V1304.11C31.7778 1303.51 31.4672 1303 30.9625 1302.7C30.4578 1302.42 29.856 1302.44 29.3707 1302.76L7.14352 1317.36C5.92054 1318.18 5.18287 1319.53 5.18287 1321.02V1331.33C5.18287 1331.77 4.83345 1332.12 4.40638 1332.12V1332.14Z" fill="#CCCCCC"/>
<path d="M18.4223 1288.55C17.8399 1287.82 17.1605 1287.22 16.4616 1286.81L15.8598 1286.45C14.5398 1285.67 13.2197 1285.59 12.1326 1286.23C11.0456 1286.88 10.3661 1288.2 10.2302 1289.86C11.0456 1289.82 11.822 1289.75 12.618 1289.65C12.715 1288.99 12.9674 1288.51 13.2974 1288.32C13.4139 1288.24 13.5692 1288.22 13.7245 1288.22C14.0739 1288.22 14.4427 1288.39 14.6757 1288.53L15.2775 1288.89C15.4133 1288.97 15.5686 1289.05 15.7045 1289.17C17.3158 1290.4 18.597 1293.18 18.597 1295.47V1310.09C18.597 1311.16 18.3058 1312 17.8399 1312.28C17.4128 1312.53 16.7916 1312.28 16.4616 1312.08L15.8598 1311.72C15.8598 1311.72 15.821 1311.72 15.821 1311.68L13.705 1313.07C14.0156 1313.35 14.3457 1313.59 14.6951 1313.79L15.3163 1314.14C16.0345 1314.58 16.7722 1314.78 17.4516 1314.78C17.9952 1314.78 18.5387 1314.64 19.0435 1314.34C20.2664 1313.61 20.9653 1312.06 20.9653 1310.07V1295.45C20.9653 1293.02 19.9558 1290.38 18.4417 1288.53L18.4223 1288.55ZM12.5403 1305.14V1289.17C11.7444 1289.23 10.9485 1289.27 10.1914 1289.27V1305.12C10.1914 1307.47 11.1426 1310.05 12.5985 1311.88L14.5786 1310.59C13.3944 1309.18 12.5403 1307.01 12.5403 1305.12V1305.14Z" fill="#333333"/>
</svg>
