<svg width="162" height="430" viewBox="0 0 162 430" fill="none" xmlns="http://www.w3.org/2000/svg">
<g clip-path="url(#clip0_2315_1782)">
<path d="M65.7449 395.551C66.6094 395.276 66.9467 395.677 67.6636 395.91C67.8956 395.994 68.3595 396.058 68.5914 395.91C68.6336 395.867 68.992 395.424 68.8234 395.445C69.9198 395.297 70.8265 396.248 71.4801 397.114C72.6398 398.656 73.905 400.493 73.9893 402.479C74.0526 403.936 73.8417 405.457 73.1881 406.766C72.5555 408.076 71.206 408.646 69.8144 408.9C68.4227 409.153 66.9257 409.195 65.7027 409.892C64.1424 410.758 63.805 412.321 62.6664 413.525C61.6332 414.624 60.1361 415.574 58.8288 416.292C55.8558 417.961 52.4399 418.806 49.0241 418.869C48.771 418.869 48.4969 418.869 48.2439 418.869C46.3462 418.827 44.1744 418.257 43.5418 416.229C42.846 413.969 44.7648 411.477 46.0932 409.808C49.3403 405.795 53.7894 402.964 57.9643 399.944C59.5879 398.761 61.2115 397.536 63.0248 396.628C63.8893 396.184 64.8171 395.804 65.7238 395.508L65.7449 395.551Z" fill="#616161"/>
<path d="M70.4887 372.718C70.8682 379.223 72.5762 395.424 72.787 397.029C72.9557 398.317 72.9557 398.655 71.8803 399.437C70.9947 400.092 69.9826 400.556 68.9073 400.852C67.1572 401.317 65.2806 401.253 63.4883 401.021C61.8858 400.81 60.2833 400.472 58.7441 400.007C57.2259 399.542 55.3071 398.782 55.033 397.071C54.9065 396.332 50.837 375.442 49.6351 369.275C48.9393 365.684 48.138 362.072 47.7796 358.418C47.7163 357.806 47.6531 357.193 47.6109 356.58C47.1892 351.596 47.0416 346.505 48.3067 341.69C48.4543 341.098 48.6441 340.486 49.0447 340.021C49.5297 339.451 50.2677 339.155 51.0057 338.965C54.7589 338.014 58.8495 339.535 61.6117 342.239C64.9221 345.491 66.3559 350.476 67.9373 354.764C70.0248 360.467 70.1513 366.74 70.5098 372.718H70.4887Z" fill="#CDED48"/>
<path d="M37.8484 214.937C37.9538 213.585 37.3635 212.254 37.2791 210.903C37.2369 210.269 37.3213 209.614 37.49 209.002C37.7641 208.072 38.5442 206.615 39.5353 206.319C40.1889 206.129 40.8847 206.235 41.5384 206.404C44.8699 207.227 47.8008 209.255 50.0991 211.769C51.301 213.099 52.2498 214.282 53.7258 215.359C55.2651 216.479 56.8886 217.556 58.5544 218.464C64.7114 221.802 91.0472 238.087 93.9148 239.375C94.2522 239.523 94.6106 239.692 94.948 239.84C98.6169 241.466 102.286 243.071 105.976 244.677C110.361 246.577 114.768 248.5 119.281 250.063C119.513 250.147 119.766 250.232 119.913 250.443C120.019 250.612 120.04 250.802 120.061 250.992C120.145 252.386 119.66 253.632 118.88 254.752C118.226 255.681 117.889 256.695 117.067 257.519C115.253 259.335 112.744 260.433 111.268 262.588C110.952 263.031 110.678 263.56 110.193 263.792C109.413 264.193 108.485 263.792 107.726 263.327C105.174 261.806 102.117 260.877 99.4392 259.61C96.6137 258.279 93.8305 256.885 91.0683 255.428C85.5438 252.492 80.1881 249.302 74.98 245.838C66.9043 240.494 59.2502 234.538 52.0811 228.011C50.563 226.638 49.0659 225.223 47.4845 223.914C46.7676 223.322 45.8398 222.308 44.9753 221.97C44.1741 221.675 43.0565 221.78 42.171 221.59C40.9691 221.316 39.7461 220.936 38.7762 220.154C38.3545 219.816 37.996 219.415 37.6376 219.013C37.5111 218.866 37.3635 218.697 37.3002 218.506C37.2369 218.338 37.2369 218.169 37.258 218C37.3213 216.943 37.8273 215.951 37.9117 214.895L37.8484 214.937Z" fill="#FFAF80"/>
<path d="M36.0979 218.189C36.0769 218.379 36.0769 218.59 36.1401 218.759C36.2245 218.971 36.3721 219.161 36.5407 219.309C36.9624 219.773 37.342 220.217 37.827 220.597C38.9023 221.463 40.294 221.885 41.6645 222.202C42.6345 222.435 43.8996 222.287 44.8063 222.646C45.7762 223.026 46.8094 224.145 47.6317 224.821C48.4962 225.54 49.3186 226.258 50.1409 227.018C50.7945 227.609 51.5747 228.644 52.5025 228.729C52.5236 228.729 52.5657 228.729 52.5868 228.729C52.6079 228.729 52.6079 228.687 52.6079 228.644C52.6079 228.328 52.2916 228.243 52.2494 227.969C52.2073 227.694 52.3127 227.314 52.376 227.06C52.4814 226.469 52.6501 225.899 52.882 225.328C53.5567 223.66 54.6954 222.202 55.9816 220.977C56.572 220.428 57.1835 219.9 57.8371 219.414C58.0058 219.287 58.1534 219.161 58.3221 219.034C58.6805 218.759 58.6594 218.823 59.0811 218.865C59.2287 218.865 59.3974 218.802 59.4396 218.675C59.5029 218.548 59.4396 218.379 59.3342 218.295C59.0812 218.041 55.4544 215.823 54.6743 215.253C53.0296 214.049 51.9753 212.719 50.6048 211.198C48.0113 208.367 44.743 206.086 40.9687 205.157C40.2307 204.967 39.4505 204.861 38.7336 205.072C37.6161 205.389 36.7516 207.037 36.4142 208.072C36.2034 208.769 36.119 209.487 36.1612 210.205C36.2455 211.747 36.9203 213.225 36.8149 214.767C36.7305 215.95 36.119 217.049 36.0769 218.231L36.0979 218.189Z" fill="#4D4D4D"/>
<path d="M2.65691 196.497L48.6655 169.841C50.1415 168.996 51.3223 166.715 51.3223 164.751C51.3223 162.786 50.1415 161.899 48.6655 162.744L2.65691 189.4C1.18092 190.245 0.000125885 192.526 0.000125885 194.49C0.000125885 196.455 1.18092 197.342 2.65691 196.497Z" fill="#F06449"/>
<path d="M3.24737 191.66V194.871L11.0068 199.37L10.9857 196.159L3.24737 191.66Z" fill="#B3B3B3"/>
<path d="M10.9858 196.159L11.0069 199.37L57.627 172.418L57.6059 169.187L10.9858 196.159Z" fill="#D9D9D9"/>
<path d="M3.24701 191.66L10.9854 196.159L57.6055 169.186L49.8671 164.688L3.24701 191.66Z" fill="#F2F2F2"/>
<path d="M27.2427 189.632L42.1924 180.993C42.6984 180.698 43.1201 179.916 43.1201 179.219C43.1201 178.543 42.6984 178.226 42.1924 178.522L27.2427 187.161C26.7367 187.457 26.315 188.238 26.315 188.935C26.315 189.611 26.7367 189.928 27.2427 189.632Z" fill="#B3B3B3"/>
<path d="M40.7157 181.078L42.8242 193.962L33.399 195.293L28.4228 187.753L40.7157 181.078Z" fill="#B3B3B3"/>
<path d="M42.8248 193.963L45.3129 264.764C45.3551 265.566 44.8701 266.327 44.0899 266.58C43.0357 266.96 41.897 266.305 41.6862 265.207L33.3996 195.272L42.8248 193.963Z" fill="#B3B3B3"/>
<path d="M128.347 253.991C126.976 252.618 125.29 251.583 123.582 250.675C120.609 249.091 117.446 247.865 114.304 246.683C113.735 247.887 112.638 248.731 111.753 249.724C109.201 252.533 108.274 256.716 109.391 260.327C114.009 261.067 118.205 263.284 122.485 265.185C123.329 265.566 124.214 265.925 125.142 265.925C126.998 265.925 131.447 264.404 131.826 262.207C132.311 259.398 130.266 255.892 128.389 253.991H128.347Z" fill="#616161"/>
<path d="M98.2372 387.967C98.5746 389.72 98.5746 391.537 97.7522 393.163C97.0564 394.557 95.3063 394.895 93.8725 394.98C92.7971 395.043 91.7218 394.98 90.6675 395.149C89.6343 395.318 88.6433 395.719 87.6944 396.163C84.7003 397.514 81.8327 399.12 78.7331 400.26C75.6546 401.38 72.2809 401.992 69.0759 401.232C68.0428 400.978 66.9885 400.556 66.3348 399.711C65.2595 398.296 65.6812 396.247 66.4613 394.642C68.5066 390.502 72.5129 387.672 76.5613 385.475C78.944 384.187 81.3899 383.025 83.8358 381.884C85.0798 381.293 86.3239 380.723 87.6523 380.342C88.7698 380.026 90.0139 379.455 91.1736 379.54C93.0713 379.666 94.6105 380.554 95.5383 382.159C96.6136 384.039 97.7733 385.834 98.195 388.01L98.2372 387.967Z" fill="#4D4D4D"/>
<path d="M96.7197 383.911C96.5299 384.608 95.4756 385.052 94.8642 385.263C93.093 385.897 91.1742 385.939 89.3187 385.665C87.4631 385.39 85.6709 384.799 83.8997 384.207C83.2671 383.996 82.6346 383.764 82.1074 383.362C81.5803 382.94 81.6014 382.623 81.517 381.989C81.3694 381.039 80.2519 374.639 79.8513 372.379C79.2398 369.084 78.7337 365.726 77.9114 362.473C77.9114 362.452 77.9114 362.431 77.9114 362.388C76.583 357.636 75.107 352.904 74.116 348.068C73.125 343.315 72.6822 337.57 74.5588 332.965C75.0438 331.761 75.7396 330.6 76.7306 329.755C77.6162 328.973 78.7127 328.488 79.8091 328.023C82.8665 326.713 87.3155 326.375 89.3187 329.67C90.626 331.825 91.5327 334.233 92.2706 336.641C92.7978 338.436 93.093 340.274 93.3671 342.132C94.5901 350.391 95.6232 358.671 96.0028 367.014C96.045 368.112 96.9938 383.172 96.7829 383.933L96.7197 383.911Z" fill="#B1CE38"/>
<path d="M117.994 408.16C122.443 408.16 126.892 406.956 130.898 404.527C146.734 395.001 155.99 377.596 155.084 359.114L153.755 342.111L149.643 342.323L150.972 359.326C151.794 376.287 143.297 392.255 128.769 400.999C122.232 404.928 114.346 405.055 107.704 401.316C101.062 397.577 97.0562 390.776 97.014 383.13L96.9086 374.111H92.7969L92.9024 383.151C92.9445 392.297 97.7309 400.429 105.701 404.907C109.56 407.082 113.777 408.16 117.994 408.16Z" fill="#333333"/>
<path d="M68.043 390.523L109.033 401.506L103.931 425.121C103.846 425.839 103.298 426.578 102.286 427.17L99.0808 429.028C97.0777 430.19 94.0203 430.317 92.2702 429.303L74.4108 418.974C73.7571 418.594 73.3776 418.108 73.2722 417.58L68.043 390.502V390.523Z" fill="#616161"/>
<path d="M109.075 401.231L103.614 404.4V409.532L109.054 406.364C110.404 405.582 111.1 404.547 111.1 403.512V398.38C111.1 399.415 110.425 400.45 109.075 401.231Z" fill="#666666"/>
<path d="M68.3388 389.72C66.9683 388.917 66.2724 387.882 66.2724 386.826V391.959C66.2724 393.015 66.9472 394.05 68.3177 394.853L93.6836 409.532V404.4L68.3177 389.72H68.3388Z" fill="#333333"/>
<path d="M103.614 404.4V409.533C100.873 411.117 96.4452 411.117 93.7041 409.533V404.4C96.4663 405.985 100.894 405.985 103.614 404.4Z" fill="#4D4D4D"/>
<path d="M109.055 395.465C111.796 397.05 111.817 399.627 109.076 401.211L103.615 404.379C100.895 405.963 96.4666 405.963 93.7044 404.379L68.3386 389.699C65.5974 388.115 65.5764 385.538 68.2964 383.954L73.7575 380.786C76.4776 379.202 80.9266 379.202 83.6677 380.786L109.034 395.465H109.055Z" fill="#808080"/>
<path d="M106.272 395.086C108.654 396.459 108.654 398.676 106.272 400.049L101.57 402.795C99.229 404.168 95.3915 404.168 93.0299 402.795L71.1221 390.122C68.7605 388.749 68.7394 386.531 71.101 385.158L75.803 382.413C78.1646 381.04 82.0022 381.04 84.3638 382.413L106.272 395.086Z" fill="#F06449"/>
<path d="M106.293 400.049L103.109 401.908L84.3638 391.072C82.0022 389.7 78.1646 389.7 75.803 391.072L74.2849 391.96L71.1221 390.122C68.7605 388.749 68.7394 386.531 71.101 385.158L75.803 382.413C78.1646 381.04 82.0022 381.04 84.3638 382.413L106.272 395.086C108.654 396.459 108.654 398.676 106.272 400.049H106.293Z" fill="#4D4D4D"/>
<path d="M106.313 400.028C106.313 400.028 106.292 400.007 106.271 399.986L84.3634 387.312C82.0018 385.94 78.1642 385.94 75.8027 387.312L71.1006 390.058C71.1006 390.058 71.1006 390.058 71.0795 390.058C68.7601 388.685 68.7601 386.489 71.1006 385.137L75.8027 382.391C78.1642 381.018 82.0018 381.018 84.3634 382.391L106.271 395.064C108.633 396.437 108.654 398.634 106.313 400.007V400.028Z" fill="#666666"/>
<path d="M79.6188 373.668L94.1256 382.116C95.9601 383.194 98.9753 383.194 100.852 382.116L160.566 347.561C161.515 347.012 161.979 346.294 161.979 345.597V352.842C162 353.56 161.536 354.278 160.587 354.806L100.873 389.34C98.9964 390.417 95.9811 390.417 94.1467 389.34L79.6399 380.891C78.7332 380.363 78.2693 379.666 78.2693 378.969V371.725C78.2693 372.422 78.7121 373.119 79.6188 373.647V373.668Z" fill="#4D4D4D"/>
<path d="M79.6606 369.76C77.784 370.837 77.784 372.59 79.6185 373.667L94.1253 382.116C95.9597 383.193 98.975 383.193 100.852 382.116L160.566 347.561C162.442 346.484 162.442 344.73 160.608 343.653L146.101 335.204C144.267 334.127 141.251 334.127 139.375 335.204L79.6606 369.739V369.76Z" fill="#616161"/>
<path d="M105.765 402.541C106.292 402.541 106.714 402.119 106.714 401.591V389.383C106.714 386.996 105.491 384.757 103.488 383.468L76.5827 366.17C75.4441 365.43 74.0735 365.367 72.8716 365.958C71.6697 366.55 70.7631 368.261 70.7631 369.612V382.18C70.7631 382.708 71.1848 383.13 71.7119 383.13C72.2391 383.13 72.6608 382.708 72.6608 382.18V369.359C72.6608 368.662 73.0192 368.028 73.6518 367.69C74.2633 367.352 75.0013 367.373 75.5917 367.754L102.497 385.053C103.973 386.003 104.858 387.629 104.858 389.383V401.591C104.858 402.119 105.28 402.541 105.807 402.541H105.765Z" fill="#333333"/>
<path d="M157.193 346.505L158.5 345.259L116.434 300.438L115.043 301.621L143.255 338.437L144.689 337.338L127.483 314.865L157.193 346.505Z" fill="#333333"/>
<path d="M142.538 344.013C142.369 347.139 141.568 350.202 140.303 353.053C139.333 355.208 137.71 357.045 135.706 358.291C133.366 359.749 130.372 359.918 127.673 359.981C119.323 360.129 111.057 358.122 103.066 355.651C95.4963 353.307 87.9477 350.497 81.4534 345.956C78.6279 343.971 75.8446 341.415 75.212 337.993C74.8114 335.775 74.7903 332.375 76.2452 330.558C77.7845 328.657 80.2726 327.728 82.5498 327.115C90.4569 325.024 98.7856 325.362 106.904 326.249C113.335 326.946 119.702 327.981 126.028 329.354C127.736 329.735 130.161 331.129 131.932 330.748C132.586 330.601 133.05 330.072 133.471 329.566C133.598 329.418 134.8 327.369 134.568 327.348C135.306 327.348 135.959 327.855 136.487 328.362C140.366 331.952 142.454 337.254 142.538 342.534C142.538 343.041 142.538 343.527 142.517 344.034L142.538 344.013Z" fill="#B1CE38"/>
<path d="M96.2131 340.696C97.4993 339.957 98.2373 338.373 98.2373 336.345V321.412C98.2373 317.969 96.192 314.083 93.5563 312.562L92.9238 312.203C91.5532 311.4 90.1826 311.337 89.044 311.992C87.7578 312.731 87.0198 314.315 87.0198 316.343V331.276C87.0198 334.719 89.0651 338.605 91.7008 340.126L92.3334 340.485C93.0924 340.929 93.8515 341.14 94.5684 341.14C95.1588 341.14 95.707 340.992 96.2131 340.696ZM91.7008 314.336L92.3334 314.695C94.21 315.773 95.7914 318.856 95.7914 321.412V336.345C95.7914 337.444 95.4962 338.288 94.9901 338.563C94.5263 338.838 93.8937 338.563 93.5563 338.352L92.9238 337.993C91.0471 336.916 89.4657 333.832 89.4657 331.276V316.343C89.4657 315.244 89.7609 314.4 90.267 314.125C90.3935 314.04 90.5411 314.019 90.7098 314.019C91.0893 314.019 91.4689 314.209 91.7008 314.336Z" fill="#FFBB1C"/>
<path d="M60.4097 333.135C62.3496 333.008 64.3105 333.093 66.2293 333.241C76.7932 334.086 87.1251 336.662 97.5624 338.606C108.189 340.591 118.943 341.943 129.718 342.64C130.308 342.682 130.941 342.703 131.489 342.513C132.881 342.049 133.134 341.711 133.619 342.999C134.104 344.309 134.082 346.231 134.125 347.625C134.23 352.081 132.733 356.538 130.097 360.108C127.483 363.677 124.046 366.993 119.681 368.007C115.084 369.085 110.277 368.979 105.575 368.578C87.1251 366.972 69.118 360.657 53.7045 350.392C51.2797 348.786 48.0114 345.935 48.2012 342.788C48.391 339.408 50.8158 336.346 53.7467 334.825C55.8131 333.748 58.0692 333.262 60.4097 333.114V333.135Z" fill="#CDED48"/>
<path d="M90.2458 316.617L92.9658 316.575L91.4055 2.83034C91.4055 1.24619 90.794 0 90.0349 0C89.2759 0 88.6855 1.30956 88.6855 2.87258L90.2247 316.617H90.2458Z" fill="#333333"/>
<path d="M112.111 258.638C113.819 256.906 115.211 254.878 116.518 252.871C117.509 251.329 119.196 249.048 121.305 249.893C125.922 251.71 130.266 254.73 132.522 259.145C134.272 262.566 134.61 266.516 134.926 270.339C135.031 271.628 135.137 272.895 135.242 274.183C136.128 284.871 136.992 295.538 137.878 306.225C138.321 311.569 138.764 316.913 139.185 322.236C139.396 324.897 139.628 327.58 139.839 330.241C140.387 336.937 137.52 343.125 131.932 346.906C127.398 349.969 121.874 351.236 116.434 351.722C112.006 352.123 107.409 351.997 103.34 350.222C102.138 349.694 100.978 349.018 100.093 348.047C99.0384 346.906 98.9119 345.766 98.6589 344.287C98.1529 341.161 97.457 338.056 96.6769 334.972C95.0955 328.805 93.0502 322.743 91.026 316.702C87.5468 306.289 84.0045 295.77 82.8237 284.787C82.7183 283.857 82.655 282.907 82.9924 282.041C83.3297 281.175 84.0677 280.541 84.7846 279.95C90.6886 275.007 97.204 270.909 103.319 266.242C106.397 263.897 109.391 261.405 112.111 258.638Z" fill="#013538"/>
<path d="M133.639 331.424C134.04 334.635 134.462 337.93 135.369 341.119C136.381 344.752 137.941 347.772 139.944 350.075C140.26 350.413 140.64 350.772 141.104 351.025C141.61 351.342 142.2 351.553 142.812 351.553C142.938 351.553 143.065 351.553 143.212 351.511C144.098 351.384 144.794 350.772 145.215 349.8C145.7 348.617 145.721 347.16 145.279 345.28C144.773 343.189 143.739 341.225 142.306 339.619C142.474 340.591 142.538 341.584 142.559 342.576C142.559 342.767 142.559 342.936 142.559 343.126C143.001 343.949 143.339 344.837 143.55 345.724C143.887 347.181 143.908 348.322 143.592 349.103C143.339 349.673 143.044 349.737 142.959 349.758C142.622 349.8 142.137 349.589 141.694 349.23C141.568 349.145 141.441 349.019 141.336 348.892C139.501 346.801 138.11 344.013 137.14 340.654C136.275 337.592 135.853 334.36 135.453 331.213L133.661 331.445L133.639 331.424Z" fill="#333333"/>
<path d="M105.849 364.648C106.566 364.648 107.283 364.648 108.021 364.606C114.473 364.374 119.45 363.001 123.266 360.445C126.703 358.143 129.339 354.721 130.709 350.813C131.679 348.025 131.996 344.984 131.637 342.027C131.574 341.583 131.152 339.302 131.173 338.626C131.194 337.169 130.836 335.69 130.456 334.444C130.266 333.789 130.035 333.156 129.782 332.543L128.116 333.219C128.348 333.789 128.559 334.359 128.727 334.951C129.065 336.07 129.381 337.38 129.36 338.584C129.36 339.45 129.782 341.837 129.845 342.238C130.182 344.92 129.887 347.687 129.001 350.201C127.757 353.749 125.375 356.833 122.254 358.924C118.733 361.29 114.052 362.557 107.937 362.768C100.915 363.022 94.5687 361.987 89.0443 359.685L88.3485 361.353C93.5355 363.508 99.4184 364.606 105.849 364.606V364.648Z" fill="#333333"/>
<path d="M90.4567 359.136C90.6043 360.488 90.7098 361.84 90.8995 363.17C90.9839 363.846 91.1104 364.501 91.258 365.177C91.3212 365.473 91.3845 365.853 91.511 366.149C91.6164 366.36 91.8905 366.508 91.9538 366.719C91.996 366.888 91.8695 367.057 91.7219 367.12C91.5532 367.184 91.3845 367.141 91.2158 367.12C86.3661 366.275 81.9171 363.973 77.1729 362.642C76.6246 362.495 76.0975 362.368 75.8866 361.819C75.6758 361.248 75.5071 360.636 75.3384 360.044C75.0011 358.819 74.7269 357.594 74.5583 356.327C74.2209 353.813 74.242 351.258 74.5793 348.765C75.1697 344.625 76.6668 340.633 79.0495 337.191C79.429 336.662 79.8296 336.134 80.3357 335.712C81.3689 334.846 82.5075 334.761 83.7937 334.846C85.2908 334.93 86.7668 335.142 88.2428 335.416C91.1736 335.965 94.0202 336.831 96.8667 337.761C97.0776 337.824 97.3095 337.909 97.415 338.12C97.4993 338.31 97.436 338.542 97.2674 338.669C97.0776 338.817 96.9089 338.669 96.7191 338.69C96.5504 338.732 96.3396 338.901 96.2131 339.007C95.4751 339.577 94.8003 340.232 94.231 340.971C93.0081 342.534 92.1857 344.393 91.5954 346.273C90.4146 350.096 90.0772 354.236 90.3935 358.228C90.4146 358.524 90.4567 358.862 90.4778 359.136H90.4567Z" fill="#4D4D4D"/>
<path d="M138.954 313.724C139.734 316.787 140.24 326.397 140.093 328.066C140.029 328.721 140.135 329.375 139.818 329.967C139.502 330.558 138.975 331.044 138.532 331.551C137.794 332.396 137.014 333.177 136.171 333.917C133.282 336.409 129.866 338.226 126.303 339.535C120.715 341.584 114.748 342.408 108.844 342.64C106.588 342.724 104.332 342.703 102.075 342.64C100.916 342.598 99.4819 342.724 98.3644 342.429C97.6896 342.239 97.774 341.774 97.5842 341.077C97.4155 340.401 97.2468 339.725 97.0781 339.049C96.2347 335.691 95.3702 332.354 94.569 329.016C94.4003 328.298 94.2316 327.58 94.2949 326.862C94.2949 326.82 94.5479 327.284 94.5479 327.305C94.6533 327.496 94.6533 327.517 94.822 327.665C95.1804 327.981 95.7076 328.235 96.1504 328.425C97.0571 328.826 98.027 329.059 99.018 329.101C101.021 329.164 103.066 329.164 105.091 329.122C108.338 329.059 111.585 328.805 114.79 328.298C119.492 327.559 124.173 326.249 128.411 324.01C131.131 322.574 133.683 320.758 135.749 318.477C135.749 318.244 136.613 317.505 136.782 317.294C137.056 316.956 137.267 316.66 137.394 316.238C137.668 315.245 137.942 314.231 138.279 313.238C138.342 313.069 138.469 312.837 138.659 312.9C138.764 312.943 138.806 313.069 138.827 313.175C138.891 313.386 138.933 313.576 138.996 313.787L138.954 313.724Z" fill="#BDF219"/>
<path d="M96.0658 332.29C96.1713 332.48 96.1713 332.501 96.34 332.649C96.6984 332.966 97.2255 333.219 97.6683 333.409C98.575 333.811 99.5449 334.043 100.536 334.085C102.539 334.149 104.584 334.149 106.609 334.106C109.856 334.043 113.103 333.789 116.308 333.283C121.01 332.543 125.691 331.234 129.929 328.995C132.649 327.559 135.201 325.742 137.267 323.461C137.267 323.229 138.131 322.489 138.3 322.278C138.574 321.919 138.785 321.644 138.912 321.222C139.186 320.229 139.46 319.215 139.797 318.223C139.86 318.054 139.987 317.821 140.177 317.885C140.282 317.927 140.324 318.054 140.345 318.159C140.409 318.371 140.451 318.561 140.514 318.772C140.725 319.638 140.936 321.011 141.104 322.574C141.083 322.447 141.041 322.32 141.02 322.215C140.978 322.003 140.915 321.813 140.851 321.602C140.83 321.497 140.788 321.37 140.683 321.328C140.514 321.264 140.366 321.475 140.303 321.666C139.987 322.658 139.713 323.672 139.418 324.665C139.291 325.087 139.08 325.383 138.806 325.721C138.637 325.932 137.773 326.671 137.773 326.904C135.686 329.185 133.155 331.001 130.435 332.438C126.197 334.677 121.537 335.965 116.814 336.725C113.609 337.232 110.362 337.486 107.115 337.549C105.09 337.591 103.066 337.591 101.042 337.528C100.051 337.507 99.06 337.253 98.1744 336.852C97.7316 336.641 97.2255 336.409 96.846 336.092C96.6773 335.944 96.6773 335.902 96.5719 335.733C96.5719 335.733 96.5297 335.648 96.4665 335.543C96.34 335.036 96.2134 334.529 96.0869 334.001C95.9182 333.283 95.7496 332.564 95.8128 331.846C95.8128 331.804 96.0658 332.269 96.0658 332.29Z" fill="white"/>
<path d="M92.038 233.968C91.8061 234.453 91.5741 234.939 91.4687 235.467C91.2368 236.735 91.8061 237.981 92.1435 239.206C92.4597 240.41 92.4386 241.466 92.2489 242.67C92.0169 244.022 92.1224 245.479 91.9537 246.873C91.7639 248.626 91.4898 250.379 91.3422 252.132C91.2579 253.02 91.2157 253.886 91.2157 254.773C91.2157 255.618 91.532 255.829 92.1013 256.441C92.8814 257.286 93.9146 257.814 94.9689 258.237C95.9599 258.638 97.0142 258.68 97.9841 259.082C99.5023 259.694 99.4812 262.736 99.7132 264.066C99.8818 264.996 100.029 265.925 100.177 266.876C100.24 267.34 100.177 268.586 100.557 268.903C100.662 269.009 100.831 269.03 100.978 269.051C105.828 269.642 110.888 269.537 115.38 267.615C116.687 267.066 117.973 266.305 118.753 265.144C119.555 263.982 119.892 262.651 119.534 261.299C119.154 259.863 118.669 258.3 118.648 256.8C118.627 253.759 120.862 251.266 122.528 248.732C124.931 245.057 126.302 240.642 126.028 236.249C125.754 231.855 123.793 227.525 120.44 224.716C117.003 221.822 112.407 220.682 107.915 220.555C105.153 220.471 102.243 220.851 99.7764 222.139C97.0353 223.576 96.1075 225.73 94.8002 228.391C93.8935 230.25 92.9869 232.109 92.0802 233.968H92.038Z" fill="#FFC7A6"/>
<path d="M123.097 249.703C122.423 251.013 121.643 252.322 120.525 253.294C118.648 254.941 115.865 255.511 113.482 254.709C108.338 252.998 106.461 246.197 101.485 244.085C100.009 243.451 98.322 243.303 96.7616 243.662C96.1501 241.867 95.0748 240.283 94.2524 238.572C93.4301 236.861 92.8397 234.939 93.2403 233.08C93.5355 231.707 94.3579 230.503 94.8639 229.172C95.3489 227.842 95.4543 226.194 94.4633 225.18C94.3157 225.033 94.1259 224.885 94.0627 224.673C93.9994 224.483 94.0627 224.272 94.1259 224.082C94.9061 221.695 96.9725 219.9 99.2708 218.928C101.59 217.957 104.142 217.724 106.63 217.703C109.539 217.661 112.513 217.872 115.254 218.907C117.995 219.942 120.483 221.843 121.727 224.483C121.896 224.842 122.043 225.223 122.317 225.497C123.308 226.532 124.721 226.765 125.248 228.306C125.733 229.679 125.86 231.369 126.049 232.805C126.492 236.523 126.239 240.325 125.29 243.958C124.763 245.943 124.046 247.886 123.119 249.724L123.097 249.703Z" fill="#804B40"/>
<path d="M88.8758 235.087C93.9995 242.797 105.913 248.711 115.507 248.288C125.101 247.866 128.748 241.276 123.625 233.566C118.501 225.857 106.588 219.943 96.9937 220.365C87.3998 220.787 83.752 227.378 88.8758 235.087Z" fill="#D8AE00"/>
<path d="M95.6022 220.999L93.7677 223.512C92.2285 225.815 92.1231 229.173 93.831 233.06C97.3734 241.086 107.347 248.352 116.118 249.302C120.525 249.788 123.794 248.563 125.501 246.219L127.104 244.022C133.451 235.32 131.553 223.09 122.845 216.732C118.501 213.543 113.272 212.445 108.359 213.205C103.425 213.986 98.8072 216.627 95.6233 220.978L95.6022 220.999Z" fill="#EFC100"/>
<path d="M39.4928 252.428C40.7369 251.245 43.5202 251.013 44.7642 252.343C45.8396 253.526 45.692 256.061 45.9661 257.518C46.8517 262.482 53.1141 277.035 54.6744 279.443C55.2226 280.267 55.4967 281.513 56.2769 282.104C56.9305 282.59 57.8372 282.611 58.5752 282.675C61.717 282.949 64.8798 283.013 68.0215 282.886L68.9493 283.815C70.0246 284.364 70.7416 285.589 70.6783 286.814C70.6572 287.469 70.4253 288.103 70.2566 288.737C69.5397 291.546 70.1301 294.672 71.838 296.995C72.0278 297.249 72.2386 297.587 72.091 297.882C72.0489 297.967 71.9645 298.03 71.8802 298.094C70.5307 299.15 68.6752 299.255 66.9672 299.234C60.494 299.107 54.0207 297.587 48.3487 294.482C42.5081 291.271 38.8181 263.052 38.544 256.04C38.5018 254.773 38.544 253.315 39.4717 252.449L39.4928 252.428Z" fill="#FFC7A6"/>
<path d="M46.4725 242.966C46.7888 241.677 46.6201 240.663 45.8399 239.481C45.608 239.122 45.2073 238.741 44.7856 238.868C44.7224 238.868 44.6802 238.91 44.638 238.953C44.5326 239.037 44.4904 239.164 44.4693 239.29C44.0898 240.537 43.5838 241.741 42.9301 242.86C42.6771 243.304 42.403 243.726 42.0023 244.064C41.8969 244.149 41.7915 244.233 41.665 244.233C41.5595 244.233 41.4541 244.191 41.3487 244.149C41.0113 243.98 40.6529 243.789 40.3788 243.515C39.4088 242.564 39.0715 240.748 38.9871 239.459C38.9449 238.805 38.6919 238.087 37.8907 238.234C37.4268 238.319 37.0683 238.551 36.6466 238.699C36.2671 238.826 35.9086 238.889 35.5291 239.122C34.9176 239.481 34.4116 240.03 33.9899 240.6C33.6314 241.065 33.294 241.572 33.1464 242.142C32.9567 242.987 33.2308 243.874 33.6736 244.634C33.8844 244.972 34.1374 245.331 34.1164 245.733C34.0953 246.071 33.9055 246.472 33.8423 246.81C33.7157 247.739 33.9688 248.69 34.517 249.429C35.3182 250.506 36.7521 251.098 37.3003 252.365C37.6376 253.146 37.6376 253.843 37.6376 254.667C37.6376 255.681 37.7009 256.716 37.7642 257.73C37.7642 257.899 37.7852 258.089 37.8907 258.237C37.9539 258.342 38.0383 258.427 38.1226 258.511C39.936 260.159 42.7403 260.434 44.9754 259.441C45.9032 259.039 46.5357 258.321 46.3038 257.286C46.0297 255.998 45.7556 254.688 45.5658 253.379C45.2917 251.626 45.3549 249.957 45.6501 248.204C45.7345 247.655 45.9664 247.063 45.9664 246.493C45.9664 245.416 46.0086 244.381 46.346 243.325C46.3881 243.198 46.4303 243.05 46.4514 242.923L46.4725 242.966Z" fill="#4D4D4D"/>
<path d="M78.3325 280.774C81.4953 280.331 84.6581 279.972 87.842 279.929C90.7729 279.887 93.9779 280.204 96.1497 282.189C97.204 283.161 98.3426 284.576 98.6589 285.97C99.0174 287.597 99.0806 289.307 98.8487 290.976C98.3848 294.292 96.7823 297.482 94.252 299.699C92.5652 301.178 90.541 302.234 88.4535 303.079C84.384 304.705 79.9982 305.508 75.6124 305.529C74.516 305.529 73.4195 305.487 72.3231 305.36C72.0701 305.339 71.817 305.297 71.6062 305.191C71.3321 305.064 71.1423 304.832 70.9525 304.6C68.8651 302.086 66.8409 299.467 65.4281 296.51C64.0154 293.553 63.2352 290.216 63.7624 286.984C64.0576 285.125 64.9643 282.76 67.0096 282.464C69.6031 282.084 72.1966 281.682 74.8112 281.302C75.992 281.133 77.1517 280.943 78.3325 280.795V280.774Z" fill="#0C4C4C"/>
<path d="M38.7552 209.762C38.6919 209.91 38.5865 210.079 38.6498 210.248C38.6708 210.311 38.7341 210.375 38.7974 210.438C39.7462 211.431 39.9571 213.057 39.2823 214.261C39.2191 214.367 39.1558 214.472 39.1558 214.599C39.1558 214.747 39.2823 214.874 39.3667 214.979C39.936 215.697 39.8727 216.859 39.2191 217.493C39.0715 217.641 38.8817 217.789 38.8817 218C38.8817 218.084 38.9239 218.19 38.966 218.274C39.198 218.866 38.966 219.584 38.5443 220.07C38.1015 220.555 37.5111 220.83 36.8997 221.041C36.1195 221.295 35.2972 221.464 34.4959 221.358C33.6947 221.253 32.8934 220.851 32.4295 220.175C31.9657 219.499 31.9024 218.528 32.3874 217.873C31.7126 217.472 31.3331 216.627 31.4385 215.845C31.5439 215.064 32.1554 214.388 32.9145 214.177C32.4506 213.775 31.9657 213.311 31.9657 212.698C31.9657 212.191 32.3452 211.769 32.5982 211.346C32.6826 211.198 32.7458 211.051 32.7247 210.882C32.6826 210.67 32.4928 210.523 32.3241 210.396C31.6705 209.868 31.312 209.002 31.4174 208.178C31.4807 207.608 31.7759 207.101 32.1133 206.657C33.1886 205.305 35.0231 204.608 36.731 204.904C37.237 204.989 37.7642 205.179 38.1437 205.517C39.2191 206.467 39.3667 208.537 38.7763 209.762H38.7552Z" fill="#616161"/>
<path d="M48.5179 211.114C48.307 211.621 47.7799 211.938 47.2317 212.086C45.4183 212.614 43.4152 211.642 41.6019 212.17C40.9271 212.381 40.3367 212.783 39.7252 213.12C39.1138 213.48 38.4601 213.796 37.7643 213.796C37.0685 213.796 36.3094 213.437 36.0775 212.783C35.8244 212.085 36.204 211.346 36.6468 210.755C37.5324 209.656 38.7553 208.854 40.0626 208.326C41.3699 207.798 42.7826 207.544 44.1743 207.396C44.6382 207.354 45.1231 207.312 45.587 207.396C46.9576 207.629 49.1926 209.488 48.4968 211.093L48.5179 211.114Z" fill="#616161"/>
<path d="M80.9894 371.302L82.7606 371.64L92.0171 321.138L96.5294 380.364L98.3428 380.216L94.2311 326.44C93.219 323.187 92.1225 319.913 91.0261 316.681C91.0261 316.639 91.0261 316.618 90.9839 316.597L80.9683 371.302H80.9894Z" fill="#333333"/>
</g>
<defs>
<clipPath id="clip0_2315_1782">
<rect width="162" height="430" fill="white" transform="matrix(-1 0 0 1 162 0)"/>
</clipPath>
</defs>
</svg>
