<?xml version="1.0" encoding="UTF-8"?>
<svg version="1.1" xmlns="http://www.w3.org/2000/svg" width="213" height="74">
<path d="M0 0 C6.93 0 13.86 0 21 0 C25.28571429 16 25.28571429 16 27 23 C29.74972528 15.35945902 32.47191206 7.71732109 35 0 C40.94 0 46.88 0 53 0 C56.59964214 7.45640159 58.86716228 15.0245483 61 23 C61.14622803 22.40985107 61.29245605 21.81970215 61.44311523 21.21166992 C62.10667467 18.53663838 62.77206653 15.86206595 63.4375 13.1875 C63.66759766 12.25873047 63.89769531 11.32996094 64.13476562 10.37304688 C64.35712891 9.48037109 64.57949219 8.58769531 64.80859375 7.66796875 C65.01282959 6.84578857 65.21706543 6.0236084 65.42749023 5.17651367 C65.88624158 3.43247603 66.42972637 1.71082088 67 0 C73.6 0 80.2 0 87 0 C84.49679314 9.79477806 81.25109003 19.27074344 77.9375 28.8125 C77.12161863 31.17316832 76.30672047 33.53417459 75.49183655 35.89518738 C74.98845918 37.35243228 74.48430703 38.80940987 73.97923279 40.2660675 C72.62629071 44.16943209 71.30651529 48.08045414 70 52 C63.73 52 57.46 52 51 52 C50.01935899 48.91712856 49.04043203 45.83373074 48.0625 42.75 C47.64581055 41.44095703 47.64581055 41.44095703 47.22070312 40.10546875 C46.95322266 39.26113281 46.68574219 38.41679688 46.41015625 37.546875 C46.04096069 36.38430176 46.04096069 36.38430176 45.66430664 35.19824219 C45.04348477 33.14389446 44.50083599 31.08647028 44 29 C40.80423938 36.53043593 38.33516414 44.16052038 36 52 C29.73 52 23.46 52 17 52 C13.16550961 42.53360184 9.9937565 32.9432044 6.94335938 23.19946289 C5.04161321 17.14832296 3.01026858 11.18657431 0.73657227 5.26416016 C0 3 0 3 0 0 Z " fill="#0054C5" transform="translate(82,22)"/>
<path d="M0 0 C6.93 0 13.86 0 21 0 C21 10.89 21 21.78 21 33 C23.97 28.71 26.94 24.42 30 20 C35.02132401 18.95989146 37.69860343 18.69202169 42.5625 19.1875 C44.21862305 19.27547852 44.21862305 19.27547852 45.90820312 19.36523438 C48.61520376 19.5175764 51.30263621 19.72991203 54 20 C52.5502728 22.97256297 50.97142323 25.58857863 49 28.25 C48.484375 28.95640625 47.96875 29.6628125 47.4375 30.390625 C46.963125 30.92171875 46.48875 31.4528125 46 32 C45.34 32 44.68 32 44 32 C43.7525 32.53625 43.505 33.0725 43.25 33.625 C41.70346419 36.56341804 39.85472526 39.24807025 38 42 C39.70514471 44.81444467 41.41425356 47.62645695 43.125 50.4375 C43.62620361 51.26193604 44.12740723 52.08637207 44.64379883 52.93579102 C47.64621308 57.8526756 50.71511111 62.68726761 54.07421875 67.37109375 C55 69 55 69 55 72 C47.41 72 39.82 72 32 72 C30.68 69.73125 29.36 67.4625 28 65.125 C27.58234375 64.41230957 27.1646875 63.69961914 26.734375 62.96533203 C24 58.22222222 24 58.22222222 24 56 C23.34 56 22.68 56 22 56 C21.67 61.28 21.34 66.56 21 72 C14.07 72 7.14 72 0 72 C0 48.24 0 24.48 0 0 Z " fill="#0054C5" transform="translate(0,2)"/>
<path d="M0 0 C1.42022461 -0.00580078 1.42022461 -0.00580078 2.86914062 -0.01171875 C3.85720703 -0.00011719 4.84527344 0.01148437 5.86328125 0.0234375 C6.83201172 0.01183594 7.80074219 0.00023438 8.79882812 -0.01171875 C15.18898498 0.01420481 21.70103382 0.31649234 26.73291016 4.77954102 C30.34842661 8.85610936 31.30606745 12.2279973 31.28930664 17.52441406 C31.28923111 18.32494202 31.28915558 19.12546997 31.28907776 19.95025635 C31.28391647 20.80456238 31.27875519 21.65886841 31.2734375 22.5390625 C31.27202255 23.42124451 31.2706076 24.30342651 31.26914978 25.21234131 C31.26356126 28.02440815 31.25101086 30.8363948 31.23828125 33.6484375 C31.23326477 35.55729052 31.22870212 37.46614478 31.22460938 39.375 C31.21444734 44.04953478 31.19486967 48.72389657 31.17578125 53.3984375 C25.23578125 53.3984375 19.29578125 53.3984375 13.17578125 53.3984375 C13.17578125 52.7384375 13.17578125 52.0784375 13.17578125 51.3984375 C12.52351563 51.72070312 11.87125 52.04296875 11.19921875 52.375 C7.37878077 53.66822319 3.78797228 53.76646689 -0.19921875 53.7734375 C-1.29363281 53.81017578 -1.29363281 53.81017578 -2.41015625 53.84765625 C-7.99033185 53.87755005 -11.19069657 52.49152751 -15.82421875 49.3984375 C-15.82421875 48.7384375 -15.82421875 48.0784375 -15.82421875 47.3984375 C-16.48421875 47.3984375 -17.14421875 47.3984375 -17.82421875 47.3984375 C-19.89320149 42.35529207 -20.46195537 37.77934024 -19.82421875 32.3984375 C-17.78147972 27.56037138 -14.5476691 24.58962887 -9.734375 22.484375 C-2.78270817 20.07326203 3.88340329 20.08982589 11.17578125 20.3984375 C10.68078125 17.9234375 10.68078125 17.9234375 10.17578125 15.3984375 C9.51578125 15.3984375 8.85578125 15.3984375 8.17578125 15.3984375 C8.17578125 14.7384375 8.17578125 14.0784375 8.17578125 13.3984375 C1.90578125 13.3984375 -4.36421875 13.3984375 -10.82421875 13.3984375 C-7.17784644 0.02840569 -7.17784644 0.02840569 0 0 Z M2.17578125 33.3984375 C1.12410598 35.97576664 1.12410598 35.97576664 1.17578125 38.3984375 C5.02609175 40.96531117 6.76147888 40.23132474 11.17578125 39.3984375 C11.17578125 36.4284375 11.17578125 33.4584375 11.17578125 30.3984375 C7.7110774 30.3984375 5.19416139 31.80692797 2.17578125 33.3984375 Z " fill="#0054C5" transform="translate(181.82421875,20.6015625)"/>
<path d="M0 0 C6.93 0 13.86 0 21 0 C21 17.16 21 34.32 21 52 C14.07 52 7.14 52 0 52 C0 34.84 0 17.68 0 0 Z " fill="#0054C5" transform="translate(59,22)"/>
<path d="M0 0 C0 0.66 0 1.32 0 2 C0.99 2.33 1.98 2.66 3 3 C4.60847182 6.21694364 4.61309149 9.52137222 4 13 C1.05423033 16.64345196 -1.11894185 18.79099354 -5.8125 19.3125 C-9.7307645 18.92835642 -11.21293267 17.70743683 -14 15 C-15.6122045 11.775591 -15.44109573 8.4953495 -15 5 C-12.05831535 -1.72385064 -6.37025317 -0.49424378 0 0 Z " fill="#0054C5" transform="translate(75,0)"/>
</svg>
