<svg width="86" height="80" viewBox="0 0 86 80" fill="none" xmlns="http://www.w3.org/2000/svg">
<path d="M29.7799 75.4492C30.3677 75.5383 31.6325 76.09 31.2398 76.8899C30.8785 77.6247 30.0039 77.1164 29.3101 77.1212C25.6312 77.1477 21.8777 77.1549 18.247 77.1212L17.8399 76.5261C17.7049 75.336 19.7383 75.4203 20.5068 75.4468L22.4294 37.1404C20.3406 39.0943 18.6759 41.6264 16.0185 42.8936C13.8069 43.9464 5.74566 45.9099 3.28827 46.0641C0.830887 46.2183 -1.09407 44.5945 0.76102 42.3323L20.384 30.6356C20.4105 28.5275 20.7791 27.1085 22.1475 25.5064C21.285 22.1648 18.806 17.6524 19.3601 14.1928C19.7094 12.01 22.8221 4.30542 23.9135 2.12509C25.1927 -0.428666 27.1008 -0.876777 28.4428 1.86249L28.5753 24.8583C30.3701 25.8678 30.7243 27.441 31.4928 29.1684C35.7643 31.1488 41.0308 31.7294 44.2182 35.4757C46.1263 37.7187 48.8415 41.4361 50.4797 43.9103C51.241 45.0595 51.7614 45.616 51.0001 47.0375C50.4508 48.0614 49.1185 48.5239 48.0368 48.0397L28.9439 35.2155C29.2691 40.3061 29.404 45.4137 29.6666 50.5115C29.7485 52.1016 29.8256 53.7206 29.9076 55.3299C29.975 56.6478 30.7484 63.2418 30.281 63.8995L28.9632 64.0994L27.2526 34.7337L24.2363 34.9601L22.1957 75.4468C24.5302 75.6973 27.5369 75.1095 29.7847 75.4468L29.7799 75.4492ZM26.7684 2.20941C26.2094 2.16364 25.7107 2.15882 25.5108 2.75871C24.4146 6.32915 22.3427 9.98873 21.3597 13.5447C20.3623 17.1489 22.6269 21.1482 23.6629 24.5981C24.7446 24.5716 25.6963 23.9212 26.7708 24.3741V2.20941H26.7684ZM29.5341 29.631C29.5341 27.588 27.8766 25.9304 25.8336 25.9304C23.7906 25.9304 22.1331 27.588 22.1331 29.631C22.1331 31.674 23.7906 33.3315 25.8336 33.3315C27.8766 33.3315 29.5341 31.674 29.5341 29.631ZM31.1098 30.8789C30.9797 31.8932 30.3533 32.7123 29.6715 33.4303L29.7702 33.7772L49.0029 46.5147C49.4293 46.281 49.9063 45.8931 49.4245 45.4546C46.3624 42.3395 43.8231 36.1768 39.9419 34.2084C37.2339 32.8352 33.8852 32.1606 31.1073 30.8789H31.1098ZM20.9044 32.3485L1.71747 44.0091C1.94635 44.3464 2.18245 44.3632 2.55347 44.3921C4.00381 44.5054 11.0724 42.6696 12.8456 42.1347C17.8206 40.6362 19.2974 37.7066 22.6679 34.1314L20.9044 32.3461V32.3485Z" fill="currentColor"/>
<path d="M83.024 34.9746L83.5179 35.6853L83.4047 72.3967C83.1686 72.7702 82.4747 72.775 82.07 72.8087C74.0425 73.476 65.1164 72.2811 56.9926 72.8087C54.5496 72.0353 56.9516 71.0909 58.3297 71.1102V52.8003H51.5839V57.0164C51.5839 57.5079 49.8975 57.5079 49.8975 57.0164V51.4752C50.3432 50.8705 50.7624 51.1138 51.2225 51.1138H59.6547L60.0161 51.4752V71.1102H61.7026V44.2476C61.7026 44.2066 62.0736 43.8236 62.1892 43.7706C62.6807 43.5417 70.6094 43.5441 71.096 43.7706C71.2093 43.8236 71.5827 44.2066 71.5827 44.2476V71.1102H73.5101V35.3335L73.8714 34.9722H83.0264L83.024 34.9746ZM81.9399 36.661H75.1941V71.1126H81.9399V36.661ZM69.8938 45.3341H63.389V71.1126H69.8938V45.3341Z" fill="currentColor"/>
<path d="M54.5254 68.1997C54.5254 74.7166 49.242 80 42.7251 80C36.2082 80 30.9248 74.7166 30.9248 68.1997C30.9248 61.6828 36.2082 56.3994 42.7251 56.3994C49.242 56.3994 54.5254 61.6828 54.5254 68.1997ZM52.8534 68.2141C52.8534 62.632 48.3265 58.1051 42.7444 58.1051C37.1622 58.1051 32.6353 62.632 32.6353 68.2141C32.6353 73.7963 37.1622 78.3232 42.7444 78.3232C48.3265 78.3232 52.8534 73.7963 52.8534 68.2141Z" fill="currentColor"/>
<path d="M39.537 65.8123H43.994C44.5409 65.8123 44.871 67.4987 44.2349 67.4987H39.0551V68.7033H43.7531C44.7553 68.7033 44.5216 70.3898 43.994 70.3898H39.2961C40.1561 72.5725 42.0377 73.7723 44.4253 73.2302C45.3094 73.0302 46.3622 71.4137 47.1284 72.5605C47.7066 73.7578 45.931 74.5167 45.0276 74.7986C41.9173 75.7671 39.2912 74.2421 37.8722 71.4474C37.2145 70.1537 37.9276 70.3536 35.8364 70.3536C34.6728 69.2406 36.1617 68.4166 37.3687 68.7057V67.4987L35.6678 67.3927C34.6752 65.3594 37.0796 66.0701 37.5711 65.7761C37.6674 65.7183 38.2481 64.2053 38.5709 63.7669C40.279 61.4564 42.9099 60.6807 45.5576 61.8395C46.7044 62.3406 48.2968 63.5741 46.396 64.2873C43.8928 62.3238 40.6476 62.5864 39.5322 65.8171L39.537 65.8123Z" fill="currentColor"/>
</svg>
