<svg width="75" height="80" viewBox="0 0 75 80" fill="none" xmlns="http://www.w3.org/2000/svg">
<g clip-path="url(#clip0_2377_388)">
<path d="M7.19727 2.10988V68.4214L7.64431 68.8684H42.8118C43.3572 68.8684 43.5866 70.5613 42.4541 70.8951L7.63835 70.9636C7.02441 71.2318 5.11106 69.5539 5.11106 69.3185V7.17638H2.4288V73.6369H39.5334C40.1414 73.6369 40.1414 75.7231 39.5334 75.7231H1.98176C1.11747 75.7231 -0.22664 73.5564 0.0326451 72.6057V7.90953C0.354517 4.42855 2.26488 5.11104 5.11106 5.09017C5.31074 3.29008 4.2587 0.330646 6.73532 0.00877459L58.0172 0.0177155C58.7504 -0.158122 60.2465 1.09658 60.2465 1.66284V30.5717C60.2465 31.1797 58.1603 31.1797 58.1603 30.5717V2.55693L57.7132 2.10988H7.19727Z" fill="currentColor"/>
<path d="M73.8517 44.2364C76.1912 46.7458 73.9411 48.3939 73.9291 50.5368C73.9172 52.7899 75.9438 54.0654 74.1169 56.6613C73.3688 57.7223 71.682 58.3481 71.1664 59.1081C70.4273 60.2019 70.5853 61.9245 69.5898 63.054C70.5942 66.9105 73.1245 71.6253 73.8397 75.4222C74.3881 78.3399 69.0385 76.0451 67.596 76.057C66.2996 77.0137 65.6588 80.4321 63.7365 79.845C62.5832 79.4933 60.6728 72.3376 59.9635 70.7938C59.8264 70.4988 59.7847 70.0935 59.3585 70.0607C58.9562 71.3392 56.3514 79.4158 55.7851 79.7496C53.6423 81.0103 52.8436 77.1776 51.6991 76.0004C49.6934 76.215 47.6698 77.2909 45.6253 76.7842C45.1723 76.4683 45.3183 75.5325 45.4137 75.0497C45.8846 72.6774 49.607 64.7259 49.4431 63.1017C49.4222 62.896 48.1049 59.4061 47.9946 59.2184C47.2108 57.8921 44.6984 57.5762 44.2246 55.2427C43.7805 53.0581 45.0769 52.1849 45.0799 50.5427C45.0829 48.9006 43.8371 48.2896 44.1769 46.0902C44.5762 43.5152 46.8532 43.6851 47.8754 42.341C48.7308 41.2174 48.4774 39.4173 49.6547 38.1596C51.5322 36.1598 52.8495 37.5189 54.596 37.1642C56.6703 36.744 57.2365 34.2554 60.0231 34.6637C61.9901 34.9498 62.6517 36.884 64.416 37.1642C65.7482 37.3758 66.8122 36.5056 68.4067 37.3192C70.5346 38.407 70.0726 40.8657 70.9667 42.2098C71.4704 42.9668 73.1513 43.4824 73.8546 44.2394L73.8517 44.2364ZM59.2691 36.7261C57.9876 36.9317 56.405 39.4262 53.8539 39.3756C52.924 39.3577 52.179 38.5798 51.2879 39.4978C50.4951 40.3114 50.4832 42.3201 49.6457 43.5182C48.8083 44.7163 46.5879 45.4107 46.2899 46.4359C45.9919 47.4611 47.1602 49.0377 47.1572 50.5427C47.1542 52.0478 46.1916 53.3472 46.2184 54.429C46.2541 55.9341 48.5937 56.5987 49.4729 57.7401C50.4146 58.9591 50.4266 61.2986 51.4846 61.9871C52.4889 62.6397 53.1029 61.9871 54.0953 62.0318C56.4885 62.142 58.1902 64.6812 59.5045 64.6783C60.6996 64.6753 62.6875 62.0049 64.8631 62.0109C65.5396 62.0109 66.0433 62.4252 66.8808 62.2642C68.8567 61.8857 68.5348 59.0634 69.5272 57.7372C70.5942 56.3126 73.1274 56.1069 72.6446 53.6601C72.4122 52.4799 71.8251 52.161 71.8489 50.5368C71.8727 49.0258 72.7907 47.9231 72.7877 46.9604C72.7817 45.4882 70.2068 44.8146 69.3484 43.5241C68.5944 42.3886 68.4841 39.9359 67.5662 39.3458C66.4546 38.6305 65.6082 39.3607 64.5949 39.3368C62.3418 39.2891 60.5178 36.5264 59.2661 36.7261H59.2691ZM58.4584 66.4873C56.8014 66.5111 56.0474 64.5084 54.593 64.2133C53.5618 64.0047 52.4353 64.5382 51.3504 64.4458L47.7264 74.5281C49.2672 74.704 52.1134 73.0082 53.225 74.248C53.8539 74.9513 53.9284 76.4057 54.8761 76.9153L58.4555 66.4873H58.4584ZM71.2707 74.5281L67.7122 64.2253C66.535 64.717 65.3966 63.9392 64.3386 64.1478C63.2239 64.3683 61.9543 66.4724 60.5387 66.4873L64.121 76.6143C64.8154 76.7634 64.5978 76.5219 64.7856 76.2299C65.2148 75.5653 65.6499 73.944 66.4844 73.7503L71.2677 74.5252L71.2707 74.5281Z" fill="currentColor"/>
<path d="M45.8493 19.8695C45.8493 27.3113 39.8172 33.3463 32.3724 33.3463C24.9276 33.3463 18.8955 27.3142 18.8955 19.8695C18.8955 12.4247 24.9276 6.39258 32.3724 6.39258C39.8172 6.39258 45.8493 12.4247 45.8493 19.8695ZM43.7124 19.8575C43.7124 13.5989 38.637 8.52349 32.3784 8.52349C26.1197 8.52349 21.0443 13.5989 21.0443 19.8575C21.0443 26.1162 26.1197 31.1916 32.3784 31.1916C38.637 31.1916 43.7124 26.1162 43.7124 19.8575Z" fill="currentColor"/>
<path d="M38.9974 45.0083H13.4414V47.4253H38.9974V45.0083Z" fill="currentColor"/>
<path d="M40.9017 38.4697H13.4473V40.5738H40.9017V38.4697Z" fill="currentColor"/>
<path d="M34.3392 51.8633H13.4414V54.2803H34.3392V51.8633Z" fill="currentColor"/>
<path d="M68.9759 50.695C68.9759 55.9254 64.735 60.1664 59.5046 60.1664C54.2742 60.1664 50.0332 55.9254 50.0332 50.695C50.0332 45.4646 54.2742 41.2236 59.5046 41.2236C64.735 41.2236 68.9759 45.4646 68.9759 50.695ZM66.8897 50.6771C66.8897 46.606 63.5876 43.3039 59.5165 43.3039C55.4454 43.3039 52.1433 46.606 52.1433 50.6771C52.1433 54.7482 55.4454 58.0504 59.5165 58.0504C63.5876 58.0504 66.8897 54.7482 66.8897 50.6771Z" fill="currentColor"/>
<path d="M37.5155 15.5601C38.8059 15.3723 38.9877 16.5734 38.3231 17.5926C37.8344 18.3407 31.2807 24.8139 30.7681 24.9271C30.1363 25.0642 26.1635 21.2018 26.0145 20.6743C25.8059 19.9352 26.2976 18.9695 27.1709 19.2139C28.059 19.4613 30.333 22.379 30.5922 22.373C31.6413 21.172 36.3472 15.7329 37.5155 15.5631V15.5601Z" fill="currentColor"/>
</g>
<defs>
<clipPath id="clip0_2377_388">
<rect width="74.9126" height="80" fill="white"/>
</clipPath>
</defs>
</svg>
