<svg width="79" height="80" viewBox="0 0 79 80" fill="none" xmlns="http://www.w3.org/2000/svg">
<g clip-path="url(#clip0_2377_363)">
<path d="M52.2939 62.5996C54.9898 61.6556 57.6857 60.6015 60.3093 59.4693C64.1982 57.7869 72.923 51.8536 75.3091 58.2676C77.061 62.9818 72.59 65.032 69.286 66.9982C61.8903 71.3939 52.7196 76.082 44.5508 78.749C43.1782 79.1978 41.6869 79.7972 40.2448 79.9449C32.6088 80.7268 20.1051 73.2819 12.1187 72.2394C10.6679 72.0512 9.91796 72.4595 8.73071 72.4653C6.59657 72.4769 0.651659 73.0618 0.194136 70.2645C0.553205 65.6951 -0.347364 60.2569 0.17097 55.7946C0.550309 52.5398 5.80604 53.4578 8.29925 52.9192C10.332 52.479 12.1824 51.037 14.082 50.3044C22.1668 47.1799 27.8309 51.5437 35.3221 53.3767C39.4746 54.3931 46.653 54.6074 50.07 56.0031C52.7456 57.0977 53.0671 60.1382 52.2997 62.6025L52.2939 62.5996ZM2.19797 56.0871V69.697C5.94503 71.1912 9.60812 69.6362 13.8388 70.5078C20.4729 71.8746 33.8974 78.4218 39.6628 77.9121C44.0121 77.5299 54.7205 72.4305 58.9599 70.2819C61.3662 69.0628 71.2811 63.8969 72.5668 62.3795C74.588 59.9934 73.4819 56.9993 70.1286 57.4133C67.6267 57.7232 60.2253 61.8409 57.2079 63.0252C49.7254 65.9615 45.1415 66.1034 37.0798 65.5069C35.2729 65.3737 28.7604 63.9432 27.3125 63.1121C26.994 62.9297 26.6726 62.7936 26.5597 62.3969L26.8492 61.1865C27.5355 60.7463 33.9322 62.9847 35.3829 63.1469C38.5277 63.4943 44.3452 63.8245 47.4667 63.7347C51.4628 63.6218 51.4165 58.6035 49.1173 57.8072C44.4291 56.9211 39.6136 56.5678 34.9659 55.4529C27.7469 53.7184 22.3811 49.3343 14.6496 52.3227C12.721 53.0698 10.9401 54.4626 8.86681 54.9375C7.66799 55.2126 2.47017 55.2097 2.19218 56.0813L2.19797 56.0871Z" fill="currentColor"/>
<path d="M49.6729 10.8213C49.6729 16.7981 44.8283 21.6426 38.8516 21.6426C32.8748 21.6426 28.0303 16.7981 28.0303 10.8213C28.0303 4.84454 32.8719 0 38.8487 0C44.8254 0 49.67 4.84454 49.67 10.8213H49.6729ZM47.5822 10.8271C47.5822 6.00572 43.6729 2.0965 38.8516 2.0965C34.0302 2.0965 30.121 6.00572 30.121 10.8271C30.121 15.6485 34.0302 19.5577 38.8516 19.5577C43.6729 19.5577 47.5822 15.6485 47.5822 10.8271Z" fill="currentColor"/>
<path d="M32.5393 24.7497C35.9679 24.3645 44.4118 24.3182 47.5971 25.1666C52.3547 26.435 56.0757 30.6048 57.5149 35.2293C57.816 36.1964 58.6558 38.1279 57.0545 38.2929C55.7717 38.4261 55.3026 35.1076 54.7495 33.9407C52.8586 29.9533 49.0855 27.1126 44.6145 26.7014C34.1262 25.7371 21.6456 26.7187 21.5732 40.1636C21.5675 41.4782 22.6418 44.6722 21.2258 45.315H20.5221C20.1109 45.1326 19.9401 44.9647 19.859 44.5071C18.2229 35.348 22.5491 25.8761 32.5364 24.7525L32.5393 24.7497Z" fill="currentColor"/>
<path d="M76.0382 17.7191H68.075C67.5422 17.7191 67.2352 15.97 68.6628 15.7007C69.7313 15.5009 76.5623 15.498 77.6221 15.7007C78.21 15.8137 78.5575 16.1293 78.653 16.7229L71.9929 32.9274C70.8027 33.3936 69.8877 32.9419 70.3713 31.604L76.0411 17.7191H76.0382Z" fill="currentColor"/>
</g>
<defs>
<clipPath id="clip0_2377_363">
<rect width="78.6535" height="80" fill="white"/>
</clipPath>
</defs>
</svg>
