<svg width="93" height="80" viewBox="0 0 93 80" fill="none" xmlns="http://www.w3.org/2000/svg">
<path d="M65.4817 50.955C65.6915 51.1981 67.5665 49.806 67.9195 49.5629C71.5 46.5 70.1043 47.5 73.8676 42.8196L73.7244 42.3334C72.0959 40.9113 68.196 38.6966 70.1043 36.3187L91.0491 32.0625C92.1814 32.2223 93.0273 32.9584 92.8841 34.164C92.1448 40.7981 92.1914 47.5321 91.532 54.1663C90.9192 60.3042 85.3375 52.0082 84.8779 52.3346C83.8222 54.163 81.8173 56.0246 80.2153 57.5C68.5 64 72.8785 61.2792 65.4883 64.4464V77.2683L69.8378 77.4116L70.1043 79.22C69.4415 79.5697 68.7288 79.5696 67.9995 79.6129C46.4385 80.8485 23.712 78.6438 2.02779 79.6129C1.16189 79.6529 -0.243532 79.3565 0.0362208 78.2375C0.45585 76.569 3.20675 77.4848 4.53891 77.2683V8.15945L5.03847 7.65989H16.5283V0.832597C16.5283 0.77265 17.301 0 17.3609 0H52.663L53.1626 0.499558V7.16034L53.6621 7.65989H64.6524C64.729 7.65989 65.485 8.69898 65.485 8.82553V50.955H65.4817ZM18.8562 2.33127V7.65989H50.828V2.33127H18.8562ZM63.1504 9.99117H6.86685V77.265H21.8536V59.7805C21.8536 59.7239 22.3665 59.1943 22.5263 59.1211H47.1612C47.3177 59.1943 47.834 59.7239 47.834 59.7805V77.265C52.29 76.8421 57.632 77.7946 62.0048 77.2817C62.491 77.2251 62.8607 77.2417 63.1538 76.7655V9.99117H63.1504ZM65.4817 54.1188V61.6122C73.8676 58 78 57 81.5442 52.8375C85.0883 48.6749 84.1618 48.7011 85.8603 49.4971C86.5864 49.8368 88.8144 53.0639 89.5304 52.6609L90.5296 34.6802L72.8785 38.0139C73.6978 39.9822 78.2171 41.5041 76.6918 43.6522C69.1018 51.442 74.6403 48.1608 65.4817 54.1188ZM33.843 61.2792H24.1849V77.2817H33.843V61.2792ZM45.4994 61.2792H36.1743V77.265H45.4994V61.2792Z" fill="currentColor"/>
<path d="M57.1785 51.6211H12.8311V53.9723H57.1785V51.6211Z" fill="currentColor"/>
<path d="M56.7395 27.8959C55.6604 28.8251 49.5325 27.3098 47.7041 28.2156C47.3311 28.1757 46.9148 27.9192 46.675 27.6328C45.9323 26.7436 46.0156 20.6157 46.1488 19.137C46.2021 18.5342 46.2587 17.4851 46.8282 17.1521C47.2545 16.899 54.7112 16.849 55.6737 16.9756C56.14 17.0355 56.5363 17.0522 56.856 17.4585C57.3922 18.1379 57.3522 27.3764 56.7395 27.8992V27.8959ZM54.8245 19.3168H48.4967V25.6446H54.3249C54.4248 25.6446 54.5814 26.0675 54.8245 25.9776V19.3168Z" fill="currentColor"/>
<path d="M40.0911 17.3979C40.7039 18.0107 40.7339 26.8362 40.201 27.5089C39.5483 28.3349 35.6084 27.9352 34.3262 27.9619C32.9208 27.9918 30.3098 28.9976 29.657 26.9961C29.3173 25.9503 29.334 17.9874 29.9234 17.3979C31.3921 16.8184 39.3551 16.6619 40.0911 17.3979ZM38.1728 19.3162H31.8451V25.6439H38.1728V19.3162Z" fill="currentColor"/>
<path d="M47.0645 34.3696C47.9238 34.1165 54.5379 34.1398 55.6702 34.2863C56.1365 34.3463 56.5328 34.3629 56.8525 34.7692C57.2688 35.2988 57.3188 42.6689 57.1689 43.8079C57.109 44.2742 57.0923 44.6705 56.686 44.9902C56.1565 45.4065 48.7863 45.4565 47.6473 45.3066C47.1811 45.2466 46.7848 45.23 46.465 44.8237C46.0288 44.2708 45.9688 35.7084 46.3285 34.9657C46.465 34.686 46.7648 34.4562 47.0645 34.3696ZM54.8243 36.6343H48.4966V42.962H54.8243V36.6343Z" fill="currentColor"/>
<path d="M29.9267 34.7164C30.5028 34.1402 37.4334 34.1635 38.6923 34.2868C39.2551 34.34 39.798 34.2568 40.2043 34.773C40.6106 35.2892 40.6705 42.6727 40.5207 43.8117C40.4607 44.2779 40.4441 44.6742 40.0377 44.994C39.395 45.5002 30.5295 45.4869 30.0066 44.9706C29.2539 44.2246 29.2639 35.3825 29.9267 34.7164ZM38.1727 36.6347H31.845V42.9624H38.1727V36.6347Z" fill="currentColor"/>
<path d="M23.4723 27.928L14.74 28.1945C13.2413 28.0979 12.9982 27.1188 12.8617 25.8066C12.7018 24.2746 12.5719 18.1167 13.6643 17.2841C14.2171 16.8612 21.2409 16.8179 22.3699 16.9677C22.8362 17.0277 23.2325 17.0443 23.5522 17.4506C24.0984 18.1434 24.0051 27.595 23.4723 27.928ZM21.5207 19.3157H15.1929V25.6434H21.5207V19.3157Z" fill="currentColor"/>
<path d="M13.2743 34.719C13.8038 34.1062 22.7093 34.0729 23.3853 34.6057C23.7916 34.9254 23.8083 35.3218 23.8682 35.788C24.0181 36.927 23.9681 44.3005 23.5518 44.8267C23.2321 45.233 22.8358 45.2496 22.3696 45.3096C20.8909 45.5028 16.1517 45.5061 14.6764 45.3096C11.6157 44.9033 12.9712 37.0036 13.2743 34.719ZM21.5203 36.6339H15.1926V42.9617H21.5203V36.6339Z" fill="currentColor"/>
</svg>
