<?xml version="1.0" encoding="UTF-8"?>
<svg id="Layer_2" data-name="Layer 2" xmlns="http://www.w3.org/2000/svg" width="75" height="90" viewBox="0 0 163.65 198.48">
  <defs>
  </defs>
  <g id="Layer_1-2" data-name="Layer 1">
    <g>
      <path d="M78.72,110.74c-1.49.3-6.37-.77-6.9.83-.45,1.35-.91,5.74-1.07,7.41-.81,8.44,1.16,18.08-2.98,25.96-.35.67-.61,1.27-1.27,1.73.31-5.74-1.08-11.66-1.27-17.19-.13-3.8.66-8.55,1.03-12.49.19-2.09,2.41-7.14-1.6-4.22-7.59,5.52-14.77,12.2-22.69,17.84s-26.51,19.37-34.5,21.88c-7.23,2.28-9.1-3.23-6.09-9.08,5.22-10.14,27.29-31.93,36.69-39.15,6.86-5.27,12.54-7.57,21.22-8.72.96-6.19,3.66-11.78,9.35-14.85l.11-68.01c1.42-3.77.05-11.87,5.37-12.64,2.23-.32,3.99.76,5.32,2.42,5.62,7,11.3,36.49,12.69,46.21,1.15,8.07,2.11,11.25-1.35,18.97-1.96,4.38-4.9,8.37-6.57,12.92l.23.72c4.31,2.61,6.44,6.84,7.29,11.69,17.27,8.38,35.01,16.02,51.61,25.73,4.8,2.81,16.83,9.59,19.22,14.21,5.19,10.05-9.41,7.07-14.6,6.12-12.44-2.3-30.09-7.36-41.87-12.01-5.19-2.05-7.35-3.39-10.88-7.58-3.23-3.83-5.97-8.38-9.26-12.21-3.03-.75-1.07,10.1-1.98,11.98-1.08,2.21-5.24.41-5.24-.75v-7.73ZM79.6,77.68c1.39-4.71,6.5-10.57,7.77-14.93,2.08-7.13-2.41-23.66-4.04-31.22-.94-4.36-1.54-8.87-2.76-13.21-.49-1.74-3.86-12.36-5.09-12.36-.7.57-.98,1.51-1.12,2.36-.32,1.83-.54,5.36-.64,7.34-.86,17.49,0,35.39-.5,52.9-.09,3.24.11,6.51.02,9.75l6.36-.63ZM86.51,94.97c0-6.04-4.89-10.93-10.93-10.93s-10.93,4.89-10.93,10.93,4.89,10.93,10.93,10.93,10.93-4.89,10.93-10.93ZM156.88,133.86c-2.34-2.66-12.35-8.16-15.96-10.23-13.19-7.58-28.75-15.56-42.65-21.72-1.14-.51-6.95-3.28-7.58-2.65l-.75,4.97c3.97,3.73,7.43,10.77,11.22,14.25s23.37,8.92,29.33,10.58c8.85,2.47,18,4.67,27.05,6.13.07-.05-.48-1.11-.67-1.33ZM56.48,112.95c1.34-1.11,6.35-4.74,6.71-6.06.43-1.56-2.53-4.39-3.21-6.09-6.03,1.59-10.87,2.09-16.14,5.74-9.91,6.86-27.69,25.1-34.95,34.91-.56.75-3.58,5.06-3.5,5.47.26,1.42,3.04-.52,3.64-.84,14.08-7.26,35.05-22.87,47.46-33.13Z" fill="currentColor"/>
      <path d="M86.83,153.54c3.09,1.54,11.71-.93,10.85,4.33-4.29,7.17-8.93,14.17-12.97,21.49-1.13,2.04-2.89,7.07-3.96,8.38-.89,1.1-3.08,1.25-3.77-.15-2.17-4.44.42-16.09-1.98-21.48-2.83-2.36-13.47,1.27-12.66-3.59l19.34-32.11c1.66-.67,3.07.45,3.52,2.05l1.63,21.08ZM69.74,160.65h8.73c2.39,0,1.84,12.84,2.49,14.97,1.77-1.23,2.53-4.19,3.74-6.24,1.59-2.71,3.23-5.4,4.83-8.12.27-.47.76-.58,1.17-.86l-.29-1.26c-2.96-.07-6.03.63-8.46-1.49-.53-1.44.25-15.05-1.49-14.97l-10.73,17.95Z" fill="currentColor"/>
      <path d="M85.96,194.08l.69-.79c-1.83-5.52,1.08-9.86,3.3-14.67,1.2-.02.67,6.1.75,7.22.17,2.36.5,5.31.96,7.52l19.63.32c2.54,1.23,2.19,3.46,0,4.79l-69.88-.02c-2.17-6.12,2.68-4.41,6.1-4.35,1.97.03,14.14.21,14.77-.24,1.76-5.11.41-10.65,1.09-15.87.4-3.05,1.52-5.11,4.64-2.9,1.92,1.92-.12,8.05-.3,10.73-.16,2.37-.41,6.37.77,8.25h17.46Z" fill="currentColor"/>
    </g>
  </g>
</svg>
