<?xml version="1.0" encoding="UTF-8"?>
<svg id="Layer_2" data-name="Layer 2" xmlns="http://www.w3.org/2000/svg" viewBox="0 0 97.07 107.92">
  <defs>

  </defs>
  <g id="Layer_1-2" data-name="Layer 1">
    <g>
      <path d="M72.98,105.47c1.27.22,1.64,2.26.18,2.45l-44.28-.1c-1.26-.91-.81-2.04.62-2.34l14.82.14.25-.27,1.95-44.77c-.33-.34-2.37,1.99-2.71,2.27-2.98,2.44-8.33,4.38-11.89,6.09-8.06,3.87-16.17,7.68-24.48,11.16-1.27.28-2.47-.53-2.1-1.92.19-.69,2.06-2.06,2.71-2.57,8.62-6.77,17.73-12.97,26.33-19.74,2.87-2.08,6.25-3.3,9.69-4.1.68-2.08,1.31-3.82,3.15-5.1.06-.45-1.13-2.63-1.34-3.34-1.13-3.71-.39-7.06-.06-10.77.79-8.78,1.63-17.64,2.95-26.39.24-1.63.31-3.63.76-5.18.39-1.35,2.56-1.28,3,.05s.44,3.64.64,5.13c1.22,9.02,2.24,18.09,2.95,27.26.25,3.21.75,6.15-.08,9.36-.37,1.41-1.21,2.63-1.47,3.99,1.93.76,2.66,3.16,3.2,4.92,4.09,1.24,7.69,2.61,11.23,5.02,4.34,2.95,8.4,6.33,12.59,9.46,4.57,3.42,9.88,6.93,14.17,10.59.86.73,1.67,1.42,1.15,2.69-.59,1.43-3.09.4-4.13-.02-11.47-4.66-22.81-10.47-33.84-16.15l-3.24-2.87,1.48,45.06h15.81ZM51.14,8.54c-.25.18-.33.32-.42.62-.31,1.05-.24,2.68-.38,3.81-.83,6.52-1.5,13.02-2.08,19.58-.31,3.55-1.1,6.91.06,10.42.13.4.87,2.17,1.08,2.41.25.29,2.72.28,2.96,0,.26-.31,1.13-2.6,1.27-3.1.68-2.48.59-5.42.39-7.99-.65-8.37-1.98-16.68-2.61-24.99-.02-.31.05-.57-.27-.77ZM55.28,52.4c0-2.38-1.93-4.3-4.3-4.3s-4.3,1.93-4.3,4.3,1.93,4.3,4.3,4.3,4.3-1.93,4.3-4.3ZM44.57,54.32c-3.03.16-6.03,1.55-8.52,3.22-6.82,4.58-13.73,10.45-20.36,15.45-.52.39-1.26.77-1.78,1.17-.18.14-.64.47-.57.75.21.17,3.44-1.62,3.98-1.87,4.82-2.23,9.73-4.28,14.56-6.57,5.93-2.82,9.22-4.01,13.76-8.96.13-.14.34-.23.53-.25.17-.26-.59-.78-.77-1.06-.33-.53-.63-1.28-.83-1.87ZM74.56,63.8c-5.2-3.82-10.38-8.36-16.92-9.48l-.39.32c.11,1.01-1.52,1.96-.97,2.89.25.42,2.55,2.6,3.06,3.05,2.72,2.36,7.14,4.01,10.42,5.61,5.38,2.62,11.05,5.36,16.36,7.82,1.02.47,2.14.78,3.09,1.41l.26-.26c-.03-.43-1.01-.78-1.33-1.03-4.47-3.49-9-6.97-13.59-10.34ZM47.48,105.47c2.44-.02,4.89.01,7.34,0l-1.66-46.2-.27-.44c-1.11.53-2.54.53-3.66,0-.34-.1-.39.91-.42,1.16-.29,2.71-.08,5.33-.19,8.02-.46,11.51-1.19,23.05-1.59,34.57-.02.64-.11,2.27.03,2.78.11.43.38.11.42.11Z" fill="currentColor"/>
      <path d="M35.79,6.68c3.1,2.19,5.5,6.01,5.39,9.89.57.39,2.66,1.07,2.85,1.69.26.82-.17,1.79-1.1,1.77-.42,0-3.93-1.52-4.12-1.79-.38-.53-.06-2.51-.17-3.32-.3-2.22-2.37-4.86-4.12-6.18-6.34-4.75-16.68-2.24-18.91,5.66-.18.63.25,1.28-.76,1.69-.67.28-2.84-.79-4-.71-2.54.19-5.56,2.13-6.92,4.27-3.88,6.1.25,13.25,7.21,13.86h29.88c1.65.17,1.53,2.27-.34,2.45H10.62C2.15,34.83-2.7,26.44,1.59,18.72c2.04-3.68,7.54-6.57,11.74-5.56.54-.31.48-.89.71-1.37,3.99-8.08,14.44-10.25,21.74-5.1Z" fill="currentColor"/>
      <path d="M84.08,33.32l8.45.2c.63.11.73.71.58,1.26-4.16,6.01-8.68,11.78-12.99,17.66-.79,1.08-1.86,3.12-2.69,3.99-.66.7-2.09.76-2.24-.34-.03-.23.13-1.19.18-1.49.68-3.72,2.41-7.7,3.26-11.41.16-.71.51-1.37-.41-1.47-2.15-.25-5.03.58-7.16.18-.71-.13-.71-.85-.57-1.44,4.13-6.35,8.56-12.5,12.96-18.66.46-.64,1.97-3.23,2.51-3.47.98-.42,1.77.24,1.76,1.28l-3.74,13.18.1.53ZM89.48,35.6h-6.9c-.1,0-1.05-.61-1.15-.77-.22-.36-.19-.66-.17-1.06.07-1.7,1.44-5.31,1.99-7.1.1-.34.59-.58-.22-.65l-8.84,13.09.18.35h5.24c.55,0,1.84,1.18,1.83,1.85l-2.09,8.11h.51s9.62-13.8,9.62-13.8Z" fill="currentColor"/>
      <path d="M52.22,53.53c-.53.53-1.83.61-2.4.16-1.69-1.34.05-3.94,2.09-2.79.91.51,1.01,1.93.3,2.63Z" fill="currentColor"/>
    </g>
  </g>
</svg>
