<?xml version="1.0" encoding="UTF-8"?>
<svg id="Layer_2" data-name="Layer 2" xmlns="http://www.w3.org/2000/svg" viewBox="0 0 141.65 190.03">
  <defs>
    <style>
    </style>
  </defs>
  <g id="Layer_1-2" data-name="Layer 1">
    <g>
      <g>
        <g>
          <path d="M136.73,104.3c.37-.65.88-1.22,1.52-1.66,0,0,0,0,0,0,1.8-1.87,2.93-4.39,3.15-7.61.33-4.86.35-23.17-.01-28.02-.32-4.21-2.58-7.73-6.3-9.7-11.92-3.23-24.05-7.67-36.04-10.5-2.37-.56-4.76-.99-7.2-1.11-12.23-.59-24.93.47-37.21,0-9.89.51-18.64,5.3-23.99,13.62l-4.15.52c.52-18.67-3.28-37.04-6.76-55.26-2.84-6.72-11.88-5.79-13.76,1.19-1.63,9.48-3.91,18.9-5.22,28.44-.86,6.26-1.23,10.49,1.38,16.42l7.72,14.51c-7.3,4.3-8.99,12.91-2.49,18.91.61.56,2.75,1.79,2.71,2.47C6.93,93.36.68,101.1.1,108.77c-.87,11.55,4.37,25.81,5.05,37.54,1.12,6.86,10.5,7.93,13.33,1.62,3.74-18.7,7.51-37.58,8-56.72l4.2.63c4.98,8.2,13.91,13.12,23.43,13.92l-1.45,34.8c-.31,6.82-1.08,13.66-1.39,20.48.39-.04.77-.08,1.17-.08,1.5,0,2.96.18,4.36.53.95-16.54,2.29-33.05,2.72-49.6.05-2.04-.06-4.1,0-6.14h72c.23-.05.45-.1.68-.15.34-.03.68-.02,1.01,0,1.09-.25,2.13-.6,3.1-1.09.14-.07.28-.15.42-.22ZM7.6,48.48c-3.38-7.9-.62-16.86.87-25.05.87-4.79,1.76-11.72,3.15-16.17.51-1.63,1.58-2.07,2.69-.6,2.03,10.68,4.3,21.48,5.5,32.32.8,7.27,1,14.57,1.04,21.87-1.01.27-2.04.51-3.05.8-.67.19-2.38,1.09-2.85.68-2.41-4.53-5.33-9.13-7.35-13.85ZM18.14,118.92c-1.27,8.29-2.65,17.82-4.63,25.91-.45,1.85-1.79,2.45-2.75.66l-2.11-12.65c-1.47-8.84-4.79-21.16-1.25-29.44,2.14-5,5.53-9.81,7.98-14.68l.19-.15,5.3,1.41c-.19,9.71-1.26,19.36-2.73,28.94ZM29.81,86.43c-3.77-.39-7.71-1.26-11.27-2.55-3.91-1.41-11.73-5.25-9.18-10.52,2.8-5.78,14.68-7.92,20.45-8.54v21.61ZM130.82,100.81c-1.13,0-2.12-.24-2.97-.66H55.25c-7.97-.46-15.94-4.41-19.74-11.63l-.05-25.62c3.4-6.5,11.05-10.91,18.33-11.38,12.88-.84,26.69.63,39.67.04,11.73,2.67,23.19,6.41,34.79,9.61.32-.05.66-.08,1.02-.08,5.76,0,8.07,6.21,6.16,10.03.03,6.03.41,14.7.32,20.43,1.92,3.83.48,9.26-4.95,9.26Z" fill="currentColor"/>
          <path d="M97.89,92.5c2.87-.16,5.76-.2,8.63-.13.45-.02.9-.05,1.36-.07,2.6-.14,5.2-.2,7.8-.22-.06-5.19-.13-10.38-.14-15.57,0-.33.03-.64.06-.95.12-5.96.97-13.2-6.74-13.85-4.83-.41-9.98-.2-15.12-.02-.03,7.1-.12,14.2-.33,21.3-.09,3.03-.07,6.06-.1,9.09,1.52.23,3.04.36,4.56.42ZM97.96,67.32h10.91c.39,0,1.27,1.04,1.15,1.55l-.11,18.18c-.46.57-1.13.96-1.86,1.05-3.16.38-6.85-.57-10.08-.21v-20.57Z" fill="currentColor"/>
          <path d="M97.89,92.5c2.87-.16,5.76-.2,8.63-.13.45-.02.9-.05,1.36-.07,2.6-.14,5.2-.2,7.8-.22-.06-5.19-.13-10.38-.14-15.57,0-.33.03-.64.06-.95.12-5.96.97-13.2-6.74-13.85-4.83-.41-9.98-.2-15.12-.02-.03,7.1-.12,14.2-.33,21.3-.09,3.03-.07,6.06-.1,9.09,1.52.23,3.04.36,4.56.42ZM97.96,67.32h10.91c.39,0,1.27,1.04,1.15,1.55l-.11,18.18c-.46.57-1.13.96-1.86,1.05-3.16.38-6.85-.57-10.08-.21v-20.57Z" fill="currentColor"/>
          <rect x="94.92" y="133.63" width="3.95" height="6.86" fill="currentColor"/>
          <rect x="94.92" y="143.42" width="3.95" height="6.86" fill="currentColor"/>
          <rect x="94.92" y="153.21" width="3.95" height="6.65" fill="currentColor"/>
          <path d="M98.66,130.69h-3.74c.16-1.47-.89-5.11.88-5.87,3.5-1.49,3.22,3.89,2.86,5.87Z" fill="currentColor"/>
        </g>
        <line class="cls-3" x1="54.66" y1="150.63" x2="52.33" y2="189.87" />
      </g>
      <path class="cls-1" d="M92.42,92.5c-2.6-.16-5.21-.2-7.82-.13-.41-.02-.82-.05-1.23-.07-2.36-.14-4.71-.2-7.07-.22.05-5.19.11-10.38.12-15.57,0-.33-.02-.64-.06-.95-.11-5.96-.88-13.2,6.11-13.85,4.38-.41,9.04-.2,13.7-.02.02,7.1.11,14.2.3,21.3.08,3.03.06,6.06.09,9.09-1.38.23-2.76.36-4.13.42ZM92.36,67.32h-9.88c-.36,0-1.15,1.04-1.04,1.55l.1,18.18c.41.57,1.03.96,1.69,1.05,2.86.38,6.2-.57,9.13-.21v-20.57Z" fill="currentColor"/>
      <line class="cls-2" x1="106.28" y1="100.81" x2="114.48" y2="189.56"/>
    </g>
  </g>
</svg>
