<?xml version="1.0" encoding="UTF-8"?>
<svg id="Layer_2" data-name="Layer 2" xmlns="http://www.w3.org/2000/svg" width="90" height="80"  viewBox="0 0 141.65 190.03">
  <defs>
  </defs>
  <g id="Layer_1-2" data-name="Layer 1">
    <g>
      <g>
        <path d="M141.39,67.01c-.32-4.21-2.58-7.73-6.3-9.7-11.92-3.23-24.05-7.67-36.04-10.5-2.37-.56-4.76-.99-7.2-1.11-12.23-.59-24.93.47-37.21,0-9.89.51-18.64,5.3-23.99,13.62l-4.15.52c.52-18.67-3.28-37.04-6.76-55.26-2.84-6.72-11.88-5.79-13.76,1.19-1.63,9.48-3.91,18.9-5.22,28.44-.86,6.26-1.23,10.49,1.38,16.42l7.72,14.51c-7.3,4.3-8.99,12.91-2.49,18.91.61.56,2.75,1.79,2.71,2.47C6.93,93.36.68,101.1.1,108.77c-.87,11.55,4.37,25.81,5.05,37.54,1.12,6.86,10.5,7.93,13.33,1.62,3.74-18.7,7.51-37.58,8-56.72l4.2.63c4.98,8.2,13.91,13.12,23.43,13.92l-1.45,34.8c-.31,6.82-1.08,13.66-1.39,20.48.39-.04.77-.08,1.17-.08,1.5,0,2.96.18,4.36.53.95-16.54,2.29-33.05,2.72-49.6.05-2.04-.06-4.1,0-6.14h22.65c.77,4.36,3.5,7.78,6.62,10.74-.61,3.46-.66,6.12,3.74,5.7.82,2.43.62,5.11.65,7.66-4.93-1.69-4.54,7.26,0,6.44v7.48c-4.49-1.32-4.54,7.81,0,6.86.03,2.43-.15,4.89.3,7.29.24,1.27.76,2.45,1.09,3.69.21.23.39.48.51.77.08.12.13.26.18.39.78.75,1.51,1.54,2.09,2.45.59.38,1.17.77,1.74,1.18.5.16,1,.36,1.49.58.06.04.13.08.19.12,7.55,3.59,16.5-2.03,17.32-10.15,1.01-10.03-.75-21.61.02-31.77.49-6.45,4.9-8.1,8.07-12.71,3.32-4.83,4.27-10.73,3.37-16.47,6.65-.83,11.37-4.56,11.84-11.53.33-4.86.35-12.61-.01-17.46ZM7.6,48.48c-3.38-7.9-.62-16.86.87-25.05.87-4.79,1.76-11.72,3.15-16.17.51-1.63,1.58-2.07,2.69-.6,2.03,10.68,4.3,21.48,5.5,32.32.8,7.27,1,14.57,1.04,21.87-1.01.27-2.04.51-3.05.8-.67.19-2.38,1.09-2.85.68-2.41-4.53-5.33-9.13-7.35-13.85ZM18.14,118.92c-1.27,8.29-2.65,17.82-4.63,25.91-.45,1.85-1.79,2.45-2.75.66l-2.11-12.65c-1.47-8.84-4.79-21.16-1.25-29.44,2.14-5,5.53-9.81,7.98-14.68l.19-.15,5.3,1.41c-.19,9.71-1.26,19.36-2.73,28.94ZM29.81,86.43c-3.77-.39-7.71-1.26-11.27-2.55-3.91-1.41-11.73-5.25-9.18-10.52,2.8-5.78,14.68-7.92,20.45-8.54v21.61ZM80.11,85.48c.51-4.98-.75-11.59,0-16.38.16-1.02.78-1.57,1.75-1.78h10.39c.21.16.23.18.23.42,0,3.05-.39,6.18.04,9.21-2.12,2.04-3.86,4.32-5.44,6.79-.44.68-1.5,2.98-1.89,3.31-.7.58-5.38.52-5.07-1.58ZM122.36,108.03c-1.53,2.65-4.07,4.37-5.9,6.77-2.44,3.2-3.72,7.19-3.96,11.21-.61,10.16.55,20.87-.09,31.08-1.92,7.84-12.94,7.06-13.63-.94-.31-3.65-.16-7.75-.21-11.43-.1-6.89,1.07-19.03-1.08-25.1-2.42-6.83-9.22-9.06-10.28-16.53-.8-5.65,1.69-11.93,4.93-16.46.08,2.18-.1,4.38,0,6.55.12,2.82-.02,5.3,2.44,7.12,1.45,1.08,6.97,4.31,8.59,4.92,2.68,1.01,4.21.33,6.58-.9,1.94-1.01,6.9-3.87,7.93-5.58,1.9-3.17.19-7.93.66-11.49,5.25,5.35,8.03,13.86,4.03,20.76ZM109.08,93.71c1.12-.13,2.7-.81,3.63-1.45l.11,3.53-7.29,4.15-7.31-4-.26-2.23c3.51-.3,7.69.41,11.12,0ZM97.96,87.89v-20.57h10.91c.39,0,1.27,1.04,1.15,1.55l-.11,18.18c-.46.57-1.13.96-1.86,1.05-3.16.38-6.85-.57-10.08-.21ZM135.55,85.06c-.56,4.67-4.58,4.47-8.08,5.74-2.38-5.18-6.64-10.04-11.81-12.5-.42-6.2,2.17-15.84-6.78-16.6-8.83-.75-18.7.57-27.64.01-4.13.51-6.46,3.27-6.76,7.36-.33,4.46-.3,11.54,0,16.02.34,4.97,3.52,7.96,8.53,7.79-.86,2.32-1.39,4.78-1.45,7.27h-26.29c-7.97-.46-15.94-4.41-19.74-11.63l-.05-25.62c3.4-6.5,11.05-10.91,18.33-11.38,12.88-.84,26.69.63,39.67.04,12.85,2.93,25.37,7.14,38.11,10.52,2.07.56,3.55,1.99,3.98,4.12-.46,5.96.69,13.04,0,18.87Z" fill="currentColor"/>
        <rect x="80.92" y="133.63" width="3.95" height="6.86" fill="currentColor"/>
        <rect x="80.92" y="143.42" width="3.95" height="6.86" fill="currentColor"/>
        <rect x="80.92" y="153.21" width="3.95" height="6.65" fill="currentColor"/>
        <path d="M84.66,130.69h-3.74c.16-1.47-.89-5.11.88-5.87,3.5-1.49,3.22,3.89,2.86,5.87Z" fill="currentColor"/>
        <path d="M104.97,150.69c3.12-.51,3.9,2.5,3.57,5.02-.5,3.79-5.32,3.69-5.78.42-.29-2.02-.32-5.02,2.21-5.44Z" fill="currentColor"/>
      </g>
      <line class="cls-2" x1="54.66" y1="150.63" x2="52.33" y2="189.87"/>
      <line class="cls-2" x1="95.8" y1="150.63" x2="98.13" y2="189.87"/>
    </g>
  </g>
</svg>
