<?xml version="1.0" encoding="UTF-8"?>
<svg version="1.1" xmlns="http://www.w3.org/2000/svg" width="709" height="351">
<path d="M0 0 C0.93886551 0.00141495 1.87773102 0.0028299 2.845047 0.00428772 C5.79907629 0.00981727 8.75302546 0.0223558 11.70703125 0.03515625 C13.72851452 0.04018038 15.74999899 0.04474167 17.77148438 0.04882812 C22.68753015 0.05976348 27.60351719 0.07697801 32.51953125 0.09765625 C32.51953125 1.08765625 32.51953125 2.07765625 32.51953125 3.09765625 C31.19953125 3.42765625 29.87953125 3.75765625 28.51953125 4.09765625 C30.49953125 4.59265625 30.49953125 4.59265625 32.51953125 5.09765625 C32.18953125 6.08765625 31.85953125 7.07765625 31.51953125 8.09765625 C30.52953125 8.09765625 29.53953125 8.09765625 28.51953125 8.09765625 C28.51953125 8.75765625 28.51953125 9.41765625 28.51953125 10.09765625 C26.73228638 10.07409058 26.73228638 10.07409058 24.90893555 10.05004883 C-22.88029683 9.33679132 -22.88029683 9.33679132 -69.48046875 19.09765625 C-68.84882813 18.96190186 -68.2171875 18.82614746 -67.56640625 18.6862793 C-35.02410479 11.76107592 -2.69547718 8.35423373 30.51953125 11.09765625 C30.51953125 12.08765625 30.51953125 13.07765625 30.51953125 14.09765625 C31.83953125 14.09765625 33.15953125 14.09765625 34.51953125 14.09765625 C34.51953125 15.08765625 34.51953125 16.07765625 34.51953125 17.09765625 C33.52953125 17.09765625 32.53953125 17.09765625 31.51953125 17.09765625 C31.51953125 18.08765625 31.51953125 19.07765625 31.51953125 20.09765625 C30.45412109 20.27941406 30.45412109 20.27941406 29.3671875 20.46484375 C28.44808594 20.63242188 27.52898437 20.8 26.58203125 20.97265625 C25.66550781 21.13507813 24.74898437 21.2975 23.8046875 21.46484375 C23.05058594 21.67367187 22.29648437 21.8825 21.51953125 22.09765625 C21.18953125 22.75765625 20.85953125 23.41765625 20.51953125 24.09765625 C19.20178929 24.48809831 17.86285853 24.80720711 16.51953125 25.09765625 C14.51571116 25.75275128 12.51494993 26.41739988 10.51953125 27.09765625 C11.17953125 27.42765625 11.83953125 27.75765625 12.51953125 28.09765625 C12.18953125 29.08765625 11.85953125 30.07765625 11.51953125 31.09765625 C10.69678711 31.05688965 9.87404297 31.01612305 9.02636719 30.97412109 C-38.13931607 28.75771319 -83.70807033 34.40521555 -126.83496094 54.60888672 C-132.18760458 57.09765625 -132.18760458 57.09765625 -135.48046875 57.09765625 C-135.39346825 55.47164684 -135.28529065 53.84675947 -135.16796875 52.22265625 C-135.10996094 51.31773437 -135.05195313 50.4128125 -134.9921875 49.48046875 C-134.48046875 47.09765625 -134.48046875 47.09765625 -131.48046875 45.09765625 C-131.81046875 44.43765625 -132.14046875 43.77765625 -132.48046875 43.09765625 C-109.18283075 13.05596515 -60.24644893 6.58998316 -25.23828125 1.55908203 C-16.80331459 0.52334353 -8.49834053 -0.04962938 0 0 Z M-22.48046875 19.09765625 C-22.48046875 19.42765625 -22.48046875 19.75765625 -22.48046875 20.09765625 C-12.25046875 20.09765625 -2.02046875 20.09765625 8.51953125 20.09765625 C8.51953125 19.76765625 8.51953125 19.43765625 8.51953125 19.09765625 C-1.71046875 19.09765625 -11.94046875 19.09765625 -22.48046875 19.09765625 Z M-34.48046875 20.09765625 C-34.48046875 20.42765625 -34.48046875 20.75765625 -34.48046875 21.09765625 C-31.18046875 21.09765625 -27.88046875 21.09765625 -24.48046875 21.09765625 C-24.48046875 20.76765625 -24.48046875 20.43765625 -24.48046875 20.09765625 C-27.78046875 20.09765625 -31.08046875 20.09765625 -34.48046875 20.09765625 Z M9.51953125 20.09765625 C9.51953125 20.42765625 9.51953125 20.75765625 9.51953125 21.09765625 C12.48953125 21.09765625 15.45953125 21.09765625 18.51953125 21.09765625 C18.51953125 20.76765625 18.51953125 20.43765625 18.51953125 20.09765625 C15.54953125 20.09765625 12.57953125 20.09765625 9.51953125 20.09765625 Z M-42.48046875 21.09765625 C-42.48046875 21.42765625 -42.48046875 21.75765625 -42.48046875 22.09765625 C-40.17046875 22.09765625 -37.86046875 22.09765625 -35.48046875 22.09765625 C-35.48046875 21.76765625 -35.48046875 21.43765625 -35.48046875 21.09765625 C-37.79046875 21.09765625 -40.10046875 21.09765625 -42.48046875 21.09765625 Z M-49.48046875 22.09765625 C-49.48046875 22.42765625 -49.48046875 22.75765625 -49.48046875 23.09765625 C-47.50046875 23.09765625 -45.52046875 23.09765625 -43.48046875 23.09765625 C-43.48046875 22.76765625 -43.48046875 22.43765625 -43.48046875 22.09765625 C-45.46046875 22.09765625 -47.44046875 22.09765625 -49.48046875 22.09765625 Z M-55.48046875 23.09765625 C-55.48046875 23.42765625 -55.48046875 23.75765625 -55.48046875 24.09765625 C-53.83046875 24.09765625 -52.18046875 24.09765625 -50.48046875 24.09765625 C-50.48046875 23.76765625 -50.48046875 23.43765625 -50.48046875 23.09765625 C-52.13046875 23.09765625 -53.78046875 23.09765625 -55.48046875 23.09765625 Z M-60.48046875 24.09765625 C-60.48046875 24.42765625 -60.48046875 24.75765625 -60.48046875 25.09765625 C-58.83046875 25.09765625 -57.18046875 25.09765625 -55.48046875 25.09765625 C-55.48046875 24.76765625 -55.48046875 24.43765625 -55.48046875 24.09765625 C-57.13046875 24.09765625 -58.78046875 24.09765625 -60.48046875 24.09765625 Z M-65.48046875 25.09765625 C-65.48046875 25.42765625 -65.48046875 25.75765625 -65.48046875 26.09765625 C-63.83046875 26.09765625 -62.18046875 26.09765625 -60.48046875 26.09765625 C-60.48046875 25.76765625 -60.48046875 25.43765625 -60.48046875 25.09765625 C-62.13046875 25.09765625 -63.78046875 25.09765625 -65.48046875 25.09765625 Z M-69.48046875 26.09765625 C-65.48046875 27.09765625 -65.48046875 27.09765625 -65.48046875 27.09765625 Z M-73.48046875 27.09765625 C-69.48046875 28.09765625 -69.48046875 28.09765625 -69.48046875 28.09765625 Z M-81.48046875 29.09765625 C-77.48046875 30.09765625 -77.48046875 30.09765625 -77.48046875 30.09765625 Z M-88.48046875 31.09765625 C-84.48046875 32.09765625 -84.48046875 32.09765625 -84.48046875 32.09765625 Z M-108.48046875 38.09765625 C-109.14046875 38.75765625 -109.80046875 39.41765625 -110.48046875 40.09765625 C-108.83046875 39.76765625 -107.18046875 39.43765625 -105.48046875 39.09765625 C-106.47046875 38.76765625 -107.46046875 38.43765625 -108.48046875 38.09765625 Z " fill="#085587" transform="translate(242.48046875,117.90234375)"/>
<path d="M0 0 C11.85941103 -2.40181236 11.85941103 -2.40181236 17 0 C23.23847958 6.4621311 27.08689979 15.01256248 31 23 C32.98 15.41 34.96 7.82 37 0 C41.95 0 46.9 0 52 0 C50.53760521 8.6347431 48.58714653 17.07472038 46.4375 25.5625 C46.12103516 26.83158203 45.80457031 28.10066406 45.47851562 29.40820312 C43.13375235 38.7324953 43.13375235 38.7324953 42 41 C36.64239324 42.16262786 31.20752554 43.172494 26 41 C21.15164687 36.33353851 18.13819451 30.06053417 15.18823242 24.0847168 C14.00612518 22.01074644 12.76345017 20.59286557 11 19 C10.85377197 19.59538574 10.70754395 20.19077148 10.55688477 20.80419922 C9.89454315 23.49507696 9.22856732 26.18504217 8.5625 28.875 C8.33240234 29.81214844 8.10230469 30.74929687 7.86523438 31.71484375 C7.53168945 33.05869141 7.53168945 33.05869141 7.19140625 34.4296875 C6.98717041 35.25710449 6.78293457 36.08452148 6.57250977 36.93701172 C6 39 6 39 5 41 C0.38 41 -4.24 41 -9 41 C-8.37738387 32.23396014 -6.11871319 23.91438128 -3.9375 15.4375 C-3.55609097 13.93698857 -3.17522701 12.43633847 -2.79492188 10.93554688 C-1.86955998 7.28873499 -0.93683422 3.64388082 0 0 Z " fill="#085587" transform="translate(256,165)"/>
<path d="M0 0 C4.51656908 -0.07490483 9.03279623 -0.12895323 13.54980469 -0.16479492 C15.08209543 -0.17975744 16.61434429 -0.20013497 18.14648438 -0.22631836 C38.76723926 -0.56954894 38.76723926 -0.56954894 46.5625 5.5 C49.70682451 8.72494822 50.19326468 11.20784213 50.375 15.5625 C50.27851662 21.57078306 48.57541276 26.17444292 45 31 C33.53194492 41.53641424 18.61992773 41.15557496 4 41.0625 C2.63932456 41.05747487 1.27864733 41.05291376 -0.08203125 41.04882812 C-3.38806725 41.03710459 -6.69401001 41.02069427 -10 41 C-8.57643544 32.36400516 -6.58560041 23.91917481 -4.4375 15.4375 C-4.12103516 14.16841797 -3.80457031 12.89933594 -3.47851562 11.59179688 C-1.13375235 2.2675047 -1.13375235 2.2675047 0 0 Z M14 9 C13.1602972 11.91496831 12.32803997 14.8317186 11.5 17.75 C11.26152344 18.575 11.02304687 19.4 10.77734375 20.25 C10.55175781 21.04921875 10.32617188 21.8484375 10.09375 22.671875 C9.88427734 23.4050293 9.67480469 24.13818359 9.45898438 24.89355469 C8.85806682 27.29207091 8.85806682 27.29207091 9 31 C19.89050622 31.8508692 19.89050622 31.8508692 29.5078125 27.484375 C31.87312538 25.13144596 33.04007335 23.1997555 34 20 C33.92176828 15.04369988 33.92176828 15.04369988 31.1875 11.125 C27.19698341 9.07273433 23.70827937 8.88442525 19.25 8.9375 C18.26515625 8.94652344 17.2803125 8.95554688 16.265625 8.96484375 C15.14414062 8.98224609 15.14414062 8.98224609 14 9 Z " fill="#085587" transform="translate(450,165)"/>
<path d="M0 0 C6.27 -0.061875 12.54 -0.12375 19 -0.1875 C21.94486328 -0.22846802 21.94486328 -0.22846802 24.94921875 -0.27026367 C26.5286396 -0.27903648 28.10806731 -0.28667853 29.6875 -0.29296875 C30.88922852 -0.3159906 30.88922852 -0.3159906 32.11523438 -0.33947754 C38.3097233 -0.34231731 44.16385755 0.51837535 49 4.75 C50.47283043 8.06386848 50.43347933 10.40831415 50 14 C47.3588276 19.3879917 44.25910081 21.51387962 39 24 C38.01 24 37.02 24 36 24 C39.21873076 30.60100635 39.21873076 30.60100635 42.8125 37 C44 39 44 39 44 41 C38.06 41 32.12 41 26 41 C22.5 34.0625 22.5 34.0625 21.45507812 31.87524414 C19.49401621 28.21563258 19.49401621 28.21563258 15.93359375 26.33544922 C13.47563529 25.98756934 13.47563529 25.98756934 10 26 C9.79503906 26.99902344 9.59007812 27.99804688 9.37890625 29.02734375 C9.10949219 30.31769531 8.84007812 31.60804688 8.5625 32.9375 C8.29566406 34.22527344 8.02882813 35.51304687 7.75390625 36.83984375 C7 40 7 40 6 41 C0.72 41 -4.56 41 -10 41 C-6.7 27.47 -3.4 13.94 0 0 Z M14 8 C13.34 11.3 12.68 14.6 12 18 C14.56314499 18.08132187 17.12368418 18.14064175 19.6875 18.1875 C20.7693457 18.22520508 20.7693457 18.22520508 21.87304688 18.26367188 C26.45299374 18.32641087 29.38899887 17.8888009 33 15 C33.87822312 12.91466367 33.87822312 12.91466367 34 11 C29.78654502 7.88286146 26.2589095 7.62323209 21.1875 7.8125 C20.49462891 7.82603516 19.80175781 7.83957031 19.08789062 7.85351562 C17.39158735 7.88861155 15.69568864 7.94241057 14 8 Z " fill="#085587" transform="translate(388,165)"/>
<path d="M0 0 C3.80941601 2.93869235 5.87293055 5.58975418 6.57421875 10.34375 C6.76747357 18.30130149 5.02634212 22.73927493 -0.37109375 28.51171875 C-9.22674099 36.78937503 -20.92665691 39.33001189 -32.73828125 39.07421875 C-41.12933376 38.39907659 -48.20516207 36.39085395 -53.796875 29.828125 C-56.23868398 25.7938319 -56.45573017 21.44011117 -55.796875 16.828125 C-53.74738336 9.74431161 -48.70139589 4.97600494 -42.796875 0.828125 C-30.63616359 -5.43265669 -12.01278667 -7.83442609 0 0 Z M-35.671875 10.203125 C-38.82311465 14.0958328 -39.82286207 16.34686203 -39.734375 21.390625 C-39.01801747 24.84000549 -39.01801747 24.84000549 -36.984375 27.265625 C-31.08344877 30.1582359 -24.52141577 29.71979289 -18.359375 27.703125 C-14.69072962 25.01875033 -11.85271417 21.93980334 -9.796875 17.828125 C-9.29617179 14.45455166 -9.29617179 14.45455166 -9.796875 10.828125 C-12.33824659 7.66858195 -13.94310159 6.11271614 -17.796875 4.828125 C-24.87302412 4.27313291 -30.22283412 5.7017434 -35.671875 10.203125 Z " fill="#085587" transform="translate(367.796875,168.171875)"/>
<path d="M0 0 C14.85 0 29.7 0 45 0 C44.34 2.97 43.68 5.94 43 9 C33.43 9 23.86 9 14 9 C13.67 10.98 13.34 12.96 13 15 C21.58 15 30.16 15 39 15 C38 23 38 23 37 24 C35.00035018 24.08758003 32.9976389 24.10696576 30.99609375 24.09765625 C29.78115234 24.09443359 28.56621094 24.09121094 27.31445312 24.08789062 C26.03505859 24.07951172 24.75566406 24.07113281 23.4375 24.0625 C22.15423828 24.05798828 20.87097656 24.05347656 19.54882812 24.04882812 C16.36583978 24.03699545 13.18294238 24.02051068 10 24 C9.67 26.31 9.34 28.62 9 31 C23.85 31.495 23.85 31.495 39 32 C38.67 34.97 38.34 37.94 38 41 C22.16 41 6.32 41 -10 41 C-7.74746793 28.6110736 -7.74746793 28.6110736 -6.30859375 22.87109375 C-6.00373047 21.65228516 -5.69886719 20.43347656 -5.38476562 19.17773438 C-5.07216797 17.94345703 -4.75957031 16.70917969 -4.4375 15.4375 C-4.12103516 14.16841797 -3.80457031 12.89933594 -3.47851562 11.59179688 C-1.13375235 2.2675047 -1.13375235 2.2675047 0 0 Z " fill="#085587" transform="translate(514,165)"/>
<path d="M0 0 C17.0573991 -1.53363229 17.0573991 -1.53363229 21.8203125 2.2265625 C23.52816632 4.76333282 24.8786231 7.15850197 26 10 C29.47279047 8.54982376 31.13825873 6.69906395 33.5625 3.875 C38.39833144 -0.65042334 42.75268648 -0.63872846 49.0625 -0.5 C52.05172624 -0.39427975 55.01577891 -0.21857977 58 0 C58 0.66 58 1.32 58 2 C56.21166992 3.58813477 56.21166992 3.58813477 53.73046875 5.44140625 C52.84166016 6.10720703 51.95285156 6.77300781 51.03710938 7.45898438 C50.09673828 8.15314453 49.15636719 8.84730469 48.1875 9.5625 C47.25873047 10.26052734 46.32996094 10.95855469 45.37304688 11.67773438 C38.40446154 16.86517949 38.40446154 16.86517949 35 18 C36.1449484 19.43820494 37.29103301 20.87550532 38.4375 22.3125 C39.15808594 23.21613281 39.87867188 24.11976563 40.62109375 25.05078125 C43.80086902 28.99286718 47.05291551 32.87373737 50.3125 36.75 C52 39 52 39 52 41 C35.77497117 42.78260744 35.77497117 42.78260744 31.21679688 39.85449219 C28.02948881 36.72387537 25.86863249 33.05150948 24 29 C24 28.34 24 27.68 24 27 C20.75481116 29.02765084 18.1569637 30.8408663 15.45703125 33.578125 C10.01038592 39.08108719 6.28457661 41.55587305 -1.6262207 41.69433594 C-5.43853948 41.59359168 -9.20249312 41.35750588 -13 41 C-11.82898147 37.48694442 -10.90358892 36.93062947 -7.95703125 34.8203125 C-7.13009766 34.22089844 -6.30316406 33.62148437 -5.45117188 33.00390625 C-4.58041016 32.38386719 -3.70964844 31.76382813 -2.8125 31.125 C2.60215683 27.23103786 7.94336981 23.353171 13 19 C11.00966836 14.13208044 7.24247948 10.49458921 3.8125 6.6015625 C0 2.20407573 0 2.20407573 0 0 Z " fill="#085587" transform="translate(568,165)"/>
<path d="M0 0 C0.66 0 1.32 0 2 0 C2.08636719 0.83402344 2.17273438 1.66804687 2.26171875 2.52734375 C3.53783894 12.74801277 6.1062635 20.09298056 14 27 C14.721875 27.66 15.44375 28.32 16.1875 29 C35.01621825 42.38931075 60.04325787 43.06679908 82.07641602 39.41674805 C91.10046759 37.76148183 100.33506223 35.39045211 108.25 30.625 C109.61125 29.820625 109.61125 29.820625 111 29 C112.485 29.495 112.485 29.495 114 30 C98.4694173 45.43411945 77.52948895 51.64075324 56.0625 52.25 C37.51182581 51.72787838 18.09159351 47.7069514 4.0625 34.75 C-1.34028358 28.96960252 -4.09072177 22.92511472 -4.5 15 C-4.29159762 9.52943748 -2.33162863 4.89225649 0 0 Z " fill="#085587" transform="translate(104,170)"/>
<path d="M0 0 C0.33 0 0.66 0 1 0 C1.08636719 0.82242188 1.17273438 1.64484375 1.26171875 2.4921875 C2.52721132 12.54646795 5.07250446 21.30595312 12.73828125 28.33984375 C30.92210573 41.6872106 54.99680349 43.10184297 76.625 39.8125 C88.82544293 37.79559108 100.14418392 34.00262771 111 28 C106.8469811 37.14839541 96.82902176 41.32841049 88 45 C64.8877086 53.43533347 36.90343285 53.80200573 14.24609375 43.7265625 C6.02385225 39.35324031 -0.85487841 34.02576755 -4 25 C-5.83000237 17.25414091 -4.83172106 10.38492894 -2 3 C-1.34 2.01 -0.68 1.02 0 0 Z " fill="#085587" transform="translate(90,191)"/>
<path d="M0 0 C0.33 0 0.66 0 1 0 C1.02578125 0.70125 1.0515625 1.4025 1.078125 2.125 C1.62902904 11.34012205 4.1461311 18.51844003 11 25 C29.11232433 40.1453531 51.30914354 42.58551799 74 41 C86.46053383 39.55892053 99.21559412 34.89213353 109.828125 28.22265625 C110.54484375 27.81917969 111.2615625 27.41570312 112 27 C112.66 27.33 113.32 27.66 114 28 C99.59851205 43.30158094 80.13975142 49.35582593 59.48828125 50.22265625 C39.2847582 50.75574716 18.47455926 47.58957761 3.15625 33.27734375 C-2.49996412 27.19136826 -4.54356521 20.79371722 -4.30078125 12.5390625 C-3.82698034 8.53944441 -2.96237864 2.96237864 0 0 Z " fill="#085587" transform="translate(97,181)"/>
<path d="M0 0 C5.98041942 5.3338876 8.65544137 11.43459811 9.25 19.3125 C8.95069607 23.72723292 8.12425027 26.13082987 6 30 C4.0625 31.1875 4.0625 31.1875 2 32 C1.319375 32.70125 0.63875 33.4025 -0.0625 34.125 C-2 36 -2 36 -5 36 C-6.15082685 33.75243216 -7.29576858 31.50218252 -8.4375 29.25 C-8.76298828 28.61578125 -9.08847656 27.9815625 -9.42382812 27.328125 C-12.80323291 20.63899387 -12.80323291 20.63899387 -13 18 C-12.07421875 16.078125 -12.07421875 16.078125 -10.6875 14.25 C-10.23761719 13.63640625 -9.78773438 13.0228125 -9.32421875 12.390625 C-8.88722656 11.93171875 -8.45023438 11.4728125 -8 11 C-7.34 11 -6.68 11 -6 11 C-5.83177734 10.12601563 -5.83177734 10.12601563 -5.66015625 9.234375 C-4.93999124 6.79689343 -3.95620605 5.2749414 -2.4375 3.25 C-1.98246094 2.63640625 -1.52742187 2.0228125 -1.05859375 1.390625 C-0.70925781 0.93171875 -0.35992187 0.4728125 0 0 Z M-3 14 C-2 16 -2 16 -2 16 Z M-2 16 C-1.01 19.63 -0.02 23.26 1 27 C1.33 27 1.66 27 2 27 C1.896875 25.741875 1.79375 24.48375 1.6875 23.1875 C1.62949219 22.47980469 1.57148438 21.77210938 1.51171875 21.04296875 C1.07639687 18.56228691 1.07639687 18.56228691 -2 16 Z " fill="#085587" transform="translate(213,165)"/>
<path d="M0 0 C5.08187526 2.96442723 6.52115076 6.76841615 8.2734375 12.125 C10.12909093 19.46780068 9.22079419 25.20054559 6 32 C5.01 32.66 4.02 33.32 3 34 C2.77957031 32.40671875 2.77957031 32.40671875 2.5546875 30.78125 C1.29448407 22.57004 0.16377668 16.06403919 -6 10 C-4.28564986 6.44774296 -2.22257977 3.25978366 0 0 Z " fill="#085587" transform="translate(220,155)"/>
</svg>
