<?xml version="1.0" encoding="UTF-8"?>
<svg id="Layer_2" data-name="Layer 2" xmlns="http://www.w3.org/2000/svg" width="65" height="90" viewBox="0 0 148.4 145.78">
  <defs>
  </defs>
  <g id="Layer_1-2" data-name="Layer 1">
    <g>
      <path d="M33.04.24c21.33-2.61,39.67,16.27,39.33,37.23-.06,3.69-2.9,9.62-1.6,12.48,14.98,14.05,28.64,29.47,43,44.06,7.39,7.51,28.88,23.95,30.31,33.73,1.88,12.87-12.42,22.73-23.74,15.7L48.26,71.45c-15.53,4.69-31.31,1.91-41.39-11.56C.27,51.08-1.83,38.17,1.69,27.89c.9-.74,1.96-1.02,3.1-1.01,7.76.06,16.58,24.03,28.45,16.55,5.12-3.22,12.28-10.96,9.52-17.44-1.8-4.24-18.06-15.54-19.03-19.92-.87-3.95,6.52-5.49,9.3-5.83ZM5.3,33.98c-.85,20.8,14.69,37.87,36.21,32.72,2.76-.66,4.95-3.56,7.74-2.25l73.53,73.54c11.33,7.4,21.18-7.71,11.48-16.48L63.75,50.94c-1.07-2.41,2.1-8.23,2.43-11.57,1.98-19.99-15.33-35.61-34.89-33.38,3.17,5.98,16.21,12.13,17.05,18.44.31,2.33.29,10.64-.57,12.53-.41.91-12.31,12.55-13.19,12.81-2.06.61-11.37.55-13.28-.31-4-1.82-11.14-13.07-16.01-15.48Z" fill="currentColor"/>
      <path d="M130.02,3.22c11.81-1.92,21.39,7.64,17.49,19.49-.84,2.56-6.59,8.87-8.72,11.28-10.7,12.12-24.12,22.91-34.96,35.04-1.77,1.72-5.63,1.35-5.6-1.55.04-3.9,37.6-38.53,42.5-44.54,5.7-8.79-4.26-17.25-12.83-12.83l-41.08,41.93c-1.7,2.28-5.84-.27-5.46-2.42.52-2.96,37.59-37.21,41.89-43.17,1.76-1.61,4.44-2.85,6.77-3.23Z" fill="currentColor"/>
      <path d="M58.28,89.98c.14.1.83,2.84.76,3.35-.52,3.74-15.28,17.56-18.29,21.69-.91,2.06.83,4.68.53,7.37-.68,6.1-17.84,15.24-22.68,19.47-3.67-2.42-9.62-4.71-7.8-9.82.41-1.15,13.5-18.66,14.54-19.49,4.31-3.45,8.56-.06,10.92-1.03,3.62-1.49,13.29-17.22,18.48-20.58.92-.6,2.68-1.56,3.54-.95ZM33.98,123.68c3.23-3.85-1.68-8.68-5.49-6.48-.91.53-11.92,17.01-11.2,17.77l16.69-11.29Z" fill="currentColor"/>
    </g>
  </g>
</svg>
