<?xml version="1.0" encoding="UTF-8"?>
<svg id="Layer_2" data-name="Layer 2" xmlns="http://www.w3.org/2000/svg" width="95" height="90" viewBox="0 0 235.83 188.01">
  <defs>
  </defs>
  <g id="Layer_1-2" data-name="Layer 1">
    <g>
      <g>
        <path d="M67.98,48.21c.17.16,3.27.13,4.52.58,1.44.52,2.99,2,3.95,2.21,2.44.52,9.35-1.73,11.68.59,1.49,1.49,1.45,17.79.25,19.68-1.42,2.24-8.71.93-11.38,1.35-1.96.31-3.27,1.78-4.92,2.13-1.48.32-5.23-.09-5.63.26-.16.14-.4,2.68-1.26,3.85-.77,1.04-2.43,1.41-2.61,1.7-.43.72.74,6.32,1.02,7.73.79,4.08,4.39,13.04,4.37,16.06-.02,4.45-4.88,7.19-8.85,6.51-8.24-1.43-11.32-21.07-11.57-28.09l-6.2.08-11.24,49.53c-2.6,5.19-9.26,2.34-13.91,2.16-1.79,16.26-11.1,14.58-3.94-.8-5.2-.81-9.83-.36-10.94-6.72l10.95-49.75C-.68,78.59-.69,66.15.47,56.48c.82-6.81,6.4-8.69,12.57-8.21-1.4-11.22,5.93-10.56,14.49-10.19,9.38.4,26.23,1.53,35.12,3.31,6.09,1.22,4.69,6.22,5.33,6.82ZM19.05,42.91c-3.98,1.33-1.45,14.81-1.46,18.3-.01,2.99-1.89,16.69.11,18.09,5.24.14,42.04-1.24,43.59-2.77,2.01-1.99.97-10.49,1.16-13.73.17-2.85,2.08-15.14.04-16.52l-43.44-3.35ZM13.04,52.97c-11.71-3.44-12.12,22.21-.78,19.61l.78-19.61ZM67.14,52.97v17.25l4.79-.46c1.07-1.49,1.04-15.54.24-16.1l-5.03-.7ZM77.34,55.33v12.55h7.06v-12.55h-7.06ZM58.52,81.98h-6.28c-.34,4.72,2.64,24.89,9,24.37.9-.07,1.63-.45,1.91-1.35.32-1-2.95-10.41-3.47-12.82-.74-3.38-1.5-6.69-1.16-10.21ZM36.55,82.77l-20.77,1.53-9.71,42.65c.65,2.41,18.43,4.65,19.92,2.88l10.56-47.06Z" fill="currentColor"/>
        <path d="M117.18,83.69c.73,3.21-.63,4.53-3.74,3.38-.9-.33-14.95-10.09-15.74-10.93-2.05-2.17-2.28-4.69,1.15-4.35s14.12,10.49,18.33,11.9Z" fill="currentColor"/>
        <path d="M96.22,52.91c-.41-.57-.05-2.34.33-3.07,1.35-2.6,15.34-9.45,18.18-12.44,1.5-.23,3.41,2.42,2.24,3.83-3.27,1.88-6.16,4.33-9.27,6.44-2.01,1.36-9.77,7.63-11.48,5.25Z" fill="currentColor"/>
        <path d="M97.33,60.03h21.96c1.48,0,1.48,3.92,0,3.92h-21.96c-1.2,0-1.82-3.22,0-3.92Z" fill="currentColor"/>
      </g>
      <path d="M207.36,103.27c-13.02-6.04-26.67-10.95-40.04-16.13-1.58-5.14-3.79-8.17-8.4-10.98l-.27-1.2c2.18-3.76,5.87-9.11,6.76-13.3,1.76-8.34-8.6-52.23-14.14-58.73-4.65-5.45-9.29-2.71-10.04,3.63-2.55,21.72,2.3,48.05,2.38,70.09-2.37,2.92-4.74,4.57-5.59,8.54-.79,3.69.73,9.51.09,10.93-.93,2.07-6.43,4.63-9.1,7.15-2.8.86-7.72,7.14-9.85,8.9-9.27,7.66-20.12,14.06-29.99,20.94-1.34-.7.2-2.19.65-2.99,2.72-4.83,6.99-8.62,9.82-13.37-10.63-3.4-25.2,25.78-9.07,21.39,5.48-1.49,37.25-24.84,40.39-29.64.14-.21.26-.42.38-.63,4.36-1.27,10.81-8.22,11.72-7.16l-5.45,81.85h-17.73c-1.8,0-1.81,5.46,0,5.46h63.66c1.81,0,1.8-5.46,0-5.46h-16.83l-5.91-82.74c4.5,3.15,7.6,9.75,11.81,12.72,7.11,5.01,43.35,13.14,52.76,13.62,4.21.21,8.96.96,10.43-4.05.17-6.22-22.9-16.25-28.47-18.83ZM153.74,25.02c2.05,7.5,7.88,29.23,6.19,35.69-.28,1.07-5.84,12.24-6.38,12.71-1.52,1.34-3.24.91-5.01.9l-1.81-67.3c3.89,4.35,5.43,12.22,7.01,17.99ZM161.27,182.55h-18.19l5.47-80.03,6.31.96c3.01,26.23,4.93,52.68,6.41,79.07ZM152.03,98.19c-5.11,0-9.26-4.15-9.26-9.26s4.15-9.26,9.26-9.26,9.26,4.15,9.26,9.26-4.15,9.26-9.26,9.26ZM225.41,120.69c-8.78-.7-43.47-8.45-49.61-13.15-1.19-.91-10.18-9.84-10.48-10.52-.8-1.81.27-2.86.5-4.51l62.73,27.3c.23,1.56-2.16.96-3.15.88Z" fill="currentColor"/>
    </g>
  </g>
</svg>
