<svg width="20" height="21" viewBox="0 0 20 21" fill="none" xmlns="http://www.w3.org/2000/svg">
<path d="M18.3332 14.7908V17.2908C18.3341 17.5229 18.2866 17.7526 18.1936 17.9653C18.1006 18.1779 17.9643 18.3688 17.7933 18.5257C17.6222 18.6826 17.4203 18.8021 17.2005 18.8764C16.9806 18.9508 16.7477 18.9784 16.5165 18.9575C13.9522 18.6789 11.489 17.8026 9.32486 16.3992C7.31139 15.1197 5.60431 13.4126 4.32486 11.3992C2.91651 9.22517 2.04007 6.75 1.76653 4.17417C1.7457 3.94373 1.77309 3.71147 1.84695 3.49219C1.9208 3.27291 2.03951 3.07141 2.1955 2.90052C2.3515 2.72963 2.54137 2.59309 2.75302 2.4996C2.96468 2.40611 3.19348 2.35772 3.42486 2.3575H5.92486C6.32928 2.35352 6.72136 2.49673 7.028 2.76045C7.33464 3.02416 7.53493 3.39037 7.59153 3.79084C7.69705 4.59089 7.89274 5.37644 8.17486 6.1325C8.28698 6.43077 8.31125 6.75493 8.24478 7.06657C8.17832 7.37821 8.02392 7.66426 7.79986 7.89084L6.74153 8.94917C7.92783 11.0355 9.65524 12.7629 11.7415 13.9492L12.7999 12.8908C13.0264 12.6668 13.3125 12.5124 13.6241 12.4459C13.9358 12.3795 14.2599 12.4037 14.5582 12.5158C15.3143 12.798 16.0998 12.9937 16.8999 13.0992C17.3047 13.1563 17.6744 13.3602 17.9386 13.6721C18.2029 13.984 18.3433 14.3821 18.3332 14.7908Z" stroke="white" stroke-width="1.5" stroke-linecap="round" stroke-linejoin="round"/>
</svg>
