<svg width="80" height="109" viewBox="0 0 80 109" fill="none" xmlns="http://www.w3.org/2000/svg">
<path d="M65.4254 38.2894C65.4254 24.1957 53.9979 12.7607 39.8968 12.7607C25.7957 12.7607 14.3682 24.1883 14.3682 38.2894C14.3682 52.3904 25.7957 63.818 39.8968 63.818C53.9979 63.818 65.4254 52.3904 65.4254 38.2894ZM39.882 60.2631C27.7583 60.2631 17.9305 50.4352 17.9305 38.3116C17.9305 26.1879 27.7583 16.3601 39.882 16.3601C52.0056 16.3601 61.8334 26.1879 61.8334 38.3116C61.8334 50.4352 52.0056 60.2631 39.882 60.2631Z" fill="#F06449"/>
<path d="M45.3248 31.5188C42.8882 29.9117 42.7475 23.5129 39.1556 24.6164C37.7336 25.0533 36.5634 30.0746 34.9415 31.3485C32.9345 32.9186 28.9723 32.2224 27.3725 33.5925C24.3213 36.2142 31.1052 39.4359 31.6384 41.7984C32.2383 44.4349 30.0906 48.0195 30.6534 49.945C31.5347 52.9519 37.2004 48.8934 38.8889 48.5083C42.429 47.7084 45.9691 51.7151 47.9613 51.1892C51.257 50.3153 47.7688 44.3387 48.4131 41.8206C48.9834 39.584 54.1972 37.0067 53.5603 34.6368C52.9678 32.4372 47.2429 32.7852 45.3248 31.5188ZM47.5762 37.177C44.5101 40.7467 44.3176 42.0798 45.6877 46.8197C41.9032 44.309 38.7112 44.5016 34.749 46.442C36.0006 41.6132 34.749 39.1396 31.3496 35.881C36.008 35.9921 38.5927 33.9036 39.6592 29.4599C40.0961 29.1044 41.8143 33.1704 42.1328 33.5925C43.6362 35.5625 46.3912 35.8439 48.7167 35.881C48.9982 36.8956 48.0946 36.5845 47.5836 37.1844L47.5762 37.177Z" fill="#F06449"/>
<path d="M64.9435 66.5649C64.8843 65.5132 68.4096 64.78 69.402 63.9802C72.0237 61.8546 71.2831 57.5443 71.7127 54.5893C72.12 51.8046 75.5934 50.1161 77.1265 47.9239C80.5036 43.11 75.9045 40.7919 75.4527 36.4371C75.0528 32.5415 77.8893 28.9866 76.7932 25.2836C75.9045 22.2842 70.6462 20.7363 69.2538 18.0998C67.8541 15.4484 69.2094 11.6713 66.4025 9.24956C63.9659 7.14625 61.122 7.88685 58.3151 7.13884C53.7678 5.92425 53.4123 -0.881898 47.4134 0.0956992C45.3916 0.421565 42.4884 2.53228 40.5036 2.62856C40.3555 2.62856 40.1926 2.62856 40.037 2.61375C40.037 2.61375 40.0074 2.61375 39.9926 2.61375C39.9778 2.61375 39.963 2.61375 39.9482 2.61375C39.7926 2.62856 39.6297 2.64338 39.4816 2.63597C37.4968 2.53969 34.5862 0.436377 32.5717 0.103105C26.5729 -0.874492 26.2174 5.93165 21.6701 7.14625C18.8706 7.89425 16.0193 7.14625 13.5827 9.25697C10.7758 11.6787 12.1311 15.4558 10.7313 18.1072C9.33901 20.7437 4.08813 22.2916 3.192 25.291C2.0885 29.0015 4.93242 32.5489 4.53249 36.4445C4.08073 40.7993 -0.525829 43.1174 2.85873 47.9313C4.39178 50.1161 7.86521 51.8046 8.27254 54.5967C8.70209 57.5517 7.96149 61.862 10.5832 63.9876C11.5682 64.7874 15.1009 65.5206 15.0417 66.5723L0 97.5739C0.451768 99.0255 1.38493 99.3662 2.8217 99.2996C6.42844 99.1292 10.6869 96.9592 14.464 97.0111C15.3897 97.2407 19.1224 107.017 20.374 108.179C21.0776 108.839 21.7663 108.95 22.6625 108.542L40 75.9261L57.3375 108.542C58.2337 108.95 58.9224 108.839 59.626 108.179C60.8776 107.017 64.6103 97.2407 65.536 97.0111C69.3057 96.9518 73.5716 99.1292 77.1783 99.2996C78.6151 99.3662 79.5482 99.0329 80 97.5739L64.9509 66.5575L64.9435 66.5649ZM21.8996 103.44L17.8115 95.641C15.6341 90.5604 8.56878 95.3818 4.5399 95.5151L18.6854 67.224C19.9296 67.1351 22.8402 72.6452 23.9733 73.6302C27.6912 76.8519 31.9867 73.2377 36.2451 74.0079L21.8996 103.447V103.44ZM40.0444 71.7343C40.0444 71.7343 40.0148 71.7343 40 71.7343C39.9852 71.7343 39.9704 71.7343 39.9556 71.7343C39.9185 71.7491 39.8815 71.7491 39.8371 71.7491C38.5336 71.7491 36.9635 70.7271 35.3268 70.5938C32.7717 70.379 28.3133 72.0527 26.9209 71.4603C25.3731 70.8011 23.0624 65.9798 20.7517 64.4023C18.8558 63.1137 13.6419 62.2768 12.6717 61.1585C11.5016 59.8032 12.6347 53.782 10.2055 50.4123C9.3242 49.1903 5.68043 46.4205 5.37678 45.428C4.60655 42.8878 8.25032 38.9181 8.33179 35.6743C8.40585 32.9192 5.45825 28.409 6.621 26.0613C7.14682 24.9874 12.0422 22.5212 13.4716 20.0772C14.8047 17.7887 14.6936 12.8193 16.0489 11.7084C17.9967 10.1161 22.8772 11.8565 26.6469 8.33862C27.8911 7.17587 29.639 3.82094 31.2535 3.48766C32.6828 3.19142 37.2746 6.08718 39.8445 6.08718C39.8963 6.08718 39.9556 6.08718 40.0074 6.07978C40.0592 6.07978 40.1185 6.08718 40.1703 6.08718C42.7402 6.08718 47.332 3.19142 48.7613 3.48766C50.3685 3.82094 52.1163 7.17587 53.3679 8.33862C57.1376 11.8565 62.0182 10.1161 63.9659 11.7084C65.3212 12.8193 65.2102 17.7887 66.5432 20.0772C67.9726 22.5212 72.868 24.9874 73.3938 26.0613C74.5492 28.409 71.609 32.9192 71.683 35.6743C71.7645 38.9181 75.4083 42.8878 74.638 45.428C74.3344 46.4205 70.6906 49.1903 69.8093 50.4123C67.3801 53.782 68.5206 59.8032 67.3431 61.1585C66.3729 62.2768 61.159 63.1137 59.2631 64.4023C56.9524 65.9724 54.6491 70.8011 53.0939 71.4603C51.6941 72.0527 47.2431 70.379 44.688 70.5938C43.0439 70.7271 41.4738 71.7491 40.1777 71.7491C40.1407 71.7491 40.1037 71.7491 40.0592 71.7417L40.0444 71.7343ZM62.1811 95.641L58.0929 103.44L43.7475 74.0005C48.0059 73.2303 52.3014 76.8444 56.0193 73.6228C57.1524 72.6378 60.0555 67.1277 61.3072 67.2166L75.4527 95.5077C71.4238 95.3818 64.3585 90.553 62.1811 95.6336V95.641Z" fill="#F06449"/>
</svg>
