<svg width="184" height="50" viewBox="0 0 184 50" fill="none" xmlns="http://www.w3.org/2000/svg">
<g clip-path="url(#clip0_2277_1649)">
<path d="M28.2448 48.8142C28.0568 48.7793 27.6983 48.5391 27.6283 48.3251L20.4361 26.7609L19.5048 25.9487L10.2313 48.2771C9.05521 49.7531 4.53871 47.6657 3.34073 46.6351C1.44756 45.0062 0.31079 42.4821 0.166507 39.9972C0.594983 31.2764 -0.375647 22.0664 0.166507 13.4067C0.669311 5.35831 6.53244 0.349381 14.4724 0.0131235C19.6972 -0.209593 24.6596 2.08307 29.4428 3.72506C29.657 4.01765 28.8919 4.63339 28.6296 4.7644C26.0412 6.04393 22.2986 6.65094 19.6316 7.98724C16.3437 8.07895 12.5792 6.81252 9.77662 9.27113C8.97651 9.97422 7.81787 11.9568 7.81787 12.9831V33.1323L8.82348 31.8484L16.982 12.0922C17.2094 11.887 17.3843 12.1053 17.581 12.1708C18.9932 12.6337 21.8658 13.7779 23.1643 14.4504C24.5984 15.1928 24.0912 15.4155 24.5285 16.5771C28.4153 26.8701 31.83 37.3509 35.7344 47.6657C35.8918 47.9583 35.7388 48.8142 35.4502 48.8142C33.5177 48.8142 29.9369 49.1199 28.2448 48.8142Z" fill="#5B5B5B"/>
<path d="M56.2313 15.075C56.8391 14.8742 60.0351 16.3764 60.8221 16.7563C66.2087 19.359 71.3635 23.6431 72.0368 29.9665C72.3385 32.8006 72.2511 39.0149 71.2455 41.5957C69.1905 46.8711 62.829 48.5523 57.7397 48.8187C52.4887 49.0939 44.3039 49.2642 39.1578 48.8187C38.843 48.7925 38.5282 48.8056 38.2353 48.6484L26.8457 16.4899L27.2786 16.2236C30.0636 17.3328 33.1417 18.2367 35.6688 19.8438L43.0447 40.1503C43.3289 40.6525 43.7705 41.1896 44.3957 41.1983C48.8598 40.9844 53.5205 41.4429 57.9583 41.1983C60.1838 41.0761 64.0182 40.6088 64.403 37.8227C64.591 36.4689 64.5691 31.9971 64.3986 30.6171C63.9745 27.2109 60.175 24.8658 57.3812 23.4553C56.0652 22.7915 54.3381 22.5994 53.2582 21.4727C54.325 20.7303 55.5624 19.228 55.8247 17.9398C55.969 17.228 55.593 15.2803 56.2313 15.0707V15.075Z" fill="#5B5B5B"/>
<path d="M33.3253 4.63809C33.6488 4.59442 33.9418 4.54202 34.2478 4.69486L52.7116 12.2104C54.6529 13.883 54.8934 16.822 53.5642 18.9531C52.7729 20.2195 51.0546 21.534 49.4893 21.32C48.2214 21.1453 44.059 19.2457 42.555 18.6386C36.6263 16.2499 30.8069 13.5904 24.8563 11.241C24.0474 10.9222 20.8732 10.1973 20.7158 9.48544L21.0787 8.98761L33.3253 4.63372V4.63809ZM50.9715 16.2368C50.9715 15.5206 50.39 14.9442 49.673 14.9442C48.9559 14.9442 48.3744 15.525 48.3744 16.2368C48.3744 16.9486 48.9559 17.5294 49.673 17.5294C50.39 17.5294 50.9715 16.9486 50.9715 16.2368Z" fill="#5B5B5B"/>
<path d="M94.0637 10.8865C93.8669 11.1966 89.9756 11.2402 89.4379 11.0874C88.6159 10.8472 88.4716 9.49345 87.9688 9.06985C87.2386 8.45411 84.2043 8.3231 83.8239 9.12226C82.7265 11.4149 86.8058 11.6551 88.03 12.0612C89.8969 12.6814 92.5509 13.4674 93.6221 15.1967C95.1174 17.6117 94.2429 20.8345 91.9781 22.4241C88.5197 24.8478 80.8334 24.612 78.621 20.5769C78.2844 19.9611 77.5367 17.9829 77.7422 17.3759L78.0745 17.0483L82.368 17.0614C82.9845 17.2449 82.9189 17.9872 83.2075 18.4021C83.7627 19.1969 84.9651 19.9174 85.9182 20.0528C87.8682 20.3323 90.2686 18.734 87.8158 17.2885C85.14 15.7077 79.784 16.2797 78.4724 12.4499C75.2107 2.92987 94.1817 1.59357 94.068 10.8909L94.0637 10.8865Z" fill="#5B5B5B"/>
<path d="M135.15 29.7565C135.364 29.0011 138.696 29.1146 139.421 29.1976C140.02 29.2674 140.191 29.4116 140.344 30.0229C140.055 35.6127 140.895 41.8968 140.401 47.4079C140.178 49.9014 137.563 48.4341 135.731 48.8228L135.04 47.076C131.888 50.8797 126.729 49.4298 125.596 44.7266C123.97 37.9708 128.097 30.7085 135.15 35.962V29.7522V29.7565ZM134.433 38.639C134.393 38.5822 133.541 37.9883 133.466 37.9665C129.956 36.9708 130.174 44.6567 132.024 45.2899C135.39 46.4428 135.757 40.4251 134.437 38.6346L134.433 38.639Z" fill="#5B5B5B"/>
<path d="M116.695 40.1021C116.813 40.0803 117.036 39.8881 117.206 39.8488C117.337 39.2855 117.294 37.9579 116.66 37.7439C114.469 37.0103 114.439 39.0496 113.394 39.1676C113.171 39.1938 109.769 38.7702 109.599 38.6872C108.156 38.0016 110.862 35.2635 111.877 34.8573C114.185 33.9359 119.445 33.7962 121.316 35.6041C123.389 37.6129 122.038 41.6131 122.497 44.1197C122.75 45.4997 124.267 45.4516 124.42 45.9014C124.613 48.1985 124.648 49.0631 122.151 49.2422C120.136 49.3863 118.4 48.8885 117.351 47.0718C113.761 52.465 105.388 46.7923 109.485 41.8358C110.005 41.2026 112.484 40.0977 113.201 40.0977C114.203 40.0977 115.798 40.2462 116.695 40.0977V40.1021ZM116.97 42.7659C116.218 41.9974 112.519 43.3642 114.176 45.0149C115.615 46.4517 118.068 43.8883 116.97 42.7659Z" fill="#5B5B5B"/>
<path d="M108.873 10.5459C110.88 12.7905 109.384 17.2754 110.136 19.6423C110.364 20.3542 110.805 19.9087 111.256 20.2581C111.793 20.6686 111.584 22.6337 111.457 23.3324C109.511 24.5596 105.935 24.2015 104.903 22.0267C104.299 22.2451 103.941 22.9219 103.464 23.2058C100.452 25.0094 96.036 23.446 95.8523 19.6991C95.6206 15.009 100.723 14.8037 104.212 14.8037C104.92 14.5723 104.89 12.2097 103.15 12.2097C101.729 12.2097 101.304 13.9609 101.16 13.9827L96.9279 13.4194L96.5869 13.0919C96.8317 8.2445 106.468 7.86457 108.868 10.5459H108.873ZM102.551 17.5025C101.576 17.6859 101.134 18.2274 101.335 19.2449C101.715 21.162 105.196 19.6336 104.54 17.8038C104.352 17.2492 103.032 17.4108 102.546 17.5025H102.551Z" fill="#5B5B5B"/>
<path d="M148.366 42.4949C147.496 42.7657 148.467 45.0365 149.284 45.281C151.199 45.8531 151.121 44.5517 151.986 43.9273C152.682 43.4251 156.687 43.2417 156.958 44.1762C157.482 45.9754 154.055 48.5563 152.459 48.9755C145.476 50.814 140.619 44.8007 143.225 38.2415C145.586 32.2936 156.739 32.6779 157.181 40.2372C157.207 40.6782 157.351 42.4993 156.665 42.4993H148.366V42.4949ZM148.038 39.8791C149.175 40.1455 152.782 40.7219 151.506 38.7087C150.487 37.0973 148.17 38.1497 148.038 39.8791Z" fill="#5B5B5B"/>
<path d="M97.9152 42.4952C97.067 42.7573 97.8803 45.098 99.0127 45.3207C101.107 45.7312 101.282 43.7791 102.292 43.5914C104.771 43.7573 108.089 42.6699 105.982 46.181C103.875 49.692 97.9109 50.0851 94.7498 47.6177C90.8629 44.5783 91.4313 36.8094 96.162 34.8661C99.4324 33.5211 104.076 34.0146 105.978 37.2942C106.445 38.1064 107.7 42.4996 106.437 42.4996H97.9196L97.9152 42.4952ZM97.9152 40.1021H101.19L101.535 39.5519C100.788 37.2243 98.5536 37.4601 97.6135 39.5868L97.9152 40.0978V40.1021Z" fill="#5B5B5B"/>
<path d="M129.583 17.2322C128.586 17.5379 129.5 20.7389 131.94 20.0183C132.569 19.8306 132.884 18.8218 133.186 18.6515C133.746 18.3414 136.504 18.2191 137.178 18.3676C138.699 18.7082 138.004 19.9485 137.431 20.9223C134.38 26.0972 124.367 24.4508 123.786 18.0052C123.536 15.2234 123.921 12.4067 126.195 10.59C129.513 7.93489 135.503 8.26678 137.593 12.2975C138.284 13.6251 138.892 15.9221 138.1 17.2366H129.583V17.2322ZM132.246 12.9395C130.934 11.9132 129.059 13.3107 129.251 14.8347C130.567 14.9614 131.651 15.088 132.967 14.8347C133.273 14.529 132.578 13.2015 132.246 12.9395Z" fill="#5B5B5B"/>
<path d="M158.742 17.0141C158.974 17.1932 159.752 15.0097 159.844 14.7389C160.215 13.6384 160.845 10.3064 161.483 9.62081C162.122 8.9352 166.594 8.83912 166.608 9.9265L158.681 29.15C157.994 29.7133 154.693 29.4426 153.718 29.2111C153.504 28.9142 156.333 23.3593 156.119 22.368C154.702 18.7347 153.067 15.1319 151.751 11.4637C151.314 10.2453 150.798 9.36753 152.516 9.17101C153.395 9.07057 155.467 9.04 156.136 9.48544C157.115 10.1449 156.823 10.9571 157.094 11.7999C157.649 13.5336 158.248 15.263 158.746 17.0141H158.742Z" fill="#5B5B5B"/>
<path d="M183.633 38.569C183.524 38.7262 180.249 39.0581 179.816 39.0231C178.435 38.9096 177.678 36.3112 176.012 38.0668C175.61 39.4729 179.213 39.8616 180.14 40.2109C181.447 40.7044 183.156 41.604 183.681 42.9927C186.095 49.3947 173.866 51.4297 171.002 46.4907C170.704 45.9797 170.005 44.5124 170.827 44.198C171.391 43.9796 174.438 43.8792 174.972 44.0539C175.409 44.198 175.426 44.9142 175.776 45.2111C176.673 45.971 179.479 45.8051 178.299 44.4382C177.617 43.6478 174.071 43.1063 172.781 42.3158C169.629 40.3813 170.088 36.2545 173.468 34.8614C176.847 33.4683 183.087 33.9225 183.629 38.5646L183.633 38.569Z" fill="#5B5B5B"/>
<path d="M114.95 23.5463C114.845 23.5245 114.242 23.1184 114.172 23.0179C113.529 22.1271 114.285 15.5679 113.962 13.8604C113.804 13.0175 113.166 13.1005 112.467 13.0656C112.248 12.2883 111.968 10.1484 112.418 9.52832C112.655 9.20516 113.568 9.39294 113.953 8.8296C114.307 8.30556 114.355 6.77712 114.797 5.96923C115.868 4.00408 118.964 3.2879 121.04 3.53682C123.24 3.79884 123.069 5.13077 122.824 7.00857C122.544 7.41033 119.274 6.86883 119.41 8.62435C119.497 9.7554 121.95 8.62435 122.719 9.703C123.065 10.1877 122.99 11.8559 122.824 12.4629C122.496 13.6682 119.208 12.5852 119.208 13.8604V23.2276L118.881 23.5551C117.731 23.3891 116.008 23.7778 114.95 23.5551V23.5463Z" fill="#5B5B5B"/>
<path d="M83.8282 30.2979V44.1281C83.8282 44.1674 84.3354 44.674 84.3747 44.674H90.4915L90.8194 45.0015V48.4863L90.4915 48.8139H79.3511C79.2986 48.8139 78.5859 48.1064 78.5859 48.0496V30.6254L78.9139 30.2979H83.8282Z" fill="#5B5B5B"/>
<path d="M146.696 5.93454L147.041 8.96959L149.901 9.60281L149.752 13.0658L147.304 13.127C147.02 13.2012 146.993 13.3933 146.945 13.6423C146.836 14.2231 146.875 18.3368 147.059 18.756C147.501 19.7517 149.184 19.2626 150.015 19.7604L149.958 23.1885C149.669 24.1449 147.229 24.0837 146.416 23.9746C140.667 23.2016 141.541 17.8913 141.454 13.4589L140.042 12.9086C139.609 12.5855 139.631 10.5242 139.784 9.99147C140.033 9.12244 141.183 9.26218 141.388 8.97833C141.795 8.42372 141.082 6.44984 141.79 5.89524C142.424 5.39303 145.743 5.75986 146.696 5.94764V5.93454Z" fill="#5B5B5B"/>
<path d="M160.159 48.8142C160.036 48.7924 159.673 48.5697 159.595 48.4474L159.503 35.0931C160.019 34.0669 164.172 34.3071 164.531 34.8704C164.785 35.2722 164.409 36.2722 165.287 36.1805C165.856 34.6477 167.657 33.949 169.192 34.2503C169.581 34.4949 169.48 37.7264 169.345 38.3727C169.047 38.7963 166.529 38.1762 165.322 39.8051C165.126 40.0715 164.636 41.0453 164.636 41.2986V48.4867L164.308 48.8142C163.058 48.657 161.339 49.0282 160.159 48.8142Z" fill="#5B5B5B"/>
</g>
<defs>
<clipPath id="clip0_2277_1649">
<rect width="184" height="49.312" fill="white"/>
</clipPath>
</defs>
</svg>
