<svg width="90" height="100" viewBox="0 0 90 100" fill="none" xmlns="http://www.w3.org/2000/svg">
<path d="M28.5314 6.93558C28.9533 6.50676 29.4651 5.03356 30.1637 4.33499C35.9597 -1.48175 52.8151 -1.31575 58.9223 4.05834C60.1949 5.1788 60.5892 6.7765 61.433 7.54423C62.1454 8.19438 64.2549 8.98977 65.2647 9.70908C72.9143 15.1247 78.4544 21.972 81.3247 31.0187C82.1962 33.7714 82.5558 38.7098 83.5518 40.7778C84.8383 43.4337 89.2233 44.4505 89.2717 48.8078C89.327 53.8223 84.7414 52.0655 81.6705 52.1485C55.5125 52.8332 29.2576 52.3836 3.05807 52.5358C-0.0128376 52.688 -0.351744 49.126 0.243072 46.8643C0.94855 44.1946 4.76644 43.1225 5.68632 41.0268C6.50247 39.1525 6.70304 35.3899 7.29786 33.1213C10.0783 22.5391 15.7498 15.9201 24.2916 9.57075C25.2737 8.83761 27.9919 7.49582 28.5383 6.9425L28.5314 6.93558ZM61.765 12.3166V23.4244C61.765 24.5726 58.2376 24.5726 58.2376 23.4244V9.6745C58.2376 6.36152 51.4387 4.252 48.7966 3.95459C44.4254 3.46352 32.6813 3.73326 31.5262 9.40476C30.8277 12.8284 32.3216 20.9345 31.2081 23.5213C30.6478 24.8285 27.9158 24.2751 27.9158 23.4244V11.9638C27.072 12.0814 26.249 12.8146 25.5435 13.2918C19.1734 17.6353 14.0898 24.0815 11.593 31.4268C10.5002 34.636 10.1474 40.5288 8.94398 42.8804C7.74051 45.232 4.44828 46.0136 3.93646 48.628H85.3708C85.0527 46.4493 82.2446 45.066 80.9581 43.3507C79.1114 40.8885 79.2152 37.2366 78.4198 34.2556C76.082 25.4509 70.0924 16.3558 61.7511 12.3235L61.765 12.3166Z" fill="#F06449"/>
<path d="M14.0897 57.5293C14.6638 58.1034 14.7053 65.4279 14.9197 67.0948C19.2909 100.301 60.4576 108.026 72.347 75.9548C74.7678 69.4256 74.3113 65.1928 75.1966 58.6913C75.5009 56.4365 78.1361 56.7408 78.6133 58.3939C79.139 60.1991 78.5718 65.6838 78.2883 67.7933C72.1603 112.736 14.2626 109.341 11.005 65.7184C10.8943 64.259 10.7767 58.9472 11.2332 57.8682C11.6205 56.9691 13.4326 56.8584 14.0897 57.5224V57.5293Z" fill="#F06449"/>
<path d="M46.2508 30.2931H54.184C54.26 30.2931 55.1523 31.1784 55.2353 31.3582C57.2964 35.7986 46.728 33.6061 46.4168 34.1525C45.656 35.8677 47.1153 41.3871 45.898 42.4591C44.8398 43.3929 42.7303 42.4799 42.7303 41.0482V34.1732H35.5026C34.0017 34.1732 34.0017 30.2931 35.5026 30.2931H42.7303V23.0654C42.7303 22.5881 43.8369 21.6198 44.3972 21.5368C47.9246 20.9904 46.2784 28.315 46.2577 30.2931H46.2508Z" fill="#F06449"/>
</svg>
