<?xml version="1.0" encoding="UTF-8"?>
<svg version="1.1" xmlns="http://www.w3.org/2000/svg" width="250" height="72">
<path d="M0 0 C0.99 0.66 1.98 1.32 3 2 C3.9374707 1.99830811 4.87494141 1.99661621 5.84082031 1.99487305 C9.31351958 2.0005088 11.38001058 2.70478378 14.546875 4.08203125 C15.55621094 4.51966797 16.56554688 4.95730469 17.60546875 5.40820312 C18.64316406 5.87162109 19.68085937 6.33503906 20.75 6.8125 C21.80316406 7.26431641 22.85632813 7.71613281 23.94140625 8.18164062 C31.74039516 11.61059275 31.74039516 11.61059275 34 15 C35.91542134 15.79548138 35.91542134 15.79548138 38.125 16.3125 C45.28664284 18.5151953 50.72849188 22.84902831 55 29 C56.80248065 32.6049613 56.2703256 36.77998348 56.3125 40.75 C56.35600586 42.09191406 56.35600586 42.09191406 56.40039062 43.4609375 C56.454969 49.15388186 55.9033129 52.5400775 52 57 C46.08961138 60.64683553 40.78402762 61.12674054 33.94921875 61.09765625 C33.29041214 61.0962413 32.63160553 61.09482635 31.95283508 61.09336853 C29.86434238 61.087805 27.77595989 61.07525947 25.6875 61.0625 C24.26497551 61.05748028 22.84244934 61.0529182 21.41992188 61.04882812 C17.94657923 61.03784757 14.47330039 61.02060835 11 61 C10.34 59.68 9.68 58.36 9 57 C9.495 58.98 9.495 58.98 10 61 C6.04 61 2.08 61 -2 61 C-5.84441911 51.83253904 -8.91420908 42.44252022 -12 33 C-12.29245605 33.70608398 -12.58491211 34.41216797 -12.88623047 35.13964844 C-14.21432449 38.34372136 -15.54463753 41.54686833 -16.875 44.75 C-17.33519531 45.86117187 -17.79539062 46.97234375 -18.26953125 48.1171875 C-18.71425781 49.18710937 -19.15898437 50.25703125 -19.6171875 51.359375 C-20.02565918 52.34389648 -20.43413086 53.32841797 -20.85498047 54.34277344 C-21.83133992 56.60859355 -22.86803674 58.80881008 -24 61 C-31.23842593 60.63194444 -31.23842593 60.63194444 -34.9375 57.5625 C-37.52707383 54.3451507 -38.12492457 52.85462527 -38.16113281 48.82910156 C-38.17554413 47.53700775 -38.17554413 47.53700775 -38.19024658 46.21881104 C-38.19449646 45.28550964 -38.19874634 44.35220825 -38.203125 43.390625 C-38.20882507 42.43105896 -38.21452515 41.47149292 -38.22039795 40.48284912 C-38.22985602 38.44853826 -38.23638512 36.41421202 -38.24023438 34.37988281 C-38.24991757 31.27641783 -38.2809242 28.17362133 -38.3125 25.0703125 C-38.31903229 23.09375393 -38.32428187 21.11719063 -38.328125 19.140625 C-38.3404718 18.21542053 -38.3528186 17.29021606 -38.36553955 16.3369751 C-38.34765333 11.12800429 -37.93102585 7.49423964 -35 3 C-24.55360313 -7.21425472 -12.62665688 -4.85231976 0 0 Z M-26 10 C-27.0394775 13.1184325 -27.11494838 15.27475586 -27.09765625 18.54296875 C-27.09443359 19.61611328 -27.09121094 20.68925781 -27.08789062 21.79492188 C-27.07951172 22.91447266 -27.07113281 24.03402344 -27.0625 25.1875 C-27.05798828 26.31865234 -27.05347656 27.44980469 -27.04882812 28.61523438 C-27.03703498 31.41020927 -27.0205765 34.2050782 -27 37 C-25.18902867 34.28354301 -24.0530199 31.90246346 -22.8359375 28.89453125 C-22.43632812 27.91162109 -22.03671875 26.92871094 -21.625 25.91601562 C-21.2125 24.89185547 -20.8 23.86769531 -20.375 22.8125 C-19.95476563 21.77673828 -19.53453125 20.74097656 -19.1015625 19.67382812 C-18.06472323 17.11707675 -17.03099554 14.55911215 -16 12 C-14.36252748 12.4047706 -12.730667 12.83229673 -11.1015625 13.26953125 C-10.19229004 13.50518799 -9.28301758 13.74084473 -8.34619141 13.98364258 C-6 15 -6 15 -4.89208984 16.74487305 C-4.375 18.6875 -4.375 18.6875 -4 22 C-3.67 21.01 -3.34 20.02 -3 19 C-3.33 18.34 -3.66 17.68 -4 17 C-3.22914062 17.28875 -2.45828125 17.5775 -1.6640625 17.875 C-0.66117188 18.24625 0.34171875 18.6175 1.375 19 C2.37273438 19.37125 3.37046875 19.7425 4.3984375 20.125 C6.85848061 21.10626277 6.85848061 21.10626277 9 21 C9.13535156 21.58523437 9.27070312 22.17046875 9.41015625 22.7734375 C11.76575815 32.16763431 15.39841167 41.03056495 19 50 C22.3956697 50.08745946 25.79104773 50.14054444 29.1875 50.1875 C30.14720703 50.21263672 31.10691406 50.23777344 32.09570312 50.26367188 C36.11251625 50.3053689 39.32313436 50.24167737 43.12890625 48.8828125 C45.78279885 46.21229845 45.73283588 44.40782213 45.75 40.6875 C45.57264481 36.0777127 45.57264481 36.0777127 43.73828125 31.953125 C39.03470111 27.69907117 32.47768884 24.51317153 26.2121582 23.58862305 C22.98882623 22.99795242 20.31904352 22.07264595 17.296875 20.8203125 C15.70166016 20.16869141 15.70166016 20.16869141 14.07421875 19.50390625 C12.97722656 19.04886719 11.88023438 18.59382813 10.75 18.125 C3.25146163 15.02369748 -4.16674088 12.14414027 -12 10 C-12 9.34 -12 8.68 -12 8 C-17.21307283 6.26230906 -21.98822196 5.8339228 -26 10 Z M26 17 C26.33 17.66 26.66 18.32 27 19 C27.33 18.34 27.66 17.68 28 17 C27.34 17 26.68 17 26 17 Z M33 19 C34 21 34 21 34 21 Z M-3 22 C-2 25 -2 25 -2 25 Z M-2 25 C-1 28 -1 28 -1 28 Z M-1 28 C0 31 0 31 0 31 Z M0 31 C1 34 1 34 1 34 Z M1 34 C2 36 2 36 2 36 Z M2 36 C3 39 3 39 3 39 Z M3 39 C4 42 4 42 4 42 Z M4 42 C5 45 5 45 5 45 Z M5 45 C6 48 6 48 6 48 Z M6 48 C7 51 7 51 7 51 Z M7 51 C8 54 8 54 8 54 Z " fill="#FFFFFF" transform="translate(44,7)"/>
<path d="M0 0 C2.64 0 5.28 0 8 0 C8 1.65 8 3.3 8 5 C12.29 5 16.58 5 21 5 C21.99 6.98 22.98 8.96 24 11 C24.66 9.02 25.32 7.04 26 5 C28.64 5 31.28 5 34 5 C33.37882101 10.8526708 31.21219333 15.91737815 29 21.3125 C28.44699219 22.69018555 28.44699219 22.69018555 27.8828125 24.09570312 C25.14520575 30.85479425 25.14520575 30.85479425 24 32 C21.32941149 32.14115161 18.67567762 32.04247107 16 32 C16.5259375 30.453125 16.5259375 30.453125 17.0625 28.875 C18.68691491 22.16075169 16.46152571 17.2073257 14 11 C12.02 11 10.04 11 8 11 C8.33 12.98 8.66 14.96 9 17 C10.32 17.33 11.64 17.66 13 18 C13 20.31 13 22.62 13 25 C11.56344146 25.08131463 10.1255517 25.13933559 8.6875 25.1875 C7.48673828 25.23970703 7.48673828 25.23970703 6.26171875 25.29296875 C4 25 4 25 2.25 23.84375 C0.54532168 21.32934948 0.48975752 19.32587778 0.3125 16.3125 C0.24675781 15.31863281 0.18101562 14.32476562 0.11328125 13.30078125 C0.07589844 12.54152344 0.03851563 11.78226563 0 11 C-0.66 11 -1.32 11 -2 11 C-2 9.02 -2 7.04 -2 5 C-1.34 5 -0.68 5 0 5 C0 3.35 0 1.7 0 0 Z " fill="#FFFFFF" transform="translate(189,10)"/>
<path d="M0 0 C4.66666667 0 9.33333333 0 14 0 C14.33 0.66 14.66 1.32 15 2 C15.99 1.34 16.98 0.68 18 0 C20.59375 -0.30078125 20.59375 -0.30078125 23.5 -0.3125 C24.4590625 -0.32925781 25.418125 -0.34601562 26.40625 -0.36328125 C29 0 29 0 30.84375 1.26953125 C32 3 32 3 32 7 C31.01 7.495 31.01 7.495 30 8 C30.66 8.66 31.32 9.32 32 10 C32.5628328 16.19116081 32.5628328 16.19116081 30.8203125 18.6953125 C27.13741028 21.3349892 22.31130784 20.59377294 18 20 C15.3125 18.1875 15.3125 18.1875 14 16 C14 15.01 14 14.02 14 13 C14.99 12.67 15.98 12.34 17 12 C15.84315671 9.9004467 15.84315671 9.9004467 14 8 C12.35 8 10.7 8 9 8 C8.67 11.96 8.34 15.92 8 20 C5.36 20 2.72 20 0 20 C0 13.4 0 6.8 0 0 Z " fill="#FFFFFF" transform="translate(213,48)"/>
<path d="M0 0 C2.74097764 2.74097764 2.72378174 5.1618108 2.9375 8.9375 C1.9475 9.2675 0.9575 9.5975 -0.0625 9.9375 C0.4325 10.2675 0.9275 10.5975 1.4375 10.9375 C3.39065133 13.54170178 3.49139929 15.79102543 3.33203125 18.99609375 C2.9375 20.9375 2.9375 20.9375 1.125 23.4375 C-4.48270563 26.0764203 -10.36526977 25.85455828 -16.1875 23.875 C-18.85123874 21.12246997 -18.85115047 18.67134175 -19.0625 14.9375 C-18.0725 14.6075 -17.0825 14.2775 -16.0625 13.9375 C-16.5575 13.40125 -17.0525 12.865 -17.5625 12.3125 C-19.49352443 9.25504465 -19.50772837 7.499327 -19.0625 3.9375 C-15.24394277 -2.79043417 -6.61831374 -2.29614966 0 0 Z M-10.0625 4.9375 C-9.7325 5.9275 -9.4025 6.9175 -9.0625 7.9375 C-7.04741642 8.67073796 -7.04741642 8.67073796 -5.0625 8.9375 C-5.7225 7.6175 -6.3825 6.2975 -7.0625 4.9375 C-8.0525 4.9375 -9.0425 4.9375 -10.0625 4.9375 Z M-12.0625 14.9375 C-11.4025 16.2575 -10.7425 17.5775 -10.0625 18.9375 C-8.4125 18.6075 -6.7625 18.2775 -5.0625 17.9375 C-7.42203094 15.57796906 -8.84145617 15.44608587 -12.0625 14.9375 Z " fill="#FFFFFF" transform="translate(126.0625,10.0625)"/>
<path d="M0 0 C2.64 0 5.28 0 8 0 C8 8.91 8 17.82 8 27 C5.256875 27.0825 2.51375 27.165 -0.3125 27.25 C-1.17270752 27.28641602 -2.03291504 27.32283203 -2.91918945 27.36035156 C-8.45669178 27.44137225 -8.45669178 27.44137225 -11.01953125 25.359375 C-12.23597285 22.43216096 -12.39876414 20.16855222 -12.375 17 C-12.38273438 15.96875 -12.39046875 14.9375 -12.3984375 13.875 C-11.95032196 10.64153882 -11.36747042 9.23446647 -9 7 C-6.23857697 6.47200324 -3.83634455 6.81401019 -1 7 C-0.67 4.69 -0.34 2.38 0 0 Z M-3 13 C-4.87543354 16.86763446 -4.87543354 16.86763446 -4 21 C-2.68 20.67 -1.36 20.34 0 20 C0 18.02 0 16.04 0 14 C-0.99 13.67 -1.98 13.34 -3 13 Z " fill="#FFFFFF" transform="translate(181,41)"/>
<path d="M0 0 C2.44140892 2.36742683 2.92773499 3.97280451 3.1640625 7.33203125 C3.18516396 9.56526944 3.13111762 11.77100051 3 14 C3.66 14 4.32 14 5 14 C5 15.98 5 17.96 5 20 C1.89614789 20.11613204 -1.20714662 20.18722029 -4.3125 20.25 C-5.19357422 20.28351562 -6.07464844 20.31703125 -6.98242188 20.3515625 C-13.46609618 20.45017352 -13.46609618 20.45017352 -16.1171875 18.21484375 C-17.44154119 14.89223958 -16.83654188 12.41051689 -16 9 C-15.34 8.67 -14.68 8.34 -14 8 C-14.66 7.67 -15.32 7.34 -16 7 C-15.875 4.6875 -15.875 4.6875 -15 2 C-10.26872571 -1.54845572 -5.50965636 -1.72851964 0 0 Z M-8 5 C-8 5.66 -8 6.32 -8 7 C-7.01 6.67 -6.02 6.34 -5 6 C-5.99 5.67 -6.98 5.34 -8 5 Z M-8 12 C-8.33 12.66 -8.66 13.32 -9 14 C-8.01 14 -7.02 14 -6 14 C-6 13.34 -6 12.68 -6 12 C-6.66 12 -7.32 12 -8 12 Z " fill="#FFFFFF" transform="translate(147,15)"/>
<path d="M0 0 C1.051875 -0.02835938 2.10375 -0.05671875 3.1875 -0.0859375 C6 0.375 6 0.375 7.86328125 2.0703125 C9.21149618 4.80380668 9.30715641 6.59370415 9.1875 9.625 C9.16042969 10.51703125 9.13335937 11.4090625 9.10546875 12.328125 C9.07066406 13.00359375 9.03585938 13.6790625 9 14.375 C9.66 14.375 10.32 14.375 11 14.375 C11 16.355 11 18.335 11 20.375 C7.33333333 20.375 3.66666667 20.375 0 20.375 C-0.639375 20.43300781 -1.27875 20.49101563 -1.9375 20.55078125 C-4.04609875 20.69055579 -5.91312149 20.72208998 -8 20.375 C-10.0625 18.1875 -10.0625 18.1875 -11 15.375 C-10.76271993 11.9739856 -10.430466 10.805466 -8 8.375 C-8.66 8.045 -9.32 7.715 -10 7.375 C-9.6875 5 -9.6875 5 -9 2.375 C-5.56877276 0.08751518 -4.05112896 0.04964619 0 0 Z M-1 5.375 C-1.33 6.035 -1.66 6.695 -2 7.375 C-1.01 7.045 -0.02 6.715 1 6.375 C0.34 6.045 -0.32 5.715 -1 5.375 Z M-2 12.375 C-2 13.035 -2 13.695 -2 14.375 C-1.01 14.045 -0.02 13.715 1 13.375 C0.01 13.045 -0.98 12.715 -2 12.375 Z " fill="#FFFFFF" transform="translate(157,47.625)"/>
<path d="M0 0 C2.38310634 3.66631745 2.8341895 7.16125491 2.625 11.5 C1.06318681 15.170261 -0.03410596 16.2727373 -3.375 18.5 C-7.78534167 19.21027974 -11.36865848 19.00317076 -15.375 17 C-18.0856998 13.61162526 -18.53721696 10.78594295 -18.375 6.5 C-17.45061359 3.03355095 -16.23539387 0.70030298 -13.375 -1.5 C-8.91174685 -3.41282278 -4.01647005 -2.53671793 0 0 Z M-9.375 10.5 C-9.375 11.16 -9.375 11.82 -9.375 12.5 C-8.385 12.5 -7.395 12.5 -6.375 12.5 C-6.375 11.84 -6.375 11.18 -6.375 10.5 C-7.365 10.5 -8.355 10.5 -9.375 10.5 Z " fill="#FFFFFF" transform="translate(184.375,16.5)"/>
<path d="M0 0 C3.125 1.875 3.125 1.875 5 5 C5.98876625 10.02622846 5.7769173 13.70513784 3.125 18.125 C-1.29486216 20.7769173 -4.97377154 20.98876625 -10 20 C-13.125 18.125 -13.125 18.125 -15 15 C-15.98876625 9.97377154 -15.7769173 6.29486216 -13.125 1.875 C-8.70513784 -0.7769173 -5.02622846 -0.98876625 0 0 Z M-7 12 C-6.67 12.66 -6.34 13.32 -6 14 C-5.01 13.67 -4.02 13.34 -3 13 C-4.32 12.67 -5.64 12.34 -7 12 Z " fill="#FFFFFF" transform="translate(206,48)"/>
<path d="M0 0 C2.81297472 1.64661935 3.65375268 2.75298896 4.51953125 5.87109375 C5.24515866 10.08930144 5.17707926 13.19011129 3 17 C1.29028593 19.16074293 0.43889716 19.91742782 -2.3046875 20.43359375 C-6.42925465 20.43986209 -9.31257449 20.33669821 -13.0625 18.5 C-15.69961724 15.09726807 -16.15254252 12.25424139 -16 8 C-13.96171209 -0.33845056 -7.54302401 -1.09191862 0 0 Z M-7 12 C-7 12.66 -7 13.32 -7 14 C-5.68 13.67 -4.36 13.34 -3 13 C-4.32 12.67 -5.64 12.34 -7 12 Z " fill="#FFFFFF" transform="translate(141,48)"/>
<path d="M0 0 C1 1 1 1 1.09765625 3.94140625 C1.08605469 5.13636719 1.07445312 6.33132813 1.0625 7.5625 C1.05347656 8.76003906 1.04445312 9.95757812 1.03515625 11.19140625 C1.02355469 12.11824219 1.01195312 13.04507812 1 14 C-0.32 14 -1.64 14 -3 14 C-3 18.62 -3 23.24 -3 28 C-5.64 28 -8.28 28 -11 28 C-11 23.38 -11 18.76 -11 14 C-11.99 14 -12.98 14 -14 14 C-14 12.02 -14 10.04 -14 8 C-13.01 8 -12.02 8 -11 8 C-10.938125 7.236875 -10.87625 6.47375 -10.8125 5.6875 C-10 3 -10 3 -7.75 1.1875 C-4.87599837 -0.05354616 -3.09025197 -0.34336133 0 0 Z " fill="#FEFEFE" transform="translate(165,7)"/>
<path d="M0 0 C2.64 0 5.28 0 8 0 C8 5.94 8 11.88 8 18 C10.97 18 13.94 18 17 18 C17 20.31 17 22.62 17 25 C11.39 25 5.78 25 0 25 C0 16.75 0 8.5 0 0 Z " fill="#FFFFFF" transform="translate(108,43)"/>
</svg>
