<svg width="64" height="98" viewBox="0 0 64 98" fill="none" xmlns="http://www.w3.org/2000/svg">
<path d="M35.8487 50.2934C36.0372 50.4754 37.9742 51.0734 38.4422 51.2879C41.3607 52.6204 44.0907 54.3234 46.8272 55.9809C51.5462 58.8409 56.9282 62.0194 61.4002 65.1784C62.5507 65.9909 63.4737 66.9139 62.8887 68.4739C62.3037 70.0339 60.7632 70.1444 59.3657 69.7414C54.9522 68.4739 49.7912 66.3744 45.5207 64.5999C41.6727 63.0009 37.6232 61.3889 34.6917 58.3469C34.7892 62.2729 35.2507 66.1794 35.5302 70.0924C35.9917 76.4754 36.3882 82.8519 36.9342 89.2219C36.9797 89.7549 36.7587 91.0224 37.2202 91.3279C37.4282 91.4644 38.0327 91.5359 38.3902 91.7049C39.4432 92.1989 40.2167 92.7579 40.8472 93.7524C41.3997 94.6299 42.5502 97.5354 40.9512 97.7434L21.7047 97.7044C20.6322 97.3989 21.3862 94.8964 21.7697 94.1684C22.3677 93.0374 23.3687 92.2444 24.5127 91.7049C25.1107 91.4254 25.8907 91.5229 25.9622 90.7624L28.3607 56.8064L24.4672 59.3089C17.5707 63.1699 10.5572 66.8359 3.50466 70.4174C1.13216 71.3599 -0.824338 68.3634 0.859162 66.5044C2.12666 65.1069 4.60966 63.2284 6.13716 61.9349C10.5767 58.1844 18.5002 51.2554 24.1162 50.2349C25.1432 50.0464 26.1832 50.0269 27.2102 49.8839C27.2687 49.1429 28.2047 48.4149 28.4257 47.9339C28.6207 47.5179 27.9772 44.0729 27.9317 43.2279C27.6067 36.9619 28.2047 30.2214 28.5037 23.9554C28.5817 22.2784 28.3477 17.5724 29.0822 16.3764C30.1092 14.7059 32.7157 14.9724 33.3917 16.8054C34.4382 22.1614 35.5562 27.5499 36.2127 32.9709C36.7717 37.5599 37.3242 41.6939 35.5952 46.1009C35.4327 46.5169 34.6787 47.7194 34.6852 48.0054C34.6852 48.2004 35.2572 48.8049 35.4132 49.1039C35.5692 49.4029 35.6927 50.1439 35.8422 50.2934H35.8487ZM33.1317 46.9394C34.7762 43.9689 35.0232 40.9464 34.8347 37.5989C34.5682 32.9384 33.5477 27.3549 32.6832 22.7269C32.4037 21.2189 32.1047 18.9569 31.6432 17.5789C31.4677 17.0459 31.1947 16.9614 30.7397 17.3319C30.3822 19.7239 30.4472 22.2264 30.3367 24.6639C30.0572 30.8519 29.4007 37.9434 29.9077 44.0664C29.9402 44.4499 30.1677 46.6404 30.3172 46.7509C31.3247 46.6339 32.1372 46.7119 33.1252 46.9394H33.1317ZM34.0092 51.1449C34.0092 49.7409 32.8717 48.6034 31.4677 48.6034C30.0637 48.6034 28.9262 49.7409 28.9262 51.1449C28.9262 52.5489 30.0637 53.6864 31.4677 53.6864C32.8717 53.6864 34.0092 52.5489 34.0092 51.1449ZM27.0802 51.8859C22.3027 51.6389 18.3442 54.7264 14.7367 57.4369C12.8517 58.8474 10.9927 60.3619 9.17266 61.8569C7.09266 63.5664 4.16116 65.8089 2.36066 67.7004C1.71066 68.3894 2.45166 68.8184 3.15366 68.4934C7.69716 66.0884 12.3187 63.8134 16.8362 61.3629C20.7232 59.2569 24.7532 57.2289 28.1592 54.3949C28.2957 54.0699 26.9697 52.5424 27.0802 51.8859ZM60.9517 67.0959C54.5882 63.3454 48.4717 58.9124 42.0432 55.2724C41.3542 54.8824 35.9657 52.0224 35.6732 52.2889C35.7902 53.1404 34.2757 54.2454 34.4317 54.8564C34.5422 55.2984 36.2517 57.2874 36.6742 57.6904C39.4952 60.4009 45.5727 62.6109 49.2777 64.0734C52.9827 65.5359 56.8112 66.9074 60.6397 68.0579C61.2637 68.0774 61.2247 67.5184 60.9517 67.0959ZM28.0097 91.2564H34.8997L32.5792 55.5259L30.5317 55.4219C30.3822 55.4479 30.3432 55.6039 30.3237 55.7339C30.0832 57.3524 30.1612 59.2829 30.0442 60.9404C29.3747 70.0339 28.5167 79.1339 27.9382 88.2339C27.8992 88.8319 27.7432 90.3009 27.7822 90.7624C27.8017 90.9704 27.8147 91.1264 28.0032 91.2564H28.0097ZM39.7552 95.8974C39.3587 94.4089 38.3057 93.5119 36.8367 93.1154C33.5152 93.2454 29.8882 92.8294 26.5992 93.0764C24.9222 93.1999 23.5962 94.2594 23.1607 95.8974H39.7552Z" fill="#008983"/>
<path d="M51.8323 0.899737C52.0923 0.535737 52.3718 0.366737 52.8073 0.301737C53.1583 0.249737 54.9328 0.249736 55.2253 0.340736C55.9923 0.581236 56.0833 1.09474 56.2783 1.75774C56.6358 2.99924 57.1363 4.78024 57.3443 6.02824C57.5978 7.55574 56.6423 8.10174 56.0443 9.34974V26.7827C56.0443 26.8412 56.0768 26.8542 56.1288 26.8672C56.3888 26.9517 57.3183 26.8217 57.6823 26.8672C58.3518 26.9452 58.8588 27.3482 58.9758 28.0307C59.0343 28.3557 59.0018 30.0977 58.8913 30.3577C58.5273 31.1832 58.0593 30.9687 57.5523 31.3262C56.7333 31.9112 56.4603 32.9382 57.1623 33.7247C57.7538 34.3942 58.7483 34.1017 58.9693 35.3172V47.8752C58.6573 49.8382 57.2858 50.9367 55.3488 51.0667C52.6318 51.2552 49.3298 51.2747 48.8358 47.8297V35.3172C48.9073 35.0507 49.0178 34.7387 49.2193 34.5437C49.4923 34.2772 49.8563 34.2382 50.1748 34.0692C51.3188 33.4452 51.2928 32.0607 50.2593 31.3262C49.7523 30.9687 49.2843 31.1832 48.9203 30.3577C48.8033 30.0912 48.7773 28.3167 48.8358 27.9852C48.9593 27.3287 49.4858 26.9387 50.1228 26.8607C50.4933 26.8152 51.4228 26.9452 51.6763 26.8607C51.7283 26.8477 51.7608 26.8347 51.7608 26.7762V9.34324C51.2993 8.25774 50.2983 7.62074 50.4218 6.32074C50.5258 5.22874 51.1303 3.26574 51.4358 2.13474C51.5268 1.80974 51.6568 1.12724 51.8258 0.886736L51.8323 0.899737ZM52.9113 1.71224C52.6123 3.17474 52.0728 4.66324 51.7868 6.11924C51.7218 6.45074 51.6698 6.70424 51.8388 7.02274C52.2353 7.76374 53.0023 8.40724 53.0608 9.31074L53.0998 26.8282H54.6988L54.7443 9.18074C54.7833 8.29674 56.1353 7.27624 56.0833 6.46374L54.8613 1.59524C54.7963 1.53674 53.1973 1.55624 53.0998 1.58224C53.0023 1.60824 52.9438 1.61474 52.9048 1.71224H52.9113ZM50.1358 28.2062V29.8117C50.4868 30.0457 50.8963 30.1562 51.2473 30.4357C52.7618 31.6512 52.6643 33.8352 51.1628 35.0182C50.9483 35.1872 50.1748 35.4602 50.1293 35.5837V47.5827C50.2203 48.5707 50.7923 49.3767 51.7673 49.6692C52.1963 49.7992 55.6088 49.7992 56.0378 49.6692C56.9868 49.3832 57.5328 48.6292 57.6758 47.6672V35.6292C57.6628 35.4147 57.4093 35.4342 57.2468 35.3497C54.9133 34.1407 54.8288 31.3067 57.1623 30.0587C57.3248 29.9742 57.5718 29.9677 57.6628 29.8052V28.1997H50.1358V28.2062Z" fill="#008983"/>
<path d="M51.8712 36.754C52.1767 36.3055 52.9437 36.429 53.0607 36.9685L53.0217 47.024C52.7682 47.5115 52.0987 47.4855 51.8322 47.024C51.6827 43.7415 51.8127 40.433 51.7672 37.144C51.7802 37.0205 51.8062 36.858 51.8777 36.754H51.8712Z" fill="#008983"/>
<path d="M54.8026 36.838C55.1666 36.2595 55.9531 36.422 56.0376 37.098V46.679C56.0376 47.498 54.8871 47.6605 54.7441 46.8545V37.1045C54.7441 37.0135 54.7571 36.9225 54.8091 36.8445L54.8026 36.838Z" fill="#008983"/>
</svg>
