<?xml version="1.0" encoding="UTF-8"?>
<svg id="Layer_2" data-name="Layer 2" xmlns="http://www.w3.org/2000/svg" viewBox="0 0 88.39 101.47">
  <defs>
  </defs>
  <g id="Layer_1-2" data-name="Layer 1">
    <g>
      <path d="M15.08,101.37c-.2-.05-.69-.65-.77-.91l1.94-26.92c-.69.02-1.35.06-2.03-.15-2.08-.63-9.49-10.03-11.18-12.29-2.2-2.95-4.3-5.23-2.15-9.12,1.54-2.8,10.64-10.88,13.7-11.78,6.57-1.92,9.24,1.38,13.9,5.1,2.77-3.09,5.04-6.48,9.66-4.21,4.08,2,6.35,7.5,11.13,7.98,1.24.12,5.81.32,6.33-.66.06-.11.19-1.85.2-2.17.22-4.11-.19-8.28.01-12.4-6.06-.75-.61-13.29,3.17-13.13,1.17.05,6.67,5.72,6.87,7.1.29,2.11-3.3,4.3-3.38,4.99l.02,15.44c2.54,2.17,2.9,6.53,2.27,9.64-.57,2.79-3.54,3.18-5.94,2.94-.31,4.57-4.36,8.82-8.5,10.44-.59.23-2.63.95-3.08.95h-6.87l-.08,28.75c-.51.38-1.14.39-1.75.43-1.37.1-8.8.16-9.43-.32-1.38-1.06-.75-9.71-1.31-11.77-.53,0-1.53,9.31-1.93,10.47-.14.4-.75,1.6-1.08,1.6h-9.72ZM62.72,27.07c-1-1.04-2.38-1.87-3.23-3.14,0,.6.32,1.39.66,1.85.13.18,2.53,2.58,2.69,2.68,1.28.81.3-.96-.12-1.39ZM55.47,30.64h4.69c.19-.78-.15-.55-.42-.77-1.2-.94-2.67-1.72-3.93-2.58l-.34,3.35ZM60.16,33.32h-2.01v14.75h2.01v-14.75ZM54.13,51.09c-.51.03-.95.33-1.47.31-2.34-.1-4.81-.36-7.16-.56-2.58-1.72-6.68-7.78-9.72-8.06-3.25-.3-5.34,5.16-7.32,5.29-1.55.1-3.17-2.38-4.34-3.34-3.3-2.69-5.95-3.68-10-1.64-2.36,1.19-8.7,7.15-10.44,9.34-2.66,3.33-.26,5.13,1.85,7.87,1.25,1.61,3.65,4.75,5.02,6.04.24.22.37.57.79.48l4.23-4.16c-1.07-.74-5.22-5.46-4.99-6.31.12-.46,6.37-6.57,6.85-6.62,1.11-.11,1.52.97,1.85,1.84,1.39,3.69.29,8.19.39,12.02l2.78,3.59h15.59v-12.57c0-.44.98-.58,1.44-.45.96.27,2.89,3.3,5.09,3.3h9.55v-6.37ZM62.09,58.05c1.04-1.04,0-5.49-.07-6.97-.46-.72-4.17-.91-4.88-.49-.96.57-.9,6.13-.36,6.99.64,1.01,4.53,1.26,5.31.48ZM17.59,61.15v-7.88c0-.06-.54-.59-.66-.5l-3.33,3.9,1.48,2.14,2.52,2.34ZM40.05,69.86h5.87c.12,0,1.99-.35,2.27-.42,3.68-.92,8.31-5.04,8.25-9.08l-1.17-.8c-5.17.48-10.4.66-15.21-1.44v11.73ZM16.8,64.86l-4.17,3.83c1.85,3.11,3.82,3.21,6.32.69,1.97-1.99-.53-3.24-2.14-4.51ZM37.71,69.53h-15.59c-.49.98-3.04,2.52-3.43,3.11-.66,1.01-.62,8.89-.77,10.8-.27,3.56-.79,7.17-1,10.73-.09,1.62.3,3.34-.34,4.86h7.04c1.5-6.28,1.96-13.25,3.51-19.45.73-2.94,1.9-3.23,2.88-.17l.66,19.63h7.71l-.67-29.5Z" fill="currentColor"/>
      <path d="M64.26,100.96c-.6-.6-.46-3.48-.43-4.46.74-24.56,3.15-62.5,11.17-85.37,1.11-3.15,4.15-11.63,8.23-11.1,5.57.72,3.94,11.16,4.76,15.01-.99,18.86,1.26,38.97,0,57.69-.48,7.19-4.23,6.96-9.04,10.41-2.57,1.84-2.5,3.24-2.71,6.34-.22,3.32.24,7.08-.35,10.38-.16.91-.93,1.42-1.82,1.53-1.26.16-9.27.12-9.83-.43ZM66.2,99.03h7.37c.35-3.59.06-7.31.34-10.89.08-1.09.36-2.94.75-3.94,1.55-3.91,9.94-5.43,10.62-9.49.21-1.26-.09-2.85,0-4.16-1.31,0-7.13-1.89-4.77-3.72.67-.52,5.03-1.8,5.14-2.21l-.07-1.4c-1.25-.94-5.34-1.06-5.34-2.9,0-2.4,5.16-1.8,5.42-4.01.31-2.66-2.86-2.1-4.63-3.12-3.85-2.21,4.5-4.17,4.61-4.66.06-.27.04-1.64-.05-1.76-1.37-.11-7.58-2.02-4.79-4.03,1.97-1.42,6.55-.79,4.76-4.65-1.15-.16-5.3-1.19-5.3-2.58,0-1.7,5.43-2.3,5.6-3.33-.7-9.37.53-18.98-1.55-28.2l-1.53-1.5c-1.64,0-4.21,6.17-4.78,7.63-2.49,6.36-4.08,13.75-5.34,20.48-4.18,22.44-5.23,45.66-6.47,68.45Z" fill="currentColor"/>
      <path d="M40.72,20.25l2.7.14.27,1.99c-.33.97-2.48.42-3.31.55,1.35,19.82-25.62,19.58-24.8,0l-3.14-.3-.47-1.27c.06-1.75,3.04-.87,3.27-1.11.72-16.43,25.02-16.46,25.47,0ZM38.38,20.58c.29-13.64-20.63-13.4-20.78,0h20.78ZM18.48,22.64l-.4.27c-1.97,12.15,15.21,17.73,19.31,5.57.64-1.9.52-3.51.98-5.38l-19.88-.45Z" fill="currentColor"/>
    </g>
  </g>
</svg>
