<svg width="84" height="84" viewBox="0 0 84 84" fill="none" xmlns="http://www.w3.org/2000/svg">
<path d="M29.9683 62.8136C23.9103 68.8391 17.7743 75.5536 11.4953 81.2671C9.56476 83.0221 8.02426 84.2961 5.20326 83.6786C2.14826 83.0156 0.386765 80.5586 0.575265 77.4581C0.659765 76.0866 1.47227 75.2026 1.56327 73.8311C1.62827 72.8431 1.14726 71.1401 2.14176 70.5356C3.13626 69.9311 4.26726 70.5616 5.30726 70.3926C5.48926 70.2106 4.81327 65.9466 4.87177 65.2056C5.01477 63.2946 7.98527 64.3411 9.18127 64.2696C8.97977 62.9631 9.01877 61.6436 8.92777 60.3371C8.86277 59.4466 8.15427 57.6071 9.51927 57.3016C10.8843 56.9961 13.0228 57.7501 14.4268 57.8996C14.5763 57.6916 14.0628 54.5586 14.0498 53.9671C14.0368 53.3756 13.9458 52.7321 14.4203 52.3291C15.0118 51.8286 17.7093 51.9651 18.6128 51.9001C19.5163 51.8351 20.4068 51.6596 21.3038 51.6531L11.4368 7.23214C11.2678 1.62264 17.9303 -1.17236 21.6093 3.30614L36.4033 26.6216C38.6848 30.2681 38.5808 34.6491 36.8258 38.4906C36.0198 40.2521 34.0048 42.3711 34.3103 44.3341C34.4533 45.2506 36.0328 46.1281 36.7738 46.6221C49.3643 49.3911 61.9548 52.1601 74.5388 54.9681C75.8323 55.2541 77.2493 55.3841 78.5103 55.7416C84.7763 57.5161 83.9963 66.3366 77.5873 67.2597C75.1563 67.6106 72.2443 67.3831 69.7288 67.5261C63.7618 67.8706 57.5543 68.7091 51.6133 68.9041C48.9418 68.9886 46.4523 68.1956 44.1838 66.8241C40.7388 64.7441 38.9578 61.3186 35.8443 58.9201C35.2008 59.1866 34.7003 59.6806 34.0763 59.9861C33.4913 60.2721 32.5098 60.4541 32.0613 60.7206C31.9248 60.7986 30.2803 62.5081 29.9748 62.8201L29.9683 62.8136ZM32.0483 44.5291C32.1588 44.0546 31.9118 43.5411 31.9313 43.1121C32.0223 41.2401 34.5508 38.5621 35.2073 36.5081C36.2993 33.0956 36.0068 30.6841 34.2713 27.6226C29.8838 19.8876 24.4108 12.4646 19.8543 4.80764C17.5533 1.88264 13.7313 3.65714 13.6923 7.08914L23.0588 49.1506H23.4098C24.8983 45.9136 28.5123 43.8921 32.0418 44.5291H32.0483ZM36.5203 52.4851C36.5203 49.2741 33.9138 46.6676 30.7028 46.6676C27.4918 46.6676 24.8853 49.2741 24.8853 52.4851C24.8853 55.6961 27.4918 58.3026 30.7028 58.3026C33.9138 58.3026 36.5203 55.6961 36.5203 52.4851ZM38.1713 49.2741C38.8863 51.1721 38.9773 53.0961 38.3858 55.0461C38.2168 55.5986 37.6578 56.3851 37.5668 56.7361C37.5148 56.9441 37.5603 57.0546 37.6383 57.2301C37.7163 57.4056 39.0293 58.8096 39.2893 59.0761C41.1678 61.0456 43.4298 63.7821 45.7503 65.1081C47.4143 66.0571 49.4293 66.6616 51.3533 66.6356C57.4438 66.5576 64.0543 65.5956 70.2163 65.2576C72.2833 65.1471 77.3728 65.4721 78.8938 64.4386C81.2923 62.8071 81.0583 58.9266 78.2503 57.9776L38.1648 49.2676L38.1713 49.2741ZM3.98127 80.7211C5.11877 81.7611 7.28976 81.8781 8.49227 80.8901L29.0453 60.5906C29.0453 60.4346 27.6998 60.1486 27.4593 60.0511C24.6773 58.9201 23.3383 56.6191 22.5518 53.8371L16.4223 54.1556L16.9293 58.9591C16.8708 61.3966 12.4313 59.4076 11.0533 59.6546C11.3003 60.2916 11.1313 61.0326 11.1768 61.7151C11.2483 62.7356 11.7878 65.1666 11.4563 65.9921C10.9363 67.2791 8.35577 66.2521 7.30277 66.2716C7.30277 66.5381 7.28327 66.8111 7.30277 67.0841C7.40677 68.3906 7.80977 69.9311 7.80977 71.2116C7.80977 73.2071 5.05376 72.5441 3.79926 72.6481C4.22826 75.5471 1.26427 78.2511 3.96827 80.7276L3.98127 80.7211Z" fill="#00403D"/>
<path d="M60.2908 4.10563L59.9853 3.91713C56.8458 5.53563 54.6163 8.56463 53.6348 11.9446C51.9513 17.7621 53.7648 23.1116 58.2238 27.0376C59.6278 28.2726 61.5583 29.0266 61.8833 31.1261C62.3968 34.4411 61.5648 38.9066 61.9093 42.3451C62.0458 43.0796 62.2148 44.2626 61.6688 44.8476C60.9603 45.6081 59.7838 45.2636 59.6603 44.2171L59.6083 31.2756C59.3548 30.4566 57.1578 29.2346 56.4103 28.5976C48.1228 21.4606 49.0588 7.58313 58.5748 2.02563C59.6993 1.36913 62.0978 -0.0543736 62.5333 1.98013L62.5852 14.5511C62.6827 14.8436 63.0598 15.0451 63.3198 15.1881C63.9243 15.5261 66.5503 16.7676 67.0963 16.7936C67.8113 16.8326 70.3008 15.6236 71.0157 15.2141C71.2367 15.0841 71.6788 14.8241 71.7568 14.5771L71.7958 2.24663C72.3288 -0.0998735 74.7273 1.08313 76.0988 1.92163C85.5108 7.64163 86.7653 21.7076 78.0942 28.6626C77.3468 29.2606 75.2668 30.3851 75.0653 31.2561C74.9938 31.5486 74.9288 32.2636 74.9093 32.6016C74.6103 37.2296 75.1433 42.1891 74.9158 46.8561C74.8053 48.1691 72.8097 48.1171 72.6602 46.8561L72.7188 30.9116C73.1543 28.7146 75.3903 28.0386 76.9113 26.7321C83.0733 21.4411 83.0148 11.2166 77.1128 5.71763C76.3653 5.02213 75.1563 4.05363 74.1553 3.92363V15.8576C74.1553 16.4166 71.8998 17.3136 71.3668 17.5671C70.5803 17.9376 68.6238 18.9516 67.9088 19.1076C67.4148 19.2181 66.9273 19.2181 66.4398 19.0686C65.5363 18.8021 61.8573 17.0861 61.0708 16.5661C60.8693 16.4361 60.2843 15.9356 60.2843 15.7276V4.10563H60.2908Z" fill="#00403D"/>
</svg>
