<svg width="83" height="86" viewBox="0 0 83 86" fill="none" xmlns="http://www.w3.org/2000/svg">
<path d="M28.9494 66.2309C29.9114 66.2049 30.8864 66.2699 31.8549 66.2374C32.6999 66.2049 35.3324 65.7564 35.9044 66.1724C36.7494 66.7834 36.4049 68.0834 35.3194 68.2849C34.4289 68.4539 32.9209 68.5189 31.9849 68.5579C25.3224 68.8309 16.8789 68.0119 10.7494 65.3144C-0.853059 60.2119 -0.632057 51.9699 10.8339 46.8934C11.7569 46.4839 14.1749 45.3919 15.0784 45.6584C15.8649 45.8924 15.9949 47.0884 15.3059 47.6344C14.8054 48.0309 12.6604 48.6159 11.8609 48.9604C6.68044 51.1964 0.687441 55.6749 7.32394 60.7579C7.63594 60.9984 8.92944 62.0124 9.24794 61.8109C9.38444 61.7199 10.6584 59.4839 10.9964 59.0419C12.7644 56.7474 15.1304 54.8624 17.9059 53.9719C18.9394 53.6404 19.9794 53.6144 20.9284 53.0034C21.4744 52.6524 22.3454 51.8789 22.0724 51.1704C18.0944 37.5009 13.1089 24.0719 9.31294 10.3439C8.73444 8.24438 8.16244 6.71688 9.05944 4.55238C10.6974 0.613384 15.8974 -0.277115 18.9069 2.68039C23.8534 10.0189 29.1249 17.1624 34.0064 24.5464C36.9964 29.0704 39.0049 33.1199 37.0419 38.7164C36.0994 41.3944 32.8754 44.3779 36.5089 46.7764C50.6919 49.2984 65.0894 51.0144 79.2724 53.5949C84.5959 55.8439 83.6664 63.6504 78.0504 64.7879C69.9514 66.4324 61.1114 66.7314 52.9539 68.4149C49.0084 68.6554 45.1149 67.1084 42.2159 64.5019C40.3439 62.8249 39.2389 60.4979 36.5934 59.8284C35.4884 60.5109 34.3639 61.1154 33.0834 61.4209L28.9559 66.2439L28.9494 66.2309ZM32.8104 45.3724C31.7964 41.9014 34.7994 39.4574 35.3519 36.1294C36.0279 32.0279 34.5914 29.5839 32.4529 26.3469C27.6169 19.0409 22.3129 12.0339 17.5354 4.68238C15.0849 1.57538 10.2749 3.78538 10.9444 7.66588L24.0549 49.8769C24.3539 49.9419 24.2629 49.8379 24.3409 49.7079C25.1664 48.4274 25.5629 47.6409 26.8954 46.7309C27.4999 46.3214 29.5084 45.3659 30.1649 45.3659H32.8039L32.8104 45.3724ZM37.2759 53.4454C37.2759 50.2409 34.6759 47.6409 31.4714 47.6409C28.2669 47.6409 25.6669 50.2409 25.6669 53.4454C25.6669 56.6499 28.2669 59.2499 31.4714 59.2499C34.6759 59.2499 37.2759 56.6499 37.2759 53.4454ZM38.6084 49.6234C40.1099 52.2689 39.9669 55.4279 38.2184 57.9239C40.7339 58.9444 42.0209 61.3429 43.9449 63.0199C49.7039 68.0314 56.0219 65.5484 62.7754 64.5864C67.8194 63.8649 72.8699 63.1824 77.9139 62.4674C81.0859 61.5704 81.5019 56.8449 78.2714 55.7399L38.6019 49.6234H38.6084ZM29.9764 61.3429C26.2779 60.9529 23.6909 57.5534 23.3464 54.0044C21.8319 55.7464 19.6999 55.7139 17.7499 56.5199C14.7274 57.7679 12.7124 60.2184 11.1784 63.0199C15.8129 65.0869 20.8634 65.8799 25.9074 66.2114C27.1099 64.9049 28.3514 63.5724 29.4629 62.1814C29.5539 62.0644 30.0804 61.4274 29.9829 61.3494L29.9764 61.3429Z" fill="currentColor"/>
<path d="M66.6816 13.1714V15.8754H69.7106C70.3866 15.8754 71.7386 16.5969 72.2846 17.0389C74.2021 18.5924 74.2866 20.5034 74.1566 22.8304C75.7231 22.6744 77.0621 23.7209 77.5691 25.1509L80.0911 38.6059C79.8961 40.8094 78.3491 42.2394 76.1586 42.4084C69.2556 41.9924 61.7286 42.9479 54.8971 42.4084C52.7846 42.2394 51.2116 40.8679 50.9971 38.7359L53.4801 25.0144C53.9676 23.4999 55.3001 22.6289 56.8926 22.8304V20.0614C56.8926 18.5079 59.5186 15.8754 61.0786 15.8754H64.4911V12.3329C64.4911 12.1119 65.1151 11.4034 65.3491 11.2604C66.7466 10.3829 67.7931 10.8704 68.8071 8.92044C71.3096 4.11044 63.1716 0.912445 61.6181 6.10594C61.3126 7.11994 61.5401 7.57494 61.5401 8.46544C61.5401 9.93444 59.7006 10.3634 59.2456 8.81644C57.6466 3.39544 64.6146 -1.45356 69.3856 2.66744C73.2596 6.01494 71.5371 12.0599 66.6816 13.1649V13.1714ZM71.8361 22.8304V20.1914C71.8361 19.9964 71.3096 19.1449 71.1276 18.9694C70.7441 18.5989 69.9511 18.2999 69.4181 18.2284C67.7476 18.0009 63.4251 18.0204 61.7156 18.1894C60.9096 18.2674 59.2131 19.3269 59.2131 20.1914V22.8304H71.8361ZM56.3466 25.1769C56.0021 25.2679 55.7226 25.5409 55.6446 25.8919L53.2981 38.5019C53.2851 39.4379 54.1301 40.1009 55.0271 40.1009H76.0286C77.2506 39.9709 77.8811 39.3924 77.7316 38.1314C77.2506 34.1599 75.8596 29.9479 75.3851 25.9244C75.3136 25.4434 74.8196 25.1444 74.3581 25.1444L56.3466 25.1834V25.1769Z" fill="currentColor"/>
<path d="M0.648254 66.27C0.745754 66.1725 1.19425 65.9905 1.33075 65.9775C2.01975 65.9125 3.74225 67.5375 4.43125 68.012C9.54025 71.5285 17.0348 73.7255 23.2098 74.0895C24.1653 74.148 26.5378 73.8685 27.2008 74.343C28.0783 74.9735 27.6233 76.2865 26.5573 76.41C24.3343 76.67 21.7408 76.0525 19.4983 76.046L11.2043 84.106C6.25125 87.174 0.349254 82.429 2.43575 76.8845C2.74125 76.0655 5.15275 71.548 5.09425 71.2035C4.03475 70.3585 2.83225 69.7085 1.77925 68.857C1.08375 68.2915 -0.378748 67.284 0.641752 66.2635L0.648254 66.27ZM16.7098 75.383C13.3818 74.9215 10.2553 73.5695 7.18075 72.289C6.36175 75.149 2.53325 78.984 5.37375 81.7595C6.42025 82.7865 8.21425 83.0465 9.52725 82.429C10.1968 82.1105 12.1013 80.154 12.7838 79.504C13.7133 78.62 15.9428 76.631 16.5798 75.7015C16.6578 75.591 16.7618 75.5715 16.7033 75.3765L16.7098 75.383Z" fill="currentColor"/>
</svg>
