<svg width="87" height="99" viewBox="0 0 87 99" fill="none" xmlns="http://www.w3.org/2000/svg">
<path d="M85.4199 95.5858C86.7799 95.8258 86.8399 98.0558 85.4199 98.2158C83.4699 98.4458 80.7699 98.1758 78.7199 98.2158C53.3999 98.5858 28.0499 98.3758 2.69986 98.4658C1.06986 98.5358 0.599861 96.2258 2.10986 95.7158L24.5199 95.6558L24.6199 95.5158L26.9099 44.7858C26.8199 44.6858 26.3499 45.0358 26.2299 45.1158C19.5999 49.3758 13.1899 54.0958 6.62986 58.4058C5.68986 59.0158 2.92986 60.9858 1.99986 61.0458C0.439861 61.1558 -0.310139 59.8858 0.119861 58.4458C0.419861 57.4158 4.62986 52.6858 5.57986 51.5958C7.90986 48.9358 10.5399 45.9758 13.1699 43.6458C16.4799 40.7158 20.1699 37.8658 24.7499 37.4758C25.1099 35.9258 26.0599 34.7158 27.2099 33.6658L27.2699 1.69582C27.5699 -0.194181 29.7999 -0.614181 30.8399 0.995819C31.0099 1.26582 31.1199 1.61582 31.2399 1.91582C33.6499 7.73582 36.2799 17.5958 36.5999 23.8058C36.7699 27.1258 36.3899 30.8058 34.6999 33.7158C35.1199 34.2758 35.6199 34.6658 35.9999 35.2858C36.4499 36.0358 36.7199 36.8758 36.8999 37.7358C45.7099 43.4658 54.9899 48.5158 63.8499 54.1758C64.8599 55.1658 64.5299 57.0758 63.0699 57.3358C61.8799 57.5458 58.1399 56.5758 56.7799 56.2358C50.1499 54.5858 41.6499 51.9858 36.3599 47.6058C36.1999 47.4758 35.1899 46.3058 35.0499 46.4658L37.6199 95.7158H62.5999L62.7799 95.5358V79.5158C62.7799 79.3558 63.5199 78.6158 63.6799 78.6158H70.4299C70.4399 78.2658 70.2899 77.9558 70.2999 77.5958C70.4699 65.3258 70.4199 52.9258 70.4399 40.6658C70.4399 36.1758 70.2499 31.4858 70.3799 27.0358C70.3999 26.4358 70.3499 25.9258 70.7899 25.4758C71.3399 24.8958 72.2799 24.8758 72.8299 25.4758C72.8899 25.5458 73.1899 26.0358 73.1899 26.0758V78.6158H79.9399C80.0499 78.6158 80.8399 79.4058 80.8399 79.5158V95.5958C82.2099 95.7658 84.1499 95.3658 85.4399 95.5958L85.4199 95.5858ZM30.0199 7.25582V32.4758H32.1099C32.3499 32.2858 32.4399 31.9958 32.5699 31.7358C35.4599 25.8558 32.4499 14.0458 30.4299 7.97582L30.0199 7.25582ZM34.1999 38.7158C34.1999 36.8958 32.7199 35.4158 30.8999 35.4158C29.0799 35.4158 27.5999 36.8958 27.5999 38.7158C27.5999 40.5358 29.0799 42.0158 30.8999 42.0158C32.7199 42.0158 34.1999 40.5358 34.1999 38.7158ZM25.6999 42.2558V41.9958C25.2799 41.6858 25.0199 40.2658 24.5899 40.2458C24.2299 40.2258 22.8899 40.6158 22.4699 40.7558C17.2199 42.5158 9.67986 50.5858 6.23986 55.0058C6.14986 55.1258 5.66986 55.6858 5.75986 55.7758L25.7099 42.2558H25.6999ZM58.0999 53.6358C57.1599 53.2358 56.2799 52.7158 55.4099 52.2058C49.1899 48.5158 43.0199 44.7458 36.8199 41.0358L36.3699 40.9958C36.2299 41.4358 35.5799 42.0658 35.7199 42.4858C35.8199 42.7958 36.4299 43.6458 36.6599 43.9458C40.6799 49.3158 51.2999 51.7958 57.5499 53.6558C57.6599 53.6858 58.1199 53.8758 58.1099 53.6358H58.0999ZM27.5699 95.7058H34.4999C34.4999 95.7058 34.7999 95.5758 34.8099 95.5058L32.2299 44.5358L29.6499 44.7058L29.5399 44.9558C29.4299 46.7058 29.4999 48.4758 29.4299 50.2158C28.8299 64.3458 27.9099 78.5058 27.3899 92.6358C27.3599 93.3158 27.2899 94.8058 27.3899 95.3858C27.4099 95.5158 27.4499 95.6058 27.5699 95.6858V95.7058ZM65.5099 81.2458V95.7158H78.0599V81.2458H65.5099Z" fill="currentColor"/>
<path d="M65.4796 9.21986C66.5296 10.2299 67.4996 11.3399 68.5896 12.3199C69.5996 14.8499 66.3796 14.8199 64.9296 15.8099L69.3996 20.2999C69.9796 21.8399 68.6496 22.7699 67.2596 22.0899L61.2496 16.0299C60.7996 13.8799 63.3996 13.6499 64.7596 12.8999C64.8596 12.8499 64.9796 12.9699 64.9296 12.7099C64.9096 12.6199 64.6896 12.5899 64.5696 12.4799C63.7396 11.6799 61.9296 10.0799 61.3496 9.23986C60.4096 7.88986 61.7196 6.46986 63.0896 7.01986C63.4296 7.15986 65.0696 8.82986 65.4796 9.22986V9.21986Z" fill="currentColor"/>
<path d="M78.7898 12.87C79.9998 13.41 83.0298 14 82.4398 15.87L76.5398 21.83C75.5398 22.79 73.8398 22.1 73.9998 20.7C74.0698 20.1 75.4398 18.9 75.9198 18.43C76.8098 17.55 77.8298 16.76 78.6698 15.8C77.3498 14.83 74.4098 14.9 75.0198 12.51L80.2198 7.18996C81.2098 6.14996 83.1098 7.21996 82.6798 8.56996C82.4398 9.33996 79.4898 11.59 78.8998 12.44L78.7898 12.86V12.87Z" fill="currentColor"/>
</svg>
