<svg width="98" height="97" viewBox="0 0 108 100" fill="none" xmlns="http://www.w3.org/2000/svg">
<path d="M103.962 0.411797C92.2864 10.1086 79.364 18.6358 67.7263 28.2949C62.0208 33.049 56.5798 38.2559 54.3127 45.5757C52.0457 45.7644 50.0431 46.4813 48.4939 48.1414C35.4204 46.8963 22.3091 45.538 9.23561 44.1419C7.19524 43.9155 4.73923 43.3119 2.77443 43.2364C0.582919 43.1232 -0.890684 45.1984 0.734057 46.7454C2.16988 48.0659 11.2004 50.8958 13.6564 51.7258C15.8101 52.4805 18.0017 53.2728 20.1932 53.7633L19.4753 55.0084C19.3619 55.348 19.4753 55.4235 19.7775 55.5744C20.042 55.7253 23.2537 56.7441 23.4427 56.7063C24.085 56.6309 24.1228 55.7253 24.085 55.2348L25.7475 55.6121L24.9918 57.2723L29.2237 58.4797C29.7527 58.2156 29.6016 57.3855 29.6016 56.895L31.453 57.4609L30.6973 59.0079C30.6973 59.0079 31.4152 59.3475 31.6419 59.3852C32.1331 59.5361 34.4002 60.1776 34.7025 60.1398C35.3448 60.0266 35.1559 58.857 35.1559 58.3665L37.3852 58.7438C37.423 59.272 36.4406 60.1021 37.0074 60.4794C37.3474 60.7058 40.937 61.2718 41.2392 61.0831C41.6171 60.4794 41.3526 59.9135 41.2392 59.272C44.1487 59.3475 47.0203 58.7061 49.8164 57.9892L51.7056 59.1211C51.2144 71.4968 50.3454 83.7971 50.0809 96.2106C50.0809 97.2671 49.2118 99.8705 51.0633 99.795C52.8769 99.7196 52.1968 96.2483 52.2724 94.89C52.7258 84.8913 53.4059 74.8549 53.746 64.8939C53.7838 63.6488 53.7082 62.366 53.746 61.1208L57.4111 69.1575C57.6 77.2697 58.0156 85.3818 58.3557 93.4562C58.4313 94.9655 58.0912 98.1349 58.658 99.4177C59.1114 100.399 60.6984 100.059 60.7361 99.0027C60.6228 91.4942 60.4339 83.9858 59.9804 76.5151C59.9804 76.2132 59.8293 75.2699 60.1694 75.119L70.1823 96.7388C71.7315 99.5686 74.5653 98.8895 74.7543 95.6446C72.7139 84.5895 68.7087 73.7984 66.555 62.8187C70.2957 58.5551 65.9882 55.6121 63.3433 52.5937C73.6207 41.8403 83.8604 31.0493 93.6844 19.881C96.8205 16.3342 100.259 12.5989 103.168 8.90125C104.264 7.54294 107.136 3.88304 107.249 2.26061C107.362 0.374066 105.511 -0.644669 103.924 0.449528L103.962 0.411797ZM41.0125 56.8573L39.879 54.6311L38.5565 56.4422L35.2315 55.8762C34.6269 51.2731 33.3045 55.348 33.0777 55.3857L29.7149 54.4047L29.0348 52.0654C28.5814 51.9522 27.9012 53.3105 27.5612 53.5747C26.9944 53.952 24.954 52.6314 24.1606 52.6314L23.9716 50.443C23.0648 50.2921 22.687 51.1222 22.2335 51.7636L21.9313 51.839L5.34379 46.2171L47.5871 50.6316C46.8692 52.5182 47.4359 54.1784 48.1538 55.9517C45.8112 56.4799 43.5063 57.0836 41.0881 56.895L41.0125 56.8573ZM49.5519 51.424C49.7786 49.877 51.4789 48.2923 52.9903 48.0282C56.9955 47.3491 58.8091 51.5372 56.6176 54.5934C53.9349 58.4419 48.9095 55.9894 49.5519 51.3863V51.424ZM66.1394 71.0818C68.2553 79.2317 70.6735 87.3061 72.5628 95.4937L55.4463 58.7061V58.4797C58.2046 57.31 59.9427 54.2915 59.6782 51.2731C61.1896 53.0842 62.2475 55.4612 62.8899 57.7251C64.1745 61.9887 64.968 66.705 66.1394 71.0818ZM102.564 5.61866C92.7398 18.6736 79.6285 32.068 68.2931 43.9533C66.1394 46.1794 63.9856 48.4433 61.7563 50.5939C60.7739 48.481 58.8847 46.934 56.7687 46.0662C58.1668 40.9725 61.7185 36.9731 65.4592 33.3886C78.0415 23.2767 91.0395 13.6931 103.811 3.84531C103.924 3.99623 102.79 5.43001 102.602 5.65639L102.564 5.61866Z" fill="currentColor"/>
<path d="M21.2131 31.2383L34.0221 29.1254C35.0801 27.3143 33.871 27.1256 32.284 27.2011C29.828 27.352 27.1075 28.1444 24.6137 28.2953C30.357 18.9758 39.5009 12.2596 50.3829 10.2976C57.8643 8.97706 64.6277 9.76941 71.7312 12.2596C72.7892 12.637 75.4719 14.2594 76.2654 13.467C77.1722 12.5615 76.4543 11.8446 75.5853 11.3541C69.842 8.26017 60.0936 6.86413 53.6702 7.46782C40.3322 8.71294 28.5811 16.4855 22.0444 28.1066C21.7421 28.1444 21.8555 27.8425 21.8555 27.6539C21.7043 24.5222 21.8555 20.7491 21.4776 17.7306C21.2131 15.4668 19.0594 15.58 19.0972 17.8816C19.1727 21.3905 19.3617 25.6164 19.6639 29.1254C19.7773 30.1818 19.8529 31.427 21.2131 31.2383Z" fill="currentColor"/>
<path d="M93.7226 65.8745C90.1708 66.8555 86.2034 66.7801 82.6895 67.5724C81.1403 67.912 80.5357 69.0439 82.0849 69.9117L91.191 68.893C88.4327 72.7038 85.3722 76.1373 81.5937 79.0049C80.838 79.5708 76.984 81.9479 76.8706 82.3629C76.5306 83.5703 77.3996 84.1363 78.4954 83.7967C79.44 83.5326 82.6139 81.1178 83.5585 80.3632C87.1481 77.5334 90.2842 74.1376 92.9669 70.44C93.118 70.7041 93.1936 71.1568 93.2314 71.4587C93.4581 73.8357 93.3448 77.1183 93.836 79.3445C94.0249 80.25 95.234 80.5518 95.8008 79.9859C95.9897 79.7972 96.0275 79.3067 96.0275 79.0426C96.2164 76.7787 95.574 69.7608 95.0828 67.4592C94.9317 66.6669 94.705 65.8745 93.7604 65.8745H93.7226Z" fill="currentColor"/>
<path d="M23.0644 66.0635C22.4976 65.0448 21.5908 62.4791 21.024 61.8377C20.7973 61.5736 20.4572 61.3472 20.1172 61.3472C18.568 61.3472 19.1726 63.0073 19.5126 63.9129C22.7999 72.5155 33.5685 83.7216 42.6369 86.1364C44.186 86.5514 45.1684 85.91 44.186 84.4008C35.2311 80.9672 27.6741 74.4775 23.0644 66.0635Z" fill="currentColor"/>
<path d="M95.2714 31.3515C95.0069 30.9365 94.4779 30.446 93.949 30.5214C91.9842 30.8233 93.6089 33.1626 93.949 34.1436C96.3672 40.7088 96.8584 46.4439 95.9893 53.4241C95.876 54.4806 94.1757 60.1402 96.9339 58.7819C97.5385 58.48 97.8786 55.9898 97.9919 55.2352C99.0121 49.085 98.8232 42.4821 97.0851 36.4829C96.745 35.2378 95.8382 32.3702 95.1959 31.3515H95.2714Z" fill="currentColor"/>
</svg>
