<svg width="117" height="95" viewBox="0 0 107 95" fill="none" xmlns="http://www.w3.org/2000/svg">
<path d="M46.4912 41.0825L46.6006 41.314L45.3271 57.4985C45.3229 57.5532 45.3364 57.6078 45.3662 57.6538C45.6195 58.0448 46.1515 58.2819 46.7256 58.4233C47.3166 58.5689 48.022 58.6295 48.707 58.6187C49.3918 58.6078 50.0715 58.5254 50.6104 58.3735C50.8793 58.2977 51.1233 58.2015 51.3174 58.0825C51.5078 57.9658 51.6784 57.8097 51.752 57.6011C51.7635 57.5682 51.7674 57.5333 51.7646 57.4985L50.4902 41.314L50.5986 41.0835L52.8242 40.2212L57.1064 91.3491C57.1174 91.4784 57.2258 91.5774 57.3555 91.5776H60.7363C60.8611 91.5774 60.9665 91.4855 60.9834 91.3618C61.633 86.6014 66.521 83.2805 71.2354 84.2524C71.3232 84.2706 71.4143 84.2407 71.4736 84.1733C78.4259 76.2588 91.5767 79.1316 94.334 89.3315V89.3325C94.3877 89.5341 94.4412 90.0035 94.4912 90.4624C94.5154 90.6847 94.539 90.9002 94.5605 91.064C94.5712 91.1452 94.5816 91.2187 94.5928 91.2759C94.5983 91.304 94.6051 91.3339 94.6133 91.3608C94.6173 91.3742 94.6235 91.3922 94.6318 91.4106C94.6383 91.4248 94.6556 91.4608 94.6895 91.4946C94.7229 91.528 94.7581 91.5447 94.7725 91.5513C94.7907 91.5596 94.8076 91.5659 94.8203 91.5698C94.8457 91.5777 94.8736 91.5841 94.8984 91.5894C94.9479 91.5998 95.0167 91.6117 95.085 91.6245C95.2285 91.6514 95.4065 91.6876 95.585 91.7446C95.9546 91.8627 96.2245 92.0375 96.2959 92.2935V93.2915C96.1057 93.5375 95.9372 93.7357 95.7432 93.8726C95.5683 93.9959 95.3685 94.0733 95.1035 94.0737L94.9854 94.0688L94.9658 94.0679H2.12598L2.10645 94.0688C1.78084 94.0942 1.54592 94.0128 1.34473 93.8716C1.15015 93.735 0.981281 93.5372 0.795898 93.2925V92.2827C0.86262 92.0234 1.13023 91.8481 1.50195 91.731C1.68079 91.6746 1.85963 91.6399 2.00391 91.6138C2.07249 91.6014 2.14172 91.5897 2.19141 91.5796C2.2163 91.5745 2.24405 91.5677 2.26953 91.5601C2.2823 91.5562 2.29996 91.5508 2.31836 91.5425C2.33277 91.536 2.36848 91.5186 2.40234 91.4849C2.43661 91.4506 2.45367 91.4138 2.45996 91.3999C2.46827 91.3815 2.47447 91.3635 2.47852 91.3501C2.48663 91.3232 2.49356 91.2932 2.49902 91.2651C2.51019 91.2077 2.52154 91.1339 2.53223 91.0522C2.55376 90.8878 2.57638 90.6715 2.60059 90.4487C2.63814 90.103 2.67704 89.753 2.7168 89.5171L2.75684 89.3237L2.75781 89.3208C5.42525 79.1429 18.7441 76.2479 25.6172 84.1616C25.6764 84.2298 25.768 84.2609 25.8564 84.2427C30.5808 83.2707 35.4588 86.5916 36.1084 91.3521C36.1254 91.4756 36.2308 91.5677 36.3555 91.5679H39.7363C39.8659 91.5677 39.9743 91.4685 39.9854 91.3394L44.3652 40.2163L46.4912 41.0825ZM26.1035 91.2827C24.3626 79.0758 6.7189 79.0969 4.98828 91.2827C4.9781 91.3544 4.99941 91.4272 5.04688 91.4819C5.09436 91.5366 5.16389 91.5679 5.23633 91.5679H25.8555C25.9279 91.5679 25.9974 91.5367 26.0449 91.4819C26.0924 91.4272 26.1137 91.3544 26.1035 91.2827ZM27.8428 86.5679C27.7993 86.5679 27.6876 86.5687 27.5947 86.6431C27.4813 86.734 27.4741 86.8629 27.4766 86.9272C27.4791 86.9935 27.4949 87.0697 27.5117 87.1421V87.1431C27.5887 87.4855 27.7147 87.831 27.8516 88.1724C27.992 88.5227 28.1375 88.8525 28.2725 89.2056C28.5388 89.9022 28.7241 90.5872 28.6191 91.2808C28.6083 91.3527 28.6293 91.4258 28.6768 91.481C28.7242 91.536 28.7935 91.5679 28.8662 91.5679H33.3662C33.5041 91.5677 33.6162 91.4558 33.6162 91.3179C33.6162 91.2697 33.6017 91.2252 33.5781 91.187C32.9204 88.7784 30.7723 86.8773 28.2773 86.6001L28.0332 86.5786C27.9698 86.5742 27.8976 86.5679 27.8428 86.5679ZM53.3428 79.8491C50.2263 80.8058 46.9395 80.8827 43.8447 79.8511C43.7724 79.827 43.6928 79.8367 43.6289 79.8784C43.5811 79.9097 43.5459 79.9561 43.5283 80.0093L43.5166 80.0649L42.4766 91.2944C42.4701 91.3644 42.4936 91.4349 42.541 91.4868C42.5883 91.5386 42.6555 91.5678 42.7256 91.5679H54.3555C54.4254 91.5679 54.4927 91.5383 54.54 91.4868C54.5871 91.4355 54.6112 91.3668 54.6055 91.2974L53.665 80.0669C53.6587 79.9916 53.6183 79.9227 53.5557 79.8804C53.5087 79.8488 53.4528 79.8343 53.3975 79.8384L53.3428 79.8491ZM69.0762 86.5679L69.0693 86.5688C66.5195 86.7349 64.1209 88.7143 63.5146 91.1997C63.48 91.2646 63.4758 91.3433 63.5049 91.4136C63.5436 91.507 63.6352 91.5679 63.7363 91.5679H68.2363C68.3076 91.5677 68.3755 91.5372 68.4229 91.4839C68.4702 91.4303 68.493 91.3586 68.4844 91.2876C68.3966 90.5759 68.5636 89.8977 68.8135 89.2153C68.9388 88.8731 69.0808 88.5389 69.2207 88.1968C69.3591 87.8584 69.4944 87.5147 69.5957 87.1694C69.6203 87.0874 69.6399 86.9996 69.6367 86.9165C69.6331 86.822 69.5973 86.7123 69.4932 86.6382C69.4087 86.5781 69.3133 86.5688 69.2598 86.5659L69.0762 86.5679ZM92.1035 91.2837C90.404 79.1415 72.6587 79.101 70.9883 91.2837C70.9785 91.3552 71.0004 91.4275 71.0479 91.4819C71.0953 91.5364 71.1641 91.5679 71.2363 91.5679H91.8555C91.9278 91.5679 91.9974 91.5365 92.0449 91.4819C92.0922 91.4275 92.1134 91.3551 92.1035 91.2837ZM51.8389 60.5806C49.6192 61.3042 47.4628 61.3042 45.2432 60.5806C45.17 60.5567 45.0902 60.5678 45.0264 60.6108C44.9784 60.6432 44.9434 60.6904 44.9268 60.7446L44.917 60.8003L43.7861 76.9907C43.7786 77.1006 43.8442 77.2026 43.9473 77.2417C46.89 78.3579 50.5117 78.5735 53.3369 77.0063C53.4226 76.9588 53.4726 76.8658 53.4648 76.7681L52.165 60.7974C52.1588 60.7213 52.1182 60.6522 52.0547 60.6099C52.0068 60.578 51.9497 60.5638 51.8936 60.5688L51.8389 60.5806Z" fill="currentColor" stroke="white" stroke-width="0.5" stroke-linejoin="round"/>
<path d="M63.5732 33.2407L78.0547 52.8677C78.1923 53.3384 78.1746 53.7286 77.9678 54.1343L77.8643 54.314L77.8633 54.3149C77.8633 54.315 77.8622 54.3169 77.8594 54.3208C77.8564 54.3249 77.8529 54.3306 77.8477 54.3374C77.8368 54.3513 77.8221 54.3693 77.8037 54.3911C77.767 54.4346 77.7177 54.4903 77.6572 54.5571C77.536 54.6911 77.3729 54.8654 77.1816 55.0659C76.7993 55.4667 76.3062 55.9707 75.8115 56.4673C75.3169 56.9638 74.8216 57.4523 74.4336 57.8228C74.2393 58.0082 74.0729 58.1621 73.9482 58.2729C73.8858 58.3285 73.8359 58.3713 73.7988 58.4009C73.7813 58.4148 73.7683 58.4242 73.7598 58.4302C72.9842 58.7572 72.3211 58.4483 71.6787 57.855C71.357 57.5578 71.0554 57.2021 70.7637 56.8462C70.5486 56.5838 70.3359 56.3166 70.1289 56.0835L69.9238 55.8628L67.8916 53.811C63.1926 49.0957 58.4288 44.496 53.7822 39.7261L55.4189 37.7974L72.8574 55.3745C72.9043 55.4218 72.9686 55.4487 73.0352 55.4487C73.1017 55.4487 73.166 55.4218 73.2129 55.3745L75.1533 53.4146C75.2395 53.3275 75.2497 53.1904 75.1777 53.0913L62.6172 35.8013C62.5818 35.7527 62.5308 35.7193 62.4736 35.7056L62.415 35.6987H62.3955L62.3428 35.7036L55.877 37.0884L56.9209 34.2651L63.0479 33.0181L63.5732 33.2407Z" fill="currentColor" stroke="white" stroke-width="0.5" stroke-linejoin="round"/>
<path d="M13.5762 30.9478H40.3809L40.0654 33.4282H15.5459C15.4707 33.4283 15.399 33.4616 15.3516 33.52C15.3041 33.5785 15.2862 33.6563 15.3018 33.73C15.3239 33.8356 15.3231 34.0349 15.3105 34.3149C15.2987 34.5788 15.2778 34.9021 15.2715 35.2056C15.2652 35.5086 15.273 35.821 15.3271 36.0757C15.3709 36.2815 15.4623 36.5317 15.6797 36.6528L15.7803 36.6968L15.8193 36.7056L36.2295 39.7456C36.2759 39.7525 36.3233 39.7458 36.3662 39.7271L37.0264 39.437C37.0688 39.4184 37.1055 39.3882 37.1318 39.3501L40.293 34.7622C40.3473 35.0599 40.4307 35.3497 40.5293 35.6284V35.6294C40.5849 35.7907 40.6732 35.978 40.7646 36.1646C40.8589 36.3568 40.9568 36.5492 41.0469 36.7417C41.1366 36.9335 41.2114 37.11 41.2549 37.2603C41.2895 37.3798 41.2969 37.4585 41.2939 37.5054L41.2881 37.5425L41.2871 37.5435C41.2844 37.549 41.2767 37.5649 41.2607 37.5942C41.2388 37.6346 41.2077 37.6882 41.168 37.7544C41.0885 37.887 40.9783 38.0632 40.8467 38.269C40.5834 38.6806 40.2373 39.2069 39.8848 39.7329C39.5323 40.2587 39.1737 40.7833 38.8867 41.1938C38.7431 41.3993 38.618 41.576 38.5205 41.7085L38.3389 41.9409C37.9788 42.291 37.6801 42.4772 37.2324 42.4292H37.2314L13.4268 38.7271C13.1245 38.5737 12.9183 38.3189 12.833 37.9976L12.8037 37.8521L12.8027 37.8491L12.7744 37.6255C12.7125 37.04 12.6836 36.0345 12.6836 35.0083C12.6836 33.8399 12.7211 32.6786 12.7842 32.1284C12.8085 31.9301 12.9257 31.6164 13.0996 31.3521C13.1853 31.2218 13.2777 31.115 13.3672 31.0435C13.458 30.9708 13.5281 30.9478 13.5762 30.9478Z" fill="currentColor" stroke="white" stroke-width="0.5" stroke-linejoin="round"/>
<path d="M59.1943 0.62207C59.5223 0.558373 59.96 0.637804 60.4844 0.834961C61.0024 1.02976 61.5715 1.32778 62.1494 1.66113C62.7279 1.99481 63.3022 2.35651 63.8379 2.68262C64.3345 2.98488 64.8032 3.25606 65.1924 3.43164C65.3634 3.69718 65.4766 3.94138 65.5137 4.17969C65.5518 4.42563 65.5132 4.68249 65.3418 4.96973L65.5557 5.09766L65.3408 4.96973L65.335 4.98145L54.0576 26.4238L51.8066 25.2988L51.8213 25.0879L62.4365 5.0752C62.4911 4.97238 62.4672 4.84776 62.3838 4.77246L62.3447 4.74414L60.3652 3.55371C60.269 3.49589 60.1476 3.50978 60.0674 3.58301L60.0361 3.61816L47.8555 19.8779C47.8231 19.9212 47.8057 19.9743 47.8057 20.0283V20.5977C47.8057 20.6173 47.808 20.6372 47.8125 20.6562L47.833 20.7109L49.793 24.5781C48.8545 24.4605 48.0109 24.4994 47.0703 24.5967C46.969 24.2767 46.7941 23.9137 46.5947 23.542C46.347 23.0804 46.0419 22.567 45.7676 22.0791C45.4889 21.5834 45.237 21.105 45.0762 20.6826C44.9196 20.2714 44.8703 19.9617 44.918 19.7539L58.7676 0.885742L58.7666 0.884766C58.8775 0.737881 59.0036 0.661383 59.1953 0.623047L59.1943 0.62207Z" fill="currentColor" stroke="white" stroke-width="0.5" stroke-linejoin="round"/>
<path d="M46.4512 7.77783C47.1329 7.76458 47.7044 8.10716 47.9727 8.54443C48.1054 8.76096 48.1622 8.99578 48.1309 9.22412C48.1036 9.42224 48.008 9.6323 47.8115 9.83447L47.7207 9.92041C47.6777 9.95839 47.5945 10.0075 47.46 10.061C47.329 10.1131 47.1652 10.1638 46.9746 10.2124C46.5934 10.3096 46.1237 10.3943 45.6318 10.4722C44.7861 10.606 43.8567 10.72 43.2676 10.8354L43.0371 10.8853C36.2245 12.503 30.6243 17.394 27.7275 23.6685L27.4561 24.2798C27.326 24.5825 27.2126 24.9769 27.0977 25.3804C26.9807 25.791 26.8599 26.2196 26.7139 26.6157C26.5672 27.0135 26.4014 27.36 26.2021 27.6108C26.0303 27.8272 25.8445 27.9596 25.6338 28.0054L25.542 28.019C24.8438 28.0838 24.5046 27.8924 24.333 27.6304C24.144 27.3415 24.1012 26.8878 24.1797 26.3188C24.2965 25.4724 24.6612 24.503 24.9648 23.7642L25.2363 23.1147C26.8969 19.1363 29.9843 15.3434 33.7705 12.5229C37.4386 9.79053 41.7461 7.98257 46.0264 7.7915L46.4414 7.77783H46.4512Z" fill="currentColor" stroke="white" stroke-width="0.5" stroke-linejoin="round"/>
<path d="M64.8496 14.3037C65.0819 14.2618 65.4052 14.3659 65.8096 14.6357C66.2033 14.8985 66.6267 15.2868 67.041 15.7246C67.8682 16.5986 68.6272 17.6337 69.002 18.1533V18.1543C72.2899 22.7298 74.1124 28.6631 73.7959 34.3232C73.7603 34.9392 73.731 35.8264 73.5439 36.5977C73.3639 37.3398 73.0665 37.8573 72.5928 38.0078L72.4951 38.0332C71.8971 38.156 71.5771 38.039 71.3936 37.8555C71.1949 37.6569 71.0902 37.3184 71.0625 36.8652C71.0353 36.4195 71.0848 35.9125 71.1475 35.4268C71.2082 34.9559 71.2843 34.4857 71.2949 34.1572C71.4808 28.9709 70.0273 23.8466 67.0029 19.6416L66.7051 19.2373L66.5674 19.0654C66.2099 18.635 65.6022 18.0089 65.0645 17.4219C64.7517 17.0805 64.4588 16.7484 64.2363 16.4619C64.1252 16.3188 64.0346 16.1904 63.9688 16.0811C63.9345 16.0241 63.909 15.9762 63.8916 15.9375L63.8604 15.8477V15.8467L63.8428 15.7285C63.8172 15.4467 63.8984 15.1355 64.0654 14.8691C64.2448 14.5833 64.5061 14.3761 64.7939 14.3066L64.7949 14.3076L64.8496 14.3037Z" fill="currentColor" stroke="white" stroke-width="0.5" stroke-linejoin="round"/>
<path d="M48.5361 27.978C51.2784 27.978 53.4961 30.1966 53.4961 32.9282C53.496 35.6598 51.2783 37.8784 48.5361 37.8784C45.794 37.8784 43.5763 35.6597 43.5762 32.9282C43.5762 30.1966 45.7939 27.978 48.5361 27.978ZM48.5459 30.478C47.188 30.4782 46.0957 31.5702 46.0957 32.9282C46.0958 34.2861 47.188 35.3783 48.5459 35.3784C49.9039 35.3784 50.996 34.2862 50.9961 32.9282C50.9961 31.5809 49.9047 30.478 48.5459 30.478Z" fill="currentColor" stroke="white" stroke-width="0.5" stroke-linejoin="round"/>
<path d="M28.8232 45.2402C29.0206 45.2547 29.2233 45.3437 29.4365 45.502C29.671 45.676 29.9022 45.9222 30.1299 46.2061C30.3571 46.4894 30.5721 46.7982 30.7822 47.0947C30.9372 47.3134 31.0916 47.528 31.2422 47.7129L31.3916 47.8867V47.8877C32.7826 49.3997 34.4384 50.8743 36.1689 52.0078V52.0068C36.4319 52.1795 36.7862 52.356 37.1504 52.5361C37.5212 52.7195 37.9104 52.911 38.2656 53.1221C38.6223 53.334 38.9286 53.5563 39.1396 53.7939C39.3222 53.9996 39.422 54.2033 39.4355 54.4141L39.4365 54.5049C39.4156 54.8966 39.3264 55.1585 39.207 55.3301C39.0911 55.4964 38.9337 55.5967 38.7334 55.6445C38.3099 55.7457 37.7036 55.6121 37.0078 55.3193C35.6342 54.7413 34.1276 53.6393 33.5332 53.2061H33.5322C32.836 52.6959 31.3651 51.4211 30.0449 50.0674C29.3851 49.3908 28.7686 48.7002 28.3076 48.0801C28.0771 47.77 27.8883 47.4815 27.7529 47.2246C27.6502 47.0296 27.5825 46.8615 27.5479 46.7217L27.5244 46.5908C27.4888 46.2611 27.6213 45.926 27.8633 45.668C28.1055 45.4097 28.4394 45.2482 28.7754 45.248C28.7917 45.248 28.8076 45.2433 28.8232 45.2402Z" fill="currentColor" stroke="white" stroke-width="0.5" stroke-linejoin="round"/>
<path d="M60.5439 52.3037C61.2701 52.1627 61.7814 52.538 61.9531 53.0508C62.125 53.5645 61.9684 54.2665 61.2168 54.7803C60.6836 55.1389 59.8019 55.5736 59.0391 55.667C58.659 55.7135 58.341 55.6716 58.1104 55.5293C57.9179 55.4104 57.7539 55.2011 57.6738 54.833L57.6445 54.665L57.6387 54.585C57.6374 54.3961 57.7182 54.1853 57.8848 53.957C58.074 53.6978 58.3566 53.4409 58.6836 53.2061C59.3403 52.7344 60.1205 52.39 60.543 52.3027L60.5439 52.3037Z" fill="currentColor" stroke="white" stroke-width="0.5" stroke-linejoin="round"/>
<path d="M91.306 56.9329L83.3523 64.8867C83.1431 65.0956 82.9771 65.3438 82.8639 65.6169C82.7507 65.8901 82.6924 66.1828 82.6924 66.4785C82.6924 66.7742 82.7507 67.067 82.8639 67.3401C82.9771 67.6133 83.1431 67.8614 83.3523 68.0704C83.7742 68.4922 84.3464 68.7292 84.943 68.7292C85.5396 68.7292 86.1118 68.4922 86.5338 68.0704L94.4875 60.1144M99.3419 60.525L103.705 64.8878C104.126 65.3097 104.363 65.8819 104.363 66.4785C104.363 67.0751 104.126 67.6473 103.705 68.0693C103.283 68.4911 102.711 68.728 102.114 68.728C101.517 68.728 100.945 68.4911 100.523 68.0693L93.538 61.0853M87.5744 51.642L85.186 52.4363L82.801 48.4594L84.3918 46.8687L88.3698 49.2548L87.5744 51.642ZM87.5744 51.642L90.7582 54.8258" stroke="currentColor" stroke-width="1.5" stroke-linecap="round" stroke-linejoin="round"/>
<path d="M91.3058 56.9327C90.3563 54.5106 90.5419 51.3325 92.4994 49.375C94.4569 47.4175 98.0681 46.9888 100.056 48.1825L96.636 51.6025L96.3176 55.1023L99.8175 54.7851L103.238 51.364C104.432 53.353 104.003 56.9642 102.045 58.9206C100.088 60.8781 96.9105 61.0637 94.4884 60.1142" stroke="currentColor" stroke-width="1.5" stroke-linecap="round" stroke-linejoin="round"/>
</svg>
