<?xml version="1.0" encoding="UTF-8"?>
<svg id="Layer_2" data-name="Layer 2" xmlns="http://www.w3.org/2000/svg" viewBox="0 0 117.49 115.51">
  <defs>
  </defs>
  <g id="Layer_1-2" data-name="Layer 1">
    <g>
      <path d="M37.31,115.51l-.39-1.76c11.57-19.62,22.51-39.74,34.96-58.85,9.03-13.87,18.97-28.65,28.87-41.88,2.27-3.04,4.97-6.84,7.5-9.59,2.02-2.19,3.93-4.83,6.94-2.55,4.89,3.7.72,17.53-.57,22.83-6.59,27.14-17,57.75-29.27,82.81-1.45,2.97-2.64,6.11-5.69,7.82-.37.21-2.64,1.18-2.8,1.18h-39.55ZM41.28,112.73h33.98c1.54,0,4.22-1.93,5.14-3.21.56-.78,4.82-9.57,4.93-10.21.46-2.75-5.85-4.48-4.28-6.6,1.93-1.81,4.9-.72,7.26-1.11,4.51-4.74-.94-4.88-2.46-7.74-1.98-3.72,5.37-2.35,7.43-2.99,3.26-4.35-2.13-5.32-3.31-7.89-1.73-3.76,5.31-2.33,7.08-2.76,3.86-4.71-1.81-5.17-3.1-7.97-1.81-3.94,5.47-2.29,7.09-2.83,3.65-4.4-1.68-4.87-3.34-7.67-2.28-3.82,6.16-2.08,7.11-3.66,2.63-11.63,7.39-23.65,9.09-35.42.21-1.48,1.38-8.87-.88-8.86-1.45,0-10.22,11.87-11.66,13.81-21.02,28.37-42.34,61.32-58.96,92.46-.24.44-1.37,2.43-1.12,2.65Z" fill="currentColor"/>
      <path d="M24.98,73.58c-.4-1.31-3.68-.24-4.57-.28-26.98-1.23-26.8-55.15-1.95-57.9,6.83-.76,21.21-.62,28.17-.04,9.42.79,15.17,9.22,17.81,17.57,4.7,14.92-.63,38.37-18.75,40.49-.46.54.25,12.05-.02,14.09-.07.52-.51,1.77-1.01,1.77h-19.08l-.6-.6v-15.1ZM29.36,70.2h18.08c2.46,0,6.89-3.55,8.53-5.38,9.57-10.61,9.46-30.01.4-40.91-1.64-1.98-5.49-5.38-8.14-5.38h-18.68c-.09,0-.53-.76-.6-.19-.21.78.62.61,1.2,1.16,13.63,12.81,13.19,38.27-.8,50.7ZM18.53,18.64C-.93,21.17-2.58,62.05,15.58,69.08c14.58,5.64,22.05-14.37,21.72-25.7-.28-9.57-6.81-26.3-18.77-24.74ZM42.47,73.38h-14.71v12.52l.6.6h14.11v-13.12Z" fill="currentColor"/>
      <path d="M17.72,28.16c11.58-2.36,14.27,14.71,12.14,22.87-4.31,16.5-19.68,10.9-20.77-4.49-.4-5.67,1.99-17.03,8.63-18.39ZM18.11,31.34c-.97.22-2.22,1.54-2.87,2.3-4.37,5.13-4.42,15.09-.75,20.63,5.5,8.32,12.57.6,13.27-6.52.58-5.85-1.31-18.32-9.65-16.41Z" fill="currentColor"/>
    </g>
  </g>
</svg>
