<svg id="services-coating" width="83" height="89" viewBox="0 0 83 89" fill="none" xmlns="http://www.w3.org/2000/svg">
<path d="M30.2228 65.8043C24.9708 71.5243 19.7513 76.9388 14.2978 82.4703C12.4648 84.3358 10.1118 87.7484 7.38832 88.0733C2.58482 88.6453 -0.964183 84.2123 0.790817 79.6688C3.54032 74.2933 5.80882 68.6579 8.51932 63.2629C10.0793 60.1558 12.4843 57.8613 15.7278 56.5353C16.8718 56.0673 18.1653 55.8658 19.2833 55.4433C21.2658 54.6893 20.8823 53.6233 20.4663 51.9268C16.9758 37.6853 11.3143 23.6063 7.86932 9.28685C7.20632 4.45735 12.5038 0.758851 16.8458 3.15085C18.2043 3.89835 18.9453 5.13985 19.8358 6.35535C22.4163 9.91085 24.7433 13.6614 27.2393 17.2754C29.7353 20.8894 32.3808 24.1784 34.6233 27.7014C37.5743 32.3358 38.4518 36.9638 35.7543 41.9753C35.0458 43.2948 32.6473 46.0898 33.9343 47.4938C35.4748 49.1708 37.0608 49.1838 39.1538 49.5023C52.0108 51.4523 64.8548 53.8053 77.6793 56.0153C81.7093 57.0228 83.7373 60.6758 81.6118 64.4783C80.5003 66.4738 78.6738 67.0328 76.5548 67.4228C69.6518 68.6968 62.2938 69.3728 55.2998 70.3023C51.3543 70.8288 49.8268 71.4529 45.9658 69.6589C41.8643 67.7543 41.0843 65.7263 38.3153 62.7298C37.9643 62.3528 36.7618 61.3128 36.2808 61.2673C35.9493 61.2348 35.3123 61.9628 34.9483 62.2033C34.1553 62.7233 33.0113 62.9508 32.4588 63.3278C32.1273 63.5553 30.6583 65.3428 30.2293 65.8108L30.2228 65.8043ZM31.3408 47.0453C30.9638 43.3013 34.3893 40.8508 34.9353 37.2823C35.4813 33.7658 33.9863 31.1528 32.1403 28.3643C27.1288 20.7918 21.5193 13.5964 16.6248 5.93935C14.5903 4.24285 11.9513 4.50935 10.6253 6.90135C10.1703 7.72035 9.88432 8.44835 10.2158 9.38435L22.8258 51.5628C23.0598 51.8033 24.8278 49.4763 25.0163 49.3008C26.6413 47.7473 29.1438 47.0518 31.3473 47.0453H31.3408ZM36.4953 55.3523C36.4953 52.1023 33.8628 49.4633 30.6063 49.4633C27.3498 49.4633 24.7173 52.0958 24.7173 55.3523C24.7173 58.6088 27.3498 61.2414 30.6063 61.2414C33.8628 61.2414 36.4953 58.6088 36.4953 55.3523ZM37.9253 51.6928C39.1018 53.9353 38.9393 56.0608 38.2438 58.4008C38.1528 58.7063 37.8083 58.9728 37.9838 59.3043C40.7983 61.5663 42.4038 64.5368 45.4458 66.5648C47.6948 68.0598 49.4498 68.5863 52.1668 68.3263C58.0948 67.7608 64.4453 66.7533 70.3603 65.8693C72.5053 65.5508 75.1248 65.3038 77.1853 64.8228C79.0183 64.3938 80.1233 63.4838 79.9933 61.4428C79.8958 59.9478 79.3433 59.1808 77.9328 58.7258C74.9493 57.7768 70.5553 57.2178 67.3768 56.6393C57.8218 54.8843 48.1758 53.5128 38.6208 51.7123L37.9253 51.6993V51.6928ZM24.1843 68.9308L29.1438 63.4969C28.3508 63.1264 27.4798 63.0028 26.6868 62.5998C24.2623 61.3583 22.7738 58.8298 22.3058 56.2038C20.6873 57.9523 18.2368 58.1278 16.1568 59.0183C13.2123 60.2793 11.8278 62.0928 10.3718 64.8488C7.63532 70.0163 5.34082 75.7753 2.85782 81.0793C2.53932 84.0303 3.97582 86.0583 7.11532 85.5968C8.78582 85.3499 9.50082 83.9393 10.5668 82.8539C15.1168 78.2064 19.7708 73.6888 24.1908 68.9308H24.1843Z" fill="currentColor"/>
<path d="M65.0239 27.942C65.1279 27.838 64.5364 25.4785 64.5104 25.0365C64.4649 24.354 64.7639 23.3725 64.6794 22.9305C64.5364 22.2155 63.1064 20.714 62.6514 19.9275C60.9939 17.0675 61.5464 15.163 62.3849 12.1925C63.2234 9.22201 64.3414 6.40101 65.1604 3.46301C65.1799 2.93001 64.0879 2.53351 64.2829 1.57151C64.4779 0.609512 65.6284 0.746012 66.2979 0.921512C70.5879 2.05251 75.0274 3.67751 79.3564 4.89301C80.5459 5.22451 83.1134 5.25701 82.9639 6.94701C82.8729 7.98051 81.2739 7.68151 81.0984 7.92201C80.4939 10.8665 79.3499 13.6355 78.4204 16.476C77.8224 18.296 77.7184 19.8625 76.4444 21.468C75.3329 22.8655 73.4804 23.2035 72.0179 24.0095C70.1979 25.017 69.9444 27.617 67.2274 27.0255L67.2404 27.916C67.3964 28.098 71.0559 28.1565 71.6799 28.189C73.9484 28.293 76.8344 28.189 79.0054 28.4815C82.4244 28.943 83.6269 33.4475 80.7669 35.469C79.7659 36.184 78.4594 35.7615 78.4009 37.3345C78.8884 40.7795 79.9349 44.2375 80.4809 47.65C80.6824 48.9175 80.8644 49.6845 79.5449 50.3865C77.6079 50.4255 75.6709 50.354 73.7339 50.3865C72.9864 50.3995 71.1989 50.7895 70.5814 50.3215C70.2759 50.0875 69.9834 48.5405 69.8664 48.0725C69.1449 45.206 68.6834 42.2615 67.9619 39.395C67.8774 38.6865 66.5839 38.329 66.2589 38.914C65.7129 40.513 65.3619 42.3135 64.7769 43.88C64.2959 45.1605 63.0479 47.0325 61.4359 46.5645C60.6754 46.3435 60.1294 45.466 60.6364 44.777C61.0914 44.1595 62.0339 44.7055 62.4694 43.8995C62.8464 43.2105 63.4379 41.1695 63.6719 40.3245C63.8214 39.7785 63.9969 39.2195 63.9969 38.6475C63.7304 38.381 58.3159 39.1285 57.1589 38.5825C56.2099 38.134 56.6974 37.12 56.3919 36.8925C54.6564 37.4125 52.5699 35.599 52.4009 33.922C52.1929 31.868 53.3629 30.6915 55.0984 29.9375C55.3779 29.814 55.9694 29.775 56.1774 29.6255C56.3399 29.5085 56.2424 28.54 57.0679 28.163C57.1524 28.124 57.8284 27.9355 57.8739 27.9355H65.0369L65.0239 27.942ZM66.5774 25.1015C68.6314 25.368 68.6964 23.678 69.9444 22.7225C72.9604 20.4215 74.4424 21.871 76.0349 17.3275C77.1464 14.1555 77.9654 10.769 79.0769 7.57751L78.9729 7.09001L67.3574 3.54101L63.7369 15.215C63.4704 18.036 65.0759 19.219 66.2979 21.312C67.1754 22.8135 66.5644 23.509 66.5774 25.095V25.1015ZM72.3169 48.3325H78.1214C78.1799 48.3325 78.3359 48.131 78.3099 48.0205L76.2884 37.9065C76.0999 36.769 76.5289 35.508 77.3284 34.6955C78.5114 33.4995 80.5134 34.3965 80.1104 31.881C79.8439 30.1845 77.3089 30.581 76.0479 30.5225C71.2899 30.3015 66.4994 30.1 61.7349 29.996C60.5519 29.97 59.3624 30.0285 58.1794 29.996C58.1079 31.036 58.6084 32.0045 58.6929 33.0315C58.7904 34.1755 58.6279 35.4235 58.6929 36.5805C60.7664 36.3595 62.8724 36.457 64.9589 36.457C65.4919 36.457 66.1354 36.2945 66.6229 36.3205C67.8904 36.379 69.4439 36.899 69.8859 38.2315C70.8544 41.1435 71.0754 44.881 72.0179 47.845C72.0829 48.04 72.1414 48.196 72.3039 48.3325H72.3169ZM56.5089 34.4615V32.3945C56.5089 31.7965 54.6629 32.05 54.6369 33.298C54.6109 34.2795 55.6379 35.2545 56.5089 34.4615Z" fill="currentColor"/>
<path d="M50.1523 35.8457C51.3353 35.6507 51.9918 37.0417 50.8933 37.7502L43.6978 42.0402C42.3263 42.6252 41.3643 41.2732 42.5083 40.3372C44.7248 39.2322 46.8958 37.4057 49.0668 36.3137C49.3853 36.1512 49.8013 35.9042 50.1523 35.8457Z" fill="currentColor"/>
<path d="M42.6638 25.3873C42.9888 25.3158 43.5478 25.3223 43.8663 25.4198C45.3418 26.7133 50.2168 28.2993 51.2178 29.6838C51.9848 30.7498 50.7303 31.4583 49.6708 31.1008C47.5453 30.3793 44.8998 28.0848 42.6573 27.2788C41.8513 26.8823 41.6758 25.6148 42.6573 25.3938L42.6638 25.3873Z" fill="currentColor"/>
<path d="M43.0539 32.362C43.8729 32.2125 48.0004 32.1995 48.8259 32.336C49.8334 32.505 50.4704 33.4605 49.6774 34.3315C49.2354 34.819 46.6289 34.676 45.8619 34.6565C45.5564 34.65 45.2769 34.533 44.9714 34.52C44.2824 34.4875 43.4309 34.6175 42.7809 34.52C41.6174 34.338 41.6564 32.622 43.0604 32.362H43.0539Z" fill="currentColor"/>
</svg>
