<svg id="Layer_2" fill="none"  data-name="Layer 2" xmlns="http://www.w3.org/2000/svg" viewBox="0 0 100.15 126.78">
      <path d="M62.5,45.4c.66.71,1.94,2.22,2.64,2.71.14.09.17.23.41.16.84-1.36,2.29-2.41,3.38-3.62.91-1,.54-1.56,2.31-1.49,6.07.23,11.83,3.94,14.63,9.25.26.49,1.03,2.58,1.26,2.7l11.77.09c.72.1,1.08.77,1.23,1.4l.02,28.64c-.11,1.29-.43,1.75-1.74,1.88-5.76.57-12.43-.42-18.29,0l-.49.17c-.1.46-.21.93-.25,1.4-.61,7.73.18,16.63.01,24.54-.12,5.57.54,12.62-6.86,13.39-4.63.49-10.06-.3-14.77-.02-8.12-1.62-5.44-9.83-6.39-15.84v-5.94s-.33-3.61-.33-3.61c.15-2.53-.1-5.07-.16-7.57-.2-8.3.06-16.66-.65-24.95-.5-.09-.25.15-.34.39-1.12,2.95-1.87,5.98-2.44,9.09s.03,5.48-3.22,7.15c-2.53,1.3-5.2,0-6.21-2.52-1.1-2.75-.33-9.13.24-12.17,1.63-8.64,5.8-21.35,14.25-25.43,1.61-.78,6.18-2.35,7.85-2.02.6.12,1.66,1.72,2.13,2.23ZM53.78,77.08h14.74v-20.83c0-.11.85-1.07,1.07-1.07h14.16l.18-.34c-1.44-3.31-3.64-5.72-6.94-7.23-.99-.45-4.96-1.93-5.81-1.45-.06.03-.58.91-.77,1.12-.96,1.03-3.04,3.5-4.03,4.2-.47.33-.93.51-1.5.33-.39-.12-2.98-2.86-3.54-3.45-.43-.45-1.69-2.18-2.14-2.24-1.04-.13-4.57,1.1-5.62,1.62-7.99,3.96-12.85,20.13-13.4,28.43-.09,1.31-.26,6.21,1.19,6.72,3.37,1.18,3.09-3.83,3.43-5.72.59-3.27,1.47-6.61,2.62-9.73.47-1.28,2.59-6.65,3.88-6.83,1.6-.23,1.82,2.11,1.89,3.21.21,3.2.1,6.42.32,9.72.04.62-.19,3.4.25,3.54ZM91.41,57.81v7.82c0,.13-1.06,1.06-1.4.91-3.45-.25-7.32.32-10.72,0-.6-.06-1.05-.21-1.37-.77-.85-1.51.05-5.44-.18-7.39-.03-.24-.02-.42-.26-.57h-6.18v26.09c0,.06.21.25.17.41l.33-.08,7.24-6.76-2.78-2.32c-.36-.49.02-1.24.37-1.65.25-.29,3.44-2.86,3.72-2.94.61-.18,4.32-.16,4.95,0,1.22.31,5.73,4.86,6.28,6.07.28.62.47,1.42.21,2.08-1.66,1.76-3.02,4-5.1,5.27l.17.33h10.46v-26.26l-.25-.25h-5.68ZM88.61,57.81h-8.07v6.1h8.07v-6.1ZM85.91,74.35c-1.36-1.08-2.16-1.45-3.97-1.23-.46.06-2.45,1.12-2.22,1.48l6.5,6.43,2.73-3.37c0-.44-2.54-2.91-3.04-3.31ZM76.18,84.32h9.55s.3-.28.25-.33c-1.67.06-1.95-1.38-2.88-2.47-.34-.4-1.71-1.86-2.13-1.82-.38.04-1.41,1.3-1.83,1.65-.44.37-3.15,2.31-3.21,2.56l.25.41ZM66.54,123.83h4.2c.39,0,1.85-.13,2.27-.2,2.07-.38,3.15-2.42,3.4-4.34.09-7.35.1-14.7.18-22.05.03-3.07.54-6.49.18-9.55-.03-.24-.02-.42-.26-.57h-6.59c-.4,0-1.4-.75-1.4-1.07v-5.93l-.25-.25h-14.49c-.34.46-.08,1.43-.08,2.05.01,3.96.11,7.92.17,11.86.07,4.83.12,9.67.15,14.5.98,3.8-.7,10.33,1.23,13.58.5.84,1.56,1.59,2.52,1.76.39.07,1.76.2,2.1.2h3.87v-32.68s.4-.72.5-.81c.94-.88,2.17-.2,2.3.98v32.52Z" fill="currentColor"/>
      <path d="M9.16,1.91c3.83,3.31,7.6,11.19,9.74,15.86,5.82,12.71,10.99,29.11,11.74,43.09.68,12.7-.44,28.23-3.33,40.61-1.3,5.59-2.45,9.79-2.6,15.68-.06,2.43.51,5.64.16,7.9-.1.66-.7,1.46-1.4,1.57h-13.83c-2.18-.17-1.6-3.36-1.57-5.02.07-3.47.31-7.04-.36-10.49-1.12-5.81-5.65-9.55-6.22-15.84-.14-1.56.26-3.85,0-5.26-.1-.54-1.3-1.24-1.47-2.32v-26.66c.15-1.49,1.37-1.76,1.48-2.62V3.41C2.85-.92,6.03-.79,9.16,1.91ZM22.07,123.99c.08-2.66-.1-5.34,0-7.99.32-9.33,3.49-17.47,4.62-26.66,2.26-18.38,1.97-33.97-3.38-51.77C20.59,28.56,14.16,11.19,7.83,4.47c-.57-.6-2.41-2.33-3.23-1.41-.06.07-.48,1.1-.48,1.16v54l.25.25h11.86c.69,0,1.76,1.13,1.73,1.89l-.13,28.19c-.23.81-1.49,1.53-2.26,1.53H4.12v5.02c0,.57.86,3.28,1.12,3.98.85,2.28,2.29,3.98,3.31,6.08,2.74,5.65,2.43,11.82,2.33,17.93,0,.23-.06.44-.13.66l.21.24h11.12ZM15.15,66.21v-4.69l-.25-.25H2.97v26.18h11.94l.25-.25v-5.02c-2.21.27-2.47-2.42-.16-2.38l.16-4.43c-.07-.32-1.7-.11-1.77-1.37-.05-.99.95-1.27,1.76-1.21l-.16-4.2c-2.28-.17-2.13-2.34.16-2.38Z" fill="currentColor"/>
      <path d="M52.79,27.69c-1.41-.2-2.57-1.73-.95-2.6.61-.33,1.34-.27,1.95-.52-.02-2.31.28-4.18,1.33-6.24,4.25-8.3,15.88-8.66,20.48-.44,1.17,2.09,1.71,4.61,1.65,7,1.15.09,2.45.1,2.32,1.57-.06.65-1.01,1.23-1.58,1.23h-2.64c-.24.14-.23.33-.26.57-.46,3.88.7,5.4-1.97,9.06-5.35,7.33-16.98,3.53-17.63-5.26-.09-1.18.2-2.88,0-3.96-.03-.18-.08-.31-.25-.41-.78-.08-1.72.11-2.47,0ZM74.45,24.89c-.04-2.52-.59-4.95-2.22-6.92-3.02-3.65-7.93-4.33-11.83-1.61-2.75,1.91-4.09,5.22-3.9,8.53h17.95ZM58.31,27.69v4.69c0,.37.92,2.34,1.19,2.77,3.1,4.95,10.03,4.3,12.27-1.01.17-.4.71-1.94.71-2.25v-3.95l-.25-.25h-13.92Z" fill="currentColor"/>
</svg>
