<svg width="72" height="70" viewBox="0 0 72 70" fill="none" xmlns="http://www.w3.org/2000/svg">
<path d="M65.1666 69.4797C64.8741 69.7982 64.3086 69.8632 63.9056 69.7202C58.2506 64.1237 52.8491 58.2282 47.3306 52.4822C44.7761 49.8172 42.0851 47.2627 39.5501 44.5847C37.6326 42.5632 34.6036 39.8332 34.3761 36.9342C34.2656 35.5302 34.7856 34.4642 34.9871 33.1447C35.3966 30.4732 34.7336 28.0162 33.1866 25.8192L11.7691 4.21969C8.0771 0.995692 2.5196 4.82419 4.6841 9.36119C12.8481 20.8727 20.4726 32.7937 28.8316 44.1622C33.5896 50.6362 38.6791 56.8827 43.5021 63.3112C44.5096 64.6502 46.2386 66.6067 47.0056 67.9717C47.7726 69.3367 46.4401 70.3832 45.3871 69.4602L36.0661 57.2662C33.1216 58.1502 30.0406 57.2532 28.0971 54.8807C26.3031 52.6902 26.0821 50.0122 27.1286 47.4252C27.2846 47.0417 27.7461 46.6322 27.5836 46.2032C19.0946 34.2627 10.8201 22.1727 2.5521 10.0762C-0.0933967 3.96619 7.0631 -1.94231 12.5361 2.03569C20.2516 9.57569 28.1101 17.0897 35.3771 25.0587C36.7421 27.2752 37.5871 29.8882 37.3661 32.5207C37.2491 33.9052 36.4561 35.4652 36.5926 36.7977C36.6901 37.8052 37.4896 39.1117 38.2111 39.8072C44.2431 36.1152 50.8991 43.3107 47.2331 49.1282L47.2721 49.2972L65.1666 67.9522C65.5501 68.3747 65.5696 69.0442 65.1861 69.4732L65.1666 69.4797ZM40.9476 41.0487C40.7591 41.0812 39.8166 41.4517 39.8166 41.6012L45.5756 47.4967C47.2266 44.4027 44.4381 40.4572 40.9476 41.0487ZM34.5061 55.4007L29.1306 48.2767C27.3756 51.9167 30.6191 55.9012 34.5061 55.4007Z" fill="currentColor"/>
<path d="M68.2731 21.7954C67.2006 22.8614 65.6211 23.6999 64.1716 24.1094C63.5086 24.2979 62.0851 24.3499 61.6496 24.8244C59.4396 28.7374 57.4701 32.7869 55.2536 36.6934C54.4996 38.0259 53.8821 39.8004 51.9906 39.5339C51.4576 39.4559 49.3451 38.4874 48.7991 38.1884C47.4991 37.4669 47.3886 36.5309 47.7266 35.1269L52.8941 20.7294C53.0371 19.7544 52.5366 19.5854 52.1856 18.8639C49.8391 14.0149 51.6981 8.15837 56.4431 5.62337C57.5286 5.04487 61.5846 3.44587 61.0386 6.07187C60.6551 7.30037 58.7896 10.2514 58.8676 11.3954C58.9131 12.0584 60.3366 13.9564 60.8956 14.3009C61.5066 14.6844 63.1121 14.6649 63.8531 14.5804C64.5551 14.5024 65.0621 14.1579 65.4521 13.5859C66.1931 12.5004 67.1681 9.67287 67.9351 8.94487C69.2091 7.73587 70.0606 9.56237 70.4571 10.5634C71.9521 14.3139 71.1721 18.9159 68.2731 21.7889V21.7954ZM68.7086 12.3834C67.3761 14.2814 66.8236 16.5174 64.1066 16.7839C63.2551 16.8684 60.9151 16.8814 60.1936 16.5564C59.3811 16.1859 57.2361 13.5599 56.9501 12.6694C56.2546 10.4984 57.2166 9.43237 57.8211 7.45637C54.4606 9.12037 52.7706 12.7019 53.6091 16.4004C54.0446 18.3374 55.4551 18.9614 55.0716 21.2234L49.7871 36.0239C49.7806 36.1409 49.8456 36.2059 49.9236 36.2839C50.0146 36.3814 52.2766 37.3954 52.3936 37.3304L60.0376 23.3294C61.3896 21.9449 63.4371 22.1724 65.1336 21.3014C68.2731 19.6894 69.5991 15.6919 68.7151 12.3834H68.7086Z" fill="currentColor"/>
<path d="M1.56406 28.4778C2.00606 28.3803 2.51956 28.5038 2.75356 28.9198C3.10456 29.5438 2.66256 32.1633 2.63656 33.0473C2.11656 50.2723 15.2661 65.7553 32.5041 67.4518C33.4011 67.5428 35.4096 67.4323 36.0726 67.6403C37.1451 67.9718 37.1646 69.6358 35.8711 69.7853C30.5151 70.4093 22.6956 67.5623 18.0936 64.8843C6.11406 57.8903 -1.45844 43.5383 0.699564 29.5698C0.771064 29.1018 1.05056 28.5948 1.55756 28.4843L1.56406 28.4778Z" fill="currentColor"/>
<path d="M38.1718 24.9159C37.9508 24.6559 37.8208 24.0579 38.0353 23.7589C38.7568 22.8879 41.6818 17.5449 42.3708 17.3369C43.2223 17.0834 44.0868 17.7204 43.9113 18.6044C42.6438 20.4179 41.5193 22.7579 40.1868 24.4739C39.7058 25.0914 38.8153 25.6764 38.1718 24.9094V24.9159Z" fill="currentColor"/>
<path d="M46.9081 24.9806C48.0391 24.8701 48.5461 26.2676 47.4541 27.0801C46.9926 27.4246 42.7416 29.6931 42.2866 29.8101C40.8501 30.1871 40.0831 28.7506 41.2531 27.8731C42.0981 27.2426 44.1066 26.2936 45.1271 25.7866C45.5496 25.5786 46.5051 25.0131 46.9081 24.9741V24.9806Z" fill="currentColor"/>
</svg>
