<?xml version="1.0" encoding="UTF-8"?>
<svg version="1.1" xmlns="http://www.w3.org/2000/svg" width="300" height="87">
<path d="M0 0 C1.52971436 0.00858032 1.52971436 0.00858032 3.09033203 0.01733398 C15.03330883 0.30051011 24.09768295 4.20891288 32.75 12.5 C41.89465749 22.68800767 45.25277299 33.67161093 45 47.2265625 C44.08553123 59.20038793 38.75623974 70.47269936 29.75 78.5 C16.43045662 87.59452693 4.5632242 88.87743851 -11.25 87.5 C-22.08101772 85.12138017 -31.12191762 78.16182108 -37.1875 69 C-42.20350937 60.81663337 -43.8127442 53.81456955 -43.75 44.25 C-43.74355469 43.22946533 -43.73710938 42.20893066 -43.73046875 41.1574707 C-43.42898451 28.72818808 -39.18677826 19.25501328 -30.25 10.5 C-20.64286292 3.07757631 -12.06516464 -0.07816533 0 0 Z M-13.25 19.5 C-15.37392507 20.29708452 -15.37392507 20.29708452 -16 22.1875 C-16.33937645 25.32673219 -15.37469641 27.58902106 -14.25 30.5 C-16.23 30.5 -18.21 30.5 -20.25 30.5 C-21.7842447 34.07990429 -22.39703626 35.91185494 -21.4375 39.75 C-20.74644613 41.35033528 -20.02956763 42.94086473 -19.25 44.5 C-18.59 44.5 -17.93 44.5 -17.25 44.5 C-17.146875 45.263125 -17.04375 46.02625 -16.9375 46.8125 C-16.18965597 49.73589031 -15.64335648 50.72714335 -13.25 52.5 C-11.14667109 53.21447643 -11.14667109 53.21447643 -9.25 53.5 C-8.981875 54.44875 -8.71375 55.3975 -8.4375 56.375 C-7.08956113 61.09763473 -5.66901498 65.79833036 -4.25 70.5 C-2.2100281 69.13676257 -2.2100281 69.13676257 -0.25 67.5 C-0.25 66.84 -0.25 66.18 -0.25 65.5 C-1.57 65.17 -2.89 64.84 -4.25 64.5 C-4.27694851 62.54174127 -4.29637218 60.58337774 -4.3125 58.625 C-4.32410156 57.53445312 -4.33570312 56.44390625 -4.34765625 55.3203125 C-4.25 52.5 -4.25 52.5 -3.25 50.5 C-1.33364783 50.44576362 0.58314925 50.40710037 2.5 50.375 C3.56734375 50.35179688 4.6346875 50.32859375 5.734375 50.3046875 C8.75779383 50.50050478 10.14784435 51.08893415 12.75 52.5 C15.00482209 52.91269789 15.00482209 52.91269789 17.3125 53.0625 C20.07084619 53.29042405 22.09052665 53.61350888 24.75 54.5 C25.98267348 53.49163938 25.98267348 53.49163938 25.84765625 51.43359375 C25.83605469 50.60988281 25.82445312 49.78617188 25.8125 48.9375 C25.80347656 48.11121094 25.79445312 47.28492187 25.78515625 46.43359375 C25.77355469 45.79550781 25.76195312 45.15742187 25.75 44.5 C25.09 44.5 24.43 44.5 23.75 44.5 C23.42 46.48 23.09 48.46 22.75 50.5 C11.36925676 47.7847973 11.36925676 47.7847973 5.875 45.8125 C2.39715246 44.59620359 -0.53428902 44.21417608 -4.25 44.5 C-3.755 44.066875 -3.26 43.63375 -2.75 43.1875 C-0.91781808 41.50259517 -0.91781808 41.50259517 -1.25 38.5 C-1.91 38.17 -2.57 37.84 -3.25 37.5 C-3.4975 36.675 -3.745 35.85 -4 35 C-4.4125 34.175 -4.825 33.35 -5.25 32.5 C-8.30272465 31.60169161 -8.30272465 31.60169161 -11.25 31.5 C-10.899375 30.613125 -10.54875 29.72625 -10.1875 28.8125 C-9.23244398 25.43796874 -9.27848868 23.80313848 -10.25 20.5 C-11.24 20.17 -12.23 19.84 -13.25 19.5 Z " fill="#FFFFFF" transform="translate(43.25,-0.5)"/>
<path d="M0 0 C2.31 0 4.62 0 7 0 C7.83764268 1.95649397 8.66999059 3.91525556 9.5 5.875 C9.9640625 6.96554688 10.428125 8.05609375 10.90625 9.1796875 C12 12 12 12 12 14 C12.66 14 13.32 14 14 14 C15.81975482 8.87160006 13.8599099 4.82315618 12 0 C16.66666667 0 21.33333333 0 26 0 C25.09205021 5.70711297 25.09205021 5.70711297 24.3125 8.1875 C23.72786063 10.3371308 23.72786063 10.3371308 26 13 C27.98 8.71 29.96 4.42 32 0 C34.31 0 36.62 0 39 0 C39.495 0.495 39.495 0.495 40 1 C41.33421842 0.67022719 42.66734169 0.33602191 44 0 C45.8098648 -0.11598239 47.62396634 -0.17492348 49.4375 -0.1875 C50.82775391 -0.20876953 50.82775391 -0.20876953 52.24609375 -0.23046875 C56.33040848 0.11133915 59.09347247 1.09347247 62 4 C62.33 2.68 62.66 1.36 63 0 C66.08325358 -0.0582253 69.16636505 -0.09367134 72.25 -0.125 C73.55904297 -0.15013672 73.55904297 -0.15013672 74.89453125 -0.17578125 C75.73886719 -0.18222656 76.58320313 -0.18867187 77.453125 -0.1953125 C78.22817383 -0.20578613 79.00322266 -0.21625977 79.80175781 -0.22705078 C82.25883539 0.02673444 83.87311542 0.77555848 86 2 C86.33 1.34 86.66 0.68 87 0 C88.98 0 90.96 0 93 0 C93 2.31 93 4.62 93 7 C96.43793339 6.81870185 96.43793339 6.81870185 100 6 C101.46804363 4.14853436 101.46804363 4.14853436 102 2 C102.33 1.34 102.66 0.68 103 0 C105.64 0 108.28 0 111 0 C110.57976249 2.94166258 110.09339718 3.91209677 107.875 6 C105.77914401 7.77866905 105.77914401 7.77866905 106 9.9375 C106.99964921 12.19571108 106.99964921 12.19571108 109.0625 14.5625 C111 17 111 17 111 20 C107.8125 20.375 107.8125 20.375 104 20 C102.28859531 18.03814584 100.62126675 16.03697617 99 14 C95.82437198 13.03701276 95.82437198 13.03701276 93 13 C93 15.31 93 17.62 93 20 C88.71 20 84.42 20 80 20 C79.67 18.35 79.34 16.7 79 15 C74.05 14.505 74.05 14.505 69 14 C69 15.98 69 17.96 69 20 C67.02 20 65.04 20 63 20 C62.505 18.02 62.505 18.02 62 16 C61.54625 16.474375 61.0925 16.94875 60.625 17.4375 C57.34748777 20.58895406 53.99262798 20.21716776 49.6875 20.25 C48.37136719 20.27578125 47.05523437 20.3015625 45.69921875 20.328125 C41.84442087 19.98619995 39.99500725 19.39934595 37 17 C35.6875 13.8125 35.6875 13.8125 35 11 C34.72285156 11.56589844 34.44570312 12.13179687 34.16015625 12.71484375 C33.79792969 13.44832031 33.43570313 14.18179688 33.0625 14.9375 C32.70285156 15.66839844 32.34320313 16.39929688 31.97265625 17.15234375 C31 19 31 19 30 20 C22.54135338 20.36090226 22.54135338 20.36090226 19 18 C18.34 18.66 17.68 19.32 17 20 C11.95831849 20.82650517 11.95831849 20.82650517 9 20 C6.64371964 17.68063265 5.38056996 14.97731458 4 12 C3.60683594 11.19820312 3.21367187 10.39640625 2.80859375 9.5703125 C0 3.60082753 0 3.60082753 0 0 Z M42 9 C42.25146579 11.13745922 42.45925779 12.45925779 44 14 C45.85287502 14.07226502 47.70833878 14.0838122 49.5625 14.0625 C50.57441406 14.05347656 51.58632812 14.04445313 52.62890625 14.03515625 C53.41136719 14.02355469 54.19382812 14.01195312 55 14 C56.12516085 12.16715557 56.12516085 12.16715557 57 10 C56.67 9.01 56.34 8.02 56 7 C53.67313547 5.83656773 52.15278587 5.80104012 49.5625 5.75 C48.38880859 5.71132813 48.38880859 5.71132813 47.19140625 5.671875 C44.49201597 6.07606178 43.60882716 6.83044155 42 9 Z M69 6 C69 6.99 69 7.98 69 9 C72.63 9 76.26 9 80 9 C80 8.01 80 7.02 80 6 C76.37 6 72.74 6 69 6 Z M86 10 C87 13 87 13 87 13 Z " fill="#FFFFFF" transform="translate(180,33)"/>
<path d="M0 0 C1.20366211 0.00483398 1.20366211 0.00483398 2.43164062 0.00976562 C3.68170898 0.02233398 3.68170898 0.02233398 4.95703125 0.03515625 C5.80201172 0.03966797 6.64699219 0.04417969 7.51757812 0.04882812 C9.6015928 0.06060222 11.68557102 0.07853735 13.76953125 0.09765625 C13.76953125 2.07765625 13.76953125 4.05765625 13.76953125 6.09765625 C11.78953125 6.42765625 9.80953125 6.75765625 7.76953125 7.09765625 C9.74953125 7.75765625 11.72953125 8.41765625 13.76953125 9.09765625 C14.09953125 6.12765625 14.42953125 3.15765625 14.76953125 0.09765625 C16.74953125 0.09765625 18.72953125 0.09765625 20.76953125 0.09765625 C20.76953125 2.40765625 20.76953125 4.71765625 20.76953125 7.09765625 C25.95367981 6.12880275 25.95367981 6.12880275 29.5390625 2.55859375 C31.76953125 0.09765625 31.76953125 0.09765625 35.265625 -0.6015625 C45.74570125 -0.57040271 45.74570125 -0.57040271 48.79296875 1.41796875 C50.08203125 3.03515625 50.08203125 3.03515625 51.76953125 6.09765625 C52.42953125 6.42765625 53.08953125 6.75765625 53.76953125 7.09765625 C54.03765625 6.49953125 54.30578125 5.90140625 54.58203125 5.28515625 C56.62027752 1.53049207 56.62027752 1.53049207 58.76953125 0.09765625 C61.48768411 -0.15532035 64.02865074 -0.03714115 66.76953125 0.09765625 C65.33454752 3.30653946 63.55209138 5.67572609 61.20703125 8.28515625 C60.58699219 8.97996094 59.96695313 9.67476562 59.328125 10.390625 C58.49094356 11.30753801 57.64748405 12.21970345 56.76953125 13.09765625 C56.40192394 15.42583589 56.06711544 17.75949475 55.76953125 20.09765625 C53.78953125 20.09765625 51.80953125 20.09765625 49.76953125 20.09765625 C49.60453125 19.12828125 49.43953125 18.15890625 49.26953125 17.16015625 C47.77477972 11.79663605 43.7926037 7.79385406 39.76953125 4.09765625 C39.10953125 4.09765625 38.44953125 4.09765625 37.76953125 4.09765625 C36.38720682 5.72392029 35.0501561 7.39015645 33.76953125 9.09765625 C34.90527535 11.65308048 36.11825652 13.52843453 37.89453125 15.72265625 C39.76953125 18.09765625 39.76953125 18.09765625 39.76953125 20.09765625 C34.57027288 20.62639439 34.57027288 20.62639439 31.76953125 20.09765625 C30.03479413 18.15640281 28.36496615 16.15492757 26.76953125 14.09765625 C23.59390323 13.13466901 23.59390323 13.13466901 20.76953125 13.09765625 C20.76953125 15.40765625 20.76953125 17.71765625 20.76953125 20.09765625 C10.76953125 20.09765625 0.76953125 20.09765625 -9.23046875 20.09765625 C-9.23046875 18.11765625 -9.23046875 16.13765625 -9.23046875 14.09765625 C-7.58046875 13.76765625 -5.93046875 13.43765625 -4.23046875 13.09765625 C-4.86984375 12.91203125 -5.50921875 12.72640625 -6.16796875 12.53515625 C-8.23046875 11.09765625 -8.23046875 11.09765625 -9.10546875 7.66015625 C-9.23046875 4.09765625 -9.23046875 4.09765625 -7.23046875 1.09765625 C-4.46481493 0.17577164 -2.84763173 -0.02019597 0 0 Z " fill="#FFFFFF" transform="translate(105.23046875,32.90234375)"/>
<path d="M0 0 C1.32 0 2.64 0 4 0 C5.58200941 3.16401881 5.06168567 6.53874837 5 10 C5 10.99 5 11.98 5 13 C5 15 5 17 5 19 C3.00045254 19.04254356 0.99958364 19.04080783 -1 19 C-2.97299514 17.02700486 -2.18499989 13.31511482 -2.1875 10.625 C-2.19974609 9.93921875 -2.21199219 9.2534375 -2.22460938 8.546875 C-2.23552331 4.80703203 -2.1266842 3.1900263 0 0 Z " fill="#FFFFFF" transform="translate(295,34)"/>
<path d="M0 0 C3.96 0 7.92 0 12 0 C12 1.98 12 3.96 12 6 C8.04 6 4.08 6 0 6 C0 4.02 0 2.04 0 0 Z " fill="#FFFFFF" transform="translate(170,40)"/>
</svg>
