<?xml version="1.0" encoding="UTF-8"?>
<svg id="Layer_2" data-name="Layer 2" xmlns="http://www.w3.org/2000/svg" viewBox="0 0 188.59 248.47">
  <defs>
    <style>
      .cls-1 {
        fill: #014754;
      }
    </style>
  </defs>
  <g id="Layer_1-2" data-name="Layer 1">
    <g>
      <path class="cls-1" d="M77,217.51v15.5c0,.31-1.37,1.42-1,2.5h22c1.74-5.91-2.34-19.79-.85-24.35.97-2.97,5.85-1.52,5.85-.15v23c4.21,4.24,24.97-1.24,27.56,2.44s-3.33,4.87-6.01,5.1c-16.46,1.45-54.97,1.82-70.97-.15-5.32-.66-4.52-5.89-1.94-6.76,3.84-1.3,12.76,2.47,17.9.49l1.46-1.13v-15.5l-11.97-1.53-26.02,27.04c-10.89,9.95-25.87,2.14-22.78-12.78,1.65-7.97,24.77-25.08,30.29-32.76.29-4.9-1-9.23-.41-14.36,1.97-17.35,19.1-28.97,36.12-26.34s-8.38,15.91-10.02,21.43c-1.5,5.04,1.09,11.6,5.81,13.78,9.64,4.44,17.57-19.61,26.99-14.98,3.87,1.9,1.55,13.78.51,17.52-2.98,10.76-11.35,20.03-22.52,21.98ZM73,163.52c-11.5-1.76-24.82,8.34-26.76,19.73-1.06,6.21,1.14,11.35.25,17.24-7.43,9.66-22.39,19.47-28.92,29.09-5.62,8.28.09,15.17,8.99,11.98l30.48-31.59c2.18-.98,7.91,2.29,11.49,2.54,15.34,1.04,26.45-12.37,26.47-27-4.86,1.67-12.65,13.22-16.51,13.97-7.88,1.54-11.96-2.73-16.96-7.99l-.31-16.27,11.79-11.7Z"/>
      <path class="cls-1" d="M97,122.51c2.08,14.57,2.18,29.29,1.99,44-1.29-.07-2.9.35-4.05-.45-2.71-1.88-2.28-35.93-2.94-41.56l-7.55-.74c-1.04.18-1.33,1.3-1.46,2.24-.68,4.75-.31,11.11-1,15.99-.43,3.03-.33,9.1-4.34,8.32l-2.42-2.42,1.76-14.89-.48-8.48c-19.58,13.16-41.06,33.61-61.85,44.16-9.54,4.85-19.08,3.97-12.47-8.47,4.44-8.34,39.81-43.72,48.12-47.88,5.81-2.91,14.21-4.48,20.61-5.89-.2-3.63,1.2-7.3,3.24-10.27,1.82-2.65,5.68-4.61,6.33-5.67,2.25-3.71-.46-65.48.52-76.48,1.16-13.03,9.24-21.01,15.46-5.49,4.39,10.94,10.99,41.75,12.25,53.75,1.3,12.46-3.59,17.91-9.58,27.9-.18,1.91,4.5,4.87,5.71,6.98,1.49,2.58,1.64,6.93,2.65,8.35.59.82,13.26,4.97,15.85,6.15,14.01,6.35,29.9,15.02,43.31,22.69,5.06,2.89,28.07,13.84,20.35,21.7-1.07.8-2.28,1.2-3.59,1.4-9.32,1.45-55.83-11.84-64.97-16.89-6.8-3.76-12.15-13.34-17.92-17.08-1.23-.79-1.99-1.24-3.54-.95ZM89.99,6.5c-1.36-1.47-1.83.08-1.99,1.48-1.89,16.12-1.47,35.67-1.04,52.06.06,2.36,1,4.55,1.08,6.92.26,7.16-.28,14.39-.04,21.55,5.6,1.89,10.87-8.32,12.81-12.69,4.46-10.02-.16-22.78-2.3-33.33-2.45-12.07-5.64-24.03-8.52-35.99ZM100.97,106.51c0-6.56-5.32-11.87-11.87-11.87s-11.87,5.32-11.87,11.87,5.32,11.87,11.87,11.87,11.87-5.32,11.87-11.87ZM182,151.5c-.27-1.33-1.67-2.08-2.68-2.81-8.71-6.33-23.41-13.52-33.3-18.7-12.98-6.79-26.19-13.64-40.01-18.48l-2.56,7.02c4.73,3.9,8.85,9.75,13.54,13.5,8.39,6.7,27,11.36,37.8,14.2,8.81,2.32,18.12,5.15,27.22,5.27ZM6,165.5c1.77,1.38,15.19-8.09,17.72-9.77,17.5-11.61,34.68-24.64,50.99-37.71-1.35-9.05-12.36-3.99-18.24-1.53-10.3,4.31-36.87,31.46-44.99,41.01-.73.85-5.89,7.69-5.49,8Z"/>
    </g>
  </g>
</svg>