<?xml version="1.0" encoding="UTF-8"?>
<svg id="Layer_2" data-name="Layer 2" xmlns="http://www.w3.org/2000/svg" width="100" height="100" viewBox="0 0 256.14 206.72">
  <defs>
  </defs>
  <g id="Layer_1-2" data-name="Layer 1">
    <g>
      <path d="M148.16,200.72l5.99-89.99c-1.41-1.64-14.83,14.13-17.04,5.5.04-3.56,10.24-7.52,11.59-10.54.7-1.57-.96-7.96-.1-12.02.93-4.37,3.53-6.18,6.14-9.39-.09-24.24-5.42-53.19-2.62-77.07.82-6.97,5.92-9.99,11.04-3.99,6.09,7.14,17.48,55.41,15.54,64.57-.97,4.61-5.03,10.49-7.43,14.63l.29,1.32c5.07,3.09,7.49,6.42,9.23,12.08,14.71,5.7,29.71,11.1,44.03,17.74,6.12,2.84,31.49,13.86,31.3,20.7-1.62,5.51-6.84,4.69-11.47,4.46-10.35-.53-50.2-9.46-58.02-14.97-4.63-3.26-8.04-10.53-12.99-13.99l6.5,90.98h18.5c1.98,0,1.99,6,0,6h-70c-1.99,0-1.98-6,0-6h19.5ZM160.16,81.73c1.95,0,3.84.48,5.51-.99.59-.52,6.7-12.8,7.01-13.98,1.86-7.1-4.56-31-6.81-39.25-1.73-6.34-3.43-15-7.71-19.78l1.99,74ZM174.18,97.78c0-5.62-4.56-10.18-10.18-10.18s-10.18,4.56-10.18,10.18,4.56,10.18,10.18,10.18,10.18-4.56,10.18-10.18ZM248.15,131.74l-68.98-30.02c-.26,1.82-1.43,2.98-.55,4.96.33.75,10.21,10.56,11.52,11.56,6.75,5.17,44.89,13.69,54.55,14.46,1.1.09,3.72.74,3.47-.97ZM154.16,200.72h20c-1.63-29.02-3.74-58.1-7.05-86.95l-6.94-1.05-6.01,88Z" fill="currentColor"/>
      <path d="M47.01,124.63c.95-.69,4.66-7.37,7.11-8.41-35.23-39.03,1.99-99.57,53.05-84.01,58.02,17.69,41.07,110.6-26.85,98.85-8.54-1.48-14.69-6.24-22.17-9.89-1.26,1.98-6.38,5.38-6.83,7.24-.6,2.47,2.84,7.72-1.15,10.8-11.24,10.11-21.03,23.89-31.97,34.03-3.44,3.19-8.46,5.31-12.96,2.9-7.3-3.92-6.03-10.9-1.9-16.76,2.76-3.91,27.85-30.2,31.33-32.67,6.38-4.52,11.82-1.71,12.35-2.1ZM136.54,80.96c0-24.85-20.15-45-45-45s-45,20.15-45,45,20.15,45,45,45,45-20.15,45-45ZM43.98,129.92c-1.27-.75-3.24-.16-4.37.76L7.11,164.17c-3.03,5.2.63,8.55,5.61,5.61,3.68-5.71,33.03-32.24,33.27-35.71.04-.64-1.74-3.99-2.01-4.15Z" fill="currentColor"/>
      <path d="M100.16,136.73c-3.11,5.22-7.81,9.38-10.79,14.7-.49.88-2.19,2.52-.71,3.29,10.85-7.56,22.79-14.6,32.98-23.02,2.62-2.17,9.09-10.58,11.83-9.87,3.37.88,2.63,3.56,1.14,5.83-3.45,5.27-38.39,30.95-44.41,32.59-17.73,4.83-1.72-27.25,9.97-23.52Z" fill="currentColor"/>
    </g>
  </g>
</svg>
