<?xml version="1.0" encoding="UTF-8"?>
<svg version="1.1" xmlns="http://www.w3.org/2000/svg" width="100" height="60">
<path d="M0 0 C33 0 66 0 100 0 C100 19.8 100 39.6 100 60 C67 60 34 60 0 60 C0 40.2 0 20.4 0 0 Z " fill="#F7F7F7" transform="translate(0,0)"/>
<path d="M0 0 C16.83 0 33.66 0 51 0 C50.67 0.66 50.34 1.32 50 2 C47.525 1.505 47.525 1.505 45 1 C44.90203125 1.55945313 44.8040625 2.11890625 44.703125 2.6953125 C43.77146849 7.69091894 42.60418227 12.55654207 41.1875 17.4375 C40.83333008 18.66355957 40.47916016 19.88961914 40.11425781 21.15283203 C39.93044556 21.78674866 39.7466333 22.42066528 39.55725098 23.0737915 C38.649689 26.21089428 37.75524138 29.3517283 36.859375 32.4921875 C34.90625 39.328125 32.953125 46.1640625 31 53 C30.34 53 29.68 53 29 53 C26.36692303 47.18354292 23.73432612 41.36686873 21.10205078 35.55004883 C20.20795361 33.57441376 19.31374966 31.59882701 18.41943359 29.62329102 C17.12829437 26.7711256 15.83754907 23.91878219 14.546875 21.06640625 C13.95444 19.75803551 13.95444 19.75803551 13.35003662 18.42323303 C10.87788391 12.95855198 8.42868846 7.4841369 6 2 C4.68 2 3.36 2 2 2 C2.50861572 3.12792969 3.01723145 4.25585938 3.54125977 5.41796875 C5.46369883 9.68189108 7.38496317 13.94634192 9.3059082 18.2109375 C10.13079295 20.04180662 10.95597847 21.87254027 11.78149414 23.703125 C14.52991525 29.79810384 17.27038866 35.89657298 20 42 C20.36180359 42.80824219 20.72360718 43.61648437 21.09637451 44.44921875 C22.09864926 46.69336831 23.09535973 48.93988907 24.08984375 51.1875 C24.53608849 52.18559692 24.53608849 52.18559692 24.99134827 53.20385742 C27 57.76908863 27 57.76908863 27 60 C18.09 60 9.18 60 0 60 C0 40.2 0 20.4 0 0 Z " fill="#FBFBFB" transform="translate(0,0)"/>
<path d="M0 0 C1.65 0 3.3 0 5 0 C10.3235142 10.40810739 15.31892203 20.91646568 20.01220703 31.62353516 C21.02185312 33.92480957 22.03989319 36.2222526 23.05859375 38.51953125 C23.70621994 39.98936719 24.35337454 41.45941103 25 42.9296875 C25.45451538 43.95447708 25.45451538 43.95447708 25.91821289 44.99996948 C28 49.76976414 28 49.76976414 28 52 C28.66 52 29.32 52 30 52 C30.11085938 51.03964844 30.22171875 50.07929687 30.3359375 49.08984375 C31.00240993 44.4535643 32.30207261 40.0479309 33.625 35.5625 C33.8842627 34.66958252 34.14352539 33.77666504 34.41064453 32.85668945 C35.26934597 29.90315352 36.13478537 26.95163393 37 24 C37.6515078 21.76315655 38.30253962 19.52617441 38.953125 17.2890625 C40.63050437 11.52460099 42.31337369 5.76176222 44 0 C45.65 0 47.3 0 49 0 C47.58921879 6.99891715 45.57687338 13.60663978 43.2265625 20.34375 C42.86154633 21.39405396 42.49653015 22.44435791 42.12045288 23.52648926 C41.35180588 25.72930282 40.58016216 27.93107278 39.80566406 30.13183594 C38.62064281 33.51243008 37.45874046 36.90045151 36.296875 40.2890625 C35.54568315 42.43278708 34.79312738 44.57603433 34.0390625 46.71875 C33.6941275 47.73529663 33.3491925 48.75184326 32.99380493 49.79919434 C32.66020966 50.73106567 32.32661438 51.66293701 31.98291016 52.62304688 C31.69582184 53.44639526 31.40873352 54.26974365 31.11294556 55.11804199 C30 57 30 57 27.87606812 57.77355957 C27.25696564 57.84828491 26.63786316 57.92301025 26 58 C20.49748501 47.38736799 15.61167332 36.54739053 10.83642578 25.59155273 C9.60970296 22.77740806 8.37754329 19.9656909 7.14453125 17.15429688 C6.35906443 15.35951089 5.57389679 13.56459393 4.7890625 11.76953125 C4.42245514 10.93210892 4.05584778 10.09468658 3.6781311 9.23188782 C3.34042694 8.45645126 3.00272278 7.68101471 2.65478516 6.88208008 C2.35835114 6.20260818 2.06191711 5.52313629 1.75650024 4.82307434 C1.10072849 3.24274351 0.54106212 1.62318635 0 0 Z " fill="#0D0D0D" transform="translate(1,1)"/>
<path d="M0 0 C2.83439137 -0.10901505 5.66450203 -0.18777904 8.5 -0.25 C9.29148437 -0.28351562 10.08296875 -0.31703125 10.8984375 -0.3515625 C16.77999868 -0.44798154 21.08401444 0.71207318 26 4 C29.74407512 7.74407512 30.29712053 10.87729347 30.5 16 C30.32918719 21.10540511 29.49508067 24.10548154 26 28 C25.54625 28.5775 25.0925 29.155 24.625 29.75 C19.7374185 33.50967808 13.97083748 33.25380659 8.125 33.125 C6.949375 33.11146484 6.949375 33.11146484 5.75 33.09765625 C3.83319945 33.07428063 1.91655809 33.03841653 0 33 C0 32.67 0 32.34 0 32 C1.17755859 31.94392578 1.17755859 31.94392578 2.37890625 31.88671875 C12.95157925 31.31794593 12.95157925 31.31794593 21.375 25.4375 C24.54744481 20.67883279 24.61476082 16.63675061 24 11 C21.60341522 5.93030143 19.09114613 4.12531336 14 2 C10.3491481 1.43084828 10.3491481 1.43084828 6.625 1.3125 C5.37976562 1.24675781 4.13453125 1.18101562 2.8515625 1.11328125 C1.44003906 1.05720703 1.44003906 1.05720703 0 1 C0 0.67 0 0.34 0 0 Z " fill="#0A0A0A" transform="translate(55,1)"/>
<path d="M0 0 C1.65 0 3.3 0 5 0 C3.66726378 6.5909335 1.82339127 12.75354153 -0.4765625 19.06640625 C-0.80667328 19.98590561 -1.13678406 20.90540497 -1.47689819 21.85276794 C-2.52117453 24.75787541 -3.57294942 27.66020005 -4.625 30.5625 C-5.33904124 32.54474199 -6.05258775 34.52716227 -6.765625 36.50976562 C-8.50470549 41.34192316 -10.25051125 46.17160156 -12 51 C-12.66 50.67 -13.32 50.34 -14 50 C-11.78290737 40.54475202 -9.21364966 31.28362332 -6.22558594 22.04248047 C-3.88392329 14.7588031 -1.88415395 7.41469996 0 0 Z " fill="#101010" transform="translate(45,1)"/>
<path d="M0 0 C0.33 0.66 0.66 1.32 1 2 C1.66 2.33 2.32 2.66 3 3 C1.02 8.61 -0.96 14.22 -3 20 C-3.66 19.67 -4.32 19.34 -5 19 C-4.35561067 16.39546825 -3.7095496 13.7913709 -3.0625 11.1875 C-2.88009766 10.44951172 -2.69769531 9.71152344 -2.50976562 8.95117188 C-1.7577385 5.92939016 -0.98514427 2.95543282 0 0 Z " fill="#262626" transform="translate(36,32)"/>
<path d="M0 0 C2.0625 0.4375 2.0625 0.4375 4 1 C4 2.65 4 4.3 4 6 C2.125 6.625 2.125 6.625 0 7 C-0.66 6.34 -1.32 5.68 -2 5 C-1.46428571 1.46428571 -1.46428571 1.46428571 0 0 Z " fill="#ACACAC" transform="translate(84,41)"/>
<path d="M0 0 C-0.33 0.66 -0.66 1.32 -1 2 C-6.61 2 -12.22 2 -18 2 C-18 1.67 -18 1.34 -18 1 C-17.16855469 0.93941406 -16.33710937 0.87882812 -15.48046875 0.81640625 C-13.85044922 0.69072266 -13.85044922 0.69072266 -12.1875 0.5625 C-11.10855469 0.48128906 -10.02960937 0.40007813 -8.91796875 0.31640625 C-1.47272727 -0.49090909 -1.47272727 -0.49090909 0 0 Z " fill="#1E1E1E" transform="translate(73,32)"/>
<path d="M0 0 C5.94 0 11.88 0 18 0 C18 0.99 18 1.98 18 3 C17.48953125 2.84660156 16.9790625 2.69320313 16.453125 2.53515625 C13.2250662 1.83094597 10.04581999 1.65111796 6.75 1.4375 C5.48671875 1.35371094 4.2234375 1.26992188 2.921875 1.18359375 C1.95765625 1.12300781 0.9934375 1.06242188 0 1 C0 0.67 0 0.34 0 0 Z " fill="#262626" transform="translate(55,1)"/>
<path d="M0 0 C2.35953094 2.35953094 2.49141413 3.77895617 3 7 C1.35 7 -0.3 7 -2 7 C-1.125 1.125 -1.125 1.125 0 0 Z " fill="#9E9E9E" transform="translate(62,53)"/>
<path d="M0 0 C2.475 0.495 2.475 0.495 5 1 C4.67 1.99 4.34 2.98 4 4 C3.01 4 2.02 4 1 4 C0.67 4.66 0.34 5.32 0 6 C0 4.02 0 2.04 0 0 Z " fill="#8E8E8E" transform="translate(38,53)"/>
<path d="M0 0 C0.99 0.33 1.98 0.66 3 1 C3 2.65 3 4.3 3 6 C1.68 6 0.36 6 -1 6 C-1.042721 4.33388095 -1.04063832 2.66617115 -1 1 C-0.67 0.67 -0.34 0.34 0 0 Z " fill="#898989" transform="translate(96,53)"/>
</svg>
