<?xml version="1.0" encoding="UTF-8"?>
<svg id="Layer_2" data-name="Layer 2" xmlns="http://www.w3.org/2000/svg" viewBox="0 0 215.19 203.87">
  <defs>
  </defs>
  <g id="Layer_1-2" data-name="Layer 1">
    <g>
      <path d="M171.97,5.23l-80.9.1v193.35l.3.3h80.11c.07,0,.3-.26.49-.2v-41.33c0-.25,1.13-1.41,1.43-1.53,1.73-.7,3.43.31,3.7,2.12v43.61c-.13,1.1-.89,1.9-1.92,2.22l-173.5-.05-1.62-1.34L0,1.68C.3.8.87.37,1.7.02l173.43-.02c.88.34,1.53,1,1.87,1.87l.1,70.55c-.19,2.17-3.12,3.1-4.55,1.58-.1-.11-.59-.93-.59-.99V5.23ZM85.74,5.03H5.04v193.96h80.7V5.03Z" fill="currentColor"/>
      <path d="M163.01,72c10.19,8,14.22,21,11.07,33.5-.2.78-.97,1.99-.63,2.72l38.97,38.97c9.23,13.31-6.53,28.34-19.52,17.94l-38.1-38.06c-.72-.34-1.73.43-2.48.67-12.67,4.08-25.44.61-34.22-9.35-7.15-8.1-10.21-21.2-6.4-31.47.87-2.35,1.87-4.41,4.66-2.56l16.09,15.74,11.32-1.86c.51-.91.26-1.83.38-2.74.4-3.05.93-6.15.94-9.24l-15.44-15.54c-1.62-3.03,1.82-4.28,4.19-4.87,10.01-2.49,21.09-.19,29.17,6.14ZM160.44,76.54c-6.54-5.52-15.15-7.65-23.59-6.2-.09.34.14.39.29.59,3.32,4.31,9.33,8.32,12.63,12.62,1.23,1.61.3,4.24.1,6.22-.28,2.73-.42,5.55-.79,8.28-.09.7-.31,2.53-.5,3.05-.34.97-1.52,1.36-2.41,1.54-3.2.62-6.59.95-9.79,1.45-1.37.21-4.98,1.17-6.09.93-.35-.08-.75-.42-1.05-.64-2.62-1.87-6.64-6.8-9.15-9.29-1.34-1.33-2.89-2.55-4.05-4.04-.42.19-.84,3.42-.89,4.05-1.35,19.62,17.66,34.44,36.36,27.67,1.81-.66,2.95-2.02,4.99-.94l39.27,39.07c7.62,6.91,18.2-1.02,13.2-10.04l-40.42-40.48c-1.25-2,.55-5.08,1.02-7.23,2.16-9.93-1.42-20.11-9.11-26.6Z" fill="currentColor"/>
      <path d="M135.38,160.62l-18.62,18.62c-1.66,1.53-4.45.11-4.2-2.07.16-1.4,1.65-2.21,2.48-3.05,5.02-5.04,10.04-10.08,15.1-15.09.85-.85,1.96-2.54,3.25-2.68,2.4-.27,3.8,2.56,2,4.27Z" fill="currentColor"/>
      <path d="M131.83,148.01l-14.09,14.07c-2.57,1.88-4.99-.64-3.68-3.33l14.31-14.3c2.63-1.68,5.13.91,3.46,3.56Z" fill="currentColor"/>
      <path d="M62.14,41.03c-8.78,8.9-17.62,17.65-26.42,26.55-2.56,1.88-5.35-.64-3.76-3.36l30.3-30.28c1.76-2.13,5.07-.38,4.49,2.12-.31,1.31-3.53,3.89-4.6,4.98Z" fill="currentColor"/>
      <path d="M50.69,67.51c-.97-.97-.82-2.17-.12-3.23,1-1.55,5.64-5.75,7.25-7.36,1.18-1.18,4.19-4.57,5.3-5.17,2.62-1.41,4.98,1.81,2.91,3.89l-12.25,12.22c-.89.58-2.33.39-3.08-.35Z" fill="currentColor"/>
      <circle cx="201.67" cy="154.64" r="2.86" fill="currentColor"/>
    </g>
  </g>
</svg>
