<?xml version="1.0" encoding="UTF-8"?>
<svg id="Layer_2" data-name="Layer 2" xmlns="http://www.w3.org/2000/svg" viewBox="0 0 220.3 180.1">
  <defs>
  </defs>
  <g id="Layer_1-2" data-name="Layer 1">
    <g>
      <path d="M187.06,22.5c-.43,1.39-2.97,1.76-4.36,1.56-.56-.12-1.64-2.35-1.64-2.56V6h-84v169h84v-43.5c0-1.98,6-1.99,6,0v48.5l-185.6.1-1.46-4.54L.97,2.41,2.56,0h183l1.5,1.5v21ZM91.52,5.95l-85.59.05.1,169.05,85.59-.05-.1-169.05Z" fill="currentColor"/>
      <path d="M141.48,57.42c8.34-8.35,19.66-22.23,28.56-28.94,1.42-1.07,2.67-2.39,4.61-2.5,1.25-.27,1.99.39,2.96.96.85.5,13.88,12.75,14.45,13.56,8.02,11.26-11.24,18.57-15.43,26.58-2.63,5.02-2.4,19.06-5.6,22.4-6.48,4.99-18.6,4.8-24.9,8.1s-14.15,18.96-21.86,16.8c-2.03-.57-17.07-14.77-18.28-16.83-.55-.93-1.24-1.56-.8-2.81.61-4.07,12.14-12.52,15.4-15.71,7.17-7.01,13.84-14.54,20.89-21.61ZM175.06,31.41l-64.06,64.06,5.59,5.59,64.06-64.06-5.59-5.59ZM166.83,85.77c2.72-6.56,1.87-16.08,5.38-22.12,2.18-3.75,16.45-15.39,16.78-17.29l-4.43-5.34-63.48,63.48,5.34,4.43c1.82-.32,12.71-13.69,16.28-15.78,6.27-3.66,17.3-3.67,24.12-7.37Z" fill="currentColor"/>
      <path d="M176.78,94.2c5.07-1.11,8.9,2.09,12.75,4.83,5.69,4.05,24.78,22.07,28.52,27.48,6.53,9.45-2.31,20.03-12.37,14.36-3.25-1.83-24.3-22.89-28.02-26.97-4.48-4.91-11.98-17.27-.88-19.7ZM176.07,100.02c-2.43,3.41,8.59,12,10.51,13.95,7.28,7.38,14.69,14.64,21.92,22.08,5.59,3.31,8.76-2.39,3.95-7.95s-15.74-15.74-21.38-20.62c-2.2-1.91-12.48-11.01-15-7.46Z" fill="currentColor"/>
      <path d="M65.57,55.25l3.24,3.24c.22,2.57-28.59,29.31-32.45,33.4-1.96.52-4.99-1.68-3.85-3.88l33.07-32.76Z" fill="currentColor"/>
      <path d="M30.31,67.74c-.61-.64-1.24-2.25-1.06-3.09.65-3.06,22.74-21.6,25.81-26.21,1.66-1.17,3.98,1.34,3.84,2.88l-25.83,27.19c-.81.35-2.22-.2-2.76-.77Z" fill="currentColor"/>
    </g>
  </g>
</svg>
